<?xml version="1.0" standalone="no"?>
<!DOCTYPE svg PUBLIC "-//W3C//DTD SVG 20010904//EN"
 "http://www.w3.org/TR/2001/REC-SVG-20010904/DTD/svg10.dtd">
<svg version="1.0" xmlns="http://www.w3.org/2000/svg"
 width="416.000000pt" height="416.000000pt" viewBox="0 0 416.000000 416.000000"
 preserveAspectRatio="xMidYMid meet">
<metadata>
Created by potrace 1.11, written by Peter Selinger 2001-2013
</metadata>
<g transform="translate(0.000000,416.000000) scale(0.100000,-0.100000)"
fill="#000000" stroke="none">
<path d="M0 2075 l0 -1755 2080 0 2080 0 0 1755 0 1755 -2080 0 -2080 0 0
-1755z m1674 611 c26 -8 72 -32 103 -53 152 -105 239 -286 250 -524 5 -102 3
-126 -16 -190 -39 -128 -126 -261 -211 -324 -89 -65 -133 -79 -250 -80 -97 0
-110 2 -171 31 -120 57 -222 186 -276 349 -23 69 -27 97 -27 210 -1 110 3 142
22 205 57 181 185 321 340 371 69 22 172 24 236 5z m2078 -64 c69 -34 93 -51
121 -89 71 -99 76 -197 15 -325 l-36 -76 30 -43 c78 -116 98 -194 74 -290 -20
-77 -51 -121 -122 -174 -130 -98 -352 -110 -517 -29 -80 39 -119 75 -155 142
-27 51 -32 70 -32 128 0 84 20 131 84 203 25 28 46 55 46 60 0 4 -16 30 -35
57 -36 50 -65 127 -65 174 0 94 77 208 174 257 83 42 133 53 237 49 89 -3 102
-6 181 -44z m-3005 6 c77 -28 161 -112 187 -186 25 -71 19 -179 -13 -244 -42
-87 -83 -128 -349 -357 -67 -58 -122 -111 -122 -119 0 -11 39 -13 223 -11 122
1 232 -1 243 -5 38 -12 46 -84 14 -116 -19 -19 -32 -20 -343 -19 -177 1 -335
4 -352 8 -35 7 -52 51 -36 92 5 15 110 117 233 227 289 258 338 321 338 433 0
95 -51 158 -146 180 -82 19 -146 -5 -239 -91 -68 -64 -77 -69 -98 -59 -67 35
-72 66 -22 131 44 58 124 117 189 140 76 26 218 24 293 -4z m2088 1 c6 -6 12
-137 15 -329 3 -201 9 -323 15 -329 6 -6 33 -14 60 -17 61 -8 85 -27 85 -69 0
-47 -19 -64 -78 -74 -29 -4 -58 -13 -65 -20 -6 -6 -15 -52 -18 -102 -4 -50
-12 -96 -18 -102 -19 -19 -100 -15 -115 5 -7 10 -16 57 -19 105 -4 68 -9 90
-23 100 -14 10 -73 13 -257 13 -234 -1 -240 -1 -263 21 -26 24 -40 75 -30 111
3 13 70 95 148 184 79 88 170 194 203 234 136 166 236 279 253 284 24 7 95 -3
107 -15z"/>
<path d="M1499 2430 c-63 -11 -130 -66 -166 -135 -6 -11 -18 -61 -28 -112 -15
-79 -16 -101 -5 -155 27 -142 110 -238 216 -253 56 -8 157 45 201 105 18 25
37 50 41 55 34 43 43 195 16 284 -44 149 -154 234 -275 211z"/>
<path d="M3435 2476 c-113 -49 -112 -195 2 -242 81 -34 204 -9 252 52 45 58
14 150 -62 184 -50 23 -147 26 -192 6z"/>
<path d="M3455 2011 c-163 -42 -194 -191 -55 -263 99 -53 249 -31 320 46 30
33 33 100 7 139 -38 58 -186 101 -272 78z"/>
<path d="M2628 2313 c-68 -72 -248 -307 -248 -324 0 -25 19 -28 156 -31 91 -2
125 1 138 11 14 12 16 36 14 194 -2 113 -7 182 -13 184 -6 2 -27 -14 -47 -34z"/>
</g>
</svg>
