<?xml version="1.0" standalone="no"?>
<!DOCTYPE svg PUBLIC "-//W3C//DTD SVG 1.1//EN" "http://www.w3.org/Graphics/SVG/1.1/DTD/svg11.dtd" >
<svg>
<metadata>
Created by FontForge 20090914 at Thu Jan 28 06:23:06 2021
 By www-data
Copyright (c) 2015 by Jakob Runge, under exclusive license to TypeMates, Runge Thomsen GbR. All rights reserved.
</metadata>
<defs>
<font id="Cera-Thin" horiz-adv-x="560" >
  <font-face 
    font-family="Cera Thin"
    font-weight="200"
    font-stretch="normal"
    units-per-em="1000"
    panose-1="2 11 2 0 0 0 0 0 0 0"
    ascent="808"
    descent="-192"
    x-height="480"
    cap-height="660"
    bbox="-93 -257 1255 1000"
    underline-thickness="30"
    underline-position="-100"
    unicode-range="U+0020-U+FB02"
  />
<missing-glyph horiz-adv-x="702" 
d="M599 0h-496v660h496v-660zM131 632l438 -604v604h-438z" />
    <glyph glyph-name="fi" unicode="fi" horiz-adv-x="513" 
d="M264 452l-130.998 -0.000976562v-452h-30v452h-70v28h70v145c0 24.667 3.5 45.667 10.5 63s16.667 31.333 29 42s26.666 18.334 42.999 23.001s34.166 7 53.499 7c17.333 0 34 -2 50 -6v-27l-23.5 3.5c-7 1 -15.167 1.5 -24.5 1.5c-14.667 0 -28.5 -1.66699 -41.5 -5
s-24.5 -9 -34.5 -17s-17.833 -19 -23.5 -33s-8.5 -31.333 -8.5 -52v-145h131v-28zM414.002 -0.000976562h-30v480h30v-480zM399.002 699.999c9.33301 0 17.333 -3.33301 24 -10s10 -14.667 10 -24s-3.33301 -17.333 -10 -24s-14.667 -10 -24 -10s-17.333 3.33301 -24 10
s-10 14.667 -10 24s3.33301 17.333 10 24s14.667 10 24 10z" />
    <glyph glyph-name="fl" unicode="fl" horiz-adv-x="513" 
d="M264 452l-130.998 -0.000976562v-452h-30v452h-70v28h70v145c0 24.667 3.5 45.667 10.5 63s16.667 31.333 29 42s26.666 18.334 42.999 23.001s34.166 7 53.499 7c17.333 0 34 -2 50 -6v-27l-23.5 3.5c-7 1 -15.167 1.5 -24.5 1.5c-14.667 0 -28.5 -1.66699 -41.5 -5
s-24.5 -9 -34.5 -17s-17.833 -19 -23.5 -33s-8.5 -31.333 -8.5 -52v-145h131v-28zM414.002 -0.000976562h-30v750h30v-750z" />
    <glyph glyph-name=".notdef" horiz-adv-x="702" 
d="M599 0h-496v660h496v-660zM131 632l438 -604v604h-438z" />
    <glyph glyph-name="space" unicode=" " horiz-adv-x="280" 
 />
    <glyph glyph-name="exclam" unicode="!" horiz-adv-x="270" 
d="M149 182h-28l-5 478h38zM134 68c10 0 19.167 -3.33301 27.5 -10s12.5 -16.667 12.5 -30c0 -12 -4.16699 -21.333 -12.5 -28s-17.5 -10 -27.5 -10c-9.33301 0 -18 3.33301 -26 10s-12 16 -12 28c0 13.333 4 23.333 12 30s16.667 10 26 10z" />
    <glyph glyph-name="quotedbl" unicode="&#x22;" horiz-adv-x="405" 
d="M130 420h-26l20 240h39zM270 420h-26l20 240h39z" />
    <glyph glyph-name="numbersign" unicode="#" horiz-adv-x="569" 
d="M187 445h226l29 215h30l-29 -215h95v-28h-99l-24 -174h101v-28h-105l-29 -215h-29l29 215h-227l-29 -215h-29l29 215h-95v28h99l23 174h-100v28h104l29 215h30zM159 243h227l23 174h-226z" />
    <glyph glyph-name="dollar" unicode="$" horiz-adv-x="534" 
d="M282 634c38.667 -2 71.333 -12.165 98 -30.498s49.334 -41.5 68.001 -69.5l-24 -18c-19.333 28 -40.166 49.167 -62.499 63.5s-48.833 22.166 -79.5 23.499v-252l35 -16c18.667 -9.33301 36.5 -19 53.5 -29s32 -21.333 45 -34s23.167 -26.834 30.5 -42.501
s11 -33.834 11 -54.501c0 -22.667 -4.5 -43.167 -13.5 -61.5s-21.5 -34 -37.5 -47s-34.667 -23.333 -56 -31s-44 -12.167 -68 -13.5v-113h-31v114c-46 3.33301 -85.833 17.5 -119.5 42.5s-61.834 56.5 -84.501 94.5l26 17c21.333 -36 46.333 -64.833 75 -86.5
s63 -34.167 103 -37.5v279l-21 10c-15.333 6.66699 -30.833 14.334 -46.5 23.001s-29.834 18.667 -42.501 30s-23.167 24.833 -31.5 40.5s-12.5 34.5 -12.5 56.5c0 21.333 4 40.333 12 57s19 31 33 43s30.333 21.333 49 28s38.667 11 60 13v118h31v-117zM281.999 317.002
v-265.004c20 0.666992 38.5 3.83398 55.5 9.50098s31.833 13.834 44.5 24.501s22.667 23.334 30 38.001s11 31.334 11 50.001c0 17.333 -3.16699 32.5 -9.5 45.5s-14.833 24.833 -25.5 35.5s-23.5 20.167 -38.5 28.5s-30.833 16.5 -47.5 24.5zM130.999 493.998
c0 -17.333 3.16406 -32.3311 9.49707 -44.998s14.833 -23.834 25.5 -33.501s22.834 -18.167 36.501 -25.5s27.834 -14.333 42.501 -21l6 -3v236c-14.667 -1.33301 -29.167 -4.33301 -43.5 -9s-27.166 -11.334 -38.499 -20.001s-20.5 -19.5 -27.5 -32.5
s-10.5 -28.5 -10.5 -46.5z" />
    <glyph glyph-name="percent" unicode="%" horiz-adv-x="794" 
d="M578 307c22 0 42.5 -4 61.5 -12s35.667 -19.167 50 -33.5s25.666 -31.166 33.999 -50.499s12.5 -40 12.5 -62s-4.16699 -42.667 -12.5 -62s-19.666 -36.166 -33.999 -50.499s-31 -25.5 -50 -33.5s-39.5 -12 -61.5 -12s-42.5 4 -61.5 12s-35.5 19.167 -49.5 33.5
s-25.167 31.166 -33.5 50.499s-12.5 40 -12.5 62s4.16699 42.667 12.5 62s19.5 36.166 33.5 50.499s30.5 25.5 49.5 33.5s39.5 12 61.5 12zM578 278c-18 0 -34.667 -3.33301 -50 -10s-28.5 -15.667 -39.5 -27s-19.667 -25 -26 -41s-9.5 -33 -9.5 -51s3.16699 -35 9.5 -51
s15 -29.667 26 -41s24.167 -20.333 39.5 -27s32 -10 50 -10s34.667 3.33301 50 10s28.666 15.667 39.999 27s20.166 25 26.499 41s9.5 33 9.5 51s-3.16699 35 -9.5 51s-15.166 29.667 -26.499 41s-24.666 20.333 -39.999 27s-32 10 -50 10zM215 670c22 0 42.5 -4 61.5 -12
s35.667 -19.167 50 -33.5s25.666 -31.166 33.999 -50.499s12.5 -40 12.5 -62s-4.16699 -42.667 -12.5 -62s-19.666 -36.166 -33.999 -50.499s-31 -25.5 -50 -33.5s-39.5 -12 -61.5 -12s-42.5 4 -61.5 12s-35.5 19.167 -49.5 33.5s-25.167 31.166 -33.5 50.499
s-12.5 40 -12.5 62s4.16699 42.667 12.5 62s19.5 36.166 33.5 50.499s30.5 25.5 49.5 33.5s39.5 12 61.5 12zM215 641c-18 0 -34.667 -3.33301 -50 -10s-28.5 -15.667 -39.5 -27s-19.667 -25 -26 -41s-9.5 -33 -9.5 -51s3.16699 -35 9.5 -51s15 -29.667 26 -41
s24.167 -20.333 39.5 -27s32 -10 50 -10s34.667 3.33301 50 10s28.666 15.667 39.999 27s20.166 25 26.499 41s9.5 33 9.5 51s-3.16699 35 -9.5 51s-15.166 29.667 -26.499 41s-24.666 20.333 -39.999 27s-32 10 -50 10zM223 0h-31l381 660h31z" />
    <glyph glyph-name="ampersand" unicode="&#x26;" horiz-adv-x="588" 
d="M264 670c20.667 0 39.1699 -3.49902 55.5029 -10.499s30 -16.333 41 -28s19.5 -25.167 25.5 -40.5s9 -31.333 9 -48c0 -18 -3.5 -35.167 -10.5 -51.5s-16.5 -32 -28.5 -47s-26.167 -29.5 -42.5 -43.5s-33.5 -27.667 -51.5 -41l179 -211
c16.667 23.333 33.334 48.166 50.001 74.499l52 82.5l26 -16l-55.5 -87c-17.667 -28 -35.167 -53.667 -52.5 -77l107 -126h-40l-86 101c-28 -33.333 -57.833 -60.166 -89.5 -80.499s-68.167 -30.5 -109.5 -30.5c-24.667 0 -48.334 3.83301 -71.001 11.5
s-42.834 18.5 -60.501 32.5s-31.834 31 -42.501 51s-16 42.667 -16 68c0 23.333 4.66699 44.833 14 64.5s21.666 38 36.999 55s32.833 33 52.5 48s40.167 29.833 61.5 44.5c-23.333 28.667 -43.166 56.5 -59.499 83.5s-24.5 56.5 -24.5 88.5c0 17.333 2.66699 34 8 50
s13.5 30.167 24.5 42.5s24.667 22.166 41 29.499s35.166 11 56.499 11zM242.003 21.001c37.333 0 70.333 9.33301 99 28s55.667 44 81 76l-186 219l-62 -48c-18.667 -14.667 -34.5 -29.167 -47.5 -43.5s-23.167 -29.5 -30.5 -45.5s-11 -33.333 -11 -52
c0 -21.333 4.33301 -40.333 13 -57s20.167 -30.667 34.5 -42s31 -20 50 -26s38.833 -9 59.5 -9zM166.003 537.001c0 -28.667 7.16797 -54.8311 21.501 -78.498s33.166 -49.5 56.499 -77.5c38 27.333 67.333 54.166 88 80.499s31 54.166 31 83.499
c0 26 -8.33301 48.167 -25 66.5s-41 27.5 -73 27.5c-34 0 -59 -10 -75 -30s-24 -44 -24 -72z" />
    <glyph glyph-name="quotesingle" unicode="'" horiz-adv-x="265" 
d="M130 420h-26l20 240h39z" />
    <glyph glyph-name="parenleft" unicode="(" horiz-adv-x="315" 
d="M285 705c-18.667 -10 -38 -24.6709 -58 -44.0039s-38.167 -45 -54.5 -77s-29.666 -71.333 -39.999 -118s-15.5 -102.334 -15.5 -167.001s5.16699 -120.334 15.5 -167.001s23.666 -86 39.999 -118s34.5 -57.667 54.5 -77s39.333 -34 58 -44l-12 -24
c-21.333 10.667 -43 25.834 -65 45.501s-42 46.334 -60 80.001s-32.667 75.334 -44 125.001s-17 109.5 -17 179.5s5.66699 129.833 17 179.5s26 91.334 44 125.001s38 60.334 60 80.001s43.667 34.834 65 45.501z" />
    <glyph glyph-name="parenright" unicode=")" horiz-adv-x="315" 
d="M42 729c20.667 -10.667 42 -25.8301 64 -45.4971s42 -46.334 60 -80.001s32.833 -75.334 44.5 -125.001s17.5 -109.5 17.5 -179.5s-5.83301 -129.833 -17.5 -179.5s-26.5 -91.334 -44.5 -125.001s-38 -60.334 -60 -80.001s-43.333 -34.834 -64 -45.501l-12 24
c18.667 10 38 24.667 58 44s38.167 45 54.5 77s29.666 71.333 39.999 118s15.5 102.334 15.5 167.001s-5.16699 120.334 -15.5 167.001s-23.666 86 -39.999 118s-34.5 57.667 -54.5 77s-39.333 34 -58 44z" />
    <glyph glyph-name="asterisk" unicode="*" horiz-adv-x="364" 
d="M64 689l103 -56l3 117h24l3 -117l103 56l12 -21l-99 -61l99 -61l-12 -21l-103 55l-3 -116h-24l-3 116l-103 -55l-12 21l99 61l-99 61z" />
    <glyph glyph-name="plus" unicode="+" 
d="M295 295v-204h-30v204h-199v28h199v204h30v-204h198v-28h-198z" />
    <glyph glyph-name="comma" unicode="," horiz-adv-x="270" 
d="M130 -180h-28l20 243h40z" />
    <glyph glyph-name="hyphen" unicode="-" horiz-adv-x="340" 
d="M280 295h-220v28h220v-28z" />
    <glyph glyph-name="period" unicode="." horiz-adv-x="270" 
d="M134 68c10 0 19.167 -3.33301 27.5 -10s12.5 -16.667 12.5 -30c0 -12 -4.16699 -21.333 -12.5 -28s-17.5 -10 -27.5 -10c-9.33301 0 -18 3.33301 -26 10s-12 16 -12 28c0 13.333 4 23.333 12 30s16.667 10 26 10z" />
    <glyph glyph-name="slash" unicode="/" horiz-adv-x="575" 
d="M42 -121h-32l523 901h32z" />
    <glyph glyph-name="zero" unicode="0" horiz-adv-x="667" 
d="M333 540c38.667 0 74.666 -7.16699 107.999 -21.5s62.5 -34 87.5 -59s44.667 -54.333 59 -88s21.5 -69.5 21.5 -107.5s-7.16699 -73.667 -21.5 -107s-34 -62.5 -59 -87.5s-54.333 -44.667 -88 -59s-69.834 -21.5 -108.501 -21.5s-74.667 7.16699 -108 21.5
s-62.333 34 -87 59s-44 54.167 -58 87.5s-21 69 -21 107s7 73.833 21 107.5s33.333 63 58 88s53.834 44.667 87.501 59s69.834 21.5 108.501 21.5zM332.999 511c-35.333 0 -67.8301 -6.33301 -97.4971 -19s-55.334 -30.167 -77.001 -52.5s-38.5 -48.5 -50.5 -78.5
s-18 -62.333 -18 -97c0 -34 6 -66 18 -96s28.833 -56.167 50.5 -78.5s47.167 -39.833 76.5 -52.5s61.666 -19 96.999 -19s68 6.33301 98 19s55.833 30.167 77.5 52.5s38.667 48.5 51 78.5s18.5 62 18.5 96c0 34.667 -6.16699 67 -18.5 97s-29.333 56.167 -51 78.5
s-47.334 39.833 -77.001 52.5s-62.167 19 -97.5 19z" />
    <glyph glyph-name="one" unicode="1" horiz-adv-x="473" 
d="M276 28h151v-28h-342v28h160v474h-149v28h180v-502z" />
    <glyph glyph-name="two" unicode="2" horiz-adv-x="531" 
d="M266 540c26 0 49.832 -4.16699 71.499 -12.5s40.334 -20 56.001 -35s27.667 -32.833 36 -53.5s12.5 -43.334 12.5 -68.001c0 -27.333 -5.16699 -52.333 -15.5 -75s-24.166 -44 -41.499 -64s-37.5 -38.833 -60.5 -56.5l-72.5 -53.5l-135 -94h359v-28h-427v12l186 132
l67.5 49c21 16 39.5 32.833 55.5 50.5s28.667 36.5 38 56.5s14 42.667 14 68c0 20 -3.16699 38.667 -9.5 56s-15.5 32.5 -27.5 45.5s-27 23.167 -45 30.5s-38.667 11 -62 11c-24.667 0 -46.334 -4 -65.001 -12s-34.334 -18.667 -47.001 -32s-22.334 -28.666 -29.001 -45.999
s-10 -35.333 -10 -54c0 -8.66699 0.666992 -18.167 2 -28.5s3 -19.833 5 -28.5h-31c-2.66699 8.66699 -4.66699 18 -6 28s-2 19.667 -2 29c0 22 4.16699 43.333 12.5 64s20.333 39.167 36 55.5s34.834 29.333 57.501 39s48.334 14.5 77.001 14.5z" />
    <glyph glyph-name="three" unicode="3" horiz-adv-x="503" 
d="M423 518l-201 -239.999h9c24.667 0 49.667 -3.83301 75 -11.5s48.166 -19.5 68.499 -35.5s36.833 -36.667 49.5 -62s19 -55.333 19 -90c0 -34 -6 -64.167 -18 -90.5s-28.333 -48.5 -49 -66.5s-44.334 -31.667 -71.001 -41s-54.667 -14 -84 -14
c-26 0 -49.833 3.66699 -71.5 11s-41.167 17 -58.5 29s-32.666 25.333 -45.999 40s-25 29.667 -35 45l24 18c8.66699 -13.333 18.834 -26.666 30.501 -39.999s25.167 -25.5 40.5 -36.5s32.833 -20 52.5 -27s41.5 -10.5 65.5 -10.5c27.333 0 52.5 4.5 75.5 13.5
s42.833 21.667 59.5 38s29.667 35.666 39 57.999s14 47.166 14 74.499c0 52 -17.167 93.333 -51.5 124s-82.5 46 -144.5 46h-44v12l199 240h-320v28h373v-12z" />
    <glyph glyph-name="four" unicode="4" horiz-adv-x="516" 
d="M391 28h105v-28h-105v-121h-32v121h-333v12l225 518h33l-218 -502h293v253h32v-253z" />
    <glyph glyph-name="five" unicode="5" horiz-adv-x="532" 
d="M407 502l-276.003 0.00195312v-228c19.333 2 37.166 3.33301 53.499 4s36.5 1 60.5 1c30 0 58.833 -3.83301 86.5 -11.5s51.834 -19.5 72.501 -35.5s37.167 -36.667 49.5 -62s18.5 -55.333 18.5 -90s-6.16699 -65.167 -18.5 -91.5s-28.666 -48.5 -48.999 -66.5
s-43.666 -31.667 -69.999 -41s-53.166 -14 -80.499 -14s-52 3.66699 -74 11s-41.833 17 -59.5 29s-33.167 25.333 -46.5 40s-25 29.667 -35 45l23 18c8.66699 -13.333 18.834 -26.666 30.501 -39.999s25.5 -25.5 41.5 -36.5s34 -20 54 -27s42.667 -10.5 68 -10.5
c26 0 50.333 4.5 73 13.5s42.167 21.667 58.5 38s29.166 35.666 38.499 57.999s14 47.166 14 74.499c0 53.333 -17.167 95.166 -51.5 125.499s-82.5 45.5 -144.5 45.5h-145v279h308v-28z" />
    <glyph glyph-name="six" unicode="6" horiz-adv-x="542" 
d="M163 378c30.667 21.333 66.334 32 107.001 32c30 0 58 -5.5 84 -16.5s48.5 -26 67.5 -45s33.833 -41.333 44.5 -67s16 -52.834 16 -81.501c0 -29.333 -5.33301 -56.666 -16 -81.999s-25.5 -47.5 -44.5 -66.5s-41.333 -34 -67 -45s-53.5 -16.5 -83.5 -16.5
s-57.833 5.33301 -83.5 16s-48 25.5 -67 44.5s-33.833 41.333 -44.5 67s-16 53.5 -16 83.5c0 20.667 2.66699 40.167 8 58.5s12.166 35.833 20.499 52.5s18 33.167 29 49.5l34.5 51.5l164 247h38zM271 381c-25.333 0 -49 -4.66699 -71 -14s-41 -22.166 -57 -38.499
s-28.5 -35.5 -37.5 -57.5s-13.5 -46 -13.5 -72s4.5 -50 13.5 -72s21.5 -41 37.5 -57s35 -28.5 57 -37.5s45.667 -13.5 71 -13.5s49 4.5 71 13.5s41 21.5 57 37.5s28.5 35 37.5 57s13.5 46 13.5 72s-4.5 50 -13.5 72s-21.5 41.167 -37.5 57.5s-35 29.166 -57 38.499
s-45.667 14 -71 14z" />
    <glyph glyph-name="seven" unicode="7" horiz-adv-x="482" 
d="M455 518l-356 -639h-34l346 623h-379v28h423v-12z" />
    <glyph glyph-name="eight" unicode="8" horiz-adv-x="568" 
d="M284 670c25.333 0 49.332 -3.33105 71.999 -9.99805s42.5 -16.5 59.5 -29.5s30.5 -29.333 40.5 -49s15 -42.167 15 -67.5c0 -39.333 -12.833 -72.5 -38.5 -99.5s-62.5 -48.833 -110.5 -65.5c20.667 -7.33301 41.834 -16.333 63.501 -27s41.167 -23.334 58.5 -38.001
s31.5 -32 42.5 -52s16.5 -43.333 16.5 -70c0 -24.667 -5 -47.5 -15 -68.5s-24.333 -39.167 -43 -54.5s-41.667 -27.333 -69 -36s-58 -13 -92 -13s-64.667 4.33301 -92 13s-50.333 20.667 -69 36s-33 33.5 -43 54.5s-15 44.167 -15 69.5c0 24.667 5 46.667 15 66
s23.167 36.5 39.5 51.5s35.5 28 57.5 39s45 20.5 69 28.5c-44 16.667 -79.833 38.167 -107.5 64.5s-41.5 60.5 -41.5 102.5c0 24.667 5 46.667 15 66s23.5 35.666 40.5 48.999s36.833 23.333 59.5 30s46.667 10 72 10zM470.999 163.002c0 24.667 -5.16797 45.667 -15.501 63
s-24.333 32.5 -42 45.5s-37.667 24.333 -60 34s-45.5 18.834 -69.5 27.501c-24 -8.66699 -47.333 -17.834 -70 -27.501s-42.667 -21 -60 -34s-31.166 -28.167 -41.499 -45.5s-15.5 -38.333 -15.5 -63c0 -42 16.167 -76.5 48.5 -103.5s78.5 -40.5 138.5 -40.5
s106.167 13.5 138.5 40.5s48.5 61.5 48.5 103.5zM283.998 641.002c-21.333 0 -41.5 -2.83301 -60.5 -8.5s-35.5 -14 -49.5 -25s-25 -24.333 -33 -40s-12 -33.5 -12 -53.5s4 -37.5 12 -52.5s18.833 -28.5 32.5 -40.5s30 -22.5 49 -31.5s39.5 -17.5 61.5 -25.5
c22 8 42.333 16.5 61 25.5s35 19.5 49 31.5s25 25.5 33 40.5s12 32.5 12 52.5s-4 37.833 -12 53.5s-19 29 -33 40s-30.5 19.333 -49.5 25s-39.167 8.5 -60.5 8.5z" />
    <glyph glyph-name="nine" unicode="9" horiz-adv-x="542" 
d="M271 540c30 0 57.833 -5.49609 83.5 -16.4961s48 -25.833 67 -44.5s33.833 -40.834 44.5 -66.501s16 -52.834 16 -81.501c0 -20.667 -2.33301 -39.667 -7 -57s-11 -34.333 -19 -51s-17.667 -33.5 -29 -50.5l-37 -55.5l-158 -238h-38l185 273
c-31.333 -21.333 -67 -32 -107 -32c-30 0 -58 5.5 -84 16.5s-48.5 26 -67.5 45s-33.833 41.167 -44.5 66.5s-16 52.666 -16 81.999s5.33301 56.666 16 81.999s25.5 47.5 44.5 66.5s41.333 34 67 45s53.5 16.5 83.5 16.5zM271 511.004c-25.333 0 -49 -4.5 -71 -13.5
s-41 -21.5 -57 -37.5s-28.5 -35 -37.5 -57s-13.5 -46 -13.5 -72s4.5 -50 13.5 -72s21.5 -41.167 37.5 -57.5s35 -29.166 57 -38.499s45.667 -14 71 -14s49 4.66699 71 14s41 22.166 57 38.499s28.5 35.5 37.5 57.5s13.5 46 13.5 72s-4.5 50 -13.5 72s-21.5 41 -37.5 57
s-35 28.5 -57 37.5s-45.667 13.5 -71 13.5z" />
    <glyph glyph-name="colon" unicode=":" horiz-adv-x="270" 
d="M134 482c10 0 19.167 -3.33301 27.5 -10s12.5 -16.667 12.5 -30c0 -12 -4.16699 -21.333 -12.5 -28s-17.5 -10 -27.5 -10c-9.33301 0 -18 3.33301 -26 10s-12 16 -12 28c0 13.333 4 23.333 12 30s16.667 10 26 10zM134 68c10 0 19.167 -3.33301 27.5 -10
s12.5 -16.667 12.5 -30c0 -12 -4.16699 -21.333 -12.5 -28s-17.5 -10 -27.5 -10c-9.33301 0 -18 3.33301 -26 10s-12 16 -12 28c0 13.333 4 23.333 12 30s16.667 10 26 10z" />
    <glyph glyph-name="semicolon" unicode=";" horiz-adv-x="270" 
d="M134 482c10 0 19.167 -3.33301 27.5 -10s12.5 -16.667 12.5 -30c0 -12 -4.16699 -21.333 -12.5 -28s-17.5 -10 -27.5 -10c-9.33301 0 -18 3.33301 -26 10s-12 16 -12 28c0 13.333 4 23.333 12 30s16.667 10 26 10zM130 -180h-28l20 243h40z" />
    <glyph glyph-name="less" unicode="&#x3c;" 
d="M480 459l-360 -149l360 -149v-31l-417 174v12l417 174v-31z" />
    <glyph glyph-name="equal" unicode="=" 
d="M483 395h-407v28h407v-28zM483 194h-407v28h407v-28z" />
    <glyph glyph-name="greater" unicode="&#x3e;" 
d="M497 316v-12l-417 -174v31l360 149l-360 149v31z" />
    <glyph glyph-name="question" unicode="?" horiz-adv-x="440" 
d="M224 670c22.667 0 43.835 -4.00391 63.502 -12.0039s36.834 -19.167 51.501 -33.5s26.167 -31.166 34.5 -50.499s12.5 -40.333 12.5 -63c0 -19.333 -2.83301 -36.666 -8.5 -51.999s-13.5 -30 -23.5 -44s-21.5 -27.5 -34.5 -40.5l-40.5 -39.5
c-21.333 -20 -38.333 -38 -51 -54s-19 -35 -19 -57c0 -7.33301 0.666992 -14.333 2 -21s3 -13.667 5 -21h-30c-2.66699 5.33301 -4.83398 11.333 -6.50098 18s-2.5 14.667 -2.5 24c0 24.667 7.5 46.834 22.5 66.501s34.833 41.167 59.5 64.5l39.5 39
c11.667 12 21.667 24 30 36s14.666 24.333 18.999 37s6.5 27 6.5 43c0 19.333 -3.33301 37 -10 53s-15.667 29.833 -27 41.5s-25 20.667 -41 27s-33 9.5 -51 9.5c-30.667 0 -58 -9.16699 -82 -27.5s-41.667 -46.166 -53 -83.499l-28 10c11.333 38 31.166 69.167 59.499 93.5
s62.5 36.5 102.5 36.5zM208.001 67.9961c9.33301 0 18.166 -3.49902 26.499 -10.499s12.5 -16.5 12.5 -28.5c0 -12.667 -4.16699 -22.334 -12.5 -29.001s-17.166 -10 -26.499 -10s-18.166 3.16699 -26.499 9.5s-12.5 16.166 -12.5 29.499
c0 12.667 4.16699 22.334 12.5 29.001s17.166 10 26.499 10z" />
    <glyph glyph-name="at" unicode="@" horiz-adv-x="904" 
d="M461 648c54.667 0 105.495 -9.3291 152.495 -27.9961s87.833 -44.167 122.5 -76.5s61.834 -70.166 81.501 -113.499s29.5 -89.666 29.5 -138.999c0 -37.333 -5.66699 -71.333 -17 -102s-27.166 -56.834 -47.499 -78.501s-44.666 -38.5 -72.999 -50.5s-59.5 -18 -93.5 -18
h-6v91c-6.66699 -15.333 -15.834 -29.333 -27.501 -42s-25 -23.334 -40 -32.001s-31.167 -15.334 -48.5 -20.001s-35 -7 -53 -7c-28 0 -54.167 5.33301 -78.5 16s-45.5 25.5 -63.5 44.5s-32 41 -42 66s-15 52.167 -15 81.5c0 28.667 5 55.667 15 81s23.833 47.333 41.5 66
s38.667 33.334 63 44.001s50.833 16 79.5 16c18 0 35.667 -2.33301 53 -7s33.5 -11.334 48.5 -20.001s28.333 -19.334 40 -32.001s20.834 -26.667 27.501 -42v93h29v-369c25.333 2 48.833 8.5 70.5 19.5s40.334 26 56.001 45s27.834 41.5 36.501 67.5s13 55 13 87
c0 45.333 -8.83301 88 -26.5 128s-42 75 -73 105s-68.167 53.667 -111.5 71s-90.333 26 -141 26c-52.667 0 -101.667 -9.33301 -147 -28s-84.833 -44.334 -118.5 -77.001s-60.167 -71.167 -79.5 -115.5s-29 -92.5 -29 -144.5s9.66699 -100.333 29 -145
s45.833 -83.5 79.5 -116.5s73.334 -58.833 119.001 -77.5s95.167 -28 148.5 -28c25.333 0 49.833 2.16699 73.5 6.5s47.167 11.166 70.5 20.499l9 -25c-24 -10 -48.833 -17.667 -74.5 -23s-52.834 -8 -81.501 -8c-56.667 0 -109.667 10.333 -159 31
s-92.166 48.834 -128.499 84.501s-65 77.667 -86 126s-31.5 100.166 -31.5 155.499s10.5 107 31.5 155s49.667 89.667 86 125s79.166 63 128.499 83s102 30 158 30zM442.995 418.004c-24.667 0 -47.3369 -4.50195 -68.0039 -13.502s-38.5 -21.5 -53.5 -37.5
s-26.667 -34.833 -35 -56.5s-12.5 -45.167 -12.5 -70.5s4.16699 -48.833 12.5 -70.5s20 -40.5 35 -56.5s32.833 -28.667 53.5 -38s43.334 -14 68.001 -14c20.667 0 40.834 3.33301 60.501 10s37.334 17.334 53.001 32.001s28.334 33.334 38.001 56.001s14.5 49.667 14.5 81
s-4.83301 58.166 -14.5 80.499s-22.167 40.833 -37.5 55.5s-33 25.334 -53 32.001s-40.333 10 -61 10z" />
    <glyph glyph-name="A" unicode="A" horiz-adv-x="665" 
d="M620 0h-33l-73 175h-364l-72 -175h-33l280 670h15zM162 204h340l-170 410z" />
    <glyph glyph-name="B" unicode="B" horiz-adv-x="610" 
d="M325 660c28 0 52.666 -3.99902 73.999 -11.999s39 -19 53 -33s24.667 -30.5 32 -49.5s11 -39.5 11 -61.5c0 -31.333 -7.66699 -59 -23 -83s-37.333 -42.333 -66 -55c50.667 -8.66699 89 -29.167 115 -61.5s39 -71.5 39 -117.5c0 -26 -4.33301 -50.5 -13 -73.5
s-21.5 -42.833 -38.5 -59.5s-38.167 -29.834 -63.5 -39.501s-54.666 -14.5 -87.999 -14.5h-254v660h222zM134.999 345.001v-315.998h220c28 0 52.833 4.16699 74.5 12.5s39.667 19.5 54 33.5s25.166 30.5 32.499 49.5s11 39.5 11 61.5s-3.66699 42.667 -11 62
s-18.166 36.166 -32.499 50.499s-32.333 25.666 -54 33.999s-46.5 12.5 -74.5 12.5h-220zM134.999 631.003l0.000976562 -257.002h187c47.333 0 82.5 12.333 105.5 37s34.5 55.334 34.5 92.001c0 18.667 -2.83301 35.834 -8.5 51.501s-14.334 29.167 -26.001 40.5
s-26.167 20.333 -43.5 27s-38 10 -62 10z" />
    <glyph glyph-name="C" unicode="C" horiz-adv-x="709" 
d="M391 670c54 0 103.501 -11.4961 148.501 -34.4961s82.5 -54.5 112.5 -94.5l-24 -19c-26.667 36 -60.167 64.5 -100.5 85.5s-85.5 31.5 -135.5 31.5c-43.333 0 -83.333 -7.83301 -120 -23.5s-68.334 -37.334 -95.001 -65.001s-47.667 -60.334 -63 -98.001
s-23 -78.167 -23 -121.5s7.5 -83.833 22.5 -121.5s36 -70.5 63 -98.5s58.833 -50 95.5 -66s76.667 -24 120 -24c50 0 95.167 10.5 135.5 31.5s73.833 49.5 100.5 85.5l24 -19c-30 -40 -67.5 -71.5 -112.5 -94.5s-94.5 -34.5 -148.5 -34.5
c-46.667 0 -90.334 8.83301 -131.001 26.5s-76 41.667 -106 72s-53.667 66.166 -71 107.499s-26 86 -26 134s8.66699 92.833 26 134.5s41 77.667 71 108s65.333 54.166 106 71.499s84.334 26 131.001 26z" />
    <glyph glyph-name="D" unicode="D" horiz-adv-x="698" 
d="M282 660c58.667 0 110.334 -8.5 155.001 -25.5s82.167 -40.167 112.5 -69.5s53.166 -64 68.499 -104s23 -83.333 23 -130c0 -46 -7.66699 -89.167 -23 -129.5s-38.166 -75.5 -68.499 -105.5s-67.833 -53.5 -112.5 -70.5s-96.334 -25.5 -155.001 -25.5h-179v660h179z
M135 631v-602h147c53.333 0 100.166 8 140.499 24s74.166 37.667 101.499 65s48 59.333 62 96s21 75.667 21 117s-7 80.333 -21 117s-34.667 68.5 -62 95.5s-61.166 48.333 -101.499 64s-87.166 23.5 -140.499 23.5h-147z" />
    <glyph glyph-name="E" unicode="E" horiz-adv-x="561" 
d="M509 631h-374v-257h294v-29h-294v-316h386v-29h-418v660h406v-29z" />
    <glyph glyph-name="F" unicode="F" horiz-adv-x="514" 
d="M499 631h-364v-276h304v-29h-304v-326h-32v660h396v-29z" />
    <glyph glyph-name="G" unicode="G" horiz-adv-x="744" 
d="M391 670c54 0 103.5 -11.4951 148.5 -34.4951s82.5 -54.5 112.5 -94.5l-24 -19c-26.667 36 -60.167 64.5 -100.5 85.5s-85.5 31.5 -135.5 31.5c-43.333 0 -83.333 -7.83301 -120 -23.5s-68.334 -37.334 -95.001 -65.001s-47.667 -60.334 -63 -98.001
s-23 -78.167 -23 -121.5s7.5 -83.833 22.5 -121.5s36 -70.5 63 -98.5s59 -50 96 -66s77.167 -24 120.5 -24c55.333 0 105.333 12.5 150 37.5s80 58.833 106 101.5v126h-258v30h290v-161c-30 -52.667 -70.667 -93.334 -122 -122.001s-107.333 -43 -168 -43
c-47.333 0 -91.333 8.83301 -132 26.5s-76 41.667 -106 72s-53.5 66.166 -70.5 107.499s-25.5 86 -25.5 134s8.66699 92.833 26 134.5s41 77.667 71 108s65.333 54.166 106 71.499s84.334 26 131.001 26z" />
    <glyph glyph-name="H" unicode="H" horiz-adv-x="704" 
d="M601 0h-32v345h-434v-345h-32v660h32v-286h434v286h32v-660z" />
    <glyph glyph-name="I" unicode="I" horiz-adv-x="238" 
d="M135 0h-32v660h32v-660z" />
    <glyph glyph-name="J" unicode="J" horiz-adv-x="361" 
d="M258 135c0 -26.667 -4.00098 -49.168 -12.001 -67.501s-18.667 -33.333 -32 -45s-29.166 -20 -47.499 -25s-37.833 -7.5 -58.5 -7.5c-13.333 0 -26.5 0.833008 -39.5 2.5s-25.833 4.16699 -38.5 7.5v29c13.333 -2.66699 26 -4.66699 38 -6s25 -2 39 -2
c16 0 31.167 1.5 45.5 4.5s27 8.83301 38 17.5s19.667 20.334 26 35.001s9.5 33.667 9.5 57v525h32v-525z" />
    <glyph glyph-name="K" unicode="K" horiz-adv-x="598" 
d="M197 358l361 -358h-43l-361 359l337 301h45zM135 0h-32v660h32v-660z" />
    <glyph glyph-name="L" unicode="L" horiz-adv-x="493" 
d="M135 29h334v-29h-366v660h32v-631z" />
    <glyph glyph-name="M" unicode="M" horiz-adv-x="782" 
d="M679 0h-32v585l-248 -364h-15l-249 364v-585h-32v670h15l273 -402l273 402h15v-670z" />
    <glyph glyph-name="N" unicode="N" horiz-adv-x="704" 
d="M569 64v596h32v-670h-15l-451 601v-591h-32v670h15z" />
    <glyph glyph-name="O" unicode="O" horiz-adv-x="784" 
d="M391 670c46.667 0 90.334 -8.66602 131.001 -25.999s76.167 -41.166 106.5 -71.499s54.333 -66.333 72 -108s26.5 -86.5 26.5 -134.5s-8.83301 -92.667 -26.5 -134s-41.667 -77.333 -72 -108s-65.833 -54.667 -106.5 -72s-84.334 -26 -131.001 -26
s-90.334 8.83301 -131.001 26.5s-76 41.667 -106 72s-53.667 66.166 -71 107.499s-26 86 -26 134s8.66699 92.833 26 134.5s41 77.667 71 108s65.333 54.166 106 71.499s84.334 26 131.001 26zM392 639.001c-42.667 0 -82.334 -7.83008 -119.001 -23.4971
s-68.5 -37.334 -95.5 -65.001s-48.167 -60.334 -63.5 -98.001s-23 -78.167 -23 -121.5s7.66699 -83.833 23 -121.5s36.333 -70.5 63 -98.5s58.334 -50 95.001 -66s76.667 -24 120 -24c42.667 0 82.334 8 119.001 24s68.5 38 95.5 66s48.167 60.833 63.5 98.5
s23 78.167 23 121.5s-7.66699 83.666 -23 120.999s-36.5 69.833 -63.5 97.5s-58.833 49.5 -95.5 65.5s-76.334 24 -119.001 24z" />
    <glyph glyph-name="P" unicode="P" horiz-adv-x="557" 
d="M322 660c30.667 0 57.834 -4.5 81.501 -13.5s43.5 -21.333 59.5 -37s28.167 -34 36.5 -55s12.5 -43.833 12.5 -68.5s-4.16699 -47.667 -12.5 -69s-20.5 -39.833 -36.5 -55.5s-35.833 -28 -59.5 -37s-50.834 -13.5 -81.501 -13.5h-187v-311h-32v660h219zM135 631v-291.002
h185c26.667 0 49.834 3.66699 69.501 11s36.167 17.5 49.5 30.5s23.333 28.333 30 46s10 36.834 10 57.501s-3.33301 39.834 -10 57.501s-16.667 33 -30 46s-29.833 23.333 -49.5 31s-42.834 11.5 -69.501 11.5h-185z" />
    <glyph glyph-name="Q" unicode="Q" horiz-adv-x="784" 
d="M391 670c46.667 0 90.333 -8.66602 131 -25.999s76.167 -41.166 106.5 -71.499s54.333 -66.333 72 -108s26.5 -86.5 26.5 -134.5c0 -64.667 -15.167 -122.5 -45.5 -173.5s-70.5 -91.167 -120.5 -120.5c48 -64.667 102 -113.667 162 -147s128.333 -50 205 -50
c16 0 32.5 0.666992 49.5 2s33.5 3 49.5 5v-27c-34 -6 -66.667 -9 -98 -9c-86 0 -161.167 18.833 -225.5 56.5s-120.5 89.5 -168.5 155.5c-44.667 -21.333 -92.667 -32 -144 -32c-46.667 0 -90.334 8.83301 -131.001 26.5s-76 41.667 -106 72s-53.667 66.166 -71 107.499
s-26 86 -26 134s8.66699 92.833 26 134.5s41 77.667 71 108s65.333 54.166 106 71.499s84.334 26 131.001 26zM391.999 639.001c-43.333 0 -83.332 -7.83008 -119.999 -23.4971s-68.334 -37.334 -95.001 -65.001s-47.667 -60.334 -63 -98.001s-23 -78.167 -23 -121.5
s7.5 -83.833 22.5 -121.5s36 -70.5 63 -98.5s58.833 -50 95.5 -66s76.667 -24 120 -24c42.667 0 82.5 8 119.5 24s68.833 38 95.5 66s47.667 60.833 63 98.5s23 78.167 23 121.5s-7.66699 83.666 -23 120.999s-36.333 69.833 -63 97.5s-58.5 49.5 -95.5 65.5
s-76.833 24 -119.5 24z" />
    <glyph glyph-name="R" unicode="R" horiz-adv-x="608" 
d="M322 660c30.667 0 57.833 -4.5 81.5 -13.5s43.5 -21.333 59.5 -37s28.167 -34 36.5 -55s12.5 -43.833 12.5 -68.5c0 -22.667 -3.5 -44 -10.5 -64s-17.5 -37.667 -31.5 -53s-31 -28 -51 -38s-43 -16.333 -69 -19l235 -312h-39l-234 311h-177v-311h-32v660h219z
M134.999 631v-291.002h185c26.667 0 49.834 3.66699 69.501 11s36.167 17.5 49.5 30.5s23.333 28.333 30 46s10 36.834 10 57.501s-3.33301 39.834 -10 57.501s-16.667 33 -30 46s-29.833 23.333 -49.5 31s-42.834 11.5 -69.501 11.5h-185z" />
    <glyph glyph-name="S" unicode="S" horiz-adv-x="555" 
d="M283 670c43.333 0 80.8301 -9.16309 112.497 -27.4961s57.834 -42.5 78.501 -72.5l-23 -18c-42 58 -97.333 87 -166 87c-18 0 -36 -2.16699 -54 -6.5s-34.5 -11.166 -49.5 -20.499s-27.167 -22 -36.5 -38s-14 -35.333 -14 -58c0 -20 3.16699 -37 9.5 -51
s15 -26.333 26 -37s24 -20.167 39 -28.5s31.5 -16.833 49.5 -25.5l76 -36c24 -11.333 45.333 -22.833 64 -34.5s34.334 -24.334 47.001 -38.001s22.334 -29.167 29.001 -46.5s10 -37.333 10 -60c0 -26 -5.16699 -49.333 -15.5 -70s-24.333 -38.334 -42 -53.001
s-38.5 -26 -62.5 -34s-50 -12 -78 -12c-52 0 -97.5 12.667 -136.5 38s-71.167 59 -96.5 101l24 18c23.333 -36.667 52.333 -66.834 87 -90.501s75.667 -35.5 123 -35.5c22.667 0 44 3 64 9s37.333 15 52 27s26.167 26.5 34.5 43.5s12.5 36.5 12.5 58.5
c0 19.333 -2.66699 36 -8 50s-13.333 26.667 -24 38s-24.167 22 -40.5 32s-35.833 20.333 -58.5 31l-76 36c-18 8.66699 -35.5 17.667 -52.5 27s-32.167 20.5 -45.5 33.5s-24.166 28.167 -32.499 45.5s-12.5 38 -12.5 62c0 25.333 5 47.666 15 66.999
s23.5 35.666 40.5 48.999s36.667 23.333 59 30s46.166 10 71.499 10z" />
    <glyph glyph-name="T" unicode="T" horiz-adv-x="584" 
d="M557 631h-249v-631h-32v631h-249v29h530v-29z" />
    <glyph glyph-name="U" unicode="U" horiz-adv-x="678" 
d="M586 252c0 -40.667 -5.83398 -77.167 -17.501 -109.5s-28.167 -59.833 -49.5 -82.5s-47.166 -40 -77.499 -52s-64.166 -18 -101.499 -18c-38 0 -72.333 6 -103 18s-56.834 29.333 -78.501 52s-38.167 50.167 -49.5 82.5s-17 68.833 -17 109.5v408h32v-408
c0 -37.333 5.16699 -70.333 15.5 -99s25 -52.667 44 -72s41.833 -34.166 68.5 -44.499s56 -15.5 88 -15.5s61 5.16699 87 15.5s48.5 25.166 67.5 44.499s33.667 43.333 44 72s15.5 61.667 15.5 99v408h32v-408z" />
    <glyph glyph-name="V" unicode="V" horiz-adv-x="665" 
d="M340 -10h-15l-280 670h33l254 -611l255 611h33z" />
    <glyph glyph-name="W" unicode="W" horiz-adv-x="1077" 
d="M774 49l215 611h33l-240 -670h-15l-229 619l-228 -619h-15l-240 670h33l214 -611l229 621h15z" />
    <glyph glyph-name="X" unicode="X" horiz-adv-x="579" 
d="M309 338l230 -338h-37l-212 313l-213 -313h-37l231 339l-214 321h37l196 -296l195 296h37z" />
    <glyph glyph-name="Y" unicode="Y" horiz-adv-x="610" 
d="M321 286v-286h-32v286l-230 374h34l212 -347l212 347h34z" />
    <glyph glyph-name="Z" unicode="Z" horiz-adv-x="590" 
d="M549 648l-458 -619h459v-29h-508v12l458 619h-414v29h463v-12z" />
    <glyph glyph-name="bracketleft" unicode="[" horiz-adv-x="337" 
d="M277 701h-135v-804h135v-28h-165v860h165v-28z" />
    <glyph glyph-name="backslash" unicode="\" horiz-adv-x="575" 
d="M42 780l523 -901h-32l-523 901h32z" />
    <glyph glyph-name="bracketright" unicode="]" horiz-adv-x="337" 
d="M225 -131h-165v28h135v804h-135v28h165v-860z" />
    <glyph glyph-name="asciicircum" unicode="^" horiz-adv-x="493" 
d="M424 292h-33l-145 322l-144 -322h-33l170 378h15z" />
    <glyph glyph-name="underscore" unicode="_" horiz-adv-x="500" 
d="M450 -112h-400v28h400v-28z" />
    <glyph glyph-name="grave" unicode="`" horiz-adv-x="193" 
d="M163 562h-26l-107 213v5h37z" />
    <glyph glyph-name="a" unicode="a" horiz-adv-x="516" 
d="M252 490c24.667 0 47.668 -3.83105 69.001 -11.498s39.666 -19.334 54.999 -35.001s27.333 -35 36 -58s13 -49.833 13 -80.5v-305h-30v86c-17.333 -30 -41.666 -53.5 -72.999 -70.5s-66.666 -25.5 -105.999 -25.5c-20.667 0 -40.834 2.5 -60.501 7.5
s-37.167 12.833 -52.5 23.5s-27.666 24 -36.999 40s-14 34.667 -14 56c0 38.667 15 69 45 91s69.667 33 119 33h179v65c0 52 -13.667 90.833 -41 116.5s-62 38.5 -104 38.5c-34.667 0 -63.834 -7.83301 -87.501 -23.5s-44.834 -35.834 -63.501 -60.501l-22 18
c22.667 30 48 53.333 76 70s61 25 99 25zM217.001 19.002c24 0 46.833 3.83301 68.5 11.5s40.5 18.5 56.5 32.5s28.833 30.5 38.5 49.5s14.5 39.833 14.5 62.5v38h-178c-44 0 -77.167 -8.33301 -99.5 -25s-33.5 -39.667 -33.5 -69c0 -18 4 -33.333 12 -46
s18.167 -23 30.5 -31s26.5 -13.833 42.5 -17.5s32 -5.5 48 -5.5z" />
    <glyph glyph-name="b" unicode="b" horiz-adv-x="635" 
d="M129 365c8 18.667 18.998 35.833 32.998 51.5s30.167 28.834 48.5 39.501s38.166 19 59.499 25s43 9 65 9c34 0 65.667 -6.5 95 -19.5s54.833 -30.833 76.5 -53.5s38.5 -49.167 50.5 -79.5s18 -62.833 18 -97.5s-6.16699 -67.167 -18.5 -97.5
s-29.166 -56.833 -50.499 -79.5s-46.666 -40.5 -75.999 -53.5s-61 -19.5 -95 -19.5c-22 0 -43.667 2.83301 -65 8.5s-41.166 14 -59.499 25s-34.5 24.167 -48.5 39.5s-25 32.666 -33 51.999v-115h-30v750h30v-385zM334.998 460.999c-26 0 -51.334 -4.16699 -76.001 -12.5
s-46.667 -21.5 -66 -39.5s-34.833 -41 -46.5 -69s-17.5 -61.333 -17.5 -100s5.83301 -72 17.5 -100s27.167 -51 46.5 -69s41.333 -31.167 66 -39.5s50 -12.5 76 -12.5c30 0 57.833 5.66699 83.5 17s47.667 27 66 47s32.666 43.5 42.999 70.5s15.5 55.833 15.5 86.5
s-5.16699 59.5 -15.5 86.5s-24.666 50.5 -42.999 70.5s-40.166 35.667 -65.499 47s-53.333 17 -84 17z" />
    <glyph glyph-name="c" unicode="c" horiz-adv-x="553" 
d="M306 490c40 0 76.332 -8.5 108.999 -25.5s60.334 -40.167 83.001 -69.5l-22 -18c-20 26 -44.333 46.5 -73 61.5s-61 22.5 -97 22.5c-30.667 0 -59 -5.66699 -85 -17s-48.5 -27 -67.5 -47s-34 -43.5 -45 -70.5s-16.5 -55.833 -16.5 -86.5s5.5 -59.5 16.5 -86.5
s26 -50.5 45 -70.5s41.5 -35.667 67.5 -47s54 -17 84 -17c36 0 68.5 7.5 97.5 22.5s53.5 35.5 73.5 61.5l22 -18c-22.667 -29.333 -50.5 -52.5 -83.5 -69.5s-69.5 -25.5 -109.5 -25.5c-34 0 -66 6.5 -96 19.5s-56 30.833 -78 53.5s-39.333 49.167 -52 79.5
s-19 62.833 -19 97.5s6.33301 67.167 19 97.5s30 56.833 52 79.5s48 40.5 78 53.5s62.333 19.5 97 19.5z" />
    <glyph glyph-name="d" unicode="d" horiz-adv-x="635" 
d="M536 0l-30.002 0.000976562v115c-8 -19.333 -19.167 -36.666 -33.5 -51.999s-30.666 -28.5 -48.999 -39.5s-38 -19.333 -59 -25s-42.5 -8.5 -64.5 -8.5c-34 0 -65.667 6.5 -95 19.5s-54.666 30.833 -75.999 53.5s-38.166 49.167 -50.499 79.5s-18.5 62.833 -18.5 97.5
s6 67.167 18 97.5s28.833 56.833 50.5 79.5s47.167 40.5 76.5 53.5s61 19.5 95 19.5c22 0 43.5 -3 64.5 -9s40.667 -14.333 59 -25s34.666 -23.834 48.999 -39.501s25.5 -32.834 33.5 -51.501v385h30v-750zM299.998 461.001c-30.667 0 -58.668 -5.66699 -84.001 -17
s-47.166 -27 -65.499 -47s-32.666 -43.5 -42.999 -70.5s-15.5 -55.833 -15.5 -86.5s5.16699 -59.5 15.5 -86.5s24.666 -50.5 42.999 -70.5s40.333 -35.667 66 -47s53.5 -17 83.5 -17c26 0 51.333 4.16699 76 12.5s46.667 21.5 66 39.5s34.833 41 46.5 69
s17.5 61.333 17.5 100s-5.83301 72 -17.5 100s-27.167 51 -46.5 69s-41.333 31.167 -66 39.5s-50 12.5 -76 12.5z" />
    <glyph glyph-name="e" unicode="e" horiz-adv-x="573" 
d="M300 490c28 0 55 -4.83301 81 -14.5s48.667 -23.5 68 -41.5s34.833 -40.167 46.5 -66.5s17.5 -56.166 17.5 -89.499c0 -6 -0.166992 -11.5 -0.5 -16.5s-0.833008 -9.16699 -1.5 -12.5c-0.666992 -4 -1 -8 -1 -12h-418c0 -31.333 5.5 -60.166 16.5 -86.499
s26 -49.333 45 -69s41.5 -35 67.5 -46s54 -16.5 84 -16.5c36 0 68.5 7.5 97.5 22.5s53.5 35.5 73.5 61.5l22 -18c-22.667 -29.333 -50.5 -52.5 -83.5 -69.5s-69.5 -25.5 -109.5 -25.5c-34 0 -65.833 6.5 -95.5 19.5s-55.667 30.667 -78 53s-39.833 48.666 -52.5 78.999
s-19 63.166 -19 98.499c0 34.667 6.16699 67.167 18.5 97.5s29.333 56.833 51 79.5s47 40.5 76 53.5s60.5 19.5 94.5 19.5zM298 461c-27.333 0 -52.832 -4.99902 -76.499 -14.999s-44.5 -23.833 -62.5 -41.5s-32.833 -38.334 -44.5 -62.001s-18.834 -49.5 -21.501 -77.5h388
c2 30 -1.66699 57.167 -11 81.5s-22.5 45 -39.5 62s-37 30 -60 39s-47.167 13.5 -72.5 13.5z" />
    <glyph glyph-name="f" unicode="f" horiz-adv-x="270" 
d="M264 452l-130.998 -0.000976562v-452h-30v452h-70v28h70v145c0 24.667 3.5 45.667 10.5 63s16.667 31.333 29 42s26.666 18.334 42.999 23.001s34.166 7 53.499 7c17.333 0 34 -2 50 -6v-27l-23.5 3.5c-7 1 -15.167 1.5 -24.5 1.5c-14.667 0 -28.5 -1.66699 -41.5 -5
s-24.5 -9 -34.5 -17s-17.833 -19 -23.5 -33s-8.5 -31.333 -8.5 -52v-145h131v-28z" />
    <glyph glyph-name="g" unicode="g" horiz-adv-x="642" 
d="M306 491c22 0 43.667 -2.99805 65 -8.99805s41.166 -14.333 59.499 -25s34.666 -23.5 48.999 -38.5s25.5 -31.833 33.5 -50.5v112h30v-440c0 -36 -5.83301 -68.333 -17.5 -97s-27.667 -52.834 -48 -72.501s-44.333 -34.667 -72 -45s-57.5 -15.5 -89.5 -15.5
c-44.667 0 -86.167 8.83301 -124.5 26.5s-69.166 40.167 -92.499 67.5l21 20c22 -25.333 50.167 -45.833 84.5 -61.5s71.5 -23.5 111.5 -23.5c28 0 54.167 4.33301 78.5 13s45.166 21.5 62.499 38.5s31 38 41 63s15 53.833 15 86.5v82c-8 -18.667 -19.167 -35.5 -33.5 -50.5
s-30.666 -27.833 -48.999 -38.5s-38.166 -18.834 -59.499 -24.501s-43 -8.5 -65 -8.5c-34 0 -65.5 6.5 -94.5 19.5s-54.167 30.667 -75.5 53s-38.166 48.333 -50.499 78s-18.5 61.167 -18.5 94.5s6.16699 65 18.5 95s29.166 56.167 50.499 78.5s46.5 40 75.5 53
s60.5 19.5 94.5 19.5zM308 462.002c-30.667 0 -58.8359 -5.66602 -84.5029 -16.999s-47.667 -26.833 -66 -46.5s-32.666 -42.667 -42.999 -69s-15.5 -54.5 -15.5 -84.5s5.16699 -58 15.5 -84s24.666 -48.833 42.999 -68.5s40.333 -35.167 66 -46.5s53.834 -17 84.501 -17
c25.333 0 50.333 4.16699 75 12.5s46.667 21.333 66 39s34.833 40.167 46.5 67.5s17.5 59.666 17.5 96.999c0 38 -6 70.667 -18 98s-27.667 49.833 -47 67.5s-41.166 30.667 -65.499 39s-49.166 12.5 -74.499 12.5z" />
    <glyph glyph-name="h" unicode="h" horiz-adv-x="551" 
d="M129 403c15.333 27.333 36.333 48.667 63 64s58 23 94 23c28 0 52.667 -4.66699 74 -14s39.5 -22.166 54.5 -38.499s26.333 -35.833 34 -58.5s11.5 -47.334 11.5 -74.001v-305h-30v305c0 46 -12.667 83.5 -38 112.5s-61 43.5 -107 43.5
c-22.667 0 -43.5 -3.83301 -62.5 -11.5s-35.5 -18.5 -49.5 -32.5s-24.833 -30.5 -32.5 -49.5s-11.5 -39.833 -11.5 -62.5v-305h-30v750h30v-347z" />
    <glyph glyph-name="i" unicode="i" horiz-adv-x="228" 
d="M129 0h-30v480h30v-480zM114 700c9.33301 0 17.333 -3.33301 24 -10s10 -14.667 10 -24s-3.33301 -17.333 -10 -24s-14.667 -10 -24 -10s-17.333 3.33301 -24 10s-10 14.667 -10 24s3.33301 17.333 10 24s14.667 10 24 10z" />
    <glyph glyph-name="j" unicode="j" horiz-adv-x="228" 
d="M129 -55c0 -24.667 -3.49902 -45.666 -10.499 -62.999s-16.667 -31.333 -29 -42s-26.833 -18.334 -43.5 -23.001s-34.334 -7 -53.001 -7c-17.333 0 -34 2 -50 6v27l23.5 -3.5c7 -1 15.167 -1.5 24.5 -1.5c14.667 0 28.5 1.66699 41.5 5s24.5 9 34.5 17
s17.833 18.833 23.5 32.5s8.5 31.167 8.5 52.5v535h30v-535zM114.001 700.001c9.33301 0 17.333 -3.33301 24 -10s10 -14.667 10 -24s-3.33301 -17.333 -10 -24s-14.667 -10 -24 -10s-17.333 3.33301 -24 10s-10 14.667 -10 24s3.33301 17.333 10 24s14.667 10 24 10z" />
    <glyph glyph-name="k" unicode="k" horiz-adv-x="463" 
d="M129 0h-30v750h30v-750zM189 269l254 -269h-40l-255 270l229 210h43z" />
    <glyph glyph-name="l" unicode="l" horiz-adv-x="228" 
d="M129 0h-30v750h30v-750z" />
    <glyph glyph-name="m" unicode="m" horiz-adv-x="860" 
d="M601 490c27.333 0 51.499 -4.66602 72.499 -13.999s38.5 -22.166 52.5 -38.499s24.667 -35.833 32 -58.5s11 -47.334 11 -74.001v-305h-30v305c0 22.667 -3 43.5 -9 62.5s-15 35.5 -27 49.5s-26.5 24.833 -43.5 32.5s-36.5 11.5 -58.5 11.5
c-22.667 0 -43.334 -4 -62.001 -12s-34.667 -18.833 -48 -32.5s-23.666 -29.334 -30.999 -47.001s-11 -36.167 -11 -55.5v-314h-30v305c0 22.667 -3 43.5 -9 62.5s-15 35.5 -27 49.5s-26.667 24.833 -44 32.5s-37 11.5 -59 11.5s-42.333 -3.83301 -61 -11.5
s-34.667 -18.5 -48 -32.5s-23.666 -30.5 -30.999 -49.5s-11 -39.833 -11 -62.5v-305h-30v480h30v-75c14.667 26.667 34.834 47.5 60.501 62.5s56.167 22.5 91.5 22.5c39.333 0 72 -9.33301 98 -28s44.667 -43.667 56 -75c13.333 28 33.666 52.167 60.999 72.5
s62.333 30.5 105 30.5z" />
    <glyph glyph-name="n" unicode="n" horiz-adv-x="551" 
d="M286 490c28 0 52.667 -4.66602 74 -13.999s39.5 -22.166 54.5 -38.499s26.333 -35.833 34 -58.5s11.5 -47.334 11.5 -74.001v-305h-30v305c0 46 -12.667 83.5 -38 112.5s-61 43.5 -107 43.5c-22.667 0 -43.5 -3.83301 -62.5 -11.5s-35.5 -18.5 -49.5 -32.5
s-24.833 -30.5 -32.5 -49.5s-11.5 -39.833 -11.5 -62.5v-305h-30v480h30v-77c15.333 27.333 36.333 48.666 63 63.999s58 23 94 23z" />
    <glyph glyph-name="o" unicode="o" horiz-adv-x="613" 
d="M306 490c34 0 66 -6.33301 96 -19s56.167 -30.334 78.5 -53.001s40 -49.167 53 -79.5s19.5 -63.166 19.5 -98.499s-6.5 -68.166 -19.5 -98.499s-30.667 -56.666 -53 -78.999s-48.5 -40 -78.5 -53s-62.333 -19.5 -97 -19.5c-34 0 -66 6.5 -96 19.5s-56 30.667 -78 53
s-39.333 48.666 -52 78.999s-19 63.166 -19 98.499s6.33301 68.166 19 98.499s30 56.833 52 79.5s48 40.334 78 53.001s62.333 19 97 19zM306 461c-30.667 0 -58.999 -5.66699 -84.999 -17s-48.5 -27 -67.5 -47s-34 -43.5 -45 -70.5s-16.5 -55.833 -16.5 -86.5
c0 -31.333 5.5 -60.5 16.5 -87.5s26 -50.333 45 -70s41.5 -35.167 67.5 -46.5s54 -17 84 -17c30.667 0 59.167 5.66699 85.5 17s49.166 27 68.499 47s34.5 43.5 45.5 70.5s16.5 55.833 16.5 86.5s-5.5 59.5 -16.5 86.5s-26.167 50.5 -45.5 70.5s-42 35.667 -68 47
s-54.333 17 -85 17z" />
    <glyph glyph-name="p" unicode="p" horiz-adv-x="635" 
d="M335 490c34 0 65.6689 -6.50098 95.002 -19.501s54.666 -30.833 75.999 -53.5s38.166 -49.167 50.499 -79.5s18.5 -62.833 18.5 -97.5s-6 -67.167 -18 -97.5s-28.833 -56.833 -50.5 -79.5s-47.167 -40.5 -76.5 -53.5s-61 -19.5 -95 -19.5c-22 0 -43.667 2.83301 -65 8.5
s-41.166 14 -59.499 25s-34.5 24.167 -48.5 39.5s-25 32.666 -33 51.999v-295h-30v660h30v-115c8 18.667 19 35.834 33 51.501s30.167 28.834 48.5 39.501s38.166 19 59.499 25s43 9 65 9zM335.002 460.999c-26 0 -51.332 -4.16699 -75.999 -12.5s-46.667 -21.5 -66 -39.5
s-34.833 -41 -46.5 -69s-17.5 -61.333 -17.5 -100s5.83301 -72 17.5 -100s27.167 -51 46.5 -69s41.333 -31.167 66 -39.5s50 -12.5 76 -12.5c30.667 0 58.667 5.66699 84 17s47.166 27 65.499 47s32.666 43.333 42.999 70s15.5 55.667 15.5 87
c0 30.667 -5.16699 59.5 -15.5 86.5s-24.666 50.5 -42.999 70.5s-40.333 35.667 -66 47s-53.5 17 -83.5 17z" />
    <glyph glyph-name="q" unicode="q" horiz-adv-x="635" 
d="M300 490c22 0 43.502 -2.99902 64.502 -8.99902s40.667 -14.333 59 -25s34.666 -23.834 48.999 -39.501s25.5 -32.834 33.5 -51.501v115h30v-660h-30v295c-8 -19.333 -19.167 -36.666 -33.5 -51.999s-30.666 -28.5 -48.999 -39.5s-38 -19.333 -59 -25
s-42.5 -8.5 -64.5 -8.5c-34 0 -65.667 6.5 -95 19.5s-54.833 30.833 -76.5 53.5s-38.5 49.167 -50.5 79.5s-18 62.833 -18 97.5s6.16699 67.167 18.5 97.5s29.166 56.833 50.499 79.5s46.666 40.5 75.999 53.5s61 19.5 95 19.5zM300.002 461.001
c-30 0 -57.832 -5.66699 -83.499 -17s-47.667 -27 -66 -47s-32.666 -43.5 -42.999 -70.5s-15.5 -55.833 -15.5 -86.5c0 -31.333 5.16699 -60.333 15.5 -87s24.666 -50 42.999 -70s40.166 -35.667 65.499 -47s53.333 -17 84 -17c26 0 51.333 4.16699 76 12.5
s46.667 21.5 66 39.5s34.833 41 46.5 69s17.5 61.333 17.5 100s-5.83301 72 -17.5 100s-27.167 51 -46.5 69s-41.333 31.167 -66 39.5s-50 12.5 -76 12.5z" />
    <glyph glyph-name="r" unicode="r" horiz-adv-x="341" 
d="M295 482c6 0 11.165 -0.166992 15.498 -0.5s8.5 -0.833008 12.5 -1.5v-25h-23c-20 0 -40.167 -3.66699 -60.5 -11s-38.666 -18 -54.999 -32s-29.666 -31.167 -39.999 -51.5s-15.5 -43.833 -15.5 -70.5v-290h-30v480h30v-93c17.333 32 40.833 55.833 70.5 71.5
s61.5 23.5 95.5 23.5z" />
    <glyph glyph-name="s" unicode="s" horiz-adv-x="455" 
d="M232 490c36 0 66.334 -8.16699 91.001 -24.5s44.667 -33.833 60 -52.5l-22 -20c-17.333 20 -36.333 36.333 -57 49s-45.334 19 -74.001 19c-14 0 -27.667 -1.66699 -41 -5s-25.166 -8.66602 -35.499 -15.999s-18.833 -16.5 -25.5 -27.5s-10 -24.5 -10 -40.5
c0 -13.333 2.5 -24.833 7.5 -34.5s12 -18.167 21 -25.5s19.667 -14 32 -20l40.5 -19l45 -20c16 -7.33301 31.333 -15 46 -23s27.667 -17.167 39 -27.5s20.333 -22.333 27 -36s10 -29.834 10 -48.501c0 -21.333 -4.33301 -39.833 -13 -55.5s-20 -29 -34 -40
s-30.333 -19.167 -49 -24.5s-38 -8 -58 -8c-42 0 -77.833 10.333 -107.5 31s-53.834 45.334 -72.501 74.001l24 18c20 -29.333 42.667 -52.333 68 -69s55.333 -25 90 -25c16 0 31.167 2 45.5 6s27 10 38 18s19.833 18 26.5 30s10 26.333 10 43c0 16 -3 29.5 -9 40.5
s-14 20.833 -24 29.5s-21.667 16.167 -35 22.5l-41 19.5l-42 19c-14.667 6.66699 -29 13.667 -43 21s-26.5 15.666 -37.5 24.999s-19.833 20.333 -26.5 33s-10 27.667 -10 45c0 18.667 4.16699 35.5 12.5 50.5s19.333 27.5 33 37.5s29.167 17.667 46.5 23s35.333 8 54 8z
" />
    <glyph glyph-name="t" unicode="t" horiz-adv-x="350" 
d="M307 452l-160.001 -0.00195312v-327c0 -21.333 2.83301 -38.833 8.5 -52.5s13.334 -24.5 23.001 -32.5s21 -13.667 34 -17s26.833 -5 41.5 -5c13.333 0 25.166 0.833008 35.499 2.5s21.5 3.83398 33.5 6.50098v-27c-11.333 -3.33301 -22.5 -5.83301 -33.5 -7.5
s-23.5 -2.5 -37.5 -2.5c-18.667 0 -36.167 2.33301 -52.5 7s-30.666 12.334 -42.999 23.001s-22 24.667 -29 42s-10.5 38.333 -10.5 63v327h-86v28h86v140h30v-140h160v-28z" />
    <glyph glyph-name="u" unicode="u" horiz-adv-x="543" 
d="M452 175c0 -28.667 -4.66699 -54.334 -14 -77.001s-22.166 -42 -38.499 -58s-35.5 -28.333 -57.5 -37s-45.333 -13 -70 -13c-25.333 0 -48.833 4.33301 -70.5 13s-40.834 21 -57.501 37s-29.667 35.333 -39 58s-14 48.334 -14 77.001v305h30v-305
c0 -25.333 4 -47.666 12 -66.999s18.833 -35.5 32.5 -48.5s29.667 -23 48 -30s37.833 -10.5 58.5 -10.5s40 3.5 58 10.5s33.833 17 47.5 30s24.5 29.167 32.5 48.5s12 41.666 12 66.999v305h30v-305z" />
    <glyph glyph-name="v" unicode="v" horiz-adv-x="518" 
d="M267 -10h-15l-216 490h33l190 -438l190 438h33z" />
    <glyph glyph-name="w" unicode="w" horiz-adv-x="841" 
d="M611 47l161 433h33l-186 -490h-15l-184 439l-183 -439h-15l-186 490h33l160 -433l184 443h15z" />
    <glyph glyph-name="x" unicode="x" horiz-adv-x="467" 
d="M251 252l186 -252h-37l-167 227l-166 -227h-37l184 252l-168 228h37l150 -205l151 205h37z" />
    <glyph glyph-name="y" unicode="y" horiz-adv-x="518" 
d="M239 -88c-16 -38 -35.667 -64.498 -59 -79.498s-50 -22.5 -80 -22.5c-10 0 -20.5 0.666992 -31.5 2s-21.833 3.66602 -32.5 6.99902v27c11.333 -2.66699 22.166 -4.66699 32.499 -6s20.166 -2 29.499 -2c24.667 0 46.334 6.16699 65.001 18.5
s35.334 35.166 50.001 68.499l34 81l-211 474h33l194 -436l186 436h33z" />
    <glyph glyph-name="z" unicode="z" horiz-adv-x="447" 
d="M405 468l-322 -440h327v-28h-372v12l322 440h-299v28h344v-12z" />
    <glyph glyph-name="braceleft" unicode="{" horiz-adv-x="393" 
d="M287 -131c-18.667 0 -35.999 1.99805 -51.999 5.99805s-29.833 11 -41.5 21s-20.834 23.167 -27.501 39.5s-10 36.833 -10 61.5c0 18 1.5 37 4.5 57s6.5 39.667 10.5 59s7.5 37.833 10.5 55.5s4.5 33.167 4.5 46.5c0 21.333 -5.33301 38.333 -16 51s-28.667 19 -54 19
h-56v28h56c25.333 0 43.333 6.33301 54 19s16 29.334 16 50.001c0 12.667 -1.5 28 -4.5 46s-6.5 37 -10.5 57s-7.5 40.333 -10.5 61s-4.5 39.667 -4.5 57c0 47.333 12.167 80.166 36.5 98.499s55.833 27.5 94.5 27.5h46v-28h-46c-32.667 0 -57.667 -7.66699 -75 -23
s-26 -41.333 -26 -78c0 -16.667 1.5 -34.667 4.5 -54s6.5 -38.666 10.5 -57.999s7.5 -38.166 10.5 -56.499s4.5 -34.833 4.5 -49.5c0 -27.333 -6 -46.833 -18 -58.5s-26.667 -19.834 -44 -24.501c20.667 -5.33301 36.167 -14.333 46.5 -27s15.5 -31.334 15.5 -56.001
c0 -14.667 -1.5 -31 -4.5 -49s-6.5 -36.667 -10.5 -56s-7.5 -38.666 -10.5 -57.999s-4.5 -37.333 -4.5 -54c0 -37.333 8.83301 -63.666 26.5 -78.999s42.5 -23 74.5 -23h46v-28h-46z" />
    <glyph glyph-name="bar" unicode="|" horiz-adv-x="332" 
d="M181 -121h-30v901h30v-901z" />
    <glyph glyph-name="braceright" unicode="}" horiz-adv-x="393" 
d="M60 -103l46.001 0.00292969c32 0 56.833 7.66699 74.5 23s26.5 41.666 26.5 78.999c0 16.667 -1.5 34.667 -4.5 54s-6.5 38.666 -10.5 57.999s-7.5 38 -10.5 56s-4.5 34.333 -4.5 49c0 24.667 5.16699 43.334 15.5 56.001s25.833 21.667 46.5 27
c-18 4.66699 -32.833 12.667 -44.5 24s-17.5 31 -17.5 59c0 14.667 1.5 31.167 4.5 49.5s6.5 37.166 10.5 56.499s7.5 38.666 10.5 57.999s4.5 37.333 4.5 54c0 36.667 -8.66699 62.667 -26 78s-42.333 23 -75 23h-46v28h46c38.667 0 70.167 -9.16699 94.5 -27.5
s36.5 -51.166 36.5 -98.499c0 -17.333 -1.5 -36.333 -4.5 -57s-6.5 -41 -10.5 -61s-7.5 -39 -10.5 -57s-4.5 -33.333 -4.5 -46c0 -20.667 5.33301 -37.334 16 -50.001s28.667 -19 54 -19h56v-28h-56c-25.333 0 -43.333 -6.33301 -54 -19s-16 -29.667 -16 -51
c0 -13.333 1.5 -28.833 4.5 -46.5s6.5 -36.167 10.5 -55.5s7.5 -39 10.5 -59s4.5 -39 4.5 -57c0 -24.667 -3.33301 -45.167 -10 -61.5s-15.834 -29.5 -27.501 -39.5s-25.5 -17 -41.5 -21s-33.333 -6 -52 -6h-46v28z" />
    <glyph glyph-name="asciitilde" unicode="~" 
d="M154 379c14 0 27.833 -2.83301 41.5 -8.5s28.167 -13.167 43.5 -22.5l99 -60c26 -16 47.667 -24 65 -24c14.667 0 26 4.83301 34 14.5s12 21.5 12 35.5v21h29v-8c0 -2 0.166992 -4.16699 0.5 -6.5s0.5 -4.5 0.5 -6.5c0 -9.33301 -1.5 -18.666 -4.5 -27.999
s-7.66699 -17.666 -14 -24.999s-14.166 -13.333 -23.499 -18s-20 -7 -32 -7c-14 0 -27.833 2.83301 -41.5 8.5s-28.167 13.167 -43.5 22.5l-99 60c-26 16 -47.667 24 -65 24c-14.667 0 -26 -4.83301 -34 -14.5s-12 -21.5 -12 -35.5v-21h-29c-0.666992 2 -1 4.33301 -1 7v14
c0 9.33301 1.5 18.666 4.5 27.999s7.66699 17.666 14 24.999s14.166 13.333 23.499 18s20 7 32 7z" />
    <glyph glyph-name="exclamdown" unicode="&#xa1;" horiz-adv-x="270" 
d="M154 -180h-38l5 478h28zM134 490c10 0 19.167 -3.33301 27.5 -10s12.5 -16 12.5 -28c0 -13.333 -4.16699 -23.333 -12.5 -30s-17.5 -10 -27.5 -10c-9.33301 0 -18 3.33301 -26 10s-12 16.667 -12 30c0 12 4 21.333 12 28s16.667 10 26 10z" />
    <glyph glyph-name="cent" unicode="&#xa2;" horiz-adv-x="554" 
d="M293 580c38 -1.33301 72.5 -10.5 103.5 -27.5s57.5 -39.5 79.5 -67.5l-22 -18c-19.333 25.333 -42.5 45.333 -69.5 60s-57.5 22.667 -91.5 24v-442c33.333 1.33301 63.666 9.33301 90.999 24s50.666 34.667 69.999 60l22 -18c-21.333 -28 -47.666 -50.5 -78.999 -67.5
s-66 -26.167 -104 -27.5v-171h-31v172c-31.333 2.66699 -60.666 11 -87.999 25s-51 32.167 -71 54.5s-35.833 48 -47.5 77s-17.5 59.833 -17.5 92.5s5.66699 63.5 17 92.5s27 54.667 47 77s43.667 40.5 71 54.5s57 22.333 89 25v172h31v-171zM70 330
c0 -29.333 4.83301 -56.665 14.5 -81.998s23 -47.833 40 -67.5s37.167 -35.667 60.5 -48s49 -19.833 77 -22.5v440c-28 -2.66699 -53.667 -10.167 -77 -22.5s-43.5 -28.333 -60.5 -48s-30.333 -42.334 -40 -68.001s-14.5 -52.834 -14.5 -81.501z" />
    <glyph glyph-name="sterling" unicode="&#xa3;" horiz-adv-x="494" 
d="M383 259l-154.999 -0.00195312l4 -25.5c1.33301 -8.33301 2 -17.166 2 -26.499c0 -39.333 -8.66699 -74.333 -26 -105s-39.666 -55.334 -66.999 -74.001h308v-28h-381v12c18 10 35.167 21.5 51.5 34.5s30.666 27.5 42.999 43.5s22 33.667 29 53s10.5 40.333 10.5 63
c0 9.33301 -0.666992 18.333 -2 27s-3 17.334 -5 26.001h-117v28h108c-7.33301 18 -15.666 35.667 -24.999 53s-18.166 35 -26.499 53s-15.5 36.333 -21.5 55s-9 38.667 -9 60c0 24 4.16699 46 12.5 66s20 37 35 51s32.833 25 53.5 33s43.667 12 69 12
c46.667 0 85.167 -13.167 115.5 -39.5s52.833 -62.833 67.5 -109.5l-31 -10c-12.667 40 -31.334 71.5 -56.001 94.5s-57 34.5 -97 34.5c-22 0 -41.333 -3.5 -58 -10.5s-30.834 -16.667 -42.501 -29s-20.334 -26.666 -26.001 -42.999s-8.5 -33.5 -8.5 -51.5
c0 -20 3 -39 9 -57s13.333 -35.667 22 -53l27 -53c9.33301 -18 17.333 -36.667 24 -56h163v-28z" />
    <glyph glyph-name="currency" unicode="&#xa4;" horiz-adv-x="667" 
d="M329 555c28 0 54.667 -5.16699 80 -15.5s47.666 -24.166 66.999 -41.499l136 136l20 -20l-137 -137c16.667 -19.333 29.667 -41.5 39 -66.5s14 -51.833 14 -80.5s-4.66699 -55.5 -14 -80.5s-22.333 -47.167 -39 -66.5l137 -137l-19 -20l-137 137
c-19.333 -18 -41.666 -32.167 -66.999 -42.5s-52.333 -15.5 -81 -15.5c-28 0 -54.167 4.83301 -78.5 14.5s-46.166 23.167 -65.499 40.5l-129 -134l-20 19l130 135c-17.333 19.333 -30.833 41.833 -40.5 67.5s-14.5 53.167 -14.5 82.5s4.66699 56.666 14 81.999
s22.666 48 39.999 68l-129 134l19 20l129 -135c19.333 17.333 41.5 31 66.5 41s51.5 15 79.5 15zM329 527c-26.667 0 -51.5 -5.16699 -74.5 -15.5s-42.833 -24.333 -59.5 -42s-29.667 -38.5 -39 -62.5s-14 -49.667 -14 -77c0 -28 4.66699 -53.833 14 -77.5
s22.333 -44.334 39 -62.001s36.334 -31.5 59.001 -41.5s47.334 -15 74.001 -15s51.5 5.16699 74.5 15.5s42.833 24.333 59.5 42s29.834 38.334 39.501 62.001s14.5 49.167 14.5 76.5c0 28 -4.83301 54 -14.5 78s-22.834 44.833 -39.501 62.5s-36.334 31.5 -59.001 41.5
s-47.334 15 -74.001 15z" />
    <glyph glyph-name="yen" unicode="&#xa5;" horiz-adv-x="516" 
d="M481 162h-207v-162h-32v162h-206v28h206v121h-206v28h206l-230 321h34l212 -296l212 296h34l-230 -321h207v-28h-207v-121h207v-28z" />
    <glyph glyph-name="brokenbar" unicode="&#xa6;" horiz-adv-x="332" 
d="M181 480h-30v300h30v-300zM181 -121h-30v300h30v-300z" />
    <glyph glyph-name="section" unicode="&#xa7;" horiz-adv-x="548" 
d="M296 672c31.333 0 58.835 -7.83496 82.502 -23.502s42.834 -33.834 57.501 -54.501l-23 -17c-12.667 17.333 -29 32.666 -49 45.999s-42.667 20 -68 20c-29.333 0 -52.833 -9 -70.5 -27s-26.5 -41 -26.5 -69c0 -24.667 7.5 -46.5 22.5 -65.5s36.5 -38.833 64.5 -59.5
l90 -68c23.333 -17.333 43.333 -33.333 60 -48s30.334 -28.834 41.001 -42.501s18.5 -27.334 23.5 -41.001s7.5 -28.167 7.5 -43.5c0 -34 -11.833 -62.833 -35.5 -86.5s-55.834 -37.167 -96.501 -40.5c3.33301 -12 5 -23.667 5 -35c0 -18 -3.16699 -34.5 -9.5 -49.5
s-15.166 -28.167 -26.499 -39.5s-25 -20.166 -41 -26.499s-33.333 -9.5 -52 -9.5c-31.333 0 -58.833 7.83301 -82.5 23.5s-42.834 33.834 -57.501 54.501l23 17c12.667 -17.333 29 -32.666 49 -45.999s42.667 -20 68 -20c29.333 0 52.833 9 70.5 27s26.5 41 26.5 69
c0 24.667 -7.5 46.5 -22.5 65.5s-36.5 38.833 -64.5 59.5l-90 68c-23.333 17.333 -43.333 33.333 -60 48s-30.334 28.834 -41.001 42.501s-18.5 27.334 -23.5 41.001s-7.5 28.167 -7.5 43.5c0 34 11.667 62.833 35 86.5s55.666 36.834 96.999 39.501
c-2 6 -3.33301 11.833 -4 17.5s-1 11.834 -1 18.501c0 18 3.16699 34.5 9.5 49.5s15.166 28.167 26.499 39.5s24.833 20.166 40.5 26.499s33.167 9.5 52.5 9.5zM283.002 386.998c-25.333 19.333 -46.001 36.666 -62.001 51.999s-28.333 30.333 -37 45
c-32 -0.666992 -58.667 -9.66699 -80 -27s-32 -40.333 -32 -69c0 -24 8 -47 24 -69s40 -44.667 72 -68l90 -69c27.333 -21.333 49.333 -40 66 -56s29.667 -31.333 39 -46c32 0 58.833 8.83301 80.5 26.5s32.5 40.834 32.5 69.501c0 24 -8.16699 47 -24.5 69
s-40.166 44.667 -71.499 68z" />
    <glyph glyph-name="dieresis" unicode="&#xa8;" horiz-adv-x="319" 
d="M255 700c9.33301 0 17.333 -3.33301 24 -10s10 -14.667 10 -24s-3.33301 -17.333 -10 -24s-14.667 -10 -24 -10s-17.333 3.33301 -24 10s-10 14.667 -10 24s3.33301 17.333 10 24s14.667 10 24 10zM64 700c9.33301 0 17.333 -3.33301 24 -10s10 -14.667 10 -24
s-3.33301 -17.333 -10 -24s-14.667 -10 -24 -10s-17.333 3.33301 -24 10s-10 14.667 -10 24s3.33301 17.333 10 24s14.667 10 24 10z" />
    <glyph glyph-name="copyright" unicode="&#xa9;" horiz-adv-x="784" 
d="M391 670c46.667 0 90.334 -8.66602 131.001 -25.999s76.167 -41.166 106.5 -71.499s54.333 -66.333 72 -108s26.5 -86.5 26.5 -134.5s-8.83301 -92.667 -26.5 -134s-41.667 -77.333 -72 -108s-65.833 -54.667 -106.5 -72s-84.334 -26 -131.001 -26
s-90.334 8.83301 -131.001 26.5s-76 41.667 -106 72s-53.667 66.166 -71 107.499s-26 86 -26 134s8.66699 92.833 26 134.5s41 77.667 71 108s65.333 54.166 106 71.499s84.334 26 131.001 26zM399 531.001c32 0 61.168 -6.99707 87.501 -20.9971s48.5 -32.667 66.5 -56
l-21 -18c-16 20.667 -35.167 36.834 -57.5 48.501s-47.5 17.5 -75.5 17.5c-24 0 -46 -4.33301 -66 -13s-37.5 -20.834 -52.5 -36.501s-26.667 -34 -35 -55s-12.5 -43.5 -12.5 -67.5s4.16699 -46.333 12.5 -67s19.833 -38.667 34.5 -54s32.167 -27.5 52.5 -36.5
s42.166 -13.5 65.499 -13.5c28 0 53.333 5.83301 76 17.5s42 27.5 58 47.5l21 -17c-18 -23.333 -40.333 -42 -67 -56s-56 -21 -88 -21c-27.333 0 -53 5.33301 -77 16s-44.833 25 -62.5 43s-31.667 39.167 -42 63.5s-15.5 50.166 -15.5 77.499c0 28 5.16699 54.167 15.5 78.5
s24.5 45.666 42.5 63.999s39 32.666 63 42.999s49.667 15.5 77 15.5zM392.001 641.004c-43.333 0 -83.499 -8 -120.499 -24s-69 -38 -96 -66s-48.333 -60.833 -64 -98.5s-23.5 -78.167 -23.5 -121.5s7.66699 -84 23 -122s36.666 -71 63.999 -99s59.5 -50.167 96.5 -66.5
s77.167 -24.5 120.5 -24.5c42.667 0 82.667 8.16699 120 24.5s69.5 38.5 96.5 66.5s48.333 61 64 99s23.5 78.667 23.5 122s-7.83301 83.833 -23.5 121.5s-37 70.5 -64 98.5s-59.167 50 -96.5 66s-77.333 24 -120 24z" />
    <glyph glyph-name="ordfeminine" unicode="&#xaa;" horiz-adv-x="360" 
d="M178 554c33.333 0 60.665 -9.83105 81.998 -29.498s32 -49.5 32 -89.5v-191h-29v49c-11.333 -17.333 -26.666 -30.833 -45.999 -40.5s-40.666 -14.5 -63.999 -14.5c-14 0 -27.167 1.66699 -39.5 5s-23.333 8.5 -33 15.5s-17.334 15.667 -23.001 26
s-8.5 22.166 -8.5 35.499c0 25.333 9.66699 45 29 59s45 21 77 21h107v36c0 30.667 -8 53.167 -24 67.5s-36.667 21.5 -62 21.5c-21.333 0 -39.166 -4.5 -53.499 -13.5s-27.5 -21.167 -39.5 -36.5l-19 19c15.333 19.333 32 34.166 50 44.499s39.333 15.5 64 15.5z
M156.999 265.002c29.333 0 54.168 8.33105 74.501 24.998s30.5 38.334 30.5 65.001v19h-105c-25.333 0 -44.333 -4.66699 -57 -14s-19 -22.666 -19 -39.999c0 -10 2.16699 -18.5 6.5 -25.5s10.166 -12.667 17.499 -17s15.5 -7.5 24.5 -9.5s18.167 -3 27.5 -3z" />
    <glyph glyph-name="guillemotleft" unicode="&#xab;" horiz-adv-x="427" 
d="M231 427l-147 -158l147 -160l-22 -18l-163 172v12l163 172zM380 427l-147 -158l147 -160l-22 -18l-163 172v12l163 172z" />
    <glyph glyph-name="logicalnot" unicode="&#xac;" 
d="M463 89h-30v206h-367v28h397v-234z" />
    <glyph glyph-name="uni00AD" unicode="&#xad;" horiz-adv-x="340" 
d="M280 295h-220v28h220v-28z" />
    <glyph glyph-name="registered" unicode="&#xae;" horiz-adv-x="569" 
d="M284 668c32 0 62.167 -6.16699 90.5 -18.5s53 -29 74 -50s37.667 -45.667 50 -74s18.5 -58.5 18.5 -90.5s-6.16699 -62 -18.5 -90s-29 -52.5 -50 -73.5s-45.667 -37.667 -74 -50s-58.5 -18.5 -90.5 -18.5s-62 6.16699 -90 18.5s-52.5 29 -73.5 50s-37.667 45.5 -50 73.5
s-18.5 58 -18.5 90s6.16699 62.167 18.5 90.5s29 53 50 74s45.5 37.667 73.5 50s58 18.5 90 18.5zM284 639c-28 0 -54.333 -5.33301 -79 -16s-46.167 -25.167 -64.5 -43.5s-32.833 -39.833 -43.5 -64.5s-16 -51.334 -16 -80.001c0 -28 5.33301 -54.333 16 -79
s25.167 -46.167 43.5 -64.5s39.833 -32.833 64.5 -43.5s51 -16 79 -16c28.667 0 55.334 5.33301 80.001 16s46.167 25.167 64.5 43.5s32.833 39.833 43.5 64.5s16 51 16 79c0 28.667 -5.33301 55.334 -16 80.001s-25.167 46.167 -43.5 64.5s-39.833 32.833 -64.5 43.5
s-51.334 16 -80.001 16zM292 561c25.333 0 45.5 -6.83301 60.5 -20.5s22.5 -31.167 22.5 -52.5c0 -17.333 -4.5 -32 -13.5 -44s-21.5 -20.667 -37.5 -26l85 -108h-38l-82 104h-60v-104h-30l-1 251h94zM228 534v-93h63c17.333 0 30.5 4.33301 39.5 13s13.5 19.667 13.5 33
s-4.5 24.5 -13.5 33.5s-22.167 13.5 -39.5 13.5h-63z" />
    <glyph glyph-name="macron" unicode="&#xaf;" horiz-adv-x="312" 
d="M282 653h-252v28h252v-28z" />
    <glyph glyph-name="degree" unicode="&#xb0;" horiz-adv-x="360" 
d="M180 670c20 0 38.5 -3.66699 55.5 -11s32 -17.333 45 -30s23.167 -27.667 30.5 -45s11 -35.666 11 -54.999c0 -20 -3.66699 -38.5 -11 -55.5s-17.5 -31.833 -30.5 -44.5s-28 -22.667 -45 -30s-35.5 -11 -55.5 -11s-38.667 3.66699 -56 11s-32.333 17.333 -45 30
s-22.667 27.5 -30 44.5s-11 35.5 -11 55.5c0 19.333 3.66699 37.666 11 54.999s17.333 32.333 30 45s27.667 22.667 45 30s36 11 56 11zM180 641c-15.333 0 -29.666 -3 -42.999 -9s-25 -14 -35 -24s-17.833 -21.833 -23.5 -35.5s-8.5 -28.167 -8.5 -43.5
c0 -16 2.83301 -30.833 8.5 -44.5s13.5 -25.5 23.5 -35.5s21.667 -17.833 35 -23.5s27.666 -8.5 42.999 -8.5s29.666 2.83301 42.999 8.5s25 13.5 35 23.5s17.833 21.833 23.5 35.5s8.5 28.5 8.5 44.5c0 15.333 -2.83301 29.833 -8.5 43.5s-13.5 25.5 -23.5 35.5
s-21.667 18 -35 24s-27.666 9 -42.999 9z" />
    <glyph glyph-name="plusminus" unicode="&#xb1;" 
d="M295 338h188v-28h-188v-189h-30v189h-189v28h189v189h30v-189zM483 0h-407v28h407v-28z" />
    <glyph glyph-name="uni00B2" unicode="&#xb2;" horiz-adv-x="358" 
d="M172 786c18.667 0 35.667 -3.16992 51 -9.50293s28.5 -14.833 39.5 -25.5s19.5 -23.5 25.5 -38.5s9 -30.833 9 -47.5c0 -15.333 -2.33301 -29.666 -7 -42.999s-11.167 -26.166 -19.5 -38.499s-17.833 -24.5 -28.5 -36.5l-34 -37l-116 -118h225v-28h-281v9l152 156
c22 23.333 40.333 45.333 55 66s22 43.334 22 68.001s-8 46.5 -24 65.5s-39 28.5 -69 28.5c-15.333 0 -29 -2.66699 -41 -8s-22 -12.5 -30 -21.5s-14.167 -19.5 -18.5 -31.5s-6.5 -24.333 -6.5 -37c0 -10.667 1 -22 3 -34h-30c-1.33301 5.33301 -2.33301 11.5 -3 18.5
s-1 12.833 -1 17.5c0 16 2.83301 31.5 8.5 46.5s14 28.333 25 40s24.333 21 40 28s33.5 10.5 53.5 10.5z" />
    <glyph glyph-name="uni00B3" unicode="&#xb3;" horiz-adv-x="350" 
d="M293 770l-124.001 -151.002c15.333 0 31 -2.33301 47 -7s30.667 -12 44 -22s24.166 -23 32.499 -39s12.5 -35.333 12.5 -58c0 -21.333 -4 -40.5 -12 -57.5s-18.667 -31.167 -32 -42.5s-28.5 -20 -45.5 -26s-34.833 -9 -53.5 -9c-33.333 0 -61.166 8.33301 -83.499 25
s-39.833 35.334 -52.5 56.001l23 16c10.667 -16.667 25 -32.167 43 -46.5s41.667 -21.5 71 -21.5c32 0 58.333 9.66699 79 29s31 45 31 77c0 30.667 -10.167 54.834 -30.5 72.501s-49.166 26.5 -86.499 26.5h-35v10l122 150h-191v28h241v-10z" />
    <glyph glyph-name="acute" unicode="&#xb4;" horiz-adv-x="193" 
d="M163 775l-107 -213h-26l96 218h37v-5z" />
    <glyph glyph-name="uni00B5" unicode="&#xb5;" horiz-adv-x="578" 
d="M460 106c0 -30 5.50098 -51.167 16.501 -63.5s25.833 -18.5 44.5 -18.5c7.33301 0 17.666 1 30.999 3v-27c-12.667 -2.66699 -24.334 -4 -35.001 -4c-21.333 0 -40.166 6 -56.499 18s-26.166 33.333 -29.499 64c-15.333 -28 -36 -49.667 -62 -65s-56 -23 -90 -23
s-63.667 7.5 -89 22.5s-45.666 36.167 -60.999 63.5v-256h-30v660h30v-296c0 -24.667 3.83301 -47.167 11.5 -67.5s18.167 -37.666 31.5 -51.999s29.166 -25.5 47.499 -33.5s38.166 -12 59.499 -12s41.166 4 59.499 12s34.333 19.167 48 33.5s24.334 31.666 32.001 51.999
s11.5 42.833 11.5 67.5v296h30v-374z" />
    <glyph glyph-name="paragraph" unicode="&#xb6;" horiz-adv-x="525" 
d="M422 -43c0 -28 -3.66895 -51.332 -11.002 -69.999s-17.166 -33.667 -29.499 -45s-27 -19.5 -44 -24.5s-34.833 -7.5 -53.5 -7.5c-13.333 0 -25.5 0.833008 -36.5 2.5s-22.167 4.16699 -33.5 7.5v28c12 -2.66699 23 -4.83398 33 -6.50098s21.333 -2.5 34 -2.5
c14.667 0 28.834 1.66699 42.501 5s25.5 9.33301 35.5 18s18 20.667 24 36s9 35 9 59v703h30v-703zM335.998 250.001l-61 0.000976562c-32.667 0 -63 5 -91 15s-52.333 24 -73 42s-36.834 39.667 -48.501 65s-17.5 53.666 -17.5 84.999s5.83301 59.5 17.5 84.5
s27.834 46.333 48.501 64s45 31.167 73 40.5s58.333 14 91 14h61v-410z" />
    <glyph glyph-name="periodcentered" unicode="&#xb7;" horiz-adv-x="270" 
d="M134 348c10 0 19.167 -3.33301 27.5 -10s12.5 -16.667 12.5 -30c0 -12 -4.16699 -21.333 -12.5 -28s-17.5 -10 -27.5 -10c-9.33301 0 -18 3.33301 -26 10s-12 16 -12 28c0 13.333 4 23.333 12 30s16.667 10 26 10z" />
    <glyph glyph-name="cedilla" unicode="&#xb8;" horiz-adv-x="237" 
d="M133 13c20.667 -9.33301 38.168 -22.333 52.501 -39s21.5 -37 21.5 -61c0 -14 -2.5 -27.167 -7.5 -39.5s-12.333 -23.166 -22 -32.499s-21.5 -16.833 -35.5 -22.5s-29.667 -8.5 -47 -8.5c-10 0 -20.667 0.833008 -32 2.5s-22.333 4.16699 -33 7.5v27
c11.333 -2.66699 22.166 -4.83398 32.499 -6.50098s20.166 -2.5 29.499 -2.5c21.333 0 40.5 6 57.5 18s25.5 31.667 25.5 59c0 21.333 -5.16699 38.333 -15.5 51s-22.166 24 -35.499 34z" />
    <glyph glyph-name="uni00B9" unicode="&#xb9;" horiz-adv-x="341" 
d="M194 392h100v-28h-243v28h112v360h-112v28h143v-388z" />
    <glyph glyph-name="ordmasculine" unicode="&#xba;" horiz-adv-x="415" 
d="M207 554c22 0 42.5 -4 61.5 -12s35.667 -19.167 50 -33.5s25.666 -31.166 33.999 -50.499s12.5 -40 12.5 -62s-4.16699 -42.667 -12.5 -62s-19.666 -36.166 -33.999 -50.499s-31 -25.5 -50 -33.5s-39.5 -12 -61.5 -12s-42.5 4 -61.5 12s-35.5 19.167 -49.5 33.5
s-25.167 31.166 -33.5 50.499s-12.5 40 -12.5 62s4.16699 42.667 12.5 62s19.5 36.166 33.5 50.499s30.5 25.5 49.5 33.5s39.5 12 61.5 12zM207 525c-18 0 -34.667 -3.33301 -50 -10s-28.5 -15.667 -39.5 -27s-19.667 -25 -26 -41s-9.5 -33 -9.5 -51s3.16699 -35 9.5 -51
s15 -29.667 26 -41s24.167 -20.333 39.5 -27s32 -10 50 -10s34.667 3.33301 50 10s28.666 15.667 39.999 27s20.166 25 26.499 41s9.5 33 9.5 51s-3.16699 35 -9.5 51s-15.166 29.667 -26.499 41s-24.666 20.333 -39.999 27s-32 10 -50 10z" />
    <glyph glyph-name="guillemotright" unicode="&#xbb;" horiz-adv-x="427" 
d="M232 275v-12l-163 -172l-22 18l147 160l-147 158l22 20zM381 275v-12l-163 -172l-22 18l147 160l-147 158l22 20z" />
    <glyph glyph-name="onequarter" unicode="&#xbc;" horiz-adv-x="851" 
d="M194 272h100v-28h-243v28h112v360h-112v28h143v-388zM279 0h-31l381 660h31zM766 111h64v-28h-64v-82h-31v82h-209v10l140 324h32l-133 -306h170v151h31v-151z" />
    <glyph glyph-name="onehalf" unicode="&#xbd;" horiz-adv-x="890" 
d="M194 272h100v-28h-243v28h112v360h-112v28h143v-388zM279 0h-31l381 660h31zM704 423c18.667 0 35.667 -3.16992 51 -9.50293s28.5 -14.833 39.5 -25.5s19.5 -23.5 25.5 -38.5s9 -30.833 9 -47.5c0 -15.333 -2.33301 -29.666 -7 -42.999s-11.167 -26.166 -19.5 -38.499
s-17.833 -24.5 -28.5 -36.5l-34 -37l-116 -118h225v-28h-281v9l152 156c22 23.333 40.333 45.333 55 66s22 43.334 22 68.001s-8 46.5 -24 65.5s-39 28.5 -69 28.5c-15.333 0 -29 -2.66699 -41 -8s-22 -12.5 -30 -21.5s-14.167 -19.5 -18.5 -31.5s-6.5 -24.333 -6.5 -37
c0 -10.667 1 -22 3 -34h-30c-1.33301 5.33301 -2.33301 11.5 -3 18.5s-1 12.833 -1 17.5c0 16 2.83301 31.5 8.5 46.5s14 28.333 25 40s24.333 21 40 28s33.5 10.5 53.5 10.5z" />
    <glyph glyph-name="threequarters" unicode="&#xbe;" horiz-adv-x="825" 
d="M293 650l-124.001 -151.002c15.333 0 31 -2.33301 47 -7s30.667 -12 44 -22s24.166 -23 32.499 -39s12.5 -35.333 12.5 -58c0 -21.333 -4 -40.5 -12 -57.5s-18.667 -31.167 -32 -42.5s-28.5 -20 -45.5 -26s-34.833 -9 -53.5 -9c-33.333 0 -61.166 8.33301 -83.499 25
s-39.833 35.334 -52.5 56.001l23 16c10.667 -16.667 25 -32.167 43 -46.5s41.667 -21.5 71 -21.5c32 0 58.333 9.66699 79 29s31 45 31 77c0 30.667 -10.167 54.834 -30.5 72.501s-49.166 26.5 -86.499 26.5h-35v10l122 150h-191v28h241v-10zM252.999 -0.00195312h-31
l381 660h31zM739.999 110.998h64v-28h-64v-82h-31v82h-209v10l140 324h32l-133 -306h170v151h31v-151z" />
    <glyph glyph-name="questiondown" unicode="&#xbf;" horiz-adv-x="440" 
d="M254 298c2.66699 -5.33301 4.83301 -11.332 6.5 -17.999s2.5 -14.667 2.5 -24c0 -12.667 -2 -24.334 -6 -35.001s-9.5 -21.167 -16.5 -31.5s-15.667 -20.666 -26 -30.999l-33.5 -33.5l-39.5 -39c-11.667 -12 -21.667 -24 -30 -36s-14.666 -24.333 -18.999 -37
s-6.5 -27 -6.5 -43c0 -19.333 3.33301 -37 10 -53s15.667 -29.833 27 -41.5s25 -20.667 41 -27s33 -9.5 51 -9.5c30.667 0 58 9.16699 82 27.5s41.667 46.166 53 83.499l28 -10c-11.333 -38 -31.166 -69.167 -59.499 -93.5s-62.5 -36.5 -102.5 -36.5
c-22.667 0 -43.834 4 -63.501 12s-36.834 19.167 -51.501 33.5s-26.167 31.166 -34.5 50.499s-12.5 40.333 -12.5 63c0 18.667 2.83301 35.834 8.5 51.501s13.5 30.5 23.5 44.5s21.5 27.5 34.5 40.5l40.5 39.5c21.333 20 38.333 38 51 54s19 35 19 57
c0 7.33301 -0.666992 14.333 -2 21s-3 13.667 -5 21h30zM230.999 490.001c9.33301 0 18.166 -3.16699 26.499 -9.5s12.5 -15.833 12.5 -28.5c0 -13.333 -4.16699 -23.333 -12.5 -30s-17.166 -10 -26.499 -10s-18.166 3.5 -26.499 10.5s-12.5 16.833 -12.5 29.5
c0 12 4.16699 21.333 12.5 28s17.166 10 26.499 10z" />
    <glyph glyph-name="Agrave" unicode="&#xc0;" horiz-adv-x="665" 
d="M620 0h-33l-73 175h-364l-72 -175h-33l280 670h15zM162 204h340l-170 410zM346 724h-26l-107 181v5h37z" />
    <glyph glyph-name="Aacute" unicode="&#xc1;" horiz-adv-x="665" 
d="M620 0h-33l-73 175h-364l-72 -175h-33l280 670h15zM162 204h340l-170 410zM452 905l-107 -181h-26l96 186h37v-5z" />
    <glyph glyph-name="Acircumflex" unicode="&#xc2;" horiz-adv-x="665" 
d="M620 0h-33l-73 175h-364l-72 -175h-33l280 670h15zM162 204h340l-170 410zM486 724h-27l-126 146l-127 -146h-27l146 186h15z" />
    <glyph glyph-name="Atilde" unicode="&#xc3;" horiz-adv-x="665" 
d="M620 0h-33l-73 175h-364l-72 -175h-33l280 670h15zM162 204h340l-170 410zM257 858c13.333 0 25.165 -3 35.498 -9s20.5 -12.667 30.5 -20l37 -26c9.33301 -6.66699 17.333 -11.834 24 -15.501s14 -5.5 22 -5.5c12.667 0 21.5 4.66699 26.5 14s7.5 19.666 7.5 30.999v21
h29c0.666992 -3.33301 1 -6.5 1 -9.5v-9.5c0 -8.66699 -1.16699 -17.5 -3.5 -26.5s-5.83301 -17 -10.5 -24s-11 -12.833 -19 -17.5s-17.333 -7 -28 -7c-13.333 0 -25.166 3 -35.499 9s-20.5 12.667 -30.5 20l-37 26c-9.33301 6.66699 -17.333 11.834 -24 15.501
s-14 5.5 -22 5.5c-12.667 0 -21.5 -4.66699 -26.5 -14s-7.5 -19.666 -7.5 -30.999v-21h-29c-0.666992 3.33301 -1 6.5 -1 9.5v9.5c0 8.66699 1.16699 17.5 3.5 26.5s5.83301 17 10.5 24s10.834 12.833 18.501 17.5s17.167 7 28.5 7z" />
    <glyph glyph-name="Adieresis" unicode="&#xc4;" horiz-adv-x="665" 
d="M620 0h-33l-73 175h-364l-72 -175h-33l280 670h15zM162 204h340l-170 410zM443 840c9.33301 0 17.333 -3.33301 24 -10s10 -14.667 10 -24s-3.33301 -17.333 -10 -24s-14.667 -10 -24 -10s-17.333 3.33301 -24 10s-10 14.667 -10 24s3.33301 17.333 10 24
s14.667 10 24 10zM222 840c9.33301 0 17.333 -3.33301 24 -10s10 -14.667 10 -24s-3.33301 -17.333 -10 -24s-14.667 -10 -24 -10s-17.333 3.33301 -24 10s-10 14.667 -10 24s3.33301 17.333 10 24s14.667 10 24 10z" />
    <glyph glyph-name="Aring" unicode="&#xc5;" horiz-adv-x="665" 
d="M620 0h-33l-73 175h-364l-72 -175h-33l280 670h15zM162 204h340l-170 410zM333 910c27.333 0 50.5 -9.33301 69.5 -28s28.5 -41.667 28.5 -69s-9.5 -50.333 -28.5 -69s-42.167 -28 -69.5 -28s-50.5 9.33301 -69.5 28s-28.5 41.667 -28.5 69s9.5 50.333 28.5 69
s42.167 28 69.5 28zM333 882c-19.333 0 -35.5 -6.66699 -48.5 -20s-19.5 -29.666 -19.5 -48.999s6.5 -35.666 19.5 -48.999s29.167 -20 48.5 -20s35.5 6.66699 48.5 20s19.5 29.666 19.5 48.999s-6.5 35.666 -19.5 48.999s-29.167 20 -48.5 20z" />
    <glyph glyph-name="AE" unicode="&#xc6;" horiz-adv-x="796" 
d="M664 345h-212l56 -316h248v-29h-276l-31 176h-304l-91 -176h-34l344 660h380v-29h-343l46 -257h217v-29zM160 205h284l-73 410z" />
    <glyph glyph-name="Ccedilla" unicode="&#xc7;" horiz-adv-x="709" 
d="M391 670c54 0 103.501 -11.4961 148.501 -34.4961s82.5 -54.5 112.5 -94.5l-24 -19c-26.667 36 -60.167 64.5 -100.5 85.5s-85.5 31.5 -135.5 31.5c-43.333 0 -83.333 -7.83301 -120 -23.5s-68.334 -37.334 -95.001 -65.001s-47.667 -60.334 -63 -98.001
s-23 -78.167 -23 -121.5s7.5 -83.833 22.5 -121.5s36 -70.5 63 -98.5s58.833 -50 95.5 -66s76.667 -24 120 -24c50 0 95.167 10.5 135.5 31.5s73.833 49.5 100.5 85.5l24 -19c-30 -40 -67.5 -71.5 -112.5 -94.5s-94.5 -34.5 -148.5 -34.5
c-46.667 0 -90.334 8.83301 -131.001 26.5s-76 41.667 -106 72s-53.667 66.166 -71 107.499s-26 86 -26 134s8.66699 92.833 26 134.5s41 77.667 71 108s65.333 54.166 106 71.499s84.334 26 131.001 26zM386.001 13.0039c20.667 -9.33301 38.168 -22.333 52.501 -39
s21.5 -37 21.5 -61c0 -14 -2.5 -27.167 -7.5 -39.5s-12.333 -23.166 -22 -32.499s-21.5 -16.833 -35.5 -22.5s-29.667 -8.5 -47 -8.5c-10 0 -20.667 0.833008 -32 2.5s-22.333 4.16699 -33 7.5v27c11.333 -2.66699 22.166 -4.83398 32.499 -6.50098s20.166 -2.5 29.499 -2.5
c21.333 0 40.5 6 57.5 18s25.5 31.667 25.5 59c0 21.333 -5.16699 38.333 -15.5 51s-22.166 24 -35.499 34z" />
    <glyph glyph-name="Egrave" unicode="&#xc8;" horiz-adv-x="561" 
d="M509 631h-374v-257h294v-29h-294v-316h386v-29h-418v660h406v-29zM314 724h-26l-107 181v5h37z" />
    <glyph glyph-name="Eacute" unicode="&#xc9;" horiz-adv-x="561" 
d="M509 631h-374v-257h294v-29h-294v-316h386v-29h-418v660h406v-29zM420 905l-107 -181h-26l96 186h37v-5z" />
    <glyph glyph-name="Ecircumflex" unicode="&#xca;" horiz-adv-x="561" 
d="M509 631h-374v-257h294v-29h-294v-316h386v-29h-418v660h406v-29zM454 724h-27l-126 146l-127 -146h-27l146 186h15z" />
    <glyph glyph-name="Edieresis" unicode="&#xcb;" horiz-adv-x="561" 
d="M509 631h-374v-257h294v-29h-294v-316h386v-29h-418v660h406v-29zM411 840c9.33301 0 17.333 -3.33301 24 -10s10 -14.667 10 -24s-3.33301 -17.333 -10 -24s-14.667 -10 -24 -10s-17.333 3.33301 -24 10s-10 14.667 -10 24s3.33301 17.333 10 24s14.667 10 24 10z
M190 840c9.33301 0 17.333 -3.33301 24 -10s10 -14.667 10 -24s-3.33301 -17.333 -10 -24s-14.667 -10 -24 -10s-17.333 3.33301 -24 10s-10 14.667 -10 24s3.33301 17.333 10 24s14.667 10 24 10z" />
    <glyph glyph-name="Igrave" unicode="&#xcc;" horiz-adv-x="238" 
d="M135 0h-32v660h32v-660zM133 724h-26l-107 181v5h37z" />
    <glyph glyph-name="Iacute" unicode="&#xcd;" horiz-adv-x="238" 
d="M135 0h-32v660h32v-660zM238 905l-107 -181h-26l96 186h37v-5z" />
    <glyph glyph-name="Icircumflex" unicode="&#xce;" horiz-adv-x="238" 
d="M135 0h-32v660h32v-660zM273 724h-27l-126 146l-127 -146h-27l146 186h15z" />
    <glyph glyph-name="Idieresis" unicode="&#xcf;" horiz-adv-x="238" 
d="M135 0h-32v660h32v-660zM230 840c9.33301 0 17.333 -3.33301 24 -10s10 -14.667 10 -24s-3.33301 -17.333 -10 -24s-14.667 -10 -24 -10s-17.333 3.33301 -24 10s-10 14.667 -10 24s3.33301 17.333 10 24s14.667 10 24 10zM9 840c9.33301 0 17.333 -3.33301 24 -10
s10 -14.667 10 -24s-3.33301 -17.333 -10 -24s-14.667 -10 -24 -10s-17.333 3.33301 -24 10s-10 14.667 -10 24s3.33301 17.333 10 24s14.667 10 24 10z" />
    <glyph glyph-name="Eth" unicode="&#xd0;" horiz-adv-x="698" 
d="M282 660c58.667 0 110.334 -8.5 155.001 -25.5s82.167 -40.167 112.5 -69.5s53.166 -64 68.499 -104s23 -83.333 23 -130c0 -46 -7.66699 -89.167 -23 -129.5s-38.166 -75.5 -68.499 -105.5s-67.833 -53.5 -112.5 -70.5s-96.334 -25.5 -155.001 -25.5h-179v287h-103v28
h103v345h179zM135 631v-316h151v-28h-151v-258h147c53.333 0 100.166 8 140.499 24s74.166 37.667 101.499 65s48 59.333 62 96s21 75.667 21 117s-7 80.333 -21 117s-34.667 68.5 -62 95.5s-61.166 48.333 -101.499 64s-87.166 23.5 -140.499 23.5h-147z" />
    <glyph glyph-name="Ntilde" unicode="&#xd1;" horiz-adv-x="704" 
d="M569 64v596h32v-670h-15l-451 601v-591h-32v670h15zM276 858c13.333 0 25.165 -3 35.498 -9s20.5 -12.667 30.5 -20l37 -26c9.33301 -6.66699 17.333 -11.834 24 -15.501s14 -5.5 22 -5.5c12.667 0 21.5 4.66699 26.5 14s7.5 19.666 7.5 30.999v21h29
c0.666992 -3.33301 1 -6.5 1 -9.5v-9.5c0 -8.66699 -1.16699 -17.5 -3.5 -26.5s-5.83301 -17 -10.5 -24s-11 -12.833 -19 -17.5s-17.333 -7 -28 -7c-13.333 0 -25.166 3 -35.499 9s-20.5 12.667 -30.5 20l-37 26c-9.33301 6.66699 -17.333 11.834 -24 15.501
s-14 5.5 -22 5.5c-12.667 0 -21.5 -4.66699 -26.5 -14s-7.5 -19.666 -7.5 -30.999v-21h-29c-0.666992 3.33301 -1 6.5 -1 9.5v9.5c0 8.66699 1.16699 17.5 3.5 26.5s5.83301 17 10.5 24s10.834 12.833 18.501 17.5s17.167 7 28.5 7z" />
    <glyph glyph-name="Ograve" unicode="&#xd2;" horiz-adv-x="784" 
d="M391 670c46.667 0 90.334 -8.66602 131.001 -25.999s76.167 -41.166 106.5 -71.499s54.333 -66.333 72 -108s26.5 -86.5 26.5 -134.5s-8.83301 -92.667 -26.5 -134s-41.667 -77.333 -72 -108s-65.833 -54.667 -106.5 -72s-84.334 -26 -131.001 -26
s-90.334 8.83301 -131.001 26.5s-76 41.667 -106 72s-53.667 66.166 -71 107.499s-26 86 -26 134s8.66699 92.833 26 134.5s41 77.667 71 108s65.333 54.166 106 71.499s84.334 26 131.001 26zM392 639.001c-42.667 0 -82.334 -7.83008 -119.001 -23.4971
s-68.5 -37.334 -95.5 -65.001s-48.167 -60.334 -63.5 -98.001s-23 -78.167 -23 -121.5s7.66699 -83.833 23 -121.5s36.333 -70.5 63 -98.5s58.334 -50 95.001 -66s76.667 -24 120 -24c42.667 0 82.334 8 119.001 24s68.5 38 95.5 66s48.167 60.833 63.5 98.5
s23 78.167 23 121.5s-7.66699 83.666 -23 120.999s-36.5 69.833 -63.5 97.5s-58.833 49.5 -95.5 65.5s-76.334 24 -119.001 24zM405 724.004h-26l-107 181v5h37z" />
    <glyph glyph-name="Oacute" unicode="&#xd3;" horiz-adv-x="784" 
d="M391 670c46.667 0 90.334 -8.66602 131.001 -25.999s76.167 -41.166 106.5 -71.499s54.333 -66.333 72 -108s26.5 -86.5 26.5 -134.5s-8.83301 -92.667 -26.5 -134s-41.667 -77.333 -72 -108s-65.833 -54.667 -106.5 -72s-84.334 -26 -131.001 -26
s-90.334 8.83301 -131.001 26.5s-76 41.667 -106 72s-53.667 66.166 -71 107.499s-26 86 -26 134s8.66699 92.833 26 134.5s41 77.667 71 108s65.333 54.166 106 71.499s84.334 26 131.001 26zM392 639.001c-42.667 0 -82.334 -7.83008 -119.001 -23.4971
s-68.5 -37.334 -95.5 -65.001s-48.167 -60.334 -63.5 -98.001s-23 -78.167 -23 -121.5s7.66699 -83.833 23 -121.5s36.333 -70.5 63 -98.5s58.334 -50 95.001 -66s76.667 -24 120 -24c42.667 0 82.334 8 119.001 24s68.5 38 95.5 66s48.167 60.833 63.5 98.5
s23 78.167 23 121.5s-7.66699 83.666 -23 120.999s-36.5 69.833 -63.5 97.5s-58.833 49.5 -95.5 65.5s-76.334 24 -119.001 24zM511 905.004l-107 -181h-26l96 186h37v-5z" />
    <glyph glyph-name="Ocircumflex" unicode="&#xd4;" horiz-adv-x="784" 
d="M391 670c46.667 0 90.334 -8.66602 131.001 -25.999s76.167 -41.166 106.5 -71.499s54.333 -66.333 72 -108s26.5 -86.5 26.5 -134.5s-8.83301 -92.667 -26.5 -134s-41.667 -77.333 -72 -108s-65.833 -54.667 -106.5 -72s-84.334 -26 -131.001 -26
s-90.334 8.83301 -131.001 26.5s-76 41.667 -106 72s-53.667 66.166 -71 107.499s-26 86 -26 134s8.66699 92.833 26 134.5s41 77.667 71 108s65.333 54.166 106 71.499s84.334 26 131.001 26zM392 639.001c-42.667 0 -82.334 -7.83008 -119.001 -23.4971
s-68.5 -37.334 -95.5 -65.001s-48.167 -60.334 -63.5 -98.001s-23 -78.167 -23 -121.5s7.66699 -83.833 23 -121.5s36.333 -70.5 63 -98.5s58.334 -50 95.001 -66s76.667 -24 120 -24c42.667 0 82.334 8 119.001 24s68.5 38 95.5 66s48.167 60.833 63.5 98.5
s23 78.167 23 121.5s-7.66699 83.666 -23 120.999s-36.5 69.833 -63.5 97.5s-58.833 49.5 -95.5 65.5s-76.334 24 -119.001 24zM545 724.004h-27l-126 146l-127 -146h-27l146 186h15z" />
    <glyph glyph-name="Otilde" unicode="&#xd5;" horiz-adv-x="784" 
d="M391 670c46.667 0 90.334 -8.66602 131.001 -25.999s76.167 -41.166 106.5 -71.499s54.333 -66.333 72 -108s26.5 -86.5 26.5 -134.5s-8.83301 -92.667 -26.5 -134s-41.667 -77.333 -72 -108s-65.833 -54.667 -106.5 -72s-84.334 -26 -131.001 -26
s-90.334 8.83301 -131.001 26.5s-76 41.667 -106 72s-53.667 66.166 -71 107.499s-26 86 -26 134s8.66699 92.833 26 134.5s41 77.667 71 108s65.333 54.166 106 71.499s84.334 26 131.001 26zM392 639.001c-42.667 0 -82.334 -7.83008 -119.001 -23.4971
s-68.5 -37.334 -95.5 -65.001s-48.167 -60.334 -63.5 -98.001s-23 -78.167 -23 -121.5s7.66699 -83.833 23 -121.5s36.333 -70.5 63 -98.5s58.334 -50 95.001 -66s76.667 -24 120 -24c42.667 0 82.334 8 119.001 24s68.5 38 95.5 66s48.167 60.833 63.5 98.5
s23 78.167 23 121.5s-7.66699 83.666 -23 120.999s-36.5 69.833 -63.5 97.5s-58.833 49.5 -95.5 65.5s-76.334 24 -119.001 24zM316 858.004c13.333 0 25.165 -3 35.498 -9s20.5 -12.667 30.5 -20l37 -26c9.33301 -6.66699 17.333 -11.834 24 -15.501s14 -5.5 22 -5.5
c12.667 0 21.5 4.66699 26.5 14s7.5 19.666 7.5 30.999v21h29c0.666992 -3.33301 1 -6.5 1 -9.5v-9.5c0 -8.66699 -1.16699 -17.5 -3.5 -26.5s-5.83301 -17 -10.5 -24s-11 -12.833 -19 -17.5s-17.333 -7 -28 -7c-13.333 0 -25.166 3 -35.499 9s-20.5 12.667 -30.5 20l-37 26
c-9.33301 6.66699 -17.333 11.834 -24 15.501s-14 5.5 -22 5.5c-12.667 0 -21.5 -4.66699 -26.5 -14s-7.5 -19.666 -7.5 -30.999v-21h-29c-0.666992 3.33301 -1 6.5 -1 9.5v9.5c0 8.66699 1.16699 17.5 3.5 26.5s5.83301 17 10.5 24s10.834 12.833 18.501 17.5
s17.167 7 28.5 7z" />
    <glyph glyph-name="Odieresis" unicode="&#xd6;" horiz-adv-x="784" 
d="M391 670c46.667 0 90.334 -8.66602 131.001 -25.999s76.167 -41.166 106.5 -71.499s54.333 -66.333 72 -108s26.5 -86.5 26.5 -134.5s-8.83301 -92.667 -26.5 -134s-41.667 -77.333 -72 -108s-65.833 -54.667 -106.5 -72s-84.334 -26 -131.001 -26
s-90.334 8.83301 -131.001 26.5s-76 41.667 -106 72s-53.667 66.166 -71 107.499s-26 86 -26 134s8.66699 92.833 26 134.5s41 77.667 71 108s65.333 54.166 106 71.499s84.334 26 131.001 26zM392 639.001c-42.667 0 -82.334 -7.83008 -119.001 -23.4971
s-68.5 -37.334 -95.5 -65.001s-48.167 -60.334 -63.5 -98.001s-23 -78.167 -23 -121.5s7.66699 -83.833 23 -121.5s36.333 -70.5 63 -98.5s58.334 -50 95.001 -66s76.667 -24 120 -24c42.667 0 82.334 8 119.001 24s68.5 38 95.5 66s48.167 60.833 63.5 98.5
s23 78.167 23 121.5s-7.66699 83.666 -23 120.999s-36.5 69.833 -63.5 97.5s-58.833 49.5 -95.5 65.5s-76.334 24 -119.001 24zM502 840.004c9.33301 0 17.333 -3.33301 24 -10s10 -14.667 10 -24s-3.33301 -17.333 -10 -24s-14.667 -10 -24 -10s-17.333 3.33301 -24 10
s-10 14.667 -10 24s3.33301 17.333 10 24s14.667 10 24 10zM281 840.004c9.33301 0 17.333 -3.33301 24 -10s10 -14.667 10 -24s-3.33301 -17.333 -10 -24s-14.667 -10 -24 -10s-17.333 3.33301 -24 10s-10 14.667 -10 24s3.33301 17.333 10 24s14.667 10 24 10z" />
    <glyph glyph-name="multiply" unicode="&#xd7;" 
d="M464 473l-164 -164l164 -164l-19 -20l-164 164l-164 -164l-20 19l164 165l-164 164l19 20l164 -164l164 164z" />
    <glyph glyph-name="Oslash" unicode="&#xd8;" horiz-adv-x="784" 
d="M391 670c44.667 0 86.667 -7.99805 126 -23.998s74 -38 104 -66l90 90l21 -21l-91 -91c26.667 -30 47.667 -64.333 63 -103s23 -80.334 23 -125.001c0 -48 -8.83301 -92.667 -26.5 -134s-41.667 -77.333 -72 -108s-65.833 -54.667 -106.5 -72s-84.334 -26 -131.001 -26
c-44.667 0 -86.5 7.83301 -125.5 23.5s-73.5 37.5 -103.5 65.5l-89 -89l-21 21l90 90c-26.667 30 -47.5 64.5 -62.5 103.5s-22.5 80.833 -22.5 125.5c0 48 8.66699 92.833 26 134.5s41 77.667 71 108s65.333 54.166 106 71.499s84.334 26 131.001 26zM392 639.002
c-43.333 0 -83.332 -7.83008 -119.999 -23.4971s-68.334 -37.334 -95.001 -65.001s-47.667 -60.334 -63 -98.001s-23 -78.167 -23 -121.5c0 -40.667 6.33301 -78.5 19 -113.5s30.667 -66.5 54 -94.5l435 435c-26.667 25.333 -57.667 45.166 -93 59.499
s-73.333 21.5 -114 21.5zM693.001 331.005c0 40 -6.5 77.332 -19.5 111.999s-31.167 65.667 -54.5 93l-434 -434c26.667 -25.333 57.5 -45.166 92.5 -59.499s73.167 -21.5 114.5 -21.5c42.667 0 82.5 8 119.5 24s68.833 38 95.5 66s47.667 60.833 63 98.5
s23 78.167 23 121.5z" />
    <glyph glyph-name="Ugrave" unicode="&#xd9;" horiz-adv-x="678" 
d="M586 252c0 -40.667 -5.83398 -77.167 -17.501 -109.5s-28.167 -59.833 -49.5 -82.5s-47.166 -40 -77.499 -52s-64.166 -18 -101.499 -18c-38 0 -72.333 6 -103 18s-56.834 29.333 -78.501 52s-38.167 50.167 -49.5 82.5s-17 68.833 -17 109.5v408h32v-408
c0 -37.333 5.16699 -70.333 15.5 -99s25 -52.667 44 -72s41.833 -34.166 68.5 -44.499s56 -15.5 88 -15.5s61 5.16699 87 15.5s48.5 25.166 67.5 44.499s33.667 43.333 44 72s15.5 61.667 15.5 99v408h32v-408zM351.999 724h-26l-107 181v5h37z" />
    <glyph glyph-name="Uacute" unicode="&#xda;" horiz-adv-x="678" 
d="M586 252c0 -40.667 -5.83398 -77.167 -17.501 -109.5s-28.167 -59.833 -49.5 -82.5s-47.166 -40 -77.499 -52s-64.166 -18 -101.499 -18c-38 0 -72.333 6 -103 18s-56.834 29.333 -78.501 52s-38.167 50.167 -49.5 82.5s-17 68.833 -17 109.5v408h32v-408
c0 -37.333 5.16699 -70.333 15.5 -99s25 -52.667 44 -72s41.833 -34.166 68.5 -44.499s56 -15.5 88 -15.5s61 5.16699 87 15.5s48.5 25.166 67.5 44.499s33.667 43.333 44 72s15.5 61.667 15.5 99v408h32v-408zM457.999 905l-107 -181h-26l96 186h37v-5z" />
    <glyph glyph-name="Ucircumflex" unicode="&#xdb;" horiz-adv-x="678" 
d="M586 252c0 -40.667 -5.83398 -77.167 -17.501 -109.5s-28.167 -59.833 -49.5 -82.5s-47.166 -40 -77.499 -52s-64.166 -18 -101.499 -18c-38 0 -72.333 6 -103 18s-56.834 29.333 -78.501 52s-38.167 50.167 -49.5 82.5s-17 68.833 -17 109.5v408h32v-408
c0 -37.333 5.16699 -70.333 15.5 -99s25 -52.667 44 -72s41.833 -34.166 68.5 -44.499s56 -15.5 88 -15.5s61 5.16699 87 15.5s48.5 25.166 67.5 44.499s33.667 43.333 44 72s15.5 61.667 15.5 99v408h32v-408zM491.999 724h-27l-126 146l-127 -146h-27l146 186h15z" />
    <glyph glyph-name="Udieresis" unicode="&#xdc;" horiz-adv-x="678" 
d="M586 252c0 -40.667 -5.83398 -77.167 -17.501 -109.5s-28.167 -59.833 -49.5 -82.5s-47.166 -40 -77.499 -52s-64.166 -18 -101.499 -18c-38 0 -72.333 6 -103 18s-56.834 29.333 -78.501 52s-38.167 50.167 -49.5 82.5s-17 68.833 -17 109.5v408h32v-408
c0 -37.333 5.16699 -70.333 15.5 -99s25 -52.667 44 -72s41.833 -34.166 68.5 -44.499s56 -15.5 88 -15.5s61 5.16699 87 15.5s48.5 25.166 67.5 44.499s33.667 43.333 44 72s15.5 61.667 15.5 99v408h32v-408zM448.999 840c9.33301 0 17.333 -3.33301 24 -10
s10 -14.667 10 -24s-3.33301 -17.333 -10 -24s-14.667 -10 -24 -10s-17.333 3.33301 -24 10s-10 14.667 -10 24s3.33301 17.333 10 24s14.667 10 24 10zM227.999 840c9.33301 0 17.333 -3.33301 24 -10s10 -14.667 10 -24s-3.33301 -17.333 -10 -24s-14.667 -10 -24 -10
s-17.333 3.33301 -24 10s-10 14.667 -10 24s3.33301 17.333 10 24s14.667 10 24 10z" />
    <glyph glyph-name="Yacute" unicode="&#xdd;" horiz-adv-x="610" 
d="M321 286v-286h-32v286l-230 374h34l212 -347l212 347h34zM424 905l-107 -181h-26l96 186h37v-5z" />
    <glyph glyph-name="Thorn" unicode="&#xde;" horiz-adv-x="557" 
d="M135 527h187c30.667 0 57.834 -4.5 81.501 -13.5s43.5 -21.5 59.5 -37.5s28.167 -34.833 36.5 -56.5s12.5 -45.5 12.5 -71.5s-4.16699 -50 -12.5 -72s-20.5 -41 -36.5 -57s-35.833 -28.5 -59.5 -37.5s-50.834 -13.5 -81.501 -13.5h-187v-168h-32v660h32v-133zM135 498
v-300.998h185c52.667 0 92.334 14.167 119.001 42.5s40 64.166 40 107.499c0 22 -3.33301 42.167 -10 60.5s-16.667 34.166 -30 47.499s-29.833 23.833 -49.5 31.5s-42.834 11.5 -69.501 11.5h-185z" />
    <glyph glyph-name="germandbls" unicode="&#xdf;" horiz-adv-x="579" 
d="M283 760c20 0 38.332 -2.83301 54.999 -8.5s31.334 -14 44.001 -25s22.5 -24.5 29.5 -40.5s10.5 -34.333 10.5 -55c0 -11.333 -1 -23.5 -3 -36.5s-5.66699 -27.167 -11 -42.5l-48 -152c-4.66699 -15.333 -8.5 -29 -11.5 -41s-4.5 -23 -4.5 -33
c0 -9.33301 1.66699 -17.5 5 -24.5s8.5 -13.5 15.5 -19.5s15.833 -12.333 26.5 -19s23.334 -14 38.001 -22l45.5 -26.5c14.333 -8.33301 27 -17.5 38 -27.5s19.667 -21.333 26 -34s9.5 -27.334 9.5 -44.001c0 -20 -4.5 -37.5 -13.5 -52.5s-20.667 -27.667 -35 -38
s-30.833 -18 -49.5 -23s-37.667 -7.5 -57 -7.5c-34 0 -63.667 6.83301 -89 20.5s-47.666 32.167 -66.999 55.5l19 19c17.333 -20 37.166 -36 59.499 -48s49.5 -18 81.5 -18c33.333 0 61.5 7.5 84.5 22.5s34.5 38.5 34.5 70.5c0 12 -1.83301 22.333 -5.5 31
s-9.5 16.834 -17.5 24.501s-18.167 15.5 -30.5 23.5s-27.5 17 -45.5 27l-42 24c-12.667 7.33301 -23.667 15.166 -33 23.499s-16.5 17.5 -21.5 27.5s-7.5 21.667 -7.5 35c0 12 1.66699 24.667 5 38s7.66602 28 12.999 44l47 150c4.66699 14 7.83398 27.333 9.50098 40
s2.5 23.334 2.5 32.001c0 32 -9.66699 56.833 -29 74.5s-46 26.5 -80 26.5c-22 0 -42.167 -3.83301 -60.5 -11.5s-34.333 -19 -48 -34s-24.334 -33.5 -32.001 -55.5s-11.5 -47.333 -11.5 -76v-554h-30v554c0 32.667 4.83301 61.834 14.5 87.501s22.834 47.167 39.501 64.5
s36.167 30.666 58.5 39.999s46.166 14 71.499 14z" />
    <glyph glyph-name="agrave" unicode="&#xe0;" horiz-adv-x="516" 
d="M252 490c24.667 0 47.668 -3.83105 69.001 -11.498s39.666 -19.334 54.999 -35.001s27.333 -35 36 -58s13 -49.833 13 -80.5v-305h-30v86c-17.333 -30 -41.666 -53.5 -72.999 -70.5s-66.666 -25.5 -105.999 -25.5c-20.667 0 -40.834 2.5 -60.501 7.5
s-37.167 12.833 -52.5 23.5s-27.666 24 -36.999 40s-14 34.667 -14 56c0 38.667 15 69 45 91s69.667 33 119 33h179v65c0 52 -13.667 90.833 -41 116.5s-62 38.5 -104 38.5c-34.667 0 -63.834 -7.83301 -87.501 -23.5s-44.834 -35.834 -63.501 -60.501l-22 18
c22.667 30 48 53.333 76 70s61 25 99 25zM217.001 19.002c24 0 46.833 3.83301 68.5 11.5s40.5 18.5 56.5 32.5s28.833 30.5 38.5 49.5s14.5 39.833 14.5 62.5v38h-178c-44 0 -77.167 -8.33301 -99.5 -25s-33.5 -39.667 -33.5 -69c0 -18 4 -33.333 12 -46
s18.167 -23 30.5 -31s26.5 -13.833 42.5 -17.5s32 -5.5 48 -5.5zM267.001 562.002h-26l-107 213v5h37z" />
    <glyph glyph-name="aacute" unicode="&#xe1;" horiz-adv-x="516" 
d="M252 490c24.667 0 47.668 -3.83105 69.001 -11.498s39.666 -19.334 54.999 -35.001s27.333 -35 36 -58s13 -49.833 13 -80.5v-305h-30v86c-17.333 -30 -41.666 -53.5 -72.999 -70.5s-66.666 -25.5 -105.999 -25.5c-20.667 0 -40.834 2.5 -60.501 7.5
s-37.167 12.833 -52.5 23.5s-27.666 24 -36.999 40s-14 34.667 -14 56c0 38.667 15 69 45 91s69.667 33 119 33h179v65c0 52 -13.667 90.833 -41 116.5s-62 38.5 -104 38.5c-34.667 0 -63.834 -7.83301 -87.501 -23.5s-44.834 -35.834 -63.501 -60.501l-22 18
c22.667 30 48 53.333 76 70s61 25 99 25zM217.001 19.002c24 0 46.833 3.83301 68.5 11.5s40.5 18.5 56.5 32.5s28.833 30.5 38.5 49.5s14.5 39.833 14.5 62.5v38h-178c-44 0 -77.167 -8.33301 -99.5 -25s-33.5 -39.667 -33.5 -69c0 -18 4 -33.333 12 -46
s18.167 -23 30.5 -31s26.5 -13.833 42.5 -17.5s32 -5.5 48 -5.5zM371.001 775.002l-107 -213h-26l96 218h37v-5z" />
    <glyph glyph-name="acircumflex" unicode="&#xe2;" horiz-adv-x="516" 
d="M252 490c24.667 0 47.668 -3.83105 69.001 -11.498s39.666 -19.334 54.999 -35.001s27.333 -35 36 -58s13 -49.833 13 -80.5v-305h-30v86c-17.333 -30 -41.666 -53.5 -72.999 -70.5s-66.666 -25.5 -105.999 -25.5c-20.667 0 -40.834 2.5 -60.501 7.5
s-37.167 12.833 -52.5 23.5s-27.666 24 -36.999 40s-14 34.667 -14 56c0 38.667 15 69 45 91s69.667 33 119 33h179v65c0 52 -13.667 90.833 -41 116.5s-62 38.5 -104 38.5c-34.667 0 -63.834 -7.83301 -87.501 -23.5s-44.834 -35.834 -63.501 -60.501l-22 18
c22.667 30 48 53.333 76 70s61 25 99 25zM217.001 19.002c24 0 46.833 3.83301 68.5 11.5s40.5 18.5 56.5 32.5s28.833 30.5 38.5 49.5s14.5 39.833 14.5 62.5v38h-178c-44 0 -77.167 -8.33301 -99.5 -25s-33.5 -39.667 -33.5 -69c0 -18 4 -33.333 12 -46
s18.167 -23 30.5 -31s26.5 -13.833 42.5 -17.5s32 -5.5 48 -5.5zM394.001 562.002h-27l-116 172l-117 -172h-27l136 218h15z" />
    <glyph glyph-name="atilde" unicode="&#xe3;" horiz-adv-x="516" 
d="M252 490c24.667 0 47.668 -3.83105 69.001 -11.498s39.666 -19.334 54.999 -35.001s27.333 -35 36 -58s13 -49.833 13 -80.5v-305h-30v86c-17.333 -30 -41.666 -53.5 -72.999 -70.5s-66.666 -25.5 -105.999 -25.5c-20.667 0 -40.834 2.5 -60.501 7.5
s-37.167 12.833 -52.5 23.5s-27.666 24 -36.999 40s-14 34.667 -14 56c0 38.667 15 69 45 91s69.667 33 119 33h179v65c0 52 -13.667 90.833 -41 116.5s-62 38.5 -104 38.5c-34.667 0 -63.834 -7.83301 -87.501 -23.5s-44.834 -35.834 -63.501 -60.501l-22 18
c22.667 30 48 53.333 76 70s61 25 99 25zM217.001 19.002c24 0 46.833 3.83301 68.5 11.5s40.5 18.5 56.5 32.5s28.833 30.5 38.5 49.5s14.5 39.833 14.5 62.5v38h-178c-44 0 -77.167 -8.33301 -99.5 -25s-33.5 -39.667 -33.5 -69c0 -18 4 -33.333 12 -46
s18.167 -23 30.5 -31s26.5 -13.833 42.5 -17.5s32 -5.5 48 -5.5zM185.001 722.002c13.333 0 24.832 -3.16699 34.499 -9.5s18.834 -14.166 27.501 -23.499l25 -27c8 -8.66699 15.167 -15 21.5 -19s13.5 -6 21.5 -6c12.667 0 21.5 4.83301 26.5 14.5s7.5 21.167 7.5 34.5v21
h29c0.666992 -3.33301 1 -6.5 1 -9.5v-9.5c0 -9.33301 -1 -18.666 -3 -27.999s-5.5 -17.833 -10.5 -25.5s-11.333 -13.834 -19 -18.501s-17.167 -7 -28.5 -7c-13.333 0 -25 3.16699 -35 9.5s-19.333 14.166 -28 23.499l-25 27c-8 8.66699 -15.167 15 -21.5 19
s-13.5 6 -21.5 6c-12.667 0 -21.5 -4.83301 -26.5 -14.5s-7.5 -21.167 -7.5 -34.5v-21h-29c-0.666992 3.33301 -1 6.5 -1 9.5v9.5c0 9.33301 1.16699 18.666 3.5 27.999s6 17.833 11 25.5s11.333 13.834 19 18.501s17.167 7 28.5 7z" />
    <glyph glyph-name="adieresis" unicode="&#xe4;" horiz-adv-x="516" 
d="M252 490c24.667 0 47.668 -3.83105 69.001 -11.498s39.666 -19.334 54.999 -35.001s27.333 -35 36 -58s13 -49.833 13 -80.5v-305h-30v86c-17.333 -30 -41.666 -53.5 -72.999 -70.5s-66.666 -25.5 -105.999 -25.5c-20.667 0 -40.834 2.5 -60.501 7.5
s-37.167 12.833 -52.5 23.5s-27.666 24 -36.999 40s-14 34.667 -14 56c0 38.667 15 69 45 91s69.667 33 119 33h179v65c0 52 -13.667 90.833 -41 116.5s-62 38.5 -104 38.5c-34.667 0 -63.834 -7.83301 -87.501 -23.5s-44.834 -35.834 -63.501 -60.501l-22 18
c22.667 30 48 53.333 76 70s61 25 99 25zM217.001 19.002c24 0 46.833 3.83301 68.5 11.5s40.5 18.5 56.5 32.5s28.833 30.5 38.5 49.5s14.5 39.833 14.5 62.5v38h-178c-44 0 -77.167 -8.33301 -99.5 -25s-33.5 -39.667 -33.5 -69c0 -18 4 -33.333 12 -46
s18.167 -23 30.5 -31s26.5 -13.833 42.5 -17.5s32 -5.5 48 -5.5zM346.001 700.002c9.33301 0 17.333 -3.33301 24 -10s10 -14.667 10 -24s-3.33301 -17.333 -10 -24s-14.667 -10 -24 -10s-17.333 3.33301 -24 10s-10 14.667 -10 24s3.33301 17.333 10 24s14.667 10 24 10z
M155.001 700.002c9.33301 0 17.333 -3.33301 24 -10s10 -14.667 10 -24s-3.33301 -17.333 -10 -24s-14.667 -10 -24 -10s-17.333 3.33301 -24 10s-10 14.667 -10 24s3.33301 17.333 10 24s14.667 10 24 10z" />
    <glyph glyph-name="aring" unicode="&#xe5;" horiz-adv-x="516" 
d="M252 490c24.667 0 47.668 -3.83105 69.001 -11.498s39.666 -19.334 54.999 -35.001s27.333 -35 36 -58s13 -49.833 13 -80.5v-305h-30v86c-17.333 -30 -41.666 -53.5 -72.999 -70.5s-66.666 -25.5 -105.999 -25.5c-20.667 0 -40.834 2.5 -60.501 7.5
s-37.167 12.833 -52.5 23.5s-27.666 24 -36.999 40s-14 34.667 -14 56c0 38.667 15 69 45 91s69.667 33 119 33h179v65c0 52 -13.667 90.833 -41 116.5s-62 38.5 -104 38.5c-34.667 0 -63.834 -7.83301 -87.501 -23.5s-44.834 -35.834 -63.501 -60.501l-22 18
c22.667 30 48 53.333 76 70s61 25 99 25zM217.001 19.002c24 0 46.833 3.83301 68.5 11.5s40.5 18.5 56.5 32.5s28.833 30.5 38.5 49.5s14.5 39.833 14.5 62.5v38h-178c-44 0 -77.167 -8.33301 -99.5 -25s-33.5 -39.667 -33.5 -69c0 -18 4 -33.333 12 -46
s18.167 -23 30.5 -31s26.5 -13.833 42.5 -17.5s32 -5.5 48 -5.5zM251.001 763.002c27.333 0 50.5 -9.33301 69.5 -28s28.5 -41.667 28.5 -69s-9.5 -50.333 -28.5 -69s-42.167 -28 -69.5 -28s-50.5 9.33301 -69.5 28s-28.5 41.667 -28.5 69s9.5 50.333 28.5 69
s42.167 28 69.5 28zM251.001 735.002c-19.333 0 -35.5 -6.66699 -48.5 -20s-19.5 -29.666 -19.5 -48.999s6.5 -35.666 19.5 -48.999s29.167 -20 48.5 -20s35.5 6.66699 48.5 20s19.5 29.666 19.5 48.999s-6.5 35.666 -19.5 48.999s-29.167 20 -48.5 20z" />
    <glyph glyph-name="ae" unicode="&#xe6;" horiz-adv-x="908" 
d="M252 490c43.333 0 80.0059 -11.3311 110.006 -33.998s49.333 -57 58 -103c19.333 40.667 48 73.667 86 99s81 38 129 38c28 0 55 -4.83301 81 -14.5s48.667 -23.667 68 -42s34.833 -40.666 46.5 -66.999s17.5 -56.166 17.5 -89.499c0 -6 -0.166992 -11.833 -0.5 -17.5
s-0.833008 -10.834 -1.5 -15.501c-0.666992 -5.33301 -1 -10.333 -1 -15h-418c1.33301 -30 7.66602 -57.833 18.999 -83.5s26.5 -47.834 45.5 -66.501s41.167 -33.334 66.5 -44.001s52.666 -16 81.999 -16c36 0 68.5 7.5 97.5 22.5s53.5 35.5 73.5 61.5l22 -18
c-22.667 -29.333 -50.5 -52.5 -83.5 -69.5s-69.5 -25.5 -109.5 -25.5c-24.667 0 -48.334 3.33301 -71.001 10s-43.5 16.334 -62.5 29.001s-36 27.667 -51 45s-27.5 36.666 -37.5 57.999c-6 -21.333 -15.333 -40.833 -28 -58.5s-27.834 -32.667 -45.501 -45
s-37.334 -21.833 -59.001 -28.5s-44.5 -10 -68.5 -10c-21.333 0 -41.833 2.83301 -61.5 8.5s-37.167 14.167 -52.5 25.5s-27.666 25.5 -36.999 42.5s-14 36.833 -14 59.5c0 42 15 74.333 45 97s69.667 34 119 34h179v49c0 52 -13.667 90.833 -41 116.5s-62 38.5 -104 38.5
c-34.667 0 -63.834 -7.83301 -87.501 -23.5s-44.834 -35.834 -63.501 -60.501l-22 18c22.667 30 48 53.333 76 70s61 25 99 25zM631.006 461.002c-27.333 0 -53 -5.16797 -77 -15.501s-45 -24.666 -63 -42.999s-32.667 -40 -44 -65s-18 -51.833 -20 -80.5h389
c2 30.667 -1.66699 58.5 -11 83.5s-22.5 46.5 -39.5 64.5s-37.167 31.833 -60.5 41.5s-48 14.5 -74 14.5zM219.006 19.001c23.333 0 45.667 3.83301 67 11.5s40 18.5 56 32.5s28.833 30.5 38.5 49.5s14.5 39.833 14.5 62.5v54h-178c-44 0 -77.167 -8.66699 -99.5 -26
s-33.5 -42 -33.5 -74c0 -19.333 4 -36 12 -50s18.333 -25.5 31 -34.5s27 -15.5 43 -19.5s32.333 -6 49 -6z" />
    <glyph glyph-name="ccedilla" unicode="&#xe7;" horiz-adv-x="553" 
d="M306 490c40 0 76.332 -8.5 108.999 -25.5s60.334 -40.167 83.001 -69.5l-22 -18c-20 26 -44.333 46.5 -73 61.5s-61 22.5 -97 22.5c-30.667 0 -59 -5.66699 -85 -17s-48.5 -27 -67.5 -47s-34 -43.5 -45 -70.5s-16.5 -55.833 -16.5 -86.5s5.5 -59.5 16.5 -86.5
s26 -50.5 45 -70.5s41.5 -35.667 67.5 -47s54 -17 84 -17c36 0 68.5 7.5 97.5 22.5s53.5 35.5 73.5 61.5l22 -18c-22.667 -29.333 -50.5 -52.5 -83.5 -69.5s-69.5 -25.5 -109.5 -25.5c-34 0 -66 6.5 -96 19.5s-56 30.833 -78 53.5s-39.333 49.167 -52 79.5
s-19 62.833 -19 97.5s6.33301 67.167 19 97.5s30 56.833 52 79.5s48 40.5 78 53.5s62.333 19.5 97 19.5zM298.999 13c20.667 -9.33301 38.168 -22.333 52.501 -39s21.5 -37 21.5 -61c0 -14 -2.5 -27.167 -7.5 -39.5s-12.333 -23.166 -22 -32.499s-21.5 -16.833 -35.5 -22.5
s-29.667 -8.5 -47 -8.5c-10 0 -20.667 0.833008 -32 2.5s-22.333 4.16699 -33 7.5v27c11.333 -2.66699 22.166 -4.83398 32.499 -6.50098s20.166 -2.5 29.499 -2.5c21.333 0 40.5 6 57.5 18s25.5 31.667 25.5 59c0 21.333 -5.16699 38.333 -15.5 51s-22.166 24 -35.499 34z
" />
    <glyph glyph-name="egrave" unicode="&#xe8;" horiz-adv-x="573" 
d="M300 490c28 0 55 -4.83301 81 -14.5s48.667 -23.5 68 -41.5s34.833 -40.167 46.5 -66.5s17.5 -56.166 17.5 -89.499c0 -6 -0.166992 -11.5 -0.5 -16.5s-0.833008 -9.16699 -1.5 -12.5c-0.666992 -4 -1 -8 -1 -12h-418c0 -31.333 5.5 -60.166 16.5 -86.499
s26 -49.333 45 -69s41.5 -35 67.5 -46s54 -16.5 84 -16.5c36 0 68.5 7.5 97.5 22.5s53.5 35.5 73.5 61.5l22 -18c-22.667 -29.333 -50.5 -52.5 -83.5 -69.5s-69.5 -25.5 -109.5 -25.5c-34 0 -65.833 6.5 -95.5 19.5s-55.667 30.667 -78 53s-39.833 48.666 -52.5 78.999
s-19 63.166 -19 98.499c0 34.667 6.16699 67.167 18.5 97.5s29.333 56.833 51 79.5s47 40.5 76 53.5s60.5 19.5 94.5 19.5zM298 461c-27.333 0 -52.832 -4.99902 -76.499 -14.999s-44.5 -23.833 -62.5 -41.5s-32.833 -38.334 -44.5 -62.001s-18.834 -49.5 -21.501 -77.5h388
c2 30 -1.66699 57.167 -11 81.5s-22.5 45 -39.5 62s-37 30 -60 39s-47.167 13.5 -72.5 13.5zM317.001 562.001h-26l-107 213v5h37z" />
    <glyph glyph-name="eacute" unicode="&#xe9;" horiz-adv-x="573" 
d="M300 490c28 0 55 -4.83301 81 -14.5s48.667 -23.5 68 -41.5s34.833 -40.167 46.5 -66.5s17.5 -56.166 17.5 -89.499c0 -6 -0.166992 -11.5 -0.5 -16.5s-0.833008 -9.16699 -1.5 -12.5c-0.666992 -4 -1 -8 -1 -12h-418c0 -31.333 5.5 -60.166 16.5 -86.499
s26 -49.333 45 -69s41.5 -35 67.5 -46s54 -16.5 84 -16.5c36 0 68.5 7.5 97.5 22.5s53.5 35.5 73.5 61.5l22 -18c-22.667 -29.333 -50.5 -52.5 -83.5 -69.5s-69.5 -25.5 -109.5 -25.5c-34 0 -65.833 6.5 -95.5 19.5s-55.667 30.667 -78 53s-39.833 48.666 -52.5 78.999
s-19 63.166 -19 98.499c0 34.667 6.16699 67.167 18.5 97.5s29.333 56.833 51 79.5s47 40.5 76 53.5s60.5 19.5 94.5 19.5zM298 461c-27.333 0 -52.832 -4.99902 -76.499 -14.999s-44.5 -23.833 -62.5 -41.5s-32.833 -38.334 -44.5 -62.001s-18.834 -49.5 -21.501 -77.5h388
c2 30 -1.66699 57.167 -11 81.5s-22.5 45 -39.5 62s-37 30 -60 39s-47.167 13.5 -72.5 13.5zM421.001 775.001l-107 -213h-26l96 218h37v-5z" />
    <glyph glyph-name="ecircumflex" unicode="&#xea;" horiz-adv-x="573" 
d="M300 490c28 0 55 -4.83301 81 -14.5s48.667 -23.5 68 -41.5s34.833 -40.167 46.5 -66.5s17.5 -56.166 17.5 -89.499c0 -6 -0.166992 -11.5 -0.5 -16.5s-0.833008 -9.16699 -1.5 -12.5c-0.666992 -4 -1 -8 -1 -12h-418c0 -31.333 5.5 -60.166 16.5 -86.499
s26 -49.333 45 -69s41.5 -35 67.5 -46s54 -16.5 84 -16.5c36 0 68.5 7.5 97.5 22.5s53.5 35.5 73.5 61.5l22 -18c-22.667 -29.333 -50.5 -52.5 -83.5 -69.5s-69.5 -25.5 -109.5 -25.5c-34 0 -65.833 6.5 -95.5 19.5s-55.667 30.667 -78 53s-39.833 48.666 -52.5 78.999
s-19 63.166 -19 98.499c0 34.667 6.16699 67.167 18.5 97.5s29.333 56.833 51 79.5s47 40.5 76 53.5s60.5 19.5 94.5 19.5zM298 461c-27.333 0 -52.832 -4.99902 -76.499 -14.999s-44.5 -23.833 -62.5 -41.5s-32.833 -38.334 -44.5 -62.001s-18.834 -49.5 -21.501 -77.5h388
c2 30 -1.66699 57.167 -11 81.5s-22.5 45 -39.5 62s-37 30 -60 39s-47.167 13.5 -72.5 13.5zM444.001 562.001h-27l-116 172l-117 -172h-27l136 218h15z" />
    <glyph glyph-name="edieresis" unicode="&#xeb;" horiz-adv-x="573" 
d="M300 490c28 0 55 -4.83301 81 -14.5s48.667 -23.5 68 -41.5s34.833 -40.167 46.5 -66.5s17.5 -56.166 17.5 -89.499c0 -6 -0.166992 -11.5 -0.5 -16.5s-0.833008 -9.16699 -1.5 -12.5c-0.666992 -4 -1 -8 -1 -12h-418c0 -31.333 5.5 -60.166 16.5 -86.499
s26 -49.333 45 -69s41.5 -35 67.5 -46s54 -16.5 84 -16.5c36 0 68.5 7.5 97.5 22.5s53.5 35.5 73.5 61.5l22 -18c-22.667 -29.333 -50.5 -52.5 -83.5 -69.5s-69.5 -25.5 -109.5 -25.5c-34 0 -65.833 6.5 -95.5 19.5s-55.667 30.667 -78 53s-39.833 48.666 -52.5 78.999
s-19 63.166 -19 98.499c0 34.667 6.16699 67.167 18.5 97.5s29.333 56.833 51 79.5s47 40.5 76 53.5s60.5 19.5 94.5 19.5zM298 461c-27.333 0 -52.832 -4.99902 -76.499 -14.999s-44.5 -23.833 -62.5 -41.5s-32.833 -38.334 -44.5 -62.001s-18.834 -49.5 -21.501 -77.5h388
c2 30 -1.66699 57.167 -11 81.5s-22.5 45 -39.5 62s-37 30 -60 39s-47.167 13.5 -72.5 13.5zM396.001 700.001c9.33301 0 17.333 -3.33301 24 -10s10 -14.667 10 -24s-3.33301 -17.333 -10 -24s-14.667 -10 -24 -10s-17.333 3.33301 -24 10s-10 14.667 -10 24
s3.33301 17.333 10 24s14.667 10 24 10zM205.001 700.001c9.33301 0 17.333 -3.33301 24 -10s10 -14.667 10 -24s-3.33301 -17.333 -10 -24s-14.667 -10 -24 -10s-17.333 3.33301 -24 10s-10 14.667 -10 24s3.33301 17.333 10 24s14.667 10 24 10z" />
    <glyph glyph-name="igrave" unicode="&#xec;" horiz-adv-x="228" 
d="M129 0h-30v480h30v-480zM131 562h-26l-77 213v5h37z" />
    <glyph glyph-name="iacute" unicode="&#xed;" horiz-adv-x="228" 
d="M129 0h-30v480h30v-480zM203 775l-77 -213h-26l66 218h37v-5z" />
    <glyph glyph-name="icircumflex" unicode="&#xee;" horiz-adv-x="228" 
d="M129 0h-30v480h30v-480zM258 562h-27l-116 172l-117 -172h-27l136 218h15z" />
    <glyph glyph-name="idieresis" unicode="&#xef;" horiz-adv-x="228" 
d="M129 0h-30v480h30v-480zM195 700c9.33301 0 17.333 -3.33301 24 -10s10 -14.667 10 -24s-3.33301 -17.333 -10 -24s-14.667 -10 -24 -10s-17.333 3.33301 -24 10s-10 14.667 -10 24s3.33301 17.333 10 24s14.667 10 24 10zM34 700c9.33301 0 17.333 -3.33301 24 -10
s10 -14.667 10 -24s-3.33301 -17.333 -10 -24s-14.667 -10 -24 -10s-17.333 3.33301 -24 10s-10 14.667 -10 24s3.33301 17.333 10 24s14.667 10 24 10z" />
    <glyph glyph-name="eth" unicode="&#xf0;" horiz-adv-x="565" 
d="M422 692l-149.001 -69.0029l131 -182l40.5 -56.5c12.333 -17.667 23 -35.167 32 -52.5s16 -35.166 21 -53.499s7.5 -38.166 7.5 -59.499c0 -32 -5.5 -62 -16.5 -90s-26.333 -52.167 -46 -72.5s-43.167 -36.5 -70.5 -48.5s-57.333 -18 -90 -18s-62.667 5.83301 -90 17.5
s-50.666 27.667 -69.999 48s-34.5 44 -45.5 71s-16.5 55.833 -16.5 86.5c0 32 5.66699 61.667 17 89s26.833 51.333 46.5 72s42.667 36.834 69 48.501s54.5 17.5 84.5 17.5c23.333 0 45 -3.33301 65 -10s36.667 -14.667 50 -24l-147 204l-159 -74l-12 25l154 72l-78 109
l24 18l82 -114l154 71zM280.999 410.997c-26.667 0 -51.501 -5 -74.501 -15s-43 -23.667 -60 -41s-30.333 -38 -40 -62s-14.5 -50 -14.5 -78s4.83301 -53.833 14.5 -77.5s23 -44.334 40 -62.001s37 -31.5 60 -41.5s48.167 -15 75.5 -15c26.667 0 51.667 5 75 15
s43.5 23.833 60.5 41.5s30.333 38.334 40 62.001s14.5 49.5 14.5 77.5s-4.83301 54 -14.5 78s-23.167 44.667 -40.5 62s-37.666 31 -60.999 41s-48.333 15 -75 15z" />
    <glyph glyph-name="ntilde" unicode="&#xf1;" horiz-adv-x="551" 
d="M286 490c28 0 52.667 -4.66602 74 -13.999s39.5 -22.166 54.5 -38.499s26.333 -35.833 34 -58.5s11.5 -47.334 11.5 -74.001v-305h-30v305c0 46 -12.667 83.5 -38 112.5s-61 43.5 -107 43.5c-22.667 0 -43.5 -3.83301 -62.5 -11.5s-35.5 -18.5 -49.5 -32.5
s-24.833 -30.5 -32.5 -49.5s-11.5 -39.833 -11.5 -62.5v-305h-30v480h30v-77c15.333 27.333 36.333 48.666 63 63.999s58 23 94 23zM218 722.001c13.333 0 24.832 -3.16699 34.499 -9.5s18.834 -14.166 27.501 -23.499l25 -27c8 -8.66699 15.167 -15 21.5 -19
s13.5 -6 21.5 -6c12.667 0 21.5 4.83301 26.5 14.5s7.5 21.167 7.5 34.5v21h29c0.666992 -3.33301 1 -6.5 1 -9.5v-9.5c0 -9.33301 -1 -18.666 -3 -27.999s-5.5 -17.833 -10.5 -25.5s-11.333 -13.834 -19 -18.501s-17.167 -7 -28.5 -7c-13.333 0 -25 3.16699 -35 9.5
s-19.333 14.166 -28 23.499l-25 27c-8 8.66699 -15.167 15 -21.5 19s-13.5 6 -21.5 6c-12.667 0 -21.5 -4.83301 -26.5 -14.5s-7.5 -21.167 -7.5 -34.5v-21h-29c-0.666992 3.33301 -1 6.5 -1 9.5v9.5c0 9.33301 1.16699 18.666 3.5 27.999s6 17.833 11 25.5
s11.333 13.834 19 18.501s17.167 7 28.5 7z" />
    <glyph glyph-name="ograve" unicode="&#xf2;" horiz-adv-x="613" 
d="M306 490c34 0 66 -6.33301 96 -19s56.167 -30.334 78.5 -53.001s40 -49.167 53 -79.5s19.5 -63.166 19.5 -98.499s-6.5 -68.166 -19.5 -98.499s-30.667 -56.666 -53 -78.999s-48.5 -40 -78.5 -53s-62.333 -19.5 -97 -19.5c-34 0 -66 6.5 -96 19.5s-56 30.667 -78 53
s-39.333 48.666 -52 78.999s-19 63.166 -19 98.499s6.33301 68.166 19 98.499s30 56.833 52 79.5s48 40.334 78 53.001s62.333 19 97 19zM306 461c-30.667 0 -58.999 -5.66699 -84.999 -17s-48.5 -27 -67.5 -47s-34 -43.5 -45 -70.5s-16.5 -55.833 -16.5 -86.5
c0 -31.333 5.5 -60.5 16.5 -87.5s26 -50.333 45 -70s41.5 -35.167 67.5 -46.5s54 -17 84 -17c30.667 0 59.167 5.66699 85.5 17s49.166 27 68.499 47s34.5 43.5 45.5 70.5s16.5 55.833 16.5 86.5s-5.5 59.5 -16.5 86.5s-26.167 50.5 -45.5 70.5s-42 35.667 -68 47
s-54.333 17 -85 17zM323.001 562h-26l-107 213v5h37z" />
    <glyph glyph-name="oacute" unicode="&#xf3;" horiz-adv-x="613" 
d="M306 490c34 0 66 -6.33301 96 -19s56.167 -30.334 78.5 -53.001s40 -49.167 53 -79.5s19.5 -63.166 19.5 -98.499s-6.5 -68.166 -19.5 -98.499s-30.667 -56.666 -53 -78.999s-48.5 -40 -78.5 -53s-62.333 -19.5 -97 -19.5c-34 0 -66 6.5 -96 19.5s-56 30.667 -78 53
s-39.333 48.666 -52 78.999s-19 63.166 -19 98.499s6.33301 68.166 19 98.499s30 56.833 52 79.5s48 40.334 78 53.001s62.333 19 97 19zM306 461c-30.667 0 -58.999 -5.66699 -84.999 -17s-48.5 -27 -67.5 -47s-34 -43.5 -45 -70.5s-16.5 -55.833 -16.5 -86.5
c0 -31.333 5.5 -60.5 16.5 -87.5s26 -50.333 45 -70s41.5 -35.167 67.5 -46.5s54 -17 84 -17c30.667 0 59.167 5.66699 85.5 17s49.166 27 68.499 47s34.5 43.5 45.5 70.5s16.5 55.833 16.5 86.5s-5.5 59.5 -16.5 86.5s-26.167 50.5 -45.5 70.5s-42 35.667 -68 47
s-54.333 17 -85 17zM427.001 775l-107 -213h-26l96 218h37v-5z" />
    <glyph glyph-name="ocircumflex" unicode="&#xf4;" horiz-adv-x="613" 
d="M306 490c34 0 66 -6.33301 96 -19s56.167 -30.334 78.5 -53.001s40 -49.167 53 -79.5s19.5 -63.166 19.5 -98.499s-6.5 -68.166 -19.5 -98.499s-30.667 -56.666 -53 -78.999s-48.5 -40 -78.5 -53s-62.333 -19.5 -97 -19.5c-34 0 -66 6.5 -96 19.5s-56 30.667 -78 53
s-39.333 48.666 -52 78.999s-19 63.166 -19 98.499s6.33301 68.166 19 98.499s30 56.833 52 79.5s48 40.334 78 53.001s62.333 19 97 19zM306 461c-30.667 0 -58.999 -5.66699 -84.999 -17s-48.5 -27 -67.5 -47s-34 -43.5 -45 -70.5s-16.5 -55.833 -16.5 -86.5
c0 -31.333 5.5 -60.5 16.5 -87.5s26 -50.333 45 -70s41.5 -35.167 67.5 -46.5s54 -17 84 -17c30.667 0 59.167 5.66699 85.5 17s49.166 27 68.499 47s34.5 43.5 45.5 70.5s16.5 55.833 16.5 86.5s-5.5 59.5 -16.5 86.5s-26.167 50.5 -45.5 70.5s-42 35.667 -68 47
s-54.333 17 -85 17zM450.001 562h-27l-116 172l-117 -172h-27l136 218h15z" />
    <glyph glyph-name="otilde" unicode="&#xf5;" horiz-adv-x="613" 
d="M306 490c34 0 66 -6.33301 96 -19s56.167 -30.334 78.5 -53.001s40 -49.167 53 -79.5s19.5 -63.166 19.5 -98.499s-6.5 -68.166 -19.5 -98.499s-30.667 -56.666 -53 -78.999s-48.5 -40 -78.5 -53s-62.333 -19.5 -97 -19.5c-34 0 -66 6.5 -96 19.5s-56 30.667 -78 53
s-39.333 48.666 -52 78.999s-19 63.166 -19 98.499s6.33301 68.166 19 98.499s30 56.833 52 79.5s48 40.334 78 53.001s62.333 19 97 19zM306 461c-30.667 0 -58.999 -5.66699 -84.999 -17s-48.5 -27 -67.5 -47s-34 -43.5 -45 -70.5s-16.5 -55.833 -16.5 -86.5
c0 -31.333 5.5 -60.5 16.5 -87.5s26 -50.333 45 -70s41.5 -35.167 67.5 -46.5s54 -17 84 -17c30.667 0 59.167 5.66699 85.5 17s49.166 27 68.499 47s34.5 43.5 45.5 70.5s16.5 55.833 16.5 86.5s-5.5 59.5 -16.5 86.5s-26.167 50.5 -45.5 70.5s-42 35.667 -68 47
s-54.333 17 -85 17zM241.001 722c13.333 0 24.832 -3.16699 34.499 -9.5s18.834 -14.166 27.501 -23.499l25 -27c8 -8.66699 15.167 -15 21.5 -19s13.5 -6 21.5 -6c12.667 0 21.5 4.83301 26.5 14.5s7.5 21.167 7.5 34.5v21h29c0.666992 -3.33301 1 -6.5 1 -9.5v-9.5
c0 -9.33301 -1 -18.666 -3 -27.999s-5.5 -17.833 -10.5 -25.5s-11.333 -13.834 -19 -18.501s-17.167 -7 -28.5 -7c-13.333 0 -25 3.16699 -35 9.5s-19.333 14.166 -28 23.499l-25 27c-8 8.66699 -15.167 15 -21.5 19s-13.5 6 -21.5 6c-12.667 0 -21.5 -4.83301 -26.5 -14.5
s-7.5 -21.167 -7.5 -34.5v-21h-29c-0.666992 3.33301 -1 6.5 -1 9.5v9.5c0 9.33301 1.16699 18.666 3.5 27.999s6 17.833 11 25.5s11.333 13.834 19 18.501s17.167 7 28.5 7z" />
    <glyph glyph-name="odieresis" unicode="&#xf6;" horiz-adv-x="613" 
d="M306 490c34 0 66 -6.33301 96 -19s56.167 -30.334 78.5 -53.001s40 -49.167 53 -79.5s19.5 -63.166 19.5 -98.499s-6.5 -68.166 -19.5 -98.499s-30.667 -56.666 -53 -78.999s-48.5 -40 -78.5 -53s-62.333 -19.5 -97 -19.5c-34 0 -66 6.5 -96 19.5s-56 30.667 -78 53
s-39.333 48.666 -52 78.999s-19 63.166 -19 98.499s6.33301 68.166 19 98.499s30 56.833 52 79.5s48 40.334 78 53.001s62.333 19 97 19zM306 461c-30.667 0 -58.999 -5.66699 -84.999 -17s-48.5 -27 -67.5 -47s-34 -43.5 -45 -70.5s-16.5 -55.833 -16.5 -86.5
c0 -31.333 5.5 -60.5 16.5 -87.5s26 -50.333 45 -70s41.5 -35.167 67.5 -46.5s54 -17 84 -17c30.667 0 59.167 5.66699 85.5 17s49.166 27 68.499 47s34.5 43.5 45.5 70.5s16.5 55.833 16.5 86.5s-5.5 59.5 -16.5 86.5s-26.167 50.5 -45.5 70.5s-42 35.667 -68 47
s-54.333 17 -85 17zM402.001 700c9.33301 0 17.333 -3.33301 24 -10s10 -14.667 10 -24s-3.33301 -17.333 -10 -24s-14.667 -10 -24 -10s-17.333 3.33301 -24 10s-10 14.667 -10 24s3.33301 17.333 10 24s14.667 10 24 10zM211.001 700c9.33301 0 17.333 -3.33301 24 -10
s10 -14.667 10 -24s-3.33301 -17.333 -10 -24s-14.667 -10 -24 -10s-17.333 3.33301 -24 10s-10 14.667 -10 24s3.33301 17.333 10 24s14.667 10 24 10z" />
    <glyph glyph-name="divide" unicode="&#xf7;" 
d="M277 513c9.33301 0 17.333 -3.33301 24 -10s10 -14.667 10 -24s-3.33301 -17.333 -10 -24s-14.667 -10 -24 -10s-17.333 3.33301 -24 10s-10 14.667 -10 24s3.33301 17.333 10 24s14.667 10 24 10zM277 172c9.33301 0 17.333 -3.33301 24 -10s10 -14.667 10 -24
s-3.33301 -17.333 -10 -24s-14.667 -10 -24 -10s-17.333 3.33301 -24 10s-10 14.667 -10 24s3.33301 17.333 10 24s14.667 10 24 10zM493 295h-427v28h427v-28z" />
    <glyph glyph-name="oslash" unicode="&#xf8;" horiz-adv-x="627" 
d="M563 469l-64.001 -64.999c19.333 -22 34.333 -46.833 45 -74.5s16 -57.5 16 -89.5c0 -34.667 -6.5 -67.167 -19.5 -97.5s-30.667 -56.833 -53 -79.5s-48.666 -40.5 -78.999 -53.5s-62.5 -19.5 -96.5 -19.5c-32 0 -61.833 5.66699 -89.5 17s-52.5 26.666 -74.5 45.999
l-63 -63l-21 21l64 64c-19.333 22 -34.333 47 -45 75s-16 58 -16 90c0 34.667 6.33301 67.167 19 97.5s30.167 56.833 52.5 79.5s48.5 40.5 78.5 53.5s62 19.5 96 19.5c32 0 62 -5.83301 90 -17.5s53 -27.5 75 -47.5l64 65zM312.999 461.001
c-30.667 0 -59.001 -5.66699 -85.001 -17s-48.5 -27 -67.5 -47s-34 -43.5 -45 -70.5s-16.5 -55.833 -16.5 -86.5c0 -56.667 16.667 -104.667 50 -144l309 309c-19.333 17.333 -41.166 31 -65.499 41s-50.833 15 -79.5 15zM527.998 240.001c0 28 -4.33203 54 -12.999 78
s-21 45.667 -37 65l-309 -309c19.333 -17.333 41 -30.833 65 -40.5s50 -14.5 78 -14.5c30.667 0 59.167 5.66699 85.5 17s49.166 27 68.499 47s34.5 43.5 45.5 70.5s16.5 55.833 16.5 86.5z" />
    <glyph glyph-name="ugrave" unicode="&#xf9;" horiz-adv-x="543" 
d="M452 175c0 -28.667 -4.66699 -54.334 -14 -77.001s-22.166 -42 -38.499 -58s-35.5 -28.333 -57.5 -37s-45.333 -13 -70 -13c-25.333 0 -48.833 4.33301 -70.5 13s-40.834 21 -57.501 37s-29.667 35.333 -39 58s-14 48.334 -14 77.001v305h30v-305
c0 -25.333 4 -47.666 12 -66.999s18.833 -35.5 32.5 -48.5s29.667 -23 48 -30s37.833 -10.5 58.5 -10.5s40 3.5 58 10.5s33.833 17 47.5 30s24.5 29.167 32.5 48.5s12 41.666 12 66.999v305h30v-305zM288 562h-26l-107 213v5h37z" />
    <glyph glyph-name="uacute" unicode="&#xfa;" horiz-adv-x="543" 
d="M452 175c0 -28.667 -4.66699 -54.334 -14 -77.001s-22.166 -42 -38.499 -58s-35.5 -28.333 -57.5 -37s-45.333 -13 -70 -13c-25.333 0 -48.833 4.33301 -70.5 13s-40.834 21 -57.501 37s-29.667 35.333 -39 58s-14 48.334 -14 77.001v305h30v-305
c0 -25.333 4 -47.666 12 -66.999s18.833 -35.5 32.5 -48.5s29.667 -23 48 -30s37.833 -10.5 58.5 -10.5s40 3.5 58 10.5s33.833 17 47.5 30s24.5 29.167 32.5 48.5s12 41.666 12 66.999v305h30v-305zM392 775l-107 -213h-26l96 218h37v-5z" />
    <glyph glyph-name="ucircumflex" unicode="&#xfb;" horiz-adv-x="543" 
d="M452 175c0 -28.667 -4.66699 -54.334 -14 -77.001s-22.166 -42 -38.499 -58s-35.5 -28.333 -57.5 -37s-45.333 -13 -70 -13c-25.333 0 -48.833 4.33301 -70.5 13s-40.834 21 -57.501 37s-29.667 35.333 -39 58s-14 48.334 -14 77.001v305h30v-305
c0 -25.333 4 -47.666 12 -66.999s18.833 -35.5 32.5 -48.5s29.667 -23 48 -30s37.833 -10.5 58.5 -10.5s40 3.5 58 10.5s33.833 17 47.5 30s24.5 29.167 32.5 48.5s12 41.666 12 66.999v305h30v-305zM415 562h-27l-116 172l-117 -172h-27l136 218h15z" />
    <glyph glyph-name="udieresis" unicode="&#xfc;" horiz-adv-x="543" 
d="M452 175c0 -28.667 -4.66699 -54.334 -14 -77.001s-22.166 -42 -38.499 -58s-35.5 -28.333 -57.5 -37s-45.333 -13 -70 -13c-25.333 0 -48.833 4.33301 -70.5 13s-40.834 21 -57.501 37s-29.667 35.333 -39 58s-14 48.334 -14 77.001v305h30v-305
c0 -25.333 4 -47.666 12 -66.999s18.833 -35.5 32.5 -48.5s29.667 -23 48 -30s37.833 -10.5 58.5 -10.5s40 3.5 58 10.5s33.833 17 47.5 30s24.5 29.167 32.5 48.5s12 41.666 12 66.999v305h30v-305zM367 700c9.33301 0 17.333 -3.33301 24 -10s10 -14.667 10 -24
s-3.33301 -17.333 -10 -24s-14.667 -10 -24 -10s-17.333 3.33301 -24 10s-10 14.667 -10 24s3.33301 17.333 10 24s14.667 10 24 10zM176 700c9.33301 0 17.333 -3.33301 24 -10s10 -14.667 10 -24s-3.33301 -17.333 -10 -24s-14.667 -10 -24 -10s-17.333 3.33301 -24 10
s-10 14.667 -10 24s3.33301 17.333 10 24s14.667 10 24 10z" />
    <glyph glyph-name="yacute" unicode="&#xfd;" horiz-adv-x="518" 
d="M239 -88c-16 -38 -35.667 -64.498 -59 -79.498s-50 -22.5 -80 -22.5c-10 0 -20.5 0.666992 -31.5 2s-21.833 3.66602 -32.5 6.99902v27c11.333 -2.66699 22.166 -4.66699 32.499 -6s20.166 -2 29.499 -2c24.667 0 46.334 6.16699 65.001 18.5
s35.334 35.166 50.001 68.499l34 81l-211 474h33l194 -436l186 436h33zM379 775.002l-107 -213h-26l96 218h37v-5z" />
    <glyph glyph-name="thorn" unicode="&#xfe;" horiz-adv-x="635" 
d="M129 365c8 18.667 19.002 35.833 33.002 51.5s30.167 28.834 48.5 39.501s38.166 19 59.499 25s43 9 65 9c34 0 65.667 -6.5 95 -19.5s54.666 -30.833 75.999 -53.5s38.166 -49.167 50.499 -79.5s18.5 -62.833 18.5 -97.5s-6 -67.167 -18 -97.5
s-28.833 -56.833 -50.5 -79.5s-47.167 -40.5 -76.5 -53.5s-61 -19.5 -95 -19.5c-22 0 -43.667 2.83301 -65 8.5s-41.166 14 -59.499 25s-34.5 24.167 -48.5 39.5s-25 32.666 -33 51.999v-295h-30v930h30v-385zM335.002 460.999c-26 0 -51.332 -4.16699 -75.999 -12.5
s-46.667 -21.5 -66 -39.5s-34.833 -41 -46.5 -69s-17.5 -61.333 -17.5 -100s5.83301 -72 17.5 -100s27.167 -51 46.5 -69s41.333 -31.167 66 -39.5s50 -12.5 76 -12.5c30.667 0 58.667 5.66699 84 17s47.166 27 65.499 47s32.666 43.333 42.999 70s15.5 55.667 15.5 87
c0 30.667 -5.16699 59.5 -15.5 86.5s-24.666 50.5 -42.999 70.5s-40.333 35.667 -66 47s-53.5 17 -83.5 17z" />
    <glyph glyph-name="ydieresis" unicode="&#xff;" horiz-adv-x="518" 
d="M239 -88c-16 -38 -35.667 -64.498 -59 -79.498s-50 -22.5 -80 -22.5c-10 0 -20.5 0.666992 -31.5 2s-21.833 3.66602 -32.5 6.99902v27c11.333 -2.66699 22.166 -4.66699 32.499 -6s20.166 -2 29.499 -2c24.667 0 46.334 6.16699 65.001 18.5
s35.334 35.166 50.001 68.499l34 81l-211 474h33l194 -436l186 436h33zM354 700.002c9.33301 0 17.333 -3.33301 24 -10s10 -14.667 10 -24s-3.33301 -17.333 -10 -24s-14.667 -10 -24 -10s-17.333 3.33301 -24 10s-10 14.667 -10 24s3.33301 17.333 10 24s14.667 10 24 10z
M163 700.002c9.33301 0 17.333 -3.33301 24 -10s10 -14.667 10 -24s-3.33301 -17.333 -10 -24s-14.667 -10 -24 -10s-17.333 3.33301 -24 10s-10 14.667 -10 24s3.33301 17.333 10 24s14.667 10 24 10z" />
    <glyph glyph-name="Amacron" unicode="&#x100;" horiz-adv-x="665" 
d="M620 0h-33l-73 175h-364l-72 -175h-33l280 670h15zM162 204h340l-170 410zM469 782h-272v28h272v-28z" />
    <glyph glyph-name="amacron" unicode="&#x101;" horiz-adv-x="516" 
d="M252 490c24.667 0 47.668 -3.83105 69.001 -11.498s39.666 -19.334 54.999 -35.001s27.333 -35 36 -58s13 -49.833 13 -80.5v-305h-30v86c-17.333 -30 -41.666 -53.5 -72.999 -70.5s-66.666 -25.5 -105.999 -25.5c-20.667 0 -40.834 2.5 -60.501 7.5
s-37.167 12.833 -52.5 23.5s-27.666 24 -36.999 40s-14 34.667 -14 56c0 38.667 15 69 45 91s69.667 33 119 33h179v65c0 52 -13.667 90.833 -41 116.5s-62 38.5 -104 38.5c-34.667 0 -63.834 -7.83301 -87.501 -23.5s-44.834 -35.834 -63.501 -60.501l-22 18
c22.667 30 48 53.333 76 70s61 25 99 25zM217.001 19.002c24 0 46.833 3.83301 68.5 11.5s40.5 18.5 56.5 32.5s28.833 30.5 38.5 49.5s14.5 39.833 14.5 62.5v38h-178c-44 0 -77.167 -8.33301 -99.5 -25s-33.5 -39.667 -33.5 -69c0 -18 4 -33.333 12 -46
s18.167 -23 30.5 -31s26.5 -13.833 42.5 -17.5s32 -5.5 48 -5.5zM377.001 653.002h-252v28h252v-28z" />
    <glyph glyph-name="Abreve" unicode="&#x102;" horiz-adv-x="665" 
d="M620 0h-33l-73 175h-364l-72 -175h-33l280 670h15zM162 204h340l-170 410zM468 883c0 -19.333 -3.5 -37.166 -10.5 -53.499s-16.5 -30.666 -28.5 -42.999s-26.167 -22 -42.5 -29s-34.166 -10.5 -53.499 -10.5s-37.166 3.5 -53.499 10.5s-30.5 16.667 -42.5 29
s-21.5 26.666 -28.5 42.999s-10.5 34.166 -10.5 53.499h30c0 -34 10.167 -60.5 30.5 -79.5s45.166 -28.5 74.499 -28.5s54.166 9.5 74.499 28.5s30.5 45.5 30.5 79.5h30z" />
    <glyph glyph-name="abreve" unicode="&#x103;" horiz-adv-x="516" 
d="M252 490c24.667 0 47.668 -3.83105 69.001 -11.498s39.666 -19.334 54.999 -35.001s27.333 -35 36 -58s13 -49.833 13 -80.5v-305h-30v86c-17.333 -30 -41.666 -53.5 -72.999 -70.5s-66.666 -25.5 -105.999 -25.5c-20.667 0 -40.834 2.5 -60.501 7.5
s-37.167 12.833 -52.5 23.5s-27.666 24 -36.999 40s-14 34.667 -14 56c0 38.667 15 69 45 91s69.667 33 119 33h179v65c0 52 -13.667 90.833 -41 116.5s-62 38.5 -104 38.5c-34.667 0 -63.834 -7.83301 -87.501 -23.5s-44.834 -35.834 -63.501 -60.501l-22 18
c22.667 30 48 53.333 76 70s61 25 99 25zM217.001 19.002c24 0 46.833 3.83301 68.5 11.5s40.5 18.5 56.5 32.5s28.833 30.5 38.5 49.5s14.5 39.833 14.5 62.5v38h-178c-44 0 -77.167 -8.33301 -99.5 -25s-33.5 -39.667 -33.5 -69c0 -18 4 -33.333 12 -46
s18.167 -23 30.5 -31s26.5 -13.833 42.5 -17.5s32 -5.5 48 -5.5zM386.001 723.002c0 -19.333 -3.5 -37.166 -10.5 -53.499s-16.5 -30.666 -28.5 -42.999s-26.167 -22 -42.5 -29s-34.166 -10.5 -53.499 -10.5s-37.166 3.5 -53.499 10.5s-30.5 16.667 -42.5 29
s-21.5 26.666 -28.5 42.999s-10.5 34.166 -10.5 53.499h30c0 -34 10.167 -60.5 30.5 -79.5s45.166 -28.5 74.499 -28.5s54.166 9.5 74.499 28.5s30.5 45.5 30.5 79.5h30z" />
    <glyph glyph-name="Aogonek" unicode="&#x104;" horiz-adv-x="665" 
d="M620 0h-33l-73 175h-364l-72 -175h-33l280 670h15zM162 204h340l-170 410zM620 0l-58 -37.001c-20.667 -13.333 -37 -25.166 -49 -35.499s-18 -23.5 -18 -39.5c0 -15.333 5.83301 -27.5 17.5 -36.5s27.167 -13.5 46.5 -13.5c9.33301 0 19.333 0.833008 30 2.5
s21 3.83398 31 6.50098v-27c-8.66699 -2.66699 -18.167 -5 -28.5 -7s-21.166 -3 -32.499 -3c-25.333 0 -47.5 6.33301 -66.5 19s-28.5 31.334 -28.5 56.001c0 12 2.83301 23.167 8.5 33.5s14.5 20.666 26.5 30.999s27.167 21.166 45.5 32.499s40.166 24 65.499 38z" />
    <glyph glyph-name="aogonek" unicode="&#x105;" horiz-adv-x="516" 
d="M252 490c24.667 0 47.668 -3.83105 69.001 -11.498s39.666 -19.334 54.999 -35.001s27.333 -35 36 -58s13 -49.833 13 -80.5v-305h-30v86c-17.333 -30 -41.666 -53.5 -72.999 -70.5s-66.666 -25.5 -105.999 -25.5c-20.667 0 -40.834 2.5 -60.501 7.5
s-37.167 12.833 -52.5 23.5s-27.666 24 -36.999 40s-14 34.667 -14 56c0 38.667 15 69 45 91s69.667 33 119 33h179v65c0 52 -13.667 90.833 -41 116.5s-62 38.5 -104 38.5c-34.667 0 -63.834 -7.83301 -87.501 -23.5s-44.834 -35.834 -63.501 -60.501l-22 18
c22.667 30 48 53.333 76 70s61 25 99 25zM217.001 19.002c24 0 46.833 3.83301 68.5 11.5s40.5 18.5 56.5 32.5s28.833 30.5 38.5 49.5s14.5 39.833 14.5 62.5v38h-178c-44 0 -77.167 -8.33301 -99.5 -25s-33.5 -39.667 -33.5 -69c0 -18 4 -33.333 12 -46
s18.167 -23 30.5 -31s26.5 -13.833 42.5 -17.5s32 -5.5 48 -5.5zM425.001 0.00195312l-58 -37.001c-20.667 -13.333 -37 -25.166 -49 -35.499s-18 -23.5 -18 -39.5c0 -15.333 5.83301 -27.5 17.5 -36.5s27.167 -13.5 46.5 -13.5c9.33301 0 19.333 0.833008 30 2.5
s21 3.83398 31 6.50098v-27c-8.66699 -2.66699 -18.167 -5 -28.5 -7s-21.166 -3 -32.499 -3c-25.333 0 -47.5 6.33301 -66.5 19s-28.5 31.334 -28.5 56.001c0 12 2.83301 23.167 8.5 33.5s14.5 20.666 26.5 30.999s27.167 21.166 45.5 32.499s40.166 24 65.499 38z" />
    <glyph glyph-name="Cacute" unicode="&#x106;" horiz-adv-x="709" 
d="M391 670c54 0 103.501 -11.4961 148.501 -34.4961s82.5 -54.5 112.5 -94.5l-24 -19c-26.667 36 -60.167 64.5 -100.5 85.5s-85.5 31.5 -135.5 31.5c-43.333 0 -83.333 -7.83301 -120 -23.5s-68.334 -37.334 -95.001 -65.001s-47.667 -60.334 -63 -98.001
s-23 -78.167 -23 -121.5s7.5 -83.833 22.5 -121.5s36 -70.5 63 -98.5s58.833 -50 95.5 -66s76.667 -24 120 -24c50 0 95.167 10.5 135.5 31.5s73.833 49.5 100.5 85.5l24 -19c-30 -40 -67.5 -71.5 -112.5 -94.5s-94.5 -34.5 -148.5 -34.5
c-46.667 0 -90.334 8.83301 -131.001 26.5s-76 41.667 -106 72s-53.667 66.166 -71 107.499s-26 86 -26 134s8.66699 92.833 26 134.5s41 77.667 71 108s65.333 54.166 106 71.499s84.334 26 131.001 26zM512.001 905.004l-107 -181h-26l96 186h37v-5z" />
    <glyph glyph-name="cacute" unicode="&#x107;" horiz-adv-x="553" 
d="M306 490c40 0 76.332 -8.5 108.999 -25.5s60.334 -40.167 83.001 -69.5l-22 -18c-20 26 -44.333 46.5 -73 61.5s-61 22.5 -97 22.5c-30.667 0 -59 -5.66699 -85 -17s-48.5 -27 -67.5 -47s-34 -43.5 -45 -70.5s-16.5 -55.833 -16.5 -86.5s5.5 -59.5 16.5 -86.5
s26 -50.5 45 -70.5s41.5 -35.667 67.5 -47s54 -17 84 -17c36 0 68.5 7.5 97.5 22.5s53.5 35.5 73.5 61.5l22 -18c-22.667 -29.333 -50.5 -52.5 -83.5 -69.5s-69.5 -25.5 -109.5 -25.5c-34 0 -66 6.5 -96 19.5s-56 30.833 -78 53.5s-39.333 49.167 -52 79.5
s-19 62.833 -19 97.5s6.33301 67.167 19 97.5s30 56.833 52 79.5s48 40.5 78 53.5s62.333 19.5 97 19.5zM425.999 775l-107 -213h-26l96 218h37v-5z" />
    <glyph glyph-name="Ccircumflex" unicode="&#x108;" horiz-adv-x="709" 
d="M391 670c54 0 103.501 -11.4961 148.501 -34.4961s82.5 -54.5 112.5 -94.5l-24 -19c-26.667 36 -60.167 64.5 -100.5 85.5s-85.5 31.5 -135.5 31.5c-43.333 0 -83.333 -7.83301 -120 -23.5s-68.334 -37.334 -95.001 -65.001s-47.667 -60.334 -63 -98.001
s-23 -78.167 -23 -121.5s7.5 -83.833 22.5 -121.5s36 -70.5 63 -98.5s58.833 -50 95.5 -66s76.667 -24 120 -24c50 0 95.167 10.5 135.5 31.5s73.833 49.5 100.5 85.5l24 -19c-30 -40 -67.5 -71.5 -112.5 -94.5s-94.5 -34.5 -148.5 -34.5
c-46.667 0 -90.334 8.83301 -131.001 26.5s-76 41.667 -106 72s-53.667 66.166 -71 107.499s-26 86 -26 134s8.66699 92.833 26 134.5s41 77.667 71 108s65.333 54.166 106 71.499s84.334 26 131.001 26zM546.001 724.004h-27l-126 146l-127 -146h-27l146 186h15z" />
    <glyph glyph-name="ccircumflex" unicode="&#x109;" horiz-adv-x="553" 
d="M306 490c40 0 76.332 -8.5 108.999 -25.5s60.334 -40.167 83.001 -69.5l-22 -18c-20 26 -44.333 46.5 -73 61.5s-61 22.5 -97 22.5c-30.667 0 -59 -5.66699 -85 -17s-48.5 -27 -67.5 -47s-34 -43.5 -45 -70.5s-16.5 -55.833 -16.5 -86.5s5.5 -59.5 16.5 -86.5
s26 -50.5 45 -70.5s41.5 -35.667 67.5 -47s54 -17 84 -17c36 0 68.5 7.5 97.5 22.5s53.5 35.5 73.5 61.5l22 -18c-22.667 -29.333 -50.5 -52.5 -83.5 -69.5s-69.5 -25.5 -109.5 -25.5c-34 0 -66 6.5 -96 19.5s-56 30.833 -78 53.5s-39.333 49.167 -52 79.5
s-19 62.833 -19 97.5s6.33301 67.167 19 97.5s30 56.833 52 79.5s48 40.5 78 53.5s62.333 19.5 97 19.5zM448.999 562h-27l-116 172l-117 -172h-27l136 218h15z" />
    <glyph glyph-name="Cdotaccent" unicode="&#x10a;" horiz-adv-x="709" 
d="M391 670c54 0 103.501 -11.4961 148.501 -34.4961s82.5 -54.5 112.5 -94.5l-24 -19c-26.667 36 -60.167 64.5 -100.5 85.5s-85.5 31.5 -135.5 31.5c-43.333 0 -83.333 -7.83301 -120 -23.5s-68.334 -37.334 -95.001 -65.001s-47.667 -60.334 -63 -98.001
s-23 -78.167 -23 -121.5s7.5 -83.833 22.5 -121.5s36 -70.5 63 -98.5s58.833 -50 95.5 -66s76.667 -24 120 -24c50 0 95.167 10.5 135.5 31.5s73.833 49.5 100.5 85.5l24 -19c-30 -40 -67.5 -71.5 -112.5 -94.5s-94.5 -34.5 -148.5 -34.5
c-46.667 0 -90.334 8.83301 -131.001 26.5s-76 41.667 -106 72s-53.667 66.166 -71 107.499s-26 86 -26 134s8.66699 92.833 26 134.5s41 77.667 71 108s65.333 54.166 106 71.499s84.334 26 131.001 26zM393.001 840.004c9.33301 0 17.333 -3.33301 24 -10
s10 -14.667 10 -24s-3.33301 -17.333 -10 -24s-14.667 -10 -24 -10s-17.333 3.33301 -24 10s-10 14.667 -10 24s3.33301 17.333 10 24s14.667 10 24 10z" />
    <glyph glyph-name="cdotaccent" unicode="&#x10b;" horiz-adv-x="553" 
d="M306 490c40 0 76.332 -8.5 108.999 -25.5s60.334 -40.167 83.001 -69.5l-22 -18c-20 26 -44.333 46.5 -73 61.5s-61 22.5 -97 22.5c-30.667 0 -59 -5.66699 -85 -17s-48.5 -27 -67.5 -47s-34 -43.5 -45 -70.5s-16.5 -55.833 -16.5 -86.5s5.5 -59.5 16.5 -86.5
s26 -50.5 45 -70.5s41.5 -35.667 67.5 -47s54 -17 84 -17c36 0 68.5 7.5 97.5 22.5s53.5 35.5 73.5 61.5l22 -18c-22.667 -29.333 -50.5 -52.5 -83.5 -69.5s-69.5 -25.5 -109.5 -25.5c-34 0 -66 6.5 -96 19.5s-56 30.833 -78 53.5s-39.333 49.167 -52 79.5
s-19 62.833 -19 97.5s6.33301 67.167 19 97.5s30 56.833 52 79.5s48 40.5 78 53.5s62.333 19.5 97 19.5zM305.999 700c9.33301 0 17.333 -3.33301 24 -10s10 -14.667 10 -24s-3.33301 -17.333 -10 -24s-14.667 -10 -24 -10s-17.333 3.33301 -24 10s-10 14.667 -10 24
s3.33301 17.333 10 24s14.667 10 24 10z" />
    <glyph glyph-name="Ccaron" unicode="&#x10c;" horiz-adv-x="709" 
d="M391 670c54 0 103.501 -11.4961 148.501 -34.4961s82.5 -54.5 112.5 -94.5l-24 -19c-26.667 36 -60.167 64.5 -100.5 85.5s-85.5 31.5 -135.5 31.5c-43.333 0 -83.333 -7.83301 -120 -23.5s-68.334 -37.334 -95.001 -65.001s-47.667 -60.334 -63 -98.001
s-23 -78.167 -23 -121.5s7.5 -83.833 22.5 -121.5s36 -70.5 63 -98.5s58.833 -50 95.5 -66s76.667 -24 120 -24c50 0 95.167 10.5 135.5 31.5s73.833 49.5 100.5 85.5l24 -19c-30 -40 -67.5 -71.5 -112.5 -94.5s-94.5 -34.5 -148.5 -34.5
c-46.667 0 -90.334 8.83301 -131.001 26.5s-76 41.667 -106 72s-53.667 66.166 -71 107.499s-26 86 -26 134s8.66699 92.833 26 134.5s41 77.667 71 108s65.333 54.166 106 71.499s84.334 26 131.001 26zM400.001 724.004h-15l-146 186h27l127 -147l126 147h27z" />
    <glyph glyph-name="ccaron" unicode="&#x10d;" horiz-adv-x="553" 
d="M306 490c40 0 76.332 -8.5 108.999 -25.5s60.334 -40.167 83.001 -69.5l-22 -18c-20 26 -44.333 46.5 -73 61.5s-61 22.5 -97 22.5c-30.667 0 -59 -5.66699 -85 -17s-48.5 -27 -67.5 -47s-34 -43.5 -45 -70.5s-16.5 -55.833 -16.5 -86.5s5.5 -59.5 16.5 -86.5
s26 -50.5 45 -70.5s41.5 -35.667 67.5 -47s54 -17 84 -17c36 0 68.5 7.5 97.5 22.5s53.5 35.5 73.5 61.5l22 -18c-22.667 -29.333 -50.5 -52.5 -83.5 -69.5s-69.5 -25.5 -109.5 -25.5c-34 0 -66 6.5 -96 19.5s-56 30.833 -78 53.5s-39.333 49.167 -52 79.5
s-19 62.833 -19 97.5s6.33301 67.167 19 97.5s30 56.833 52 79.5s48 40.5 78 53.5s62.333 19.5 97 19.5zM312.999 562h-15l-136 218h27l117 -172l116 172h27z" />
    <glyph glyph-name="Dcaron" unicode="&#x10e;" horiz-adv-x="698" 
d="M282 660c58.667 0 110.334 -8.5 155.001 -25.5s82.167 -40.167 112.5 -69.5s53.166 -64 68.499 -104s23 -83.333 23 -130c0 -46 -7.66699 -89.167 -23 -129.5s-38.166 -75.5 -68.499 -105.5s-67.833 -53.5 -112.5 -70.5s-96.334 -25.5 -155.001 -25.5h-179v660h179z
M135 631v-602h147c53.333 0 100.166 8 140.499 24s74.166 37.667 101.499 65s48 59.333 62 96s21 75.667 21 117s-7 80.333 -21 117s-34.667 68.5 -62 95.5s-61.166 48.333 -101.499 64s-87.166 23.5 -140.499 23.5h-147zM289 724h-15l-146 186h27l127 -147l126 147h27z" />
    <glyph glyph-name="dcaron" unicode="&#x10f;" horiz-adv-x="635" 
d="M536 0l-30.002 0.000976562v115c-8 -19.333 -19.167 -36.666 -33.5 -51.999s-30.666 -28.5 -48.999 -39.5s-38 -19.333 -59 -25s-42.5 -8.5 -64.5 -8.5c-34 0 -65.667 6.5 -95 19.5s-54.666 30.833 -75.999 53.5s-38.166 49.167 -50.499 79.5s-18.5 62.833 -18.5 97.5
s6 67.167 18 97.5s28.833 56.833 50.5 79.5s47.167 40.5 76.5 53.5s61 19.5 95 19.5c22 0 43.5 -3 64.5 -9s40.667 -14.333 59 -25s34.666 -23.834 48.999 -39.501s25.5 -32.834 33.5 -51.501v385h30v-750zM299.998 461.001c-30.667 0 -58.668 -5.66699 -84.001 -17
s-47.166 -27 -65.499 -47s-32.666 -43.5 -42.999 -70.5s-15.5 -55.833 -15.5 -86.5s5.16699 -59.5 15.5 -86.5s24.666 -50.5 42.999 -70.5s40.333 -35.667 66 -47s53.5 -17 83.5 -17c26 0 51.333 4.16699 76 12.5s46.667 21.5 66 39.5s34.833 41 46.5 69
s17.5 61.333 17.5 100s-5.83301 72 -17.5 100s-27.167 51 -46.5 69s-41.333 31.167 -66 39.5s-50 12.5 -76 12.5zM673.997 540.001h-26l20 210h38z" />
    <glyph glyph-name="Dcroat" unicode="&#x110;" horiz-adv-x="698" 
d="M282 660c58.667 0 110.334 -8.5 155.001 -25.5s82.167 -40.167 112.5 -69.5s53.166 -64 68.499 -104s23 -83.333 23 -130c0 -46 -7.66699 -89.167 -23 -129.5s-38.166 -75.5 -68.499 -105.5s-67.833 -53.5 -112.5 -70.5s-96.334 -25.5 -155.001 -25.5h-179v287h-103v28
h103v345h179zM135 631v-316h151v-28h-151v-258h147c53.333 0 100.166 8 140.499 24s74.166 37.667 101.499 65s48 59.333 62 96s21 75.667 21 117s-7 80.333 -21 117s-34.667 68.5 -62 95.5s-61.166 48.333 -101.499 64s-87.166 23.5 -140.499 23.5h-147z" />
    <glyph glyph-name="dcroat" unicode="&#x111;" horiz-adv-x="633" 
d="M620 604l-86.002 0.000976562v-604h-30v115c-8 -19.333 -19.167 -36.666 -33.5 -51.999s-30.666 -28.5 -48.999 -39.5s-38 -19.333 -59 -25s-42.5 -8.5 -64.5 -8.5c-34 0 -65.667 6.5 -95 19.5s-54.666 30.833 -75.999 53.5s-38.166 49.167 -50.499 79.5
s-18.5 62.833 -18.5 97.5s6 67.167 18 97.5s28.833 56.833 50.5 79.5s47.167 40.5 76.5 53.5s61 19.5 95 19.5c22 0 43.5 -3 64.5 -9s40.667 -14.333 59 -25s34.666 -23.834 48.999 -39.501s25.5 -32.834 33.5 -51.501v239h-230v28h230v118h30v-118h86v-28zM297.998 461.001
c-30.667 0 -58.668 -5.66699 -84.001 -17s-47.166 -27 -65.499 -47s-32.666 -43.5 -42.999 -70.5s-15.5 -55.833 -15.5 -86.5s5.16699 -59.5 15.5 -86.5s24.666 -50.5 42.999 -70.5s40.333 -35.667 66 -47s53.5 -17 83.5 -17c26 0 51.333 4.16699 76 12.5
s46.667 21.5 66 39.5s34.833 41 46.5 69s17.5 61.333 17.5 100s-5.83301 72 -17.5 100s-27.167 51 -46.5 69s-41.333 31.167 -66 39.5s-50 12.5 -76 12.5z" />
    <glyph glyph-name="Emacron" unicode="&#x112;" horiz-adv-x="561" 
d="M509 631h-374v-257h294v-29h-294v-316h386v-29h-418v660h406v-29zM437 782h-272v28h272v-28z" />
    <glyph glyph-name="emacron" unicode="&#x113;" horiz-adv-x="573" 
d="M300 490c28 0 55 -4.83301 81 -14.5s48.667 -23.5 68 -41.5s34.833 -40.167 46.5 -66.5s17.5 -56.166 17.5 -89.499c0 -6 -0.166992 -11.5 -0.5 -16.5s-0.833008 -9.16699 -1.5 -12.5c-0.666992 -4 -1 -8 -1 -12h-418c0 -31.333 5.5 -60.166 16.5 -86.499
s26 -49.333 45 -69s41.5 -35 67.5 -46s54 -16.5 84 -16.5c36 0 68.5 7.5 97.5 22.5s53.5 35.5 73.5 61.5l22 -18c-22.667 -29.333 -50.5 -52.5 -83.5 -69.5s-69.5 -25.5 -109.5 -25.5c-34 0 -65.833 6.5 -95.5 19.5s-55.667 30.667 -78 53s-39.833 48.666 -52.5 78.999
s-19 63.166 -19 98.499c0 34.667 6.16699 67.167 18.5 97.5s29.333 56.833 51 79.5s47 40.5 76 53.5s60.5 19.5 94.5 19.5zM298 461c-27.333 0 -52.832 -4.99902 -76.499 -14.999s-44.5 -23.833 -62.5 -41.5s-32.833 -38.334 -44.5 -62.001s-18.834 -49.5 -21.501 -77.5h388
c2 30 -1.66699 57.167 -11 81.5s-22.5 45 -39.5 62s-37 30 -60 39s-47.167 13.5 -72.5 13.5zM427.001 653.001h-252v28h252v-28z" />
    <glyph glyph-name="Ebreve" unicode="&#x114;" horiz-adv-x="561" 
d="M509 631h-374v-257h294v-29h-294v-316h386v-29h-418v660h406v-29zM436 883c0 -19.333 -3.5 -37.166 -10.5 -53.499s-16.5 -30.666 -28.5 -42.999s-26.167 -22 -42.5 -29s-34.166 -10.5 -53.499 -10.5s-37.166 3.5 -53.499 10.5s-30.5 16.667 -42.5 29
s-21.5 26.666 -28.5 42.999s-10.5 34.166 -10.5 53.499h30c0 -34 10.167 -60.5 30.5 -79.5s45.166 -28.5 74.499 -28.5s54.166 9.5 74.499 28.5s30.5 45.5 30.5 79.5h30z" />
    <glyph glyph-name="ebreve" unicode="&#x115;" horiz-adv-x="573" 
d="M300 490c28 0 55 -4.83301 81 -14.5s48.667 -23.5 68 -41.5s34.833 -40.167 46.5 -66.5s17.5 -56.166 17.5 -89.499c0 -6 -0.166992 -11.5 -0.5 -16.5s-0.833008 -9.16699 -1.5 -12.5c-0.666992 -4 -1 -8 -1 -12h-418c0 -31.333 5.5 -60.166 16.5 -86.499
s26 -49.333 45 -69s41.5 -35 67.5 -46s54 -16.5 84 -16.5c36 0 68.5 7.5 97.5 22.5s53.5 35.5 73.5 61.5l22 -18c-22.667 -29.333 -50.5 -52.5 -83.5 -69.5s-69.5 -25.5 -109.5 -25.5c-34 0 -65.833 6.5 -95.5 19.5s-55.667 30.667 -78 53s-39.833 48.666 -52.5 78.999
s-19 63.166 -19 98.499c0 34.667 6.16699 67.167 18.5 97.5s29.333 56.833 51 79.5s47 40.5 76 53.5s60.5 19.5 94.5 19.5zM298 461c-27.333 0 -52.832 -4.99902 -76.499 -14.999s-44.5 -23.833 -62.5 -41.5s-32.833 -38.334 -44.5 -62.001s-18.834 -49.5 -21.501 -77.5h388
c2 30 -1.66699 57.167 -11 81.5s-22.5 45 -39.5 62s-37 30 -60 39s-47.167 13.5 -72.5 13.5zM436.001 723.001c0 -19.333 -3.5 -37.166 -10.5 -53.499s-16.5 -30.666 -28.5 -42.999s-26.167 -22 -42.5 -29s-34.166 -10.5 -53.499 -10.5s-37.166 3.5 -53.499 10.5
s-30.5 16.667 -42.5 29s-21.5 26.666 -28.5 42.999s-10.5 34.166 -10.5 53.499h30c0 -34 10.167 -60.5 30.5 -79.5s45.166 -28.5 74.499 -28.5s54.166 9.5 74.499 28.5s30.5 45.5 30.5 79.5h30z" />
    <glyph glyph-name="Edotaccent" unicode="&#x116;" horiz-adv-x="561" 
d="M509 631h-374v-257h294v-29h-294v-316h386v-29h-418v660h406v-29zM301 840c9.33301 0 17.333 -3.33301 24 -10s10 -14.667 10 -24s-3.33301 -17.333 -10 -24s-14.667 -10 -24 -10s-17.333 3.33301 -24 10s-10 14.667 -10 24s3.33301 17.333 10 24s14.667 10 24 10z" />
    <glyph glyph-name="edotaccent" unicode="&#x117;" horiz-adv-x="573" 
d="M300 490c28 0 55 -4.83301 81 -14.5s48.667 -23.5 68 -41.5s34.833 -40.167 46.5 -66.5s17.5 -56.166 17.5 -89.499c0 -6 -0.166992 -11.5 -0.5 -16.5s-0.833008 -9.16699 -1.5 -12.5c-0.666992 -4 -1 -8 -1 -12h-418c0 -31.333 5.5 -60.166 16.5 -86.499
s26 -49.333 45 -69s41.5 -35 67.5 -46s54 -16.5 84 -16.5c36 0 68.5 7.5 97.5 22.5s53.5 35.5 73.5 61.5l22 -18c-22.667 -29.333 -50.5 -52.5 -83.5 -69.5s-69.5 -25.5 -109.5 -25.5c-34 0 -65.833 6.5 -95.5 19.5s-55.667 30.667 -78 53s-39.833 48.666 -52.5 78.999
s-19 63.166 -19 98.499c0 34.667 6.16699 67.167 18.5 97.5s29.333 56.833 51 79.5s47 40.5 76 53.5s60.5 19.5 94.5 19.5zM298 461c-27.333 0 -52.832 -4.99902 -76.499 -14.999s-44.5 -23.833 -62.5 -41.5s-32.833 -38.334 -44.5 -62.001s-18.834 -49.5 -21.501 -77.5h388
c2 30 -1.66699 57.167 -11 81.5s-22.5 45 -39.5 62s-37 30 -60 39s-47.167 13.5 -72.5 13.5zM301.001 700.001c9.33301 0 17.333 -3.33301 24 -10s10 -14.667 10 -24s-3.33301 -17.333 -10 -24s-14.667 -10 -24 -10s-17.333 3.33301 -24 10s-10 14.667 -10 24
s3.33301 17.333 10 24s14.667 10 24 10z" />
    <glyph glyph-name="Eogonek" unicode="&#x118;" horiz-adv-x="561" 
d="M509 631h-374v-257h294v-29h-294v-316h386v-29h-418v660h406v-29zM521 0l-58 -37.001c-20.667 -13.333 -37 -25.166 -49 -35.499s-18 -23.5 -18 -39.5c0 -15.333 5.83301 -27.5 17.5 -36.5s27.167 -13.5 46.5 -13.5c9.33301 0 19.333 0.833008 30 2.5
s21 3.83398 31 6.50098v-27c-8.66699 -2.66699 -18.167 -5 -28.5 -7s-21.166 -3 -32.499 -3c-25.333 0 -47.5 6.33301 -66.5 19s-28.5 31.334 -28.5 56.001c0 12 2.83301 23.167 8.5 33.5s14.5 20.666 26.5 30.999s27.167 21.166 45.5 32.499s40.166 24 65.499 38z" />
    <glyph glyph-name="eogonek" unicode="&#x119;" horiz-adv-x="573" 
d="M300 490c28 0 55.001 -4.83203 81.001 -14.499s48.667 -23.5 68 -41.5s34.833 -40.167 46.5 -66.5s17.5 -56.166 17.5 -89.499c0 -6 -0.166992 -11.5 -0.5 -16.5s-0.833008 -9.16699 -1.5 -12.5c-0.666992 -4 -1 -8 -1 -12h-418c0 -31.333 5.5 -60.166 16.5 -86.499
s26 -49.333 45 -69s41.5 -35 67.5 -46s54 -16.5 84 -16.5c36 0 68.5 7.5 97.5 22.5s53.5 35.5 73.5 61.5l22 -18c-19.333 -25.333 -42.333 -46.833 -69 -64.5l-75 -51.5c-19.333 -13.333 -34.333 -26.333 -45 -39s-16 -26.667 -16 -42c0 -16 5.83301 -28.333 17.5 -37
s27.167 -13 46.5 -13c9.33301 0 19.333 0.833008 30 2.5s21 3.83398 31 6.50098v-27c-8.66699 -2.66699 -18.334 -5 -29.001 -7s-21.667 -3 -33 -3c-24.667 0 -46.5 6.16699 -65.5 18.5s-28.5 31.166 -28.5 56.499c0 19.333 6.66699 37.166 20 53.499s36 34.833 68 55.5
c-7.33301 -1.33301 -14.833 -2.33301 -22.5 -3s-15.167 -1 -22.5 -1c-34 0 -65.833 6.5 -95.5 19.5s-55.667 30.667 -78 53s-39.833 48.666 -52.5 78.999s-19 63.166 -19 98.499c0 34.667 6.16699 67.167 18.5 97.5s29.333 56.833 51 79.5s47 40.5 76 53.5
s60.5 19.5 94.5 19.5zM298.001 461.001c-27.333 0 -52.832 -4.99902 -76.499 -14.999s-44.5 -23.833 -62.5 -41.5s-32.833 -38.334 -44.5 -62.001s-18.834 -49.5 -21.501 -77.5h388c2 30 -1.66699 57.167 -11 81.5s-22.5 45 -39.5 62s-37 30 -60 39s-47.167 13.5 -72.5 13.5
z" />
    <glyph glyph-name="Ecaron" unicode="&#x11a;" horiz-adv-x="561" 
d="M509 631h-374v-257h294v-29h-294v-316h386v-29h-418v660h406v-29zM308 724h-15l-146 186h27l127 -147l126 147h27z" />
    <glyph glyph-name="ecaron" unicode="&#x11b;" horiz-adv-x="573" 
d="M300 490c28 0 55 -4.83301 81 -14.5s48.667 -23.5 68 -41.5s34.833 -40.167 46.5 -66.5s17.5 -56.166 17.5 -89.499c0 -6 -0.166992 -11.5 -0.5 -16.5s-0.833008 -9.16699 -1.5 -12.5c-0.666992 -4 -1 -8 -1 -12h-418c0 -31.333 5.5 -60.166 16.5 -86.499
s26 -49.333 45 -69s41.5 -35 67.5 -46s54 -16.5 84 -16.5c36 0 68.5 7.5 97.5 22.5s53.5 35.5 73.5 61.5l22 -18c-22.667 -29.333 -50.5 -52.5 -83.5 -69.5s-69.5 -25.5 -109.5 -25.5c-34 0 -65.833 6.5 -95.5 19.5s-55.667 30.667 -78 53s-39.833 48.666 -52.5 78.999
s-19 63.166 -19 98.499c0 34.667 6.16699 67.167 18.5 97.5s29.333 56.833 51 79.5s47 40.5 76 53.5s60.5 19.5 94.5 19.5zM298 461c-27.333 0 -52.832 -4.99902 -76.499 -14.999s-44.5 -23.833 -62.5 -41.5s-32.833 -38.334 -44.5 -62.001s-18.834 -49.5 -21.501 -77.5h388
c2 30 -1.66699 57.167 -11 81.5s-22.5 45 -39.5 62s-37 30 -60 39s-47.167 13.5 -72.5 13.5zM308.001 562.001h-15l-136 218h27l117 -172l116 172h27z" />
    <glyph glyph-name="Gcircumflex" unicode="&#x11c;" horiz-adv-x="744" 
d="M391 670c54 0 103.5 -11.4951 148.5 -34.4951s82.5 -54.5 112.5 -94.5l-24 -19c-26.667 36 -60.167 64.5 -100.5 85.5s-85.5 31.5 -135.5 31.5c-43.333 0 -83.333 -7.83301 -120 -23.5s-68.334 -37.334 -95.001 -65.001s-47.667 -60.334 -63 -98.001
s-23 -78.167 -23 -121.5s7.5 -83.833 22.5 -121.5s36 -70.5 63 -98.5s59 -50 96 -66s77.167 -24 120.5 -24c55.333 0 105.333 12.5 150 37.5s80 58.833 106 101.5v126h-258v30h290v-161c-30 -52.667 -70.667 -93.334 -122 -122.001s-107.333 -43 -168 -43
c-47.333 0 -91.333 8.83301 -132 26.5s-76 41.667 -106 72s-53.5 66.166 -70.5 107.499s-25.5 86 -25.5 134s8.66699 92.833 26 134.5s41 77.667 71 108s65.333 54.166 106 71.499s84.334 26 131.001 26zM544 724.005h-27l-126 146l-127 -146h-27l146 186h15z" />
    <glyph glyph-name="gcircumflex" unicode="&#x11d;" horiz-adv-x="642" 
d="M306 491c22 0 43.667 -2.99805 65 -8.99805s41.166 -14.333 59.499 -25s34.666 -23.5 48.999 -38.5s25.5 -31.833 33.5 -50.5v112h30v-440c0 -36 -5.83301 -68.333 -17.5 -97s-27.667 -52.834 -48 -72.501s-44.333 -34.667 -72 -45s-57.5 -15.5 -89.5 -15.5
c-44.667 0 -86.167 8.83301 -124.5 26.5s-69.166 40.167 -92.499 67.5l21 20c22 -25.333 50.167 -45.833 84.5 -61.5s71.5 -23.5 111.5 -23.5c28 0 54.167 4.33301 78.5 13s45.166 21.5 62.499 38.5s31 38 41 63s15 53.833 15 86.5v82c-8 -18.667 -19.167 -35.5 -33.5 -50.5
s-30.666 -27.833 -48.999 -38.5s-38.166 -18.834 -59.499 -24.501s-43 -8.5 -65 -8.5c-34 0 -65.5 6.5 -94.5 19.5s-54.167 30.667 -75.5 53s-38.166 48.333 -50.499 78s-18.5 61.167 -18.5 94.5s6.16699 65 18.5 95s29.166 56.167 50.499 78.5s46.5 40 75.5 53
s60.5 19.5 94.5 19.5zM308 462.002c-30.667 0 -58.8359 -5.66602 -84.5029 -16.999s-47.667 -26.833 -66 -46.5s-32.666 -42.667 -42.999 -69s-15.5 -54.5 -15.5 -84.5s5.16699 -58 15.5 -84s24.666 -48.833 42.999 -68.5s40.333 -35.167 66 -46.5s53.834 -17 84.501 -17
c25.333 0 50.333 4.16699 75 12.5s46.667 21.333 66 39s34.833 40.167 46.5 67.5s17.5 59.666 17.5 96.999c0 38 -6 70.667 -18 98s-27.667 49.833 -47 67.5s-41.166 30.667 -65.499 39s-49.166 12.5 -74.499 12.5zM453.998 562.003h-27l-116 172l-117 -172h-27l136 218h15z
" />
    <glyph glyph-name="Gbreve" unicode="&#x11e;" horiz-adv-x="744" 
d="M391 670c54 0 103.5 -11.4951 148.5 -34.4951s82.5 -54.5 112.5 -94.5l-24 -19c-26.667 36 -60.167 64.5 -100.5 85.5s-85.5 31.5 -135.5 31.5c-43.333 0 -83.333 -7.83301 -120 -23.5s-68.334 -37.334 -95.001 -65.001s-47.667 -60.334 -63 -98.001
s-23 -78.167 -23 -121.5s7.5 -83.833 22.5 -121.5s36 -70.5 63 -98.5s59 -50 96 -66s77.167 -24 120.5 -24c55.333 0 105.333 12.5 150 37.5s80 58.833 106 101.5v126h-258v30h290v-161c-30 -52.667 -70.667 -93.334 -122 -122.001s-107.333 -43 -168 -43
c-47.333 0 -91.333 8.83301 -132 26.5s-76 41.667 -106 72s-53.5 66.166 -70.5 107.499s-25.5 86 -25.5 134s8.66699 92.833 26 134.5s41 77.667 71 108s65.333 54.166 106 71.499s84.334 26 131.001 26zM526 883.005c0 -19.333 -3.5 -37.166 -10.5 -53.499
s-16.5 -30.666 -28.5 -42.999s-26.167 -22 -42.5 -29s-34.166 -10.5 -53.499 -10.5s-37.166 3.5 -53.499 10.5s-30.5 16.667 -42.5 29s-21.5 26.666 -28.5 42.999s-10.5 34.166 -10.5 53.499h30c0 -34 10.167 -60.5 30.5 -79.5s45.166 -28.5 74.499 -28.5
s54.166 9.5 74.499 28.5s30.5 45.5 30.5 79.5h30z" />
    <glyph glyph-name="gbreve" unicode="&#x11f;" horiz-adv-x="642" 
d="M306 491c22 0 43.667 -2.99805 65 -8.99805s41.166 -14.333 59.499 -25s34.666 -23.5 48.999 -38.5s25.5 -31.833 33.5 -50.5v112h30v-440c0 -36 -5.83301 -68.333 -17.5 -97s-27.667 -52.834 -48 -72.501s-44.333 -34.667 -72 -45s-57.5 -15.5 -89.5 -15.5
c-44.667 0 -86.167 8.83301 -124.5 26.5s-69.166 40.167 -92.499 67.5l21 20c22 -25.333 50.167 -45.833 84.5 -61.5s71.5 -23.5 111.5 -23.5c28 0 54.167 4.33301 78.5 13s45.166 21.5 62.499 38.5s31 38 41 63s15 53.833 15 86.5v82c-8 -18.667 -19.167 -35.5 -33.5 -50.5
s-30.666 -27.833 -48.999 -38.5s-38.166 -18.834 -59.499 -24.501s-43 -8.5 -65 -8.5c-34 0 -65.5 6.5 -94.5 19.5s-54.167 30.667 -75.5 53s-38.166 48.333 -50.499 78s-18.5 61.167 -18.5 94.5s6.16699 65 18.5 95s29.166 56.167 50.499 78.5s46.5 40 75.5 53
s60.5 19.5 94.5 19.5zM308 462.002c-30.667 0 -58.8359 -5.66602 -84.5029 -16.999s-47.667 -26.833 -66 -46.5s-32.666 -42.667 -42.999 -69s-15.5 -54.5 -15.5 -84.5s5.16699 -58 15.5 -84s24.666 -48.833 42.999 -68.5s40.333 -35.167 66 -46.5s53.834 -17 84.501 -17
c25.333 0 50.333 4.16699 75 12.5s46.667 21.333 66 39s34.833 40.167 46.5 67.5s17.5 59.666 17.5 96.999c0 38 -6 70.667 -18 98s-27.667 49.833 -47 67.5s-41.166 30.667 -65.499 39s-49.166 12.5 -74.499 12.5zM445.998 723.003c0 -19.333 -3.5 -37.166 -10.5 -53.499
s-16.5 -30.666 -28.5 -42.999s-26.167 -22 -42.5 -29s-34.166 -10.5 -53.499 -10.5s-37.166 3.5 -53.499 10.5s-30.5 16.667 -42.5 29s-21.5 26.666 -28.5 42.999s-10.5 34.166 -10.5 53.499h30c0 -34 10.167 -60.5 30.5 -79.5s45.166 -28.5 74.499 -28.5
s54.166 9.5 74.499 28.5s30.5 45.5 30.5 79.5h30z" />
    <glyph glyph-name="Gdotaccent" unicode="&#x120;" horiz-adv-x="744" 
d="M391 670c54 0 103.5 -11.4951 148.5 -34.4951s82.5 -54.5 112.5 -94.5l-24 -19c-26.667 36 -60.167 64.5 -100.5 85.5s-85.5 31.5 -135.5 31.5c-43.333 0 -83.333 -7.83301 -120 -23.5s-68.334 -37.334 -95.001 -65.001s-47.667 -60.334 -63 -98.001
s-23 -78.167 -23 -121.5s7.5 -83.833 22.5 -121.5s36 -70.5 63 -98.5s59 -50 96 -66s77.167 -24 120.5 -24c55.333 0 105.333 12.5 150 37.5s80 58.833 106 101.5v126h-258v30h290v-161c-30 -52.667 -70.667 -93.334 -122 -122.001s-107.333 -43 -168 -43
c-47.333 0 -91.333 8.83301 -132 26.5s-76 41.667 -106 72s-53.5 66.166 -70.5 107.499s-25.5 86 -25.5 134s8.66699 92.833 26 134.5s41 77.667 71 108s65.333 54.166 106 71.499s84.334 26 131.001 26zM391 840.005c9.33301 0 17.333 -3.33301 24 -10s10 -14.667 10 -24
s-3.33301 -17.333 -10 -24s-14.667 -10 -24 -10s-17.333 3.33301 -24 10s-10 14.667 -10 24s3.33301 17.333 10 24s14.667 10 24 10z" />
    <glyph glyph-name="gdotaccent" unicode="&#x121;" horiz-adv-x="642" 
d="M306 491c22 0 43.667 -2.99805 65 -8.99805s41.166 -14.333 59.499 -25s34.666 -23.5 48.999 -38.5s25.5 -31.833 33.5 -50.5v112h30v-440c0 -36 -5.83301 -68.333 -17.5 -97s-27.667 -52.834 -48 -72.501s-44.333 -34.667 -72 -45s-57.5 -15.5 -89.5 -15.5
c-44.667 0 -86.167 8.83301 -124.5 26.5s-69.166 40.167 -92.499 67.5l21 20c22 -25.333 50.167 -45.833 84.5 -61.5s71.5 -23.5 111.5 -23.5c28 0 54.167 4.33301 78.5 13s45.166 21.5 62.499 38.5s31 38 41 63s15 53.833 15 86.5v82c-8 -18.667 -19.167 -35.5 -33.5 -50.5
s-30.666 -27.833 -48.999 -38.5s-38.166 -18.834 -59.499 -24.501s-43 -8.5 -65 -8.5c-34 0 -65.5 6.5 -94.5 19.5s-54.167 30.667 -75.5 53s-38.166 48.333 -50.499 78s-18.5 61.167 -18.5 94.5s6.16699 65 18.5 95s29.166 56.167 50.499 78.5s46.5 40 75.5 53
s60.5 19.5 94.5 19.5zM308 462.002c-30.667 0 -58.8359 -5.66602 -84.5029 -16.999s-47.667 -26.833 -66 -46.5s-32.666 -42.667 -42.999 -69s-15.5 -54.5 -15.5 -84.5s5.16699 -58 15.5 -84s24.666 -48.833 42.999 -68.5s40.333 -35.167 66 -46.5s53.834 -17 84.501 -17
c25.333 0 50.333 4.16699 75 12.5s46.667 21.333 66 39s34.833 40.167 46.5 67.5s17.5 59.666 17.5 96.999c0 38 -6 70.667 -18 98s-27.667 49.833 -47 67.5s-41.166 30.667 -65.499 39s-49.166 12.5 -74.499 12.5zM310.998 700.003c9.33301 0 17.333 -3.33301 24 -10
s10 -14.667 10 -24s-3.33301 -17.333 -10 -24s-14.667 -10 -24 -10s-17.333 3.33301 -24 10s-10 14.667 -10 24s3.33301 17.333 10 24s14.667 10 24 10z" />
    <glyph glyph-name="Gcommaaccent" unicode="&#x122;" horiz-adv-x="744" 
d="M391 670c54 0 103.5 -11.4951 148.5 -34.4951s82.5 -54.5 112.5 -94.5l-24 -19c-26.667 36 -60.167 64.5 -100.5 85.5s-85.5 31.5 -135.5 31.5c-43.333 0 -83.333 -7.83301 -120 -23.5s-68.334 -37.334 -95.001 -65.001s-47.667 -60.334 -63 -98.001
s-23 -78.167 -23 -121.5s7.5 -83.833 22.5 -121.5s36 -70.5 63 -98.5s59 -50 96 -66s77.167 -24 120.5 -24c55.333 0 105.333 12.5 150 37.5s80 58.833 106 101.5v126h-258v30h290v-161c-30 -52.667 -70.667 -93.334 -122 -122.001s-107.333 -43 -168 -43
c-47.333 0 -91.333 8.83301 -132 26.5s-76 41.667 -106 72s-53.5 66.166 -70.5 107.499s-25.5 86 -25.5 134s8.66699 92.833 26 134.5s41 77.667 71 108s65.333 54.166 106 71.499s84.334 26 131.001 26zM385 -219.995h-26l14 168h36z" />
    <glyph glyph-name="gcommaaccent" unicode="&#x123;" horiz-adv-x="642" 
d="M306 491c22 0 43.667 -2.99805 65 -8.99805s41.166 -14.333 59.499 -25s34.666 -23.5 48.999 -38.5s25.5 -31.833 33.5 -50.5v112h30v-440c0 -36 -5.83301 -68.333 -17.5 -97s-27.667 -52.834 -48 -72.501s-44.333 -34.667 -72 -45s-57.5 -15.5 -89.5 -15.5
c-44.667 0 -86.167 8.83301 -124.5 26.5s-69.166 40.167 -92.499 67.5l21 20c22 -25.333 50.167 -45.833 84.5 -61.5s71.5 -23.5 111.5 -23.5c28 0 54.167 4.33301 78.5 13s45.166 21.5 62.499 38.5s31 38 41 63s15 53.833 15 86.5v82c-8 -18.667 -19.167 -35.5 -33.5 -50.5
s-30.666 -27.833 -48.999 -38.5s-38.166 -18.834 -59.499 -24.501s-43 -8.5 -65 -8.5c-34 0 -65.5 6.5 -94.5 19.5s-54.167 30.667 -75.5 53s-38.166 48.333 -50.499 78s-18.5 61.167 -18.5 94.5s6.16699 65 18.5 95s29.166 56.167 50.499 78.5s46.5 40 75.5 53
s60.5 19.5 94.5 19.5zM308 462.002c-30.667 0 -58.8359 -5.66602 -84.5029 -16.999s-47.667 -26.833 -66 -46.5s-32.666 -42.667 -42.999 -69s-15.5 -54.5 -15.5 -84.5s5.16699 -58 15.5 -84s24.666 -48.833 42.999 -68.5s40.333 -35.167 66 -46.5s53.834 -17 84.501 -17
c25.333 0 50.333 4.16699 75 12.5s46.667 21.333 66 39s34.833 40.167 46.5 67.5s17.5 59.666 17.5 96.999c0 38 -6 70.667 -18 98s-27.667 49.833 -47 67.5s-41.166 30.667 -65.499 39s-49.166 12.5 -74.499 12.5zM326.998 562.003h-36l30 218h26z" />
    <glyph glyph-name="Hcircumflex" unicode="&#x124;" horiz-adv-x="704" 
d="M601 0h-32v345h-434v-345h-32v660h32v-286h434v286h32v-660zM505 724h-27l-126 146l-127 -146h-27l146 186h15z" />
    <glyph glyph-name="hcircumflex" unicode="&#x125;" horiz-adv-x="551" 
d="M129 403c15.333 27.333 36.333 48.667 63 64s58 23 94 23c28 0 52.667 -4.66699 74 -14s39.5 -22.166 54.5 -38.499s26.333 -35.833 34 -58.5s11.5 -47.334 11.5 -74.001v-305h-30v305c0 46 -12.667 83.5 -38 112.5s-61 43.5 -107 43.5
c-22.667 0 -43.5 -3.83301 -62.5 -11.5s-35.5 -18.5 -49.5 -32.5s-24.833 -30.5 -32.5 -49.5s-11.5 -39.833 -11.5 -62.5v-305h-30v750h30v-347zM283 814.001h-27l-126 146l-127 -146h-27l146 186h15z" />
    <glyph glyph-name="Hbar" unicode="&#x126;" horiz-adv-x="710" 
d="M604 508h106v-28h-106v-480h-32v286h-434v-286h-32v480h-106v28h106v152h32v-152h434v152h32v-152zM138 480v-165h434v165h-434z" />
    <glyph glyph-name="hbar" unicode="&#x127;" horiz-adv-x="551" 
d="M339 604l-210 0.000976562v-201c15.333 27.333 36.333 48.666 63 63.999s58 23 94 23c28 0 52.667 -4.66699 74 -14s39.5 -22.166 54.5 -38.499s26.333 -35.833 34 -58.5s11.5 -47.334 11.5 -74.001v-305h-30v305c0 46 -12.667 83.5 -38 112.5s-61 43.5 -107 43.5
c-22.667 0 -43.5 -3.83301 -62.5 -11.5s-35.5 -18.5 -49.5 -32.5s-24.833 -30.5 -32.5 -49.5s-11.5 -39.833 -11.5 -62.5v-305h-30v604h-86v28h86v118h30v-118h210v-28z" />
    <glyph glyph-name="Itilde" unicode="&#x128;" horiz-adv-x="238" 
d="M135 0h-32v660h32v-660zM44 858c13.333 0 25.165 -3 35.498 -9s20.5 -12.667 30.5 -20l37 -26c9.33301 -6.66699 17.333 -11.834 24 -15.501s14 -5.5 22 -5.5c12.667 0 21.5 4.66699 26.5 14s7.5 19.666 7.5 30.999v21h29c0.666992 -3.33301 1 -6.5 1 -9.5v-9.5
c0 -8.66699 -1.16699 -17.5 -3.5 -26.5s-5.83301 -17 -10.5 -24s-11 -12.833 -19 -17.5s-17.333 -7 -28 -7c-13.333 0 -25.166 3 -35.499 9s-20.5 12.667 -30.5 20l-37 26c-9.33301 6.66699 -17.333 11.834 -24 15.501s-14 5.5 -22 5.5c-12.667 0 -21.5 -4.66699 -26.5 -14
s-7.5 -19.666 -7.5 -30.999v-21h-29c-0.666992 3.33301 -1 6.5 -1 9.5v9.5c0 8.66699 1.16699 17.5 3.5 26.5s5.83301 17 10.5 24s10.834 12.833 18.501 17.5s17.167 7 28.5 7z" />
    <glyph glyph-name="itilde" unicode="&#x129;" horiz-adv-x="228" 
d="M129 0h-30v480h30v-480zM54 722c13.333 0 24.6729 -3.33691 34.0059 -10.0039s17.666 -14.667 24.999 -24l21 -25c7.33301 -8.66699 13.666 -15.167 18.999 -19.5s11.666 -6.5 18.999 -6.5c12.667 0 21.334 4.83301 26.001 14.5s7 21.167 7 34.5v21h29v-6
c0 -1.33301 0.166992 -3.16602 0.5 -5.49902s0.5 -4.5 0.5 -6.5c0 -9.33301 -1 -18.666 -3 -27.999s-5.5 -17.833 -10.5 -25.5s-11.333 -14 -19 -19s-16.834 -7.5 -27.501 -7.5c-13.333 0 -24.333 3.33301 -33 10s-17 14.667 -25 24l-21 25
c-6.66699 8 -12.834 14.333 -18.501 19s-12.5 7 -20.5 7c-12.667 0 -21.334 -4.83301 -26.001 -14.5s-7 -21.167 -7 -34.5v-21h-29c-0.666992 2 -1 4 -1 6v12c0 8.66699 1 17.834 3 27.501s5.5 18.334 10.5 26.001s11.167 14 18.5 19s16.666 7.5 27.999 7.5z" />
    <glyph glyph-name="Imacron" unicode="&#x12a;" horiz-adv-x="238" 
d="M135 0h-32v660h32v-660zM256 782h-272v28h272v-28z" />
    <glyph glyph-name="imacron" unicode="&#x12b;" horiz-adv-x="228" 
d="M129 0h-30v480h30v-480zM211 652h-192v28h192v-28z" />
    <glyph glyph-name="Ibreve" unicode="&#x12c;" horiz-adv-x="238" 
d="M135 0h-32v660h32v-660zM255 883c0 -19.333 -3.5 -37.166 -10.5 -53.499s-16.5 -30.666 -28.5 -42.999s-26.167 -22 -42.5 -29s-34.166 -10.5 -53.499 -10.5s-37.166 3.5 -53.499 10.5s-30.5 16.667 -42.5 29s-21.5 26.666 -28.5 42.999s-10.5 34.166 -10.5 53.499h30
c0 -34 10.167 -60.5 30.5 -79.5s45.166 -28.5 74.499 -28.5s54.166 9.5 74.499 28.5s30.5 45.5 30.5 79.5h30z" />
    <glyph glyph-name="ibreve" unicode="&#x12d;" horiz-adv-x="228" 
d="M129 0h-30v480h30v-480zM250 723c0 -19.333 -3.5 -37.166 -10.5 -53.499s-16.5 -30.666 -28.5 -42.999s-26.167 -22 -42.5 -29s-34.166 -10.5 -53.499 -10.5s-37.166 3.5 -53.499 10.5s-30.5 16.667 -42.5 29s-21.5 26.666 -28.5 42.999s-10.5 34.166 -10.5 53.499h30
c0 -34 10.167 -60.5 30.5 -79.5s45.166 -28.5 74.499 -28.5s54.166 9.5 74.499 28.5s30.5 45.5 30.5 79.5h30z" />
    <glyph glyph-name="Iogonek" unicode="&#x12e;" horiz-adv-x="238" 
d="M135 0h-32v660h32v-660zM136 0l-58 -37.001c-20.667 -13.333 -37 -25.166 -49 -35.499s-18 -23.5 -18 -39.5c0 -15.333 5.83301 -27.5 17.5 -36.5s27.167 -13.5 46.5 -13.5c9.33301 0 19.333 0.833008 30 2.5s21 3.83398 31 6.50098v-27
c-8.66699 -2.66699 -18.167 -5 -28.5 -7s-21.166 -3 -32.499 -3c-25.333 0 -47.5 6.33301 -66.5 19s-28.5 31.334 -28.5 56.001c0 12 2.83301 23.167 8.5 33.5s14.5 20.666 26.5 30.999s27.167 21.166 45.5 32.499s40.166 24 65.499 38z" />
    <glyph glyph-name="iogonek" unicode="&#x12f;" horiz-adv-x="228" 
d="M129 0h-30v480h30v-480zM114 700c9.33301 0 17.333 -3.33301 24 -10s10 -14.667 10 -24s-3.33301 -17.333 -10 -24s-14.667 -10 -24 -10s-17.333 3.33301 -24 10s-10 14.667 -10 24s3.33301 17.333 10 24s14.667 10 24 10zM130 0l-58 -37.001
c-20.667 -13.333 -37 -25.166 -49 -35.499s-18 -23.5 -18 -39.5c0 -15.333 5.83301 -27.5 17.5 -36.5s27.167 -13.5 46.5 -13.5c9.33301 0 19.333 0.833008 30 2.5s21 3.83398 31 6.50098v-27c-8.66699 -2.66699 -18.167 -5 -28.5 -7s-21.166 -3 -32.499 -3
c-25.333 0 -47.5 6.33301 -66.5 19s-28.5 31.334 -28.5 56.001c0 12 2.83301 23.167 8.5 33.5s14.5 20.666 26.5 30.999s27.167 21.166 45.5 32.499s40.166 24 65.499 38z" />
    <glyph glyph-name="Idotaccent" unicode="&#x130;" horiz-adv-x="238" 
d="M135 0h-32v660h32v-660zM119 840c9.33301 0 17.333 -3.33301 24 -10s10 -14.667 10 -24s-3.33301 -17.333 -10 -24s-14.667 -10 -24 -10s-17.333 3.33301 -24 10s-10 14.667 -10 24s3.33301 17.333 10 24s14.667 10 24 10z" />
    <glyph glyph-name="dotlessi" unicode="&#x131;" horiz-adv-x="228" 
d="M129 0h-30v480h30v-480z" />
    <glyph glyph-name="IJ" unicode="&#x132;" horiz-adv-x="599" 
d="M135 0h-32v660h32v-660zM496 135c0 -26.667 -4.00098 -49.168 -12.001 -67.501s-18.667 -33.333 -32 -45s-29.166 -20 -47.499 -25s-37.833 -7.5 -58.5 -7.5c-13.333 0 -26.5 0.833008 -39.5 2.5s-25.833 4.16699 -38.5 7.5v29c13.333 -2.66699 26 -4.66699 38 -6
s25 -2 39 -2c16 0 31.167 1.5 45.5 4.5s27 8.83301 38 17.5s19.667 20.334 26 35.001s9.5 33.667 9.5 57v525h32v-525z" />
    <glyph glyph-name="ij" unicode="&#x133;" horiz-adv-x="456" 
d="M357 -55c0 -24.667 -3.49902 -45.666 -10.499 -62.999s-16.667 -31.333 -29 -42s-26.833 -18.334 -43.5 -23.001s-34.334 -7 -53.001 -7c-17.333 0 -34 2 -50 6v27l23.5 -3.5c7 -1 15.167 -1.5 24.5 -1.5c14.667 0 28.5 1.66699 41.5 5s24.5 9 34.5 17
s17.833 18.833 23.5 32.5s8.5 31.167 8.5 52.5v535h30v-535zM342.001 700.001c9.33301 0 17.333 -3.33301 24 -10s10 -14.667 10 -24s-3.33301 -17.333 -10 -24s-14.667 -10 -24 -10s-17.333 3.33301 -24 10s-10 14.667 -10 24s3.33301 17.333 10 24s14.667 10 24 10z
M129.001 0.000976562h-30v480h30v-480zM114.001 700.001c9.33301 0 17.333 -3.33301 24 -10s10 -14.667 10 -24s-3.33301 -17.333 -10 -24s-14.667 -10 -24 -10s-17.333 3.33301 -24 10s-10 14.667 -10 24s3.33301 17.333 10 24s14.667 10 24 10z" />
    <glyph glyph-name="Jcircumflex" unicode="&#x134;" horiz-adv-x="361" 
d="M258 135c0 -26.667 -4.00098 -49.168 -12.001 -67.501s-18.667 -33.333 -32 -45s-29.166 -20 -47.499 -25s-37.833 -7.5 -58.5 -7.5c-13.333 0 -26.5 0.833008 -39.5 2.5s-25.833 4.16699 -38.5 7.5v29c13.333 -2.66699 26 -4.66699 38 -6s25 -2 39 -2
c16 0 31.167 1.5 45.5 4.5s27 8.83301 38 17.5s19.667 20.334 26 35.001s9.5 33.667 9.5 57v525h32v-525zM391.999 723.999h-27l-126 146l-127 -146h-27l146 186h15z" />
    <glyph glyph-name="jcircumflex" unicode="&#x135;" horiz-adv-x="228" 
d="M129 -55c0 -24.667 -3.49902 -45.666 -10.499 -62.999s-16.667 -31.333 -29 -42s-26.833 -18.334 -43.5 -23.001s-34.334 -7 -53.001 -7c-17.333 0 -34 2 -50 6v27l23.5 -3.5c7 -1 15.167 -1.5 24.5 -1.5c14.667 0 28.5 1.66699 41.5 5s24.5 9 34.5 17
s17.833 18.833 23.5 32.5s8.5 31.167 8.5 52.5v535h30v-535zM258.001 562.001h-27l-116 172l-117 -172h-27l136 218h15z" />
    <glyph glyph-name="Kcommaaccent" unicode="&#x136;" horiz-adv-x="598" 
d="M197 358l361 -358h-43l-361 359l337 301h45zM135 0h-32v660h32v-660zM275 -220h-26l14 168h36z" />
    <glyph glyph-name="kcommaaccent" unicode="&#x137;" horiz-adv-x="463" 
d="M129 0h-30v750h30v-750zM189 269l254 -269h-40l-255 270l229 210h43zM225 -220h-26l14 168h36z" />
    <glyph glyph-name="Lacute" unicode="&#x139;" horiz-adv-x="493" 
d="M135 29h334v-29h-366v660h32v-631zM238 905l-107 -181h-26l96 186h37v-5z" />
    <glyph glyph-name="lacute" unicode="&#x13a;" horiz-adv-x="228" 
d="M129 0h-30v750h30v-750zM233 995l-107 -181h-26l96 186h37v-5z" />
    <glyph glyph-name="Lcommaaccent" unicode="&#x13b;" horiz-adv-x="493" 
d="M135 29h334v-29h-366v660h32v-631zM276 -220h-26l14 168h36z" />
    <glyph glyph-name="lcommaaccent" unicode="&#x13c;" horiz-adv-x="228" 
d="M129 0h-30v750h30v-750zM108 -220h-26l14 168h36z" />
    <glyph glyph-name="Lcaron" unicode="&#x13d;" horiz-adv-x="493" 
d="M135 29h334v-29h-366v660h32v-631zM394 511h-26l20 210h38z" />
    <glyph glyph-name="lcaron" unicode="&#x13e;" horiz-adv-x="228" 
d="M129 0h-30v750h30v-750zM260 540h-26l20 210h38z" />
    <glyph glyph-name="Ldot" unicode="&#x13f;" horiz-adv-x="493" 
d="M135 29h334v-29h-366v660h32v-631zM365 400c10 0 19.167 -3.33301 27.5 -10s12.5 -16.667 12.5 -30c0 -12 -4.16699 -21.333 -12.5 -28s-17.5 -10 -27.5 -10c-9.33301 0 -18 3.33301 -26 10s-12 16 -12 28c0 13.333 4 23.333 12 30s16.667 10 26 10z" />
    <glyph glyph-name="ldot" unicode="&#x140;" horiz-adv-x="231" 
d="M129 0h-30v750h30v-750zM230 348c10 0 19.167 -3.33301 27.5 -10s12.5 -16.667 12.5 -30c0 -12 -4.16699 -21.333 -12.5 -28s-17.5 -10 -27.5 -10c-9.33301 0 -18 3.33301 -26 10s-12 16 -12 28c0 13.333 4 23.333 12 30s16.667 10 26 10z" />
    <glyph glyph-name="Lslash" unicode="&#x141;" horiz-adv-x="493" 
d="M135 335l241 110v-31l-241 -110v-275h334v-29h-366v293l-83 -38v31l83 38v336h32v-325z" />
    <glyph glyph-name="lslash" unicode="&#x142;" horiz-adv-x="228" 
d="M215 416l-86 -41v-375h-30v365l-86 -40v31l86 40v354h30v-344l86 41v-31z" />
    <glyph glyph-name="Nacute" unicode="&#x143;" horiz-adv-x="704" 
d="M569 64v596h32v-670h-15l-451 601v-591h-32v670h15zM471 905l-107 -181h-26l96 186h37v-5z" />
    <glyph glyph-name="nacute" unicode="&#x144;" horiz-adv-x="551" 
d="M286 490c28 0 52.667 -4.66602 74 -13.999s39.5 -22.166 54.5 -38.499s26.333 -35.833 34 -58.5s11.5 -47.334 11.5 -74.001v-305h-30v305c0 46 -12.667 83.5 -38 112.5s-61 43.5 -107 43.5c-22.667 0 -43.5 -3.83301 -62.5 -11.5s-35.5 -18.5 -49.5 -32.5
s-24.833 -30.5 -32.5 -49.5s-11.5 -39.833 -11.5 -62.5v-305h-30v480h30v-77c15.333 27.333 36.333 48.666 63 63.999s58 23 94 23zM404 775.001l-107 -213h-26l96 218h37v-5z" />
    <glyph glyph-name="Ncommaaccent" unicode="&#x145;" horiz-adv-x="704" 
d="M569 64v596h32v-670h-15l-451 601v-591h-32v670h15zM346 -220h-26l14 168h36z" />
    <glyph glyph-name="ncommaaccent" unicode="&#x146;" horiz-adv-x="551" 
d="M286 490c28 0 52.667 -4.66602 74 -13.999s39.5 -22.166 54.5 -38.499s26.333 -35.833 34 -58.5s11.5 -47.334 11.5 -74.001v-305h-30v305c0 46 -12.667 83.5 -38 112.5s-61 43.5 -107 43.5c-22.667 0 -43.5 -3.83301 -62.5 -11.5s-35.5 -18.5 -49.5 -32.5
s-24.833 -30.5 -32.5 -49.5s-11.5 -39.833 -11.5 -62.5v-305h-30v480h30v-77c15.333 27.333 36.333 48.666 63 63.999s58 23 94 23zM278 -219.999h-26l14 168h36z" />
    <glyph glyph-name="Ncaron" unicode="&#x147;" horiz-adv-x="704" 
d="M569 64v596h32v-670h-15l-451 601v-591h-32v670h15zM359 724h-15l-146 186h27l127 -147l126 147h27z" />
    <glyph glyph-name="ncaron" unicode="&#x148;" horiz-adv-x="551" 
d="M286 490c28 0 52.667 -4.66602 74 -13.999s39.5 -22.166 54.5 -38.499s26.333 -35.833 34 -58.5s11.5 -47.334 11.5 -74.001v-305h-30v305c0 46 -12.667 83.5 -38 112.5s-61 43.5 -107 43.5c-22.667 0 -43.5 -3.83301 -62.5 -11.5s-35.5 -18.5 -49.5 -32.5
s-24.833 -30.5 -32.5 -49.5s-11.5 -39.833 -11.5 -62.5v-305h-30v480h30v-77c15.333 27.333 36.333 48.666 63 63.999s58 23 94 23zM291 562.001h-15l-136 218h27l117 -172l116 172h27z" />
    <glyph glyph-name="Eng" unicode="&#x14a;" horiz-adv-x="704" 
d="M569 52l0.000976562 608.001h32v-715c0 -24.667 -3.5 -45.667 -10.5 -63s-16.667 -31.333 -29 -42s-26.833 -18.334 -43.5 -23.001s-34.334 -7 -53.001 -7c-17.333 0 -34 2 -50 6v27l23.5 -3.5c7 -1 15.167 -1.5 24.5 -1.5c14.667 0 28.5 1.66699 41.5 5
s24.167 9 33.5 17s16.833 18.833 22.5 32.5s8.5 31.167 8.5 52.5v49l-434 595v-589h-32v670h15z" />
    <glyph glyph-name="eng" unicode="&#x14b;" horiz-adv-x="551" 
d="M286 490c28 0 52.668 -4.66504 74.001 -13.998s39.5 -22.166 54.5 -38.499s26.333 -35.833 34 -58.5s11.5 -47.334 11.5 -74.001v-360c0 -24.667 -3.5 -45.667 -10.5 -63s-16.667 -31.333 -29 -42s-26.833 -18.334 -43.5 -23.001s-34.334 -7 -53.001 -7
c-17.333 0 -34 2 -50 6v27l23.5 -3.5c7 -1 15.167 -1.5 24.5 -1.5c14.667 0 28.5 1.66699 41.5 5s24.5 9 34.5 17s17.833 18.833 23.5 32.5s8.5 31.167 8.5 52.5v360c0 46 -12.667 83.5 -38 112.5s-61 43.5 -107 43.5c-22.667 0 -43.5 -3.83301 -62.5 -11.5
s-35.5 -18.5 -49.5 -32.5s-24.833 -30.5 -32.5 -49.5s-11.5 -39.833 -11.5 -62.5v-305h-30v480h30v-77c15.333 27.333 36.333 48.666 63 63.999s58 23 94 23z" />
    <glyph glyph-name="Omacron" unicode="&#x14c;" horiz-adv-x="784" 
d="M391 670c46.667 0 90.334 -8.66602 131.001 -25.999s76.167 -41.166 106.5 -71.499s54.333 -66.333 72 -108s26.5 -86.5 26.5 -134.5s-8.83301 -92.667 -26.5 -134s-41.667 -77.333 -72 -108s-65.833 -54.667 -106.5 -72s-84.334 -26 -131.001 -26
s-90.334 8.83301 -131.001 26.5s-76 41.667 -106 72s-53.667 66.166 -71 107.499s-26 86 -26 134s8.66699 92.833 26 134.5s41 77.667 71 108s65.333 54.166 106 71.499s84.334 26 131.001 26zM392 639.001c-42.667 0 -82.334 -7.83008 -119.001 -23.4971
s-68.5 -37.334 -95.5 -65.001s-48.167 -60.334 -63.5 -98.001s-23 -78.167 -23 -121.5s7.66699 -83.833 23 -121.5s36.333 -70.5 63 -98.5s58.334 -50 95.001 -66s76.667 -24 120 -24c42.667 0 82.334 8 119.001 24s68.5 38 95.5 66s48.167 60.833 63.5 98.5
s23 78.167 23 121.5s-7.66699 83.666 -23 120.999s-36.5 69.833 -63.5 97.5s-58.833 49.5 -95.5 65.5s-76.334 24 -119.001 24zM528 782.004h-272v28h272v-28z" />
    <glyph glyph-name="omacron" unicode="&#x14d;" horiz-adv-x="613" 
d="M306 490c34 0 66 -6.33301 96 -19s56.167 -30.334 78.5 -53.001s40 -49.167 53 -79.5s19.5 -63.166 19.5 -98.499s-6.5 -68.166 -19.5 -98.499s-30.667 -56.666 -53 -78.999s-48.5 -40 -78.5 -53s-62.333 -19.5 -97 -19.5c-34 0 -66 6.5 -96 19.5s-56 30.667 -78 53
s-39.333 48.666 -52 78.999s-19 63.166 -19 98.499s6.33301 68.166 19 98.499s30 56.833 52 79.5s48 40.334 78 53.001s62.333 19 97 19zM306 461c-30.667 0 -58.999 -5.66699 -84.999 -17s-48.5 -27 -67.5 -47s-34 -43.5 -45 -70.5s-16.5 -55.833 -16.5 -86.5
c0 -31.333 5.5 -60.5 16.5 -87.5s26 -50.333 45 -70s41.5 -35.167 67.5 -46.5s54 -17 84 -17c30.667 0 59.167 5.66699 85.5 17s49.166 27 68.499 47s34.5 43.5 45.5 70.5s16.5 55.833 16.5 86.5s-5.5 59.5 -16.5 86.5s-26.167 50.5 -45.5 70.5s-42 35.667 -68 47
s-54.333 17 -85 17zM433.001 653h-252v28h252v-28z" />
    <glyph glyph-name="Obreve" unicode="&#x14e;" horiz-adv-x="784" 
d="M391 670c46.667 0 90.334 -8.66602 131.001 -25.999s76.167 -41.166 106.5 -71.499s54.333 -66.333 72 -108s26.5 -86.5 26.5 -134.5s-8.83301 -92.667 -26.5 -134s-41.667 -77.333 -72 -108s-65.833 -54.667 -106.5 -72s-84.334 -26 -131.001 -26
s-90.334 8.83301 -131.001 26.5s-76 41.667 -106 72s-53.667 66.166 -71 107.499s-26 86 -26 134s8.66699 92.833 26 134.5s41 77.667 71 108s65.333 54.166 106 71.499s84.334 26 131.001 26zM392 639.001c-42.667 0 -82.334 -7.83008 -119.001 -23.4971
s-68.5 -37.334 -95.5 -65.001s-48.167 -60.334 -63.5 -98.001s-23 -78.167 -23 -121.5s7.66699 -83.833 23 -121.5s36.333 -70.5 63 -98.5s58.334 -50 95.001 -66s76.667 -24 120 -24c42.667 0 82.334 8 119.001 24s68.5 38 95.5 66s48.167 60.833 63.5 98.5
s23 78.167 23 121.5s-7.66699 83.666 -23 120.999s-36.5 69.833 -63.5 97.5s-58.833 49.5 -95.5 65.5s-76.334 24 -119.001 24zM527 883.004c0 -19.333 -3.5 -37.166 -10.5 -53.499s-16.5 -30.666 -28.5 -42.999s-26.167 -22 -42.5 -29s-34.166 -10.5 -53.499 -10.5
s-37.166 3.5 -53.499 10.5s-30.5 16.667 -42.5 29s-21.5 26.666 -28.5 42.999s-10.5 34.166 -10.5 53.499h30c0 -34 10.167 -60.5 30.5 -79.5s45.166 -28.5 74.499 -28.5s54.166 9.5 74.499 28.5s30.5 45.5 30.5 79.5h30z" />
    <glyph glyph-name="obreve" unicode="&#x14f;" horiz-adv-x="613" 
d="M306 490c34 0 66 -6.33301 96 -19s56.167 -30.334 78.5 -53.001s40 -49.167 53 -79.5s19.5 -63.166 19.5 -98.499s-6.5 -68.166 -19.5 -98.499s-30.667 -56.666 -53 -78.999s-48.5 -40 -78.5 -53s-62.333 -19.5 -97 -19.5c-34 0 -66 6.5 -96 19.5s-56 30.667 -78 53
s-39.333 48.666 -52 78.999s-19 63.166 -19 98.499s6.33301 68.166 19 98.499s30 56.833 52 79.5s48 40.334 78 53.001s62.333 19 97 19zM306 461c-30.667 0 -58.999 -5.66699 -84.999 -17s-48.5 -27 -67.5 -47s-34 -43.5 -45 -70.5s-16.5 -55.833 -16.5 -86.5
c0 -31.333 5.5 -60.5 16.5 -87.5s26 -50.333 45 -70s41.5 -35.167 67.5 -46.5s54 -17 84 -17c30.667 0 59.167 5.66699 85.5 17s49.166 27 68.499 47s34.5 43.5 45.5 70.5s16.5 55.833 16.5 86.5s-5.5 59.5 -16.5 86.5s-26.167 50.5 -45.5 70.5s-42 35.667 -68 47
s-54.333 17 -85 17zM442.001 723c0 -19.333 -3.5 -37.166 -10.5 -53.499s-16.5 -30.666 -28.5 -42.999s-26.167 -22 -42.5 -29s-34.166 -10.5 -53.499 -10.5s-37.166 3.5 -53.499 10.5s-30.5 16.667 -42.5 29s-21.5 26.666 -28.5 42.999s-10.5 34.166 -10.5 53.499h30
c0 -34 10.167 -60.5 30.5 -79.5s45.166 -28.5 74.499 -28.5s54.166 9.5 74.499 28.5s30.5 45.5 30.5 79.5h30z" />
    <glyph glyph-name="Ohungarumlaut" unicode="&#x150;" horiz-adv-x="784" 
d="M391 670c46.667 0 90.334 -8.66602 131.001 -25.999s76.167 -41.166 106.5 -71.499s54.333 -66.333 72 -108s26.5 -86.5 26.5 -134.5s-8.83301 -92.667 -26.5 -134s-41.667 -77.333 -72 -108s-65.833 -54.667 -106.5 -72s-84.334 -26 -131.001 -26
s-90.334 8.83301 -131.001 26.5s-76 41.667 -106 72s-53.667 66.166 -71 107.499s-26 86 -26 134s8.66699 92.833 26 134.5s41 77.667 71 108s65.333 54.166 106 71.499s84.334 26 131.001 26zM392 639.001c-42.667 0 -82.334 -7.83008 -119.001 -23.4971
s-68.5 -37.334 -95.5 -65.001s-48.167 -60.334 -63.5 -98.001s-23 -78.167 -23 -121.5s7.66699 -83.833 23 -121.5s36.333 -70.5 63 -98.5s58.334 -50 95.001 -66s76.667 -24 120 -24c42.667 0 82.334 8 119.001 24s68.5 38 95.5 66s48.167 60.833 63.5 98.5
s23 78.167 23 121.5s-7.66699 83.666 -23 120.999s-36.5 69.833 -63.5 97.5s-58.833 49.5 -95.5 65.5s-76.334 24 -119.001 24zM580 905.004l-107 -181h-26l96 186h37v-5zM426 905.004l-107 -181h-26l96 186h37v-5z" />
    <glyph glyph-name="ohungarumlaut" unicode="&#x151;" horiz-adv-x="613" 
d="M306 490c34 0 66 -6.33301 96 -19s56.167 -30.334 78.5 -53.001s40 -49.167 53 -79.5s19.5 -63.166 19.5 -98.499s-6.5 -68.166 -19.5 -98.499s-30.667 -56.666 -53 -78.999s-48.5 -40 -78.5 -53s-62.333 -19.5 -97 -19.5c-34 0 -66 6.5 -96 19.5s-56 30.667 -78 53
s-39.333 48.666 -52 78.999s-19 63.166 -19 98.499s6.33301 68.166 19 98.499s30 56.833 52 79.5s48 40.334 78 53.001s62.333 19 97 19zM306 461c-30.667 0 -58.999 -5.66699 -84.999 -17s-48.5 -27 -67.5 -47s-34 -43.5 -45 -70.5s-16.5 -55.833 -16.5 -86.5
c0 -31.333 5.5 -60.5 16.5 -87.5s26 -50.333 45 -70s41.5 -35.167 67.5 -46.5s54 -17 84 -17c30.667 0 59.167 5.66699 85.5 17s49.166 27 68.499 47s34.5 43.5 45.5 70.5s16.5 55.833 16.5 86.5s-5.5 59.5 -16.5 86.5s-26.167 50.5 -45.5 70.5s-42 35.667 -68 47
s-54.333 17 -85 17zM494.001 775l-107 -213h-26l96 218h37v-5zM360.001 775l-107 -213h-26l96 218h37v-5z" />
    <glyph glyph-name="OE" unicode="&#x152;" horiz-adv-x="1151" 
d="M1099 631l-374 0.00292969v-258h294v-29h-294v-315h386v-29h-418v190c-11.333 -30 -27 -57.333 -47 -82s-43.167 -45.667 -69.5 -63s-55.333 -30.833 -87 -40.5s-64.5 -14.5 -98.5 -14.5c-46.667 0 -90.334 8.83301 -131.001 26.5s-76 41.667 -106 72
s-53.667 66.166 -71 107.499s-26 86 -26 134s8.66699 92.833 26 134.5s41 77.667 71 108s65.333 54.166 106 71.499s84.334 26 131.001 26c34 0 66.833 -4.83301 98.5 -14.5s60.667 -23.334 87 -41.001s49.5 -38.667 69.5 -63s35.667 -51.5 47 -81.5v190h406v-29z
M392 639.003c-43.333 0 -83.332 -7.83203 -119.999 -23.499s-68.334 -37.334 -95.001 -65.001s-47.667 -60.334 -63 -98.001s-23 -78.167 -23 -121.5s7.5 -83.833 22.5 -121.5s36 -70.5 63 -98.5s58.833 -50 95.5 -66s76.667 -24 120 -24c42.667 0 82.5 8 119.5 24
s68.833 38 95.5 66s47.667 60.833 63 98.5s23 78.167 23 121.5v13c-1.33301 42 -10 80.833 -26 116.5s-37.333 66.834 -64 93.501s-58 47.5 -94 62.5s-75 22.5 -117 22.5z" />
    <glyph glyph-name="oe" unicode="&#x153;" horiz-adv-x="1014" 
d="M741 490c28 0 54.998 -4.83398 80.998 -14.501s48.667 -23.5 68 -41.5s34.833 -40.167 46.5 -66.5s17.5 -56.166 17.5 -89.499c0 -6 -0.166992 -11.5 -0.5 -16.5s-0.833008 -9.16699 -1.5 -12.5c-0.666992 -4 -1 -8 -1 -12h-408v-7
c0.666992 -30 6.16699 -57.833 16.5 -83.5s24.333 -48 42 -67s38.834 -33.833 63.501 -44.5s51.667 -16 81 -16c36 0 68.5 7.5 97.5 22.5s53.5 35.5 73.5 61.5l22 -18c-22.667 -29.333 -50.5 -52.5 -83.5 -69.5s-69.5 -25.5 -109.5 -25.5c-26 0 -50.5 3.83301 -73.5 11.5
s-44 18.334 -63 32.001s-35.667 30.167 -50 49.5s-25.5 40.666 -33.5 63.999c-8.66699 -23.333 -20.167 -44.5 -34.5 -63.5s-31 -35.5 -50 -49.5s-40 -24.833 -63 -32.5s-47.5 -11.5 -73.5 -11.5c-34 0 -65.833 6.5 -95.5 19.5s-55.667 30.833 -78 53.5
s-39.833 49.167 -52.5 79.5s-19 62.833 -19 97.5s6.33301 67.167 19 97.5s30.167 56.833 52.5 79.5s48.5 40.5 78.5 53.5s62 19.5 96 19.5c52 0 97.333 -14.667 136 -44s66.667 -67 84 -113c8 22.667 18.833 43.667 32.5 63s29.834 36 48.501 50s39.167 24.833 61.5 32.5
s46.5 11.5 72.5 11.5zM305.998 460.999c-30.667 0 -58.999 -5.66699 -84.999 -17s-48.5 -27 -67.5 -47s-34 -43.5 -45 -70.5s-16.5 -55.833 -16.5 -86.5s5.5 -59.5 16.5 -86.5s26 -50.5 45 -70.5s41.5 -35.667 67.5 -47s54 -17 84 -17s57.333 5.5 82 16.5s46 26 64 45
s32.167 41.333 42.5 67s16.166 53.5 17.499 83.5v9c0 30.667 -5 59.5 -15 86.5s-24 50.5 -42 70.5s-39.5 35.667 -64.5 47s-52.833 17 -83.5 17zM738.999 460.999c-27.333 0 -52.333 -4.99902 -75 -14.999s-42.5 -23.833 -59.5 -41.5s-30.667 -38.334 -41 -62.001
s-16.833 -49.5 -19.5 -77.5h378c2 30 -1.66699 57.167 -11 81.5s-22.5 45 -39.5 62s-37 30 -60 39s-47.167 13.5 -72.5 13.5z" />
    <glyph glyph-name="Racute" unicode="&#x154;" horiz-adv-x="608" 
d="M322 660c30.667 0 57.833 -4.5 81.5 -13.5s43.5 -21.333 59.5 -37s28.167 -34 36.5 -55s12.5 -43.833 12.5 -68.5c0 -22.667 -3.5 -44 -10.5 -64s-17.5 -37.667 -31.5 -53s-31 -28 -51 -38s-43 -16.333 -69 -19l235 -312h-39l-234 311h-177v-311h-32v660h219z
M134.999 631v-291.002h185c26.667 0 49.834 3.66699 69.501 11s36.167 17.5 49.5 30.5s23.333 28.333 30 46s10 36.834 10 57.501s-3.33301 39.834 -10 57.501s-16.667 33 -30 46s-29.833 23.333 -49.5 31s-42.834 11.5 -69.501 11.5h-185zM382.999 904.998l-107 -181h-26
l96 186h37v-5z" />
    <glyph glyph-name="racute" unicode="&#x155;" horiz-adv-x="341" 
d="M295 482c6 0 11.165 -0.166992 15.498 -0.5s8.5 -0.833008 12.5 -1.5v-25h-23c-20 0 -40.167 -3.66699 -60.5 -11s-38.666 -18 -54.999 -32s-29.666 -31.167 -39.999 -51.5s-15.5 -43.833 -15.5 -70.5v-290h-30v480h30v-93c17.333 32 40.833 55.833 70.5 71.5
s61.5 23.5 95.5 23.5zM266.998 775l-107 -213h-26l96 218h37v-5z" />
    <glyph glyph-name="Rcommaaccent" unicode="&#x156;" horiz-adv-x="608" 
d="M322 660c30.667 0 57.833 -4.5 81.5 -13.5s43.5 -21.333 59.5 -37s28.167 -34 36.5 -55s12.5 -43.833 12.5 -68.5c0 -22.667 -3.5 -44 -10.5 -64s-17.5 -37.667 -31.5 -53s-31 -28 -51 -38s-43 -16.333 -69 -19l235 -312h-39l-234 311h-177v-311h-32v660h219z
M134.999 631v-291.002h185c26.667 0 49.834 3.66699 69.501 11s36.167 17.5 49.5 30.5s23.333 28.333 30 46s10 36.834 10 57.501s-3.33301 39.834 -10 57.501s-16.667 33 -30 46s-29.833 23.333 -49.5 31s-42.834 11.5 -69.501 11.5h-185zM287.999 -220.002h-26l14 168h36z
" />
    <glyph glyph-name="rcommaaccent" unicode="&#x157;" horiz-adv-x="341" 
d="M295 482c6 0 11.165 -0.166992 15.498 -0.5s8.5 -0.833008 12.5 -1.5v-25h-23c-20 0 -40.167 -3.66699 -60.5 -11s-38.666 -18 -54.999 -32s-29.666 -31.167 -39.999 -51.5s-15.5 -43.833 -15.5 -70.5v-290h-30v480h30v-93c17.333 32 40.833 55.833 70.5 71.5
s61.5 23.5 95.5 23.5zM107.998 -220h-26l14 168h36z" />
    <glyph glyph-name="Rcaron" unicode="&#x158;" horiz-adv-x="608" 
d="M322 660c30.667 0 57.833 -4.5 81.5 -13.5s43.5 -21.333 59.5 -37s28.167 -34 36.5 -55s12.5 -43.833 12.5 -68.5c0 -22.667 -3.5 -44 -10.5 -64s-17.5 -37.667 -31.5 -53s-31 -28 -51 -38s-43 -16.333 -69 -19l235 -312h-39l-234 311h-177v-311h-32v660h219z
M134.999 631v-291.002h185c26.667 0 49.834 3.66699 69.501 11s36.167 17.5 49.5 30.5s23.333 28.333 30 46s10 36.834 10 57.501s-3.33301 39.834 -10 57.501s-16.667 33 -30 46s-29.833 23.333 -49.5 31s-42.834 11.5 -69.501 11.5h-185zM270.999 723.998h-15l-146 186h27
l127 -147l126 147h27z" />
    <glyph glyph-name="rcaron" unicode="&#x159;" horiz-adv-x="341" 
d="M295 482c6 0 11.165 -0.166992 15.498 -0.5s8.5 -0.833008 12.5 -1.5v-25h-23c-20 0 -40.167 -3.66699 -60.5 -11s-38.666 -18 -54.999 -32s-29.666 -31.167 -39.999 -51.5s-15.5 -43.833 -15.5 -70.5v-290h-30v480h30v-93c17.333 32 40.833 55.833 70.5 71.5
s61.5 23.5 95.5 23.5zM154.998 562h-15l-136 218h27l117 -172l116 172h27z" />
    <glyph glyph-name="Sacute" unicode="&#x15a;" horiz-adv-x="555" 
d="M283 670c43.333 0 80.8301 -9.16309 112.497 -27.4961s57.834 -42.5 78.501 -72.5l-23 -18c-42 58 -97.333 87 -166 87c-18 0 -36 -2.16699 -54 -6.5s-34.5 -11.166 -49.5 -20.499s-27.167 -22 -36.5 -38s-14 -35.333 -14 -58c0 -20 3.16699 -37 9.5 -51
s15 -26.333 26 -37s24 -20.167 39 -28.5s31.5 -16.833 49.5 -25.5l76 -36c24 -11.333 45.333 -22.833 64 -34.5s34.334 -24.334 47.001 -38.001s22.334 -29.167 29.001 -46.5s10 -37.333 10 -60c0 -26 -5.16699 -49.333 -15.5 -70s-24.333 -38.334 -42 -53.001
s-38.5 -26 -62.5 -34s-50 -12 -78 -12c-52 0 -97.5 12.667 -136.5 38s-71.167 59 -96.5 101l24 18c23.333 -36.667 52.333 -66.834 87 -90.501s75.667 -35.5 123 -35.5c22.667 0 44 3 64 9s37.333 15 52 27s26.167 26.5 34.5 43.5s12.5 36.5 12.5 58.5
c0 19.333 -2.66699 36 -8 50s-13.333 26.667 -24 38s-24.167 22 -40.5 32s-35.833 20.333 -58.5 31l-76 36c-18 8.66699 -35.5 17.667 -52.5 27s-32.167 20.5 -45.5 33.5s-24.166 28.167 -32.499 45.5s-12.5 38 -12.5 62c0 25.333 5 47.666 15 66.999
s23.5 35.666 40.5 48.999s36.667 23.333 59 30s46.166 10 71.499 10zM401.997 905.004l-107 -181h-26l96 186h37v-5z" />
    <glyph glyph-name="sacute" unicode="&#x15b;" horiz-adv-x="455" 
d="M232 490c36 0 66.334 -8.16699 91.001 -24.5s44.667 -33.833 60 -52.5l-22 -20c-17.333 20 -36.333 36.333 -57 49s-45.334 19 -74.001 19c-14 0 -27.667 -1.66699 -41 -5s-25.166 -8.66602 -35.499 -15.999s-18.833 -16.5 -25.5 -27.5s-10 -24.5 -10 -40.5
c0 -13.333 2.5 -24.833 7.5 -34.5s12 -18.167 21 -25.5s19.667 -14 32 -20l40.5 -19l45 -20c16 -7.33301 31.333 -15 46 -23s27.667 -17.167 39 -27.5s20.333 -22.333 27 -36s10 -29.834 10 -48.501c0 -21.333 -4.33301 -39.833 -13 -55.5s-20 -29 -34 -40
s-30.333 -19.167 -49 -24.5s-38 -8 -58 -8c-42 0 -77.833 10.333 -107.5 31s-53.834 45.334 -72.501 74.001l24 18c20 -29.333 42.667 -52.333 68 -69s55.333 -25 90 -25c16 0 31.167 2 45.5 6s27 10 38 18s19.833 18 26.5 30s10 26.333 10 43c0 16 -3 29.5 -9 40.5
s-14 20.833 -24 29.5s-21.667 16.167 -35 22.5l-41 19.5l-42 19c-14.667 6.66699 -29 13.667 -43 21s-26.5 15.666 -37.5 24.999s-19.833 20.333 -26.5 33s-10 27.667 -10 45c0 18.667 4.16699 35.5 12.5 50.5s19.333 27.5 33 37.5s29.167 17.667 46.5 23s35.333 8 54 8z
M352.001 775l-107 -213h-26l96 218h37v-5z" />
    <glyph glyph-name="Scircumflex" unicode="&#x15c;" horiz-adv-x="555" 
d="M283 670c43.333 0 80.8301 -9.16309 112.497 -27.4961s57.834 -42.5 78.501 -72.5l-23 -18c-42 58 -97.333 87 -166 87c-18 0 -36 -2.16699 -54 -6.5s-34.5 -11.166 -49.5 -20.499s-27.167 -22 -36.5 -38s-14 -35.333 -14 -58c0 -20 3.16699 -37 9.5 -51
s15 -26.333 26 -37s24 -20.167 39 -28.5s31.5 -16.833 49.5 -25.5l76 -36c24 -11.333 45.333 -22.833 64 -34.5s34.334 -24.334 47.001 -38.001s22.334 -29.167 29.001 -46.5s10 -37.333 10 -60c0 -26 -5.16699 -49.333 -15.5 -70s-24.333 -38.334 -42 -53.001
s-38.5 -26 -62.5 -34s-50 -12 -78 -12c-52 0 -97.5 12.667 -136.5 38s-71.167 59 -96.5 101l24 18c23.333 -36.667 52.333 -66.834 87 -90.501s75.667 -35.5 123 -35.5c22.667 0 44 3 64 9s37.333 15 52 27s26.167 26.5 34.5 43.5s12.5 36.5 12.5 58.5
c0 19.333 -2.66699 36 -8 50s-13.333 26.667 -24 38s-24.167 22 -40.5 32s-35.833 20.333 -58.5 31l-76 36c-18 8.66699 -35.5 17.667 -52.5 27s-32.167 20.5 -45.5 33.5s-24.166 28.167 -32.499 45.5s-12.5 38 -12.5 62c0 25.333 5 47.666 15 66.999
s23.5 35.666 40.5 48.999s36.667 23.333 59 30s46.166 10 71.499 10zM435.997 724.004h-27l-126 146l-127 -146h-27l146 186h15z" />
    <glyph glyph-name="scircumflex" unicode="&#x15d;" horiz-adv-x="455" 
d="M232 490c36 0 66.334 -8.16699 91.001 -24.5s44.667 -33.833 60 -52.5l-22 -20c-17.333 20 -36.333 36.333 -57 49s-45.334 19 -74.001 19c-14 0 -27.667 -1.66699 -41 -5s-25.166 -8.66602 -35.499 -15.999s-18.833 -16.5 -25.5 -27.5s-10 -24.5 -10 -40.5
c0 -13.333 2.5 -24.833 7.5 -34.5s12 -18.167 21 -25.5s19.667 -14 32 -20l40.5 -19l45 -20c16 -7.33301 31.333 -15 46 -23s27.667 -17.167 39 -27.5s20.333 -22.333 27 -36s10 -29.834 10 -48.501c0 -21.333 -4.33301 -39.833 -13 -55.5s-20 -29 -34 -40
s-30.333 -19.167 -49 -24.5s-38 -8 -58 -8c-42 0 -77.833 10.333 -107.5 31s-53.834 45.334 -72.501 74.001l24 18c20 -29.333 42.667 -52.333 68 -69s55.333 -25 90 -25c16 0 31.167 2 45.5 6s27 10 38 18s19.833 18 26.5 30s10 26.333 10 43c0 16 -3 29.5 -9 40.5
s-14 20.833 -24 29.5s-21.667 16.167 -35 22.5l-41 19.5l-42 19c-14.667 6.66699 -29 13.667 -43 21s-26.5 15.666 -37.5 24.999s-19.833 20.333 -26.5 33s-10 27.667 -10 45c0 18.667 4.16699 35.5 12.5 50.5s19.333 27.5 33 37.5s29.167 17.667 46.5 23s35.333 8 54 8z
M375.001 562h-27l-116 172l-117 -172h-27l136 218h15z" />
    <glyph glyph-name="Scedilla" unicode="&#x15e;" horiz-adv-x="555" 
d="M283 670c43.333 0 80.8301 -9.16309 112.497 -27.4961s57.834 -42.5 78.501 -72.5l-23 -18c-42 58 -97.333 87 -166 87c-18 0 -36 -2.16699 -54 -6.5s-34.5 -11.166 -49.5 -20.499s-27.167 -22 -36.5 -38s-14 -35.333 -14 -58c0 -20 3.16699 -37 9.5 -51
s15 -26.333 26 -37s24 -20.167 39 -28.5s31.5 -16.833 49.5 -25.5l76 -36c24 -11.333 45.333 -22.833 64 -34.5s34.334 -24.334 47.001 -38.001s22.334 -29.167 29.001 -46.5s10 -37.333 10 -60c0 -26 -5.16699 -49.333 -15.5 -70s-24.333 -38.334 -42 -53.001
s-38.5 -26 -62.5 -34s-50 -12 -78 -12c-52 0 -97.5 12.667 -136.5 38s-71.167 59 -96.5 101l24 18c23.333 -36.667 52.333 -66.834 87 -90.501s75.667 -35.5 123 -35.5c22.667 0 44 3 64 9s37.333 15 52 27s26.167 26.5 34.5 43.5s12.5 36.5 12.5 58.5
c0 19.333 -2.66699 36 -8 50s-13.333 26.667 -24 38s-24.167 22 -40.5 32s-35.833 20.333 -58.5 31l-76 36c-18 8.66699 -35.5 17.667 -52.5 27s-32.167 20.5 -45.5 33.5s-24.166 28.167 -32.499 45.5s-12.5 38 -12.5 62c0 25.333 5 47.666 15 66.999
s23.5 35.666 40.5 48.999s36.667 23.333 59 30s46.166 10 71.499 10zM275.997 13.0039c20.667 -9.33301 38.168 -22.333 52.501 -39s21.5 -37 21.5 -61c0 -14 -2.5 -27.167 -7.5 -39.5s-12.333 -23.166 -22 -32.499s-21.5 -16.833 -35.5 -22.5s-29.667 -8.5 -47 -8.5
c-10 0 -20.667 0.833008 -32 2.5s-22.333 4.16699 -33 7.5v27c11.333 -2.66699 22.166 -4.83398 32.499 -6.50098s20.166 -2.5 29.499 -2.5c21.333 0 40.5 6 57.5 18s25.5 31.667 25.5 59c0 21.333 -5.16699 38.333 -15.5 51s-22.166 24 -35.499 34z" />
    <glyph glyph-name="scedilla" unicode="&#x15f;" horiz-adv-x="455" 
d="M232 490c36 0 66.334 -8.16699 91.001 -24.5s44.667 -33.833 60 -52.5l-22 -20c-17.333 20 -36.333 36.333 -57 49s-45.334 19 -74.001 19c-14 0 -27.667 -1.66699 -41 -5s-25.166 -8.66602 -35.499 -15.999s-18.833 -16.5 -25.5 -27.5s-10 -24.5 -10 -40.5
c0 -13.333 2.5 -24.833 7.5 -34.5s12 -18.167 21 -25.5s19.667 -14 32 -20l40.5 -19l45 -20c16 -7.33301 31.333 -15 46 -23s27.667 -17.167 39 -27.5s20.333 -22.333 27 -36s10 -29.834 10 -48.501c0 -21.333 -4.33301 -39.833 -13 -55.5s-20 -29 -34 -40
s-30.333 -19.167 -49 -24.5s-38 -8 -58 -8c-42 0 -77.833 10.333 -107.5 31s-53.834 45.334 -72.501 74.001l24 18c20 -29.333 42.667 -52.333 68 -69s55.333 -25 90 -25c16 0 31.167 2 45.5 6s27 10 38 18s19.833 18 26.5 30s10 26.333 10 43c0 16 -3 29.5 -9 40.5
s-14 20.833 -24 29.5s-21.667 16.167 -35 22.5l-41 19.5l-42 19c-14.667 6.66699 -29 13.667 -43 21s-26.5 15.666 -37.5 24.999s-19.833 20.333 -26.5 33s-10 27.667 -10 45c0 18.667 4.16699 35.5 12.5 50.5s19.333 27.5 33 37.5s29.167 17.667 46.5 23s35.333 8 54 8z
M231.001 13c20.667 -9.33301 38.168 -22.333 52.501 -39s21.5 -37 21.5 -61c0 -14 -2.5 -27.167 -7.5 -39.5s-12.333 -23.166 -22 -32.499s-21.5 -16.833 -35.5 -22.5s-29.667 -8.5 -47 -8.5c-10 0 -20.667 0.833008 -32 2.5s-22.333 4.16699 -33 7.5v27
c11.333 -2.66699 22.166 -4.83398 32.499 -6.50098s20.166 -2.5 29.499 -2.5c21.333 0 40.5 6 57.5 18s25.5 31.667 25.5 59c0 21.333 -5.16699 38.333 -15.5 51s-22.166 24 -35.499 34z" />
    <glyph glyph-name="Scaron" unicode="&#x160;" horiz-adv-x="555" 
d="M283 670c43.333 0 80.8301 -9.16309 112.497 -27.4961s57.834 -42.5 78.501 -72.5l-23 -18c-42 58 -97.333 87 -166 87c-18 0 -36 -2.16699 -54 -6.5s-34.5 -11.166 -49.5 -20.499s-27.167 -22 -36.5 -38s-14 -35.333 -14 -58c0 -20 3.16699 -37 9.5 -51
s15 -26.333 26 -37s24 -20.167 39 -28.5s31.5 -16.833 49.5 -25.5l76 -36c24 -11.333 45.333 -22.833 64 -34.5s34.334 -24.334 47.001 -38.001s22.334 -29.167 29.001 -46.5s10 -37.333 10 -60c0 -26 -5.16699 -49.333 -15.5 -70s-24.333 -38.334 -42 -53.001
s-38.5 -26 -62.5 -34s-50 -12 -78 -12c-52 0 -97.5 12.667 -136.5 38s-71.167 59 -96.5 101l24 18c23.333 -36.667 52.333 -66.834 87 -90.501s75.667 -35.5 123 -35.5c22.667 0 44 3 64 9s37.333 15 52 27s26.167 26.5 34.5 43.5s12.5 36.5 12.5 58.5
c0 19.333 -2.66699 36 -8 50s-13.333 26.667 -24 38s-24.167 22 -40.5 32s-35.833 20.333 -58.5 31l-76 36c-18 8.66699 -35.5 17.667 -52.5 27s-32.167 20.5 -45.5 33.5s-24.166 28.167 -32.499 45.5s-12.5 38 -12.5 62c0 25.333 5 47.666 15 66.999
s23.5 35.666 40.5 48.999s36.667 23.333 59 30s46.166 10 71.499 10zM289.997 724.004h-15l-146 186h27l127 -147l126 147h27z" />
    <glyph glyph-name="scaron" unicode="&#x161;" horiz-adv-x="455" 
d="M232 490c36 0 66.334 -8.16699 91.001 -24.5s44.667 -33.833 60 -52.5l-22 -20c-17.333 20 -36.333 36.333 -57 49s-45.334 19 -74.001 19c-14 0 -27.667 -1.66699 -41 -5s-25.166 -8.66602 -35.499 -15.999s-18.833 -16.5 -25.5 -27.5s-10 -24.5 -10 -40.5
c0 -13.333 2.5 -24.833 7.5 -34.5s12 -18.167 21 -25.5s19.667 -14 32 -20l40.5 -19l45 -20c16 -7.33301 31.333 -15 46 -23s27.667 -17.167 39 -27.5s20.333 -22.333 27 -36s10 -29.834 10 -48.501c0 -21.333 -4.33301 -39.833 -13 -55.5s-20 -29 -34 -40
s-30.333 -19.167 -49 -24.5s-38 -8 -58 -8c-42 0 -77.833 10.333 -107.5 31s-53.834 45.334 -72.501 74.001l24 18c20 -29.333 42.667 -52.333 68 -69s55.333 -25 90 -25c16 0 31.167 2 45.5 6s27 10 38 18s19.833 18 26.5 30s10 26.333 10 43c0 16 -3 29.5 -9 40.5
s-14 20.833 -24 29.5s-21.667 16.167 -35 22.5l-41 19.5l-42 19c-14.667 6.66699 -29 13.667 -43 21s-26.5 15.666 -37.5 24.999s-19.833 20.333 -26.5 33s-10 27.667 -10 45c0 18.667 4.16699 35.5 12.5 50.5s19.333 27.5 33 37.5s29.167 17.667 46.5 23s35.333 8 54 8z
M239.001 562h-15l-136 218h27l117 -172l116 172h27z" />
    <glyph glyph-name="uni0162" unicode="&#x162;" horiz-adv-x="584" 
d="M557 631h-249v-631h-32v631h-249v29h530v-29zM285 13c20.667 -9.33301 38.168 -22.333 52.501 -39s21.5 -37 21.5 -61c0 -14 -2.5 -27.167 -7.5 -39.5s-12.333 -23.166 -22 -32.499s-21.5 -16.833 -35.5 -22.5s-29.667 -8.5 -47 -8.5c-10 0 -20.667 0.833008 -32 2.5
s-22.333 4.16699 -33 7.5v27c11.333 -2.66699 22.166 -4.83398 32.499 -6.50098s20.166 -2.5 29.499 -2.5c21.333 0 40.5 6 57.5 18s25.5 31.667 25.5 59c0 21.333 -5.16699 38.333 -15.5 51s-22.166 24 -35.499 34z" />
    <glyph glyph-name="uni0163" unicode="&#x163;" horiz-adv-x="350" 
d="M307 452l-160.001 -0.00195312v-327c0 -21.333 2.83301 -38.833 8.5 -52.5s13.334 -24.5 23.001 -32.5s21 -13.667 34 -17s26.833 -5 41.5 -5c13.333 0 25.166 0.833008 35.499 2.5s21.5 3.83398 33.5 6.50098v-27c-11.333 -3.33301 -22.5 -5.83301 -33.5 -7.5
s-23.5 -2.5 -37.5 -2.5c-18.667 0 -36.167 2.33301 -52.5 7s-30.666 12.334 -42.999 23.001s-22 24.667 -29 42s-10.5 38.333 -10.5 63v327h-86v28h86v140h30v-140h160v-28zM200.999 12.998c20.667 -9.33301 38.168 -22.333 52.501 -39s21.5 -37 21.5 -61
c0 -14 -2.5 -27.167 -7.5 -39.5s-12.333 -23.166 -22 -32.499s-21.5 -16.833 -35.5 -22.5s-29.667 -8.5 -47 -8.5c-10 0 -20.667 0.833008 -32 2.5s-22.333 4.16699 -33 7.5v27c11.333 -2.66699 22.166 -4.83398 32.499 -6.50098s20.166 -2.5 29.499 -2.5
c21.333 0 40.5 6 57.5 18s25.5 31.667 25.5 59c0 21.333 -5.16699 38.333 -15.5 51s-22.166 24 -35.499 34z" />
    <glyph glyph-name="Tcaron" unicode="&#x164;" horiz-adv-x="584" 
d="M557 631h-249v-631h-32v631h-249v29h530v-29zM299 724h-15l-146 186h27l127 -147l126 147h27z" />
    <glyph glyph-name="tcaron" unicode="&#x165;" horiz-adv-x="350" 
d="M307 452l-160.001 -0.00195312v-327c0 -21.333 2.83301 -38.833 8.5 -52.5s13.334 -24.5 23.001 -32.5s21 -13.667 34 -17s26.833 -5 41.5 -5c13.333 0 25.166 0.833008 35.499 2.5s21.5 3.83398 33.5 6.50098v-27c-11.333 -3.33301 -22.5 -5.83301 -33.5 -7.5
s-23.5 -2.5 -37.5 -2.5c-18.667 0 -36.167 2.33301 -52.5 7s-30.666 12.334 -42.999 23.001s-22 24.667 -29 42s-10.5 38.333 -10.5 63v327h-86v28h86v140h30v-140h160v-28zM277.999 539.998h-26l20 210h38z" />
    <glyph glyph-name="Tbar" unicode="&#x166;" horiz-adv-x="584" 
d="M557 631h-249v-317h210v-28h-210v-286h-32v286h-210v28h210v317h-249v29h530v-29z" />
    <glyph glyph-name="tbar" unicode="&#x167;" horiz-adv-x="364" 
d="M316 236l-160.001 -0.00195312v-111c0 -21.333 2.83301 -38.833 8.5 -52.5s13.334 -24.5 23.001 -32.5s21 -13.667 34 -17s26.833 -5 41.5 -5c13.333 0 25.166 0.833008 35.499 2.5s21.5 3.83398 33.5 6.50098v-27c-11.333 -3.33301 -22.5 -5.83301 -33.5 -7.5
s-23.5 -2.5 -37.5 -2.5c-18.667 0 -36.167 2.33301 -52.5 7s-30.666 12.334 -42.999 23.001s-22 24.667 -29 42s-10.5 38.333 -10.5 63v111h-86v28h86v188h-86v28h86v140h30v-140h160v-28h-160v-188h160v-28z" />
    <glyph glyph-name="Utilde" unicode="&#x168;" horiz-adv-x="678" 
d="M586 252c0 -40.667 -5.83398 -77.167 -17.501 -109.5s-28.167 -59.833 -49.5 -82.5s-47.166 -40 -77.499 -52s-64.166 -18 -101.499 -18c-38 0 -72.333 6 -103 18s-56.834 29.333 -78.501 52s-38.167 50.167 -49.5 82.5s-17 68.833 -17 109.5v408h32v-408
c0 -37.333 5.16699 -70.333 15.5 -99s25 -52.667 44 -72s41.833 -34.166 68.5 -44.499s56 -15.5 88 -15.5s61 5.16699 87 15.5s48.5 25.166 67.5 44.499s33.667 43.333 44 72s15.5 61.667 15.5 99v408h32v-408zM262.999 858c13.333 0 25.165 -3 35.498 -9
s20.5 -12.667 30.5 -20l37 -26c9.33301 -6.66699 17.333 -11.834 24 -15.501s14 -5.5 22 -5.5c12.667 0 21.5 4.66699 26.5 14s7.5 19.666 7.5 30.999v21h29c0.666992 -3.33301 1 -6.5 1 -9.5v-9.5c0 -8.66699 -1.16699 -17.5 -3.5 -26.5s-5.83301 -17 -10.5 -24
s-11 -12.833 -19 -17.5s-17.333 -7 -28 -7c-13.333 0 -25.166 3 -35.499 9s-20.5 12.667 -30.5 20l-37 26c-9.33301 6.66699 -17.333 11.834 -24 15.501s-14 5.5 -22 5.5c-12.667 0 -21.5 -4.66699 -26.5 -14s-7.5 -19.666 -7.5 -30.999v-21h-29
c-0.666992 3.33301 -1 6.5 -1 9.5v9.5c0 8.66699 1.16699 17.5 3.5 26.5s5.83301 17 10.5 24s10.834 12.833 18.501 17.5s17.167 7 28.5 7z" />
    <glyph glyph-name="utilde" unicode="&#x169;" horiz-adv-x="543" 
d="M452 175c0 -28.667 -4.66699 -54.334 -14 -77.001s-22.166 -42 -38.499 -58s-35.5 -28.333 -57.5 -37s-45.333 -13 -70 -13c-25.333 0 -48.833 4.33301 -70.5 13s-40.834 21 -57.501 37s-29.667 35.333 -39 58s-14 48.334 -14 77.001v305h30v-305
c0 -25.333 4 -47.666 12 -66.999s18.833 -35.5 32.5 -48.5s29.667 -23 48 -30s37.833 -10.5 58.5 -10.5s40 3.5 58 10.5s33.833 17 47.5 30s24.5 29.167 32.5 48.5s12 41.666 12 66.999v305h30v-305zM206 722c13.333 0 24.832 -3.16699 34.499 -9.5
s18.834 -14.166 27.501 -23.499l25 -27c8 -8.66699 15.167 -15 21.5 -19s13.5 -6 21.5 -6c12.667 0 21.5 4.83301 26.5 14.5s7.5 21.167 7.5 34.5v21h29c0.666992 -3.33301 1 -6.5 1 -9.5v-9.5c0 -9.33301 -1 -18.666 -3 -27.999s-5.5 -17.833 -10.5 -25.5
s-11.333 -13.834 -19 -18.501s-17.167 -7 -28.5 -7c-13.333 0 -25 3.16699 -35 9.5s-19.333 14.166 -28 23.499l-25 27c-8 8.66699 -15.167 15 -21.5 19s-13.5 6 -21.5 6c-12.667 0 -21.5 -4.83301 -26.5 -14.5s-7.5 -21.167 -7.5 -34.5v-21h-29
c-0.666992 3.33301 -1 6.5 -1 9.5v9.5c0 9.33301 1.16699 18.666 3.5 27.999s6 17.833 11 25.5s11.333 13.834 19 18.501s17.167 7 28.5 7z" />
    <glyph glyph-name="Umacron" unicode="&#x16a;" horiz-adv-x="678" 
d="M586 252c0 -40.667 -5.83398 -77.167 -17.501 -109.5s-28.167 -59.833 -49.5 -82.5s-47.166 -40 -77.499 -52s-64.166 -18 -101.499 -18c-38 0 -72.333 6 -103 18s-56.834 29.333 -78.501 52s-38.167 50.167 -49.5 82.5s-17 68.833 -17 109.5v408h32v-408
c0 -37.333 5.16699 -70.333 15.5 -99s25 -52.667 44 -72s41.833 -34.166 68.5 -44.499s56 -15.5 88 -15.5s61 5.16699 87 15.5s48.5 25.166 67.5 44.499s33.667 43.333 44 72s15.5 61.667 15.5 99v408h32v-408zM474.999 782h-272v28h272v-28z" />
    <glyph glyph-name="umacron" unicode="&#x16b;" horiz-adv-x="543" 
d="M452 175c0 -28.667 -4.66699 -54.334 -14 -77.001s-22.166 -42 -38.499 -58s-35.5 -28.333 -57.5 -37s-45.333 -13 -70 -13c-25.333 0 -48.833 4.33301 -70.5 13s-40.834 21 -57.501 37s-29.667 35.333 -39 58s-14 48.334 -14 77.001v305h30v-305
c0 -25.333 4 -47.666 12 -66.999s18.833 -35.5 32.5 -48.5s29.667 -23 48 -30s37.833 -10.5 58.5 -10.5s40 3.5 58 10.5s33.833 17 47.5 30s24.5 29.167 32.5 48.5s12 41.666 12 66.999v305h30v-305zM398 653h-252v28h252v-28z" />
    <glyph glyph-name="Ubreve" unicode="&#x16c;" horiz-adv-x="678" 
d="M586 252c0 -40.667 -5.83398 -77.167 -17.501 -109.5s-28.167 -59.833 -49.5 -82.5s-47.166 -40 -77.499 -52s-64.166 -18 -101.499 -18c-38 0 -72.333 6 -103 18s-56.834 29.333 -78.501 52s-38.167 50.167 -49.5 82.5s-17 68.833 -17 109.5v408h32v-408
c0 -37.333 5.16699 -70.333 15.5 -99s25 -52.667 44 -72s41.833 -34.166 68.5 -44.499s56 -15.5 88 -15.5s61 5.16699 87 15.5s48.5 25.166 67.5 44.499s33.667 43.333 44 72s15.5 61.667 15.5 99v408h32v-408zM473.999 883c0 -19.333 -3.5 -37.166 -10.5 -53.499
s-16.5 -30.666 -28.5 -42.999s-26.167 -22 -42.5 -29s-34.166 -10.5 -53.499 -10.5s-37.166 3.5 -53.499 10.5s-30.5 16.667 -42.5 29s-21.5 26.666 -28.5 42.999s-10.5 34.166 -10.5 53.499h30c0 -34 10.167 -60.5 30.5 -79.5s45.166 -28.5 74.499 -28.5
s54.166 9.5 74.499 28.5s30.5 45.5 30.5 79.5h30z" />
    <glyph glyph-name="ubreve" unicode="&#x16d;" horiz-adv-x="543" 
d="M452 175c0 -28.667 -4.66699 -54.334 -14 -77.001s-22.166 -42 -38.499 -58s-35.5 -28.333 -57.5 -37s-45.333 -13 -70 -13c-25.333 0 -48.833 4.33301 -70.5 13s-40.834 21 -57.501 37s-29.667 35.333 -39 58s-14 48.334 -14 77.001v305h30v-305
c0 -25.333 4 -47.666 12 -66.999s18.833 -35.5 32.5 -48.5s29.667 -23 48 -30s37.833 -10.5 58.5 -10.5s40 3.5 58 10.5s33.833 17 47.5 30s24.5 29.167 32.5 48.5s12 41.666 12 66.999v305h30v-305zM407 723c0 -19.333 -3.5 -37.166 -10.5 -53.499
s-16.5 -30.666 -28.5 -42.999s-26.167 -22 -42.5 -29s-34.166 -10.5 -53.499 -10.5s-37.166 3.5 -53.499 10.5s-30.5 16.667 -42.5 29s-21.5 26.666 -28.5 42.999s-10.5 34.166 -10.5 53.499h30c0 -34 10.167 -60.5 30.5 -79.5s45.166 -28.5 74.499 -28.5
s54.166 9.5 74.499 28.5s30.5 45.5 30.5 79.5h30z" />
    <glyph glyph-name="Uring" unicode="&#x16e;" horiz-adv-x="678" 
d="M586 252c0 -40.667 -5.83398 -77.167 -17.501 -109.5s-28.167 -59.833 -49.5 -82.5s-47.166 -40 -77.499 -52s-64.166 -18 -101.499 -18c-38 0 -72.333 6 -103 18s-56.834 29.333 -78.501 52s-38.167 50.167 -49.5 82.5s-17 68.833 -17 109.5v408h32v-408
c0 -37.333 5.16699 -70.333 15.5 -99s25 -52.667 44 -72s41.833 -34.166 68.5 -44.499s56 -15.5 88 -15.5s61 5.16699 87 15.5s48.5 25.166 67.5 44.499s33.667 43.333 44 72s15.5 61.667 15.5 99v408h32v-408zM338.999 910c27.333 0 50.5 -9.33301 69.5 -28
s28.5 -41.667 28.5 -69s-9.5 -50.333 -28.5 -69s-42.167 -28 -69.5 -28s-50.5 9.33301 -69.5 28s-28.5 41.667 -28.5 69s9.5 50.333 28.5 69s42.167 28 69.5 28zM338.999 882c-19.333 0 -35.5 -6.66699 -48.5 -20s-19.5 -29.666 -19.5 -48.999s6.5 -35.666 19.5 -48.999
s29.167 -20 48.5 -20s35.5 6.66699 48.5 20s19.5 29.666 19.5 48.999s-6.5 35.666 -19.5 48.999s-29.167 20 -48.5 20z" />
    <glyph glyph-name="uring" unicode="&#x16f;" horiz-adv-x="543" 
d="M452 175c0 -28.667 -4.66699 -54.334 -14 -77.001s-22.166 -42 -38.499 -58s-35.5 -28.333 -57.5 -37s-45.333 -13 -70 -13c-25.333 0 -48.833 4.33301 -70.5 13s-40.834 21 -57.501 37s-29.667 35.333 -39 58s-14 48.334 -14 77.001v305h30v-305
c0 -25.333 4 -47.666 12 -66.999s18.833 -35.5 32.5 -48.5s29.667 -23 48 -30s37.833 -10.5 58.5 -10.5s40 3.5 58 10.5s33.833 17 47.5 30s24.5 29.167 32.5 48.5s12 41.666 12 66.999v305h30v-305zM272 763c27.333 0 50.5 -9.33301 69.5 -28s28.5 -41.667 28.5 -69
s-9.5 -50.333 -28.5 -69s-42.167 -28 -69.5 -28s-50.5 9.33301 -69.5 28s-28.5 41.667 -28.5 69s9.5 50.333 28.5 69s42.167 28 69.5 28zM272 735c-19.333 0 -35.5 -6.66699 -48.5 -20s-19.5 -29.666 -19.5 -48.999s6.5 -35.666 19.5 -48.999s29.167 -20 48.5 -20
s35.5 6.66699 48.5 20s19.5 29.666 19.5 48.999s-6.5 35.666 -19.5 48.999s-29.167 20 -48.5 20z" />
    <glyph glyph-name="Uhungarumlaut" unicode="&#x170;" horiz-adv-x="678" 
d="M586 252c0 -40.667 -5.83398 -77.167 -17.501 -109.5s-28.167 -59.833 -49.5 -82.5s-47.166 -40 -77.499 -52s-64.166 -18 -101.499 -18c-38 0 -72.333 6 -103 18s-56.834 29.333 -78.501 52s-38.167 50.167 -49.5 82.5s-17 68.833 -17 109.5v408h32v-408
c0 -37.333 5.16699 -70.333 15.5 -99s25 -52.667 44 -72s41.833 -34.166 68.5 -44.499s56 -15.5 88 -15.5s61 5.16699 87 15.5s48.5 25.166 67.5 44.499s33.667 43.333 44 72s15.5 61.667 15.5 99v408h32v-408zM526.999 905l-107 -181h-26l96 186h37v-5zM372.999 905
l-107 -181h-26l96 186h37v-5z" />
    <glyph glyph-name="uhungarumlaut" unicode="&#x171;" horiz-adv-x="543" 
d="M452 175c0 -28.667 -4.66699 -54.334 -14 -77.001s-22.166 -42 -38.499 -58s-35.5 -28.333 -57.5 -37s-45.333 -13 -70 -13c-25.333 0 -48.833 4.33301 -70.5 13s-40.834 21 -57.501 37s-29.667 35.333 -39 58s-14 48.334 -14 77.001v305h30v-305
c0 -25.333 4 -47.666 12 -66.999s18.833 -35.5 32.5 -48.5s29.667 -23 48 -30s37.833 -10.5 58.5 -10.5s40 3.5 58 10.5s33.833 17 47.5 30s24.5 29.167 32.5 48.5s12 41.666 12 66.999v305h30v-305zM459 775l-107 -213h-26l96 218h37v-5zM325 775l-107 -213h-26l96 218h37
v-5z" />
    <glyph glyph-name="Uogonek" unicode="&#x172;" horiz-adv-x="678" 
d="M586 252c0 -38 -4.66113 -70.502 -13.9941 -97.502s-21.333 -50.833 -36 -71.5s-31.334 -39.167 -50.001 -55.5l-56 -49.5c-18 -16 -32.667 -30.833 -44 -44.5s-17 -29.167 -17 -46.5s5.66699 -29.833 17 -37.5s26.333 -11.5 45 -11.5c10 0 20.5 0.833008 31.5 2.5
s21.5 3.83398 31.5 6.50098v-27c-8.66699 -2.66699 -18.334 -5 -29.001 -7s-22 -3 -34 -3c-24.667 0 -46.334 5.83301 -65.001 17.5s-28 30.834 -28 57.501c0 21.333 7.16699 41.833 21.5 61.5s36.833 40.167 67.5 61.5c-30 -12 -60.667 -18 -92 -18c-34 0 -65.667 6 -95 18
s-55 29.333 -77 52s-39.333 50.167 -52 82.5s-19 68.833 -19 109.5v408h32v-408c0 -37.333 5.66699 -70.333 17 -99s26.666 -52.667 45.999 -72s42.166 -34.166 68.499 -44.499s54.166 -15.5 83.499 -15.5s57 5.16699 83 15.5s48.833 25.166 68.5 44.499
s35.167 43.333 46.5 72s17 61.667 17 99v408h32v-408z" />
    <glyph glyph-name="uogonek" unicode="&#x173;" horiz-adv-x="543" 
d="M452 175c0 -25.333 -2.99512 -46.6709 -8.99512 -64.0039s-14.333 -33.166 -25 -47.499s-23.5 -28.166 -38.5 -41.499l-49.5 -44c-19.333 -17.333 -34.333 -32.5 -45 -45.5s-16 -28.167 -16 -45.5s5.5 -29.833 16.5 -37.5s26.167 -11.5 45.5 -11.5
c10 0 20.5 0.833008 31.5 2.5s21.5 3.83398 31.5 6.50098v-27c-8.66699 -2.66699 -18.334 -5 -29.001 -7s-22 -3 -34 -3c-24.667 0 -46.334 5.83301 -65.001 17.5s-28 30.834 -28 57.501c0 19.333 6.16699 37.666 18.5 54.999s31.166 35.333 56.499 54
c-6.66699 -1.33301 -13.334 -2.33301 -20.001 -3s-13.667 -1 -21 -1c-25.333 0 -48.833 4.33301 -70.5 13s-40.834 21 -57.501 37s-29.667 35.333 -39 58s-14 48.334 -14 77.001v305h30v-305c0 -25.333 4 -47.666 12 -66.999s18.833 -35.5 32.5 -48.5s29.667 -23 48 -30
s37.833 -10.5 58.5 -10.5s40 3.5 58 10.5s33.833 17 47.5 30s24.5 29.167 32.5 48.5s12 41.666 12 66.999v305h30v-305z" />
    <glyph glyph-name="Wcircumflex" unicode="&#x174;" horiz-adv-x="1077" 
d="M774 49l215 611h33l-240 -670h-15l-229 619l-228 -619h-15l-240 670h33l214 -611l229 621h15zM692 724h-27l-126 146l-127 -146h-27l146 186h15z" />
    <glyph glyph-name="wcircumflex" unicode="&#x175;" horiz-adv-x="841" 
d="M611 47l161 433h33l-186 -490h-15l-184 439l-183 -439h-15l-186 490h33l160 -433l184 443h15zM564 562h-27l-116 172l-117 -172h-27l136 218h15z" />
    <glyph glyph-name="Ycircumflex" unicode="&#x176;" horiz-adv-x="610" 
d="M321 286v-286h-32v286l-230 374h34l212 -347l212 347h34zM458 724h-27l-126 146l-127 -146h-27l146 186h15z" />
    <glyph glyph-name="ycircumflex" unicode="&#x177;" horiz-adv-x="518" 
d="M239 -88c-16 -38 -35.667 -64.498 -59 -79.498s-50 -22.5 -80 -22.5c-10 0 -20.5 0.666992 -31.5 2s-21.833 3.66602 -32.5 6.99902v27c11.333 -2.66699 22.166 -4.66699 32.499 -6s20.166 -2 29.499 -2c24.667 0 46.334 6.16699 65.001 18.5
s35.334 35.166 50.001 68.499l34 81l-211 474h33l194 -436l186 436h33zM402 562.002h-27l-116 172l-117 -172h-27l136 218h15z" />
    <glyph glyph-name="Ydieresis" unicode="&#x178;" horiz-adv-x="610" 
d="M321 286v-286h-32v286l-230 374h34l212 -347l212 347h34zM415 840c9.33301 0 17.333 -3.33301 24 -10s10 -14.667 10 -24s-3.33301 -17.333 -10 -24s-14.667 -10 -24 -10s-17.333 3.33301 -24 10s-10 14.667 -10 24s3.33301 17.333 10 24s14.667 10 24 10zM194 840
c9.33301 0 17.333 -3.33301 24 -10s10 -14.667 10 -24s-3.33301 -17.333 -10 -24s-14.667 -10 -24 -10s-17.333 3.33301 -24 10s-10 14.667 -10 24s3.33301 17.333 10 24s14.667 10 24 10z" />
    <glyph glyph-name="Zacute" unicode="&#x179;" horiz-adv-x="590" 
d="M549 648l-458 -619h459v-29h-508v12l458 619h-414v29h463v-12zM417 905l-107 -181h-26l96 186h37v-5z" />
    <glyph glyph-name="zacute" unicode="&#x17a;" horiz-adv-x="447" 
d="M405 468l-322 -440h327v-28h-372v12l322 440h-299v28h344v-12zM354 775l-107 -213h-26l96 218h37v-5z" />
    <glyph glyph-name="Zdotaccent" unicode="&#x17b;" horiz-adv-x="590" 
d="M549 648l-458 -619h459v-29h-508v12l458 619h-414v29h463v-12zM298 840c9.33301 0 17.333 -3.33301 24 -10s10 -14.667 10 -24s-3.33301 -17.333 -10 -24s-14.667 -10 -24 -10s-17.333 3.33301 -24 10s-10 14.667 -10 24s3.33301 17.333 10 24s14.667 10 24 10z" />
    <glyph glyph-name="zdotaccent" unicode="&#x17c;" horiz-adv-x="447" 
d="M405 468l-322 -440h327v-28h-372v12l322 440h-299v28h344v-12zM234 700c9.33301 0 17.333 -3.33301 24 -10s10 -14.667 10 -24s-3.33301 -17.333 -10 -24s-14.667 -10 -24 -10s-17.333 3.33301 -24 10s-10 14.667 -10 24s3.33301 17.333 10 24s14.667 10 24 10z" />
    <glyph glyph-name="Zcaron" unicode="&#x17d;" horiz-adv-x="590" 
d="M549 648l-458 -619h459v-29h-508v12l458 619h-414v29h463v-12zM305 724h-15l-146 186h27l127 -147l126 147h27z" />
    <glyph glyph-name="zcaron" unicode="&#x17e;" horiz-adv-x="447" 
d="M405 468l-322 -440h327v-28h-372v12l322 440h-299v28h344v-12zM241 562h-15l-136 218h27l117 -172l116 172h27z" />
    <glyph glyph-name="uni018F" unicode="&#x18f;" horiz-adv-x="776" 
d="M350 670c46 0 88.832 -8.82812 128.499 -26.4951s73.834 -41.834 102.501 -72.501s51.167 -66.5 67.5 -107.5s24.5 -84.833 24.5 -131.5c0 -48 -8.5 -92.833 -25.5 -134.5s-40.167 -77.834 -69.5 -108.501s-63.833 -54.834 -103.5 -72.501s-82.167 -26.5 -127.5 -26.5
c-38 0 -74.5 6.5 -109.5 19.5s-65.833 31.833 -92.5 56.5s-48 55.167 -64 91.5s-24 77.833 -24 124.5c0 11.333 0.333008 21.166 1 29.499s1.33398 15.166 2.00098 20.499h579v2c0 43.333 -7.33301 83.5 -22 120.5s-35 69.167 -61 96.5s-56.667 48.833 -92 64.5
s-73.666 23.5 -114.999 23.5c-48.667 0 -93.834 -10.5 -135.501 -31.5s-75.834 -49.5 -102.501 -85.5l-24 19c30 40 68 71.5 114 94.5s95.667 34.5 149 34.5zM348.999 21.0049c38.667 0 74.833 7.16895 108.5 21.502s63.167 34.166 88.5 59.499s46 55.166 62 89.499
s25.667 71.5 29 111.5h-546c-3.33301 -43.333 1.5 -82.5 14.5 -117.5s31.5 -64.667 55.5 -89s52.333 -43 85 -56s67 -19.5 103 -19.5z" />
    <glyph glyph-name="florin" unicode="&#x192;" horiz-adv-x="436" 
d="M364 362h-120l-44 -360c-6 -49.333 -21.667 -84.166 -47 -104.499s-57 -30.5 -95 -30.5c-8.66699 0 -16.667 0.5 -24 1.5s-14.666 2.16699 -21.999 3.5v26c9.33301 -1.33301 17.166 -2.16602 23.499 -2.49902s12.833 -0.5 19.5 -0.5c32 0 57.833 7.33301 77.5 22
s32.167 43 37.5 85l44 360h-81v28h85l18 145c6 49.333 21.667 84.166 47 104.499s57 30.5 95 30.5c8.66699 0 16.667 -0.5 24 -1.5s14.666 -2.16699 21.999 -3.5v-26c-9.33301 1.33301 -17.166 2.16602 -23.499 2.49902s-12.833 0.5 -19.5 0.5
c-32 0 -57.833 -7.33301 -77.5 -22s-32.167 -43 -37.5 -85l-18 -145h116v-28z" />
    <glyph glyph-name="uni01D4" unicode="&#x1d4;" horiz-adv-x="543" 
d="M452 175c0 -28.667 -4.66699 -54.334 -14 -77.001s-22.166 -42 -38.499 -58s-35.5 -28.333 -57.5 -37s-45.333 -13 -70 -13c-25.333 0 -48.833 4.33301 -70.5 13s-40.834 21 -57.501 37s-29.667 35.333 -39 58s-14 48.334 -14 77.001v305h30v-305
c0 -25.333 4 -47.666 12 -66.999s18.833 -35.5 32.5 -48.5s29.667 -23 48 -30s37.833 -10.5 58.5 -10.5s40 3.5 58 10.5s33.833 17 47.5 30s24.5 29.167 32.5 48.5s12 41.666 12 66.999v305h30v-305zM279 562h-15l-136 218h27l117 -172l116 172h27z" />
    <glyph glyph-name="AEacute" unicode="&#x1fc;" horiz-adv-x="796" 
d="M664 345h-212l56 -316h248v-29h-276l-31 176h-304l-91 -176h-34l344 660h380v-29h-343l46 -257h217v-29zM160 205h284l-73 410zM512 905l-107 -181h-26l96 186h37v-5z" />
    <glyph glyph-name="aeacute" unicode="&#x1fd;" horiz-adv-x="908" 
d="M252 490c43.333 0 80.0059 -11.3311 110.006 -33.998s49.333 -57 58 -103c19.333 40.667 48 73.667 86 99s81 38 129 38c28 0 55 -4.83301 81 -14.5s48.667 -23.667 68 -42s34.833 -40.666 46.5 -66.999s17.5 -56.166 17.5 -89.499c0 -6 -0.166992 -11.833 -0.5 -17.5
s-0.833008 -10.834 -1.5 -15.501c-0.666992 -5.33301 -1 -10.333 -1 -15h-418c1.33301 -30 7.66602 -57.833 18.999 -83.5s26.5 -47.834 45.5 -66.501s41.167 -33.334 66.5 -44.001s52.666 -16 81.999 -16c36 0 68.5 7.5 97.5 22.5s53.5 35.5 73.5 61.5l22 -18
c-22.667 -29.333 -50.5 -52.5 -83.5 -69.5s-69.5 -25.5 -109.5 -25.5c-24.667 0 -48.334 3.33301 -71.001 10s-43.5 16.334 -62.5 29.001s-36 27.667 -51 45s-27.5 36.666 -37.5 57.999c-6 -21.333 -15.333 -40.833 -28 -58.5s-27.834 -32.667 -45.501 -45
s-37.334 -21.833 -59.001 -28.5s-44.5 -10 -68.5 -10c-21.333 0 -41.833 2.83301 -61.5 8.5s-37.167 14.167 -52.5 25.5s-27.666 25.5 -36.999 42.5s-14 36.833 -14 59.5c0 42 15 74.333 45 97s69.667 34 119 34h179v49c0 52 -13.667 90.833 -41 116.5s-62 38.5 -104 38.5
c-34.667 0 -63.834 -7.83301 -87.501 -23.5s-44.834 -35.834 -63.501 -60.501l-22 18c22.667 30 48 53.333 76 70s61 25 99 25zM631.006 461.002c-27.333 0 -53 -5.16797 -77 -15.501s-45 -24.666 -63 -42.999s-32.667 -40 -44 -65s-18 -51.833 -20 -80.5h389
c2 30.667 -1.66699 58.5 -11 83.5s-22.5 46.5 -39.5 64.5s-37.167 31.833 -60.5 41.5s-48 14.5 -74 14.5zM219.006 19.001c23.333 0 45.667 3.83301 67 11.5s40 18.5 56 32.5s28.833 30.5 38.5 49.5s14.5 39.833 14.5 62.5v54h-178c-44 0 -77.167 -8.66699 -99.5 -26
s-33.5 -42 -33.5 -74c0 -19.333 4 -36 12 -50s18.333 -25.5 31 -34.5s27 -15.5 43 -19.5s32.333 -6 49 -6zM551.007 775.001l-107 -213h-26l96 218h37v-5z" />
    <glyph glyph-name="Oslashacute" unicode="&#x1fe;" horiz-adv-x="784" 
d="M391 670c44.667 0 86.667 -7.99805 126 -23.998s74 -38 104 -66l90 90l21 -21l-91 -91c26.667 -30 47.667 -64.333 63 -103s23 -80.334 23 -125.001c0 -48 -8.83301 -92.667 -26.5 -134s-41.667 -77.333 -72 -108s-65.833 -54.667 -106.5 -72s-84.334 -26 -131.001 -26
c-44.667 0 -86.5 7.83301 -125.5 23.5s-73.5 37.5 -103.5 65.5l-89 -89l-21 21l90 90c-26.667 30 -47.5 64.5 -62.5 103.5s-22.5 80.833 -22.5 125.5c0 48 8.66699 92.833 26 134.5s41 77.667 71 108s65.333 54.166 106 71.499s84.334 26 131.001 26zM392 639.002
c-43.333 0 -83.332 -7.83008 -119.999 -23.4971s-68.334 -37.334 -95.001 -65.001s-47.667 -60.334 -63 -98.001s-23 -78.167 -23 -121.5c0 -40.667 6.33301 -78.5 19 -113.5s30.667 -66.5 54 -94.5l435 435c-26.667 25.333 -57.667 45.166 -93 59.499
s-73.333 21.5 -114 21.5zM693.001 331.005c0 40 -6.5 77.332 -19.5 111.999s-31.167 65.667 -54.5 93l-434 -434c26.667 -25.333 57.5 -45.166 92.5 -59.499s73.167 -21.5 114.5 -21.5c42.667 0 82.5 8 119.5 24s68.833 38 95.5 66s47.667 60.833 63 98.5
s23 78.167 23 121.5zM511.001 905.004l-107 -181h-26l96 186h37v-5z" />
    <glyph glyph-name="oslashacute" unicode="&#x1ff;" horiz-adv-x="627" 
d="M563 469l-64.001 -64.999c19.333 -22 34.333 -46.833 45 -74.5s16 -57.5 16 -89.5c0 -34.667 -6.5 -67.167 -19.5 -97.5s-30.667 -56.833 -53 -79.5s-48.666 -40.5 -78.999 -53.5s-62.5 -19.5 -96.5 -19.5c-32 0 -61.833 5.66699 -89.5 17s-52.5 26.666 -74.5 45.999
l-63 -63l-21 21l64 64c-19.333 22 -34.333 47 -45 75s-16 58 -16 90c0 34.667 6.33301 67.167 19 97.5s30.167 56.833 52.5 79.5s48.5 40.5 78.5 53.5s62 19.5 96 19.5c32 0 62 -5.83301 90 -17.5s53 -27.5 75 -47.5l64 65zM312.999 461.001
c-30.667 0 -59.001 -5.66699 -85.001 -17s-48.5 -27 -67.5 -47s-34 -43.5 -45 -70.5s-16.5 -55.833 -16.5 -86.5c0 -56.667 16.667 -104.667 50 -144l309 309c-19.333 17.333 -41.166 31 -65.499 41s-50.833 15 -79.5 15zM527.998 240.001c0 28 -4.33203 54 -12.999 78
s-21 45.667 -37 65l-309 -309c19.333 -17.333 41 -30.833 65 -40.5s50 -14.5 78 -14.5c30.667 0 59.167 5.66699 85.5 17s49.166 27 68.499 47s34.5 43.5 45.5 70.5s16.5 55.833 16.5 86.5zM433.999 775.001l-107 -213h-26l96 218h37v-5z" />
    <glyph glyph-name="Scommaaccent" unicode="&#x218;" horiz-adv-x="555" 
d="M283 670c43.333 0 80.8301 -9.16309 112.497 -27.4961s57.834 -42.5 78.501 -72.5l-23 -18c-42 58 -97.333 87 -166 87c-18 0 -36 -2.16699 -54 -6.5s-34.5 -11.166 -49.5 -20.499s-27.167 -22 -36.5 -38s-14 -35.333 -14 -58c0 -20 3.16699 -37 9.5 -51
s15 -26.333 26 -37s24 -20.167 39 -28.5s31.5 -16.833 49.5 -25.5l76 -36c24 -11.333 45.333 -22.833 64 -34.5s34.334 -24.334 47.001 -38.001s22.334 -29.167 29.001 -46.5s10 -37.333 10 -60c0 -26 -5.16699 -49.333 -15.5 -70s-24.333 -38.334 -42 -53.001
s-38.5 -26 -62.5 -34s-50 -12 -78 -12c-52 0 -97.5 12.667 -136.5 38s-71.167 59 -96.5 101l24 18c23.333 -36.667 52.333 -66.834 87 -90.501s75.667 -35.5 123 -35.5c22.667 0 44 3 64 9s37.333 15 52 27s26.167 26.5 34.5 43.5s12.5 36.5 12.5 58.5
c0 19.333 -2.66699 36 -8 50s-13.333 26.667 -24 38s-24.167 22 -40.5 32s-35.833 20.333 -58.5 31l-76 36c-18 8.66699 -35.5 17.667 -52.5 27s-32.167 20.5 -45.5 33.5s-24.166 28.167 -32.499 45.5s-12.5 38 -12.5 62c0 25.333 5 47.666 15 66.999
s23.5 35.666 40.5 48.999s36.667 23.333 59 30s46.166 10 71.499 10zM276.997 -219.996h-26l14 168h36z" />
    <glyph glyph-name="scommaaccent" unicode="&#x219;" horiz-adv-x="455" 
d="M232 490c36 0 66.334 -8.16699 91.001 -24.5s44.667 -33.833 60 -52.5l-22 -20c-17.333 20 -36.333 36.333 -57 49s-45.334 19 -74.001 19c-14 0 -27.667 -1.66699 -41 -5s-25.166 -8.66602 -35.499 -15.999s-18.833 -16.5 -25.5 -27.5s-10 -24.5 -10 -40.5
c0 -13.333 2.5 -24.833 7.5 -34.5s12 -18.167 21 -25.5s19.667 -14 32 -20l40.5 -19l45 -20c16 -7.33301 31.333 -15 46 -23s27.667 -17.167 39 -27.5s20.333 -22.333 27 -36s10 -29.834 10 -48.501c0 -21.333 -4.33301 -39.833 -13 -55.5s-20 -29 -34 -40
s-30.333 -19.167 -49 -24.5s-38 -8 -58 -8c-42 0 -77.833 10.333 -107.5 31s-53.834 45.334 -72.501 74.001l24 18c20 -29.333 42.667 -52.333 68 -69s55.333 -25 90 -25c16 0 31.167 2 45.5 6s27 10 38 18s19.833 18 26.5 30s10 26.333 10 43c0 16 -3 29.5 -9 40.5
s-14 20.833 -24 29.5s-21.667 16.167 -35 22.5l-41 19.5l-42 19c-14.667 6.66699 -29 13.667 -43 21s-26.5 15.666 -37.5 24.999s-19.833 20.333 -26.5 33s-10 27.667 -10 45c0 18.667 4.16699 35.5 12.5 50.5s19.333 27.5 33 37.5s29.167 17.667 46.5 23s35.333 8 54 8z
M232.001 -220h-26l14 168h36z" />
    <glyph glyph-name="uni021A" unicode="&#x21a;" horiz-adv-x="584" 
d="M557 631h-249v-631h-32v631h-249v29h530v-29zM286 -220h-26l14 168h36z" />
    <glyph glyph-name="uni021B" unicode="&#x21b;" horiz-adv-x="350" 
d="M307 452l-160.001 -0.00195312v-327c0 -21.333 2.83301 -38.833 8.5 -52.5s13.334 -24.5 23.001 -32.5s21 -13.667 34 -17s26.833 -5 41.5 -5c13.333 0 25.166 0.833008 35.499 2.5s21.5 3.83398 33.5 6.50098v-27c-11.333 -3.33301 -22.5 -5.83301 -33.5 -7.5
s-23.5 -2.5 -37.5 -2.5c-18.667 0 -36.167 2.33301 -52.5 7s-30.666 12.334 -42.999 23.001s-22 24.667 -29 42s-10.5 38.333 -10.5 63v327h-86v28h86v140h30v-140h160v-28zM201.999 -220.002h-26l14 168h36z" />
    <glyph glyph-name="dotlessj" unicode="&#x237;" horiz-adv-x="228" 
d="M129 -55c0 -24.667 -3.49902 -45.666 -10.499 -62.999s-16.667 -31.333 -29 -42s-26.833 -18.334 -43.5 -23.001s-34.334 -7 -53.001 -7c-17.333 0 -34 2 -50 6v27l23.5 -3.5c7 -1 15.167 -1.5 24.5 -1.5c14.667 0 28.5 1.66699 41.5 5s24.5 9 34.5 17
s17.833 18.833 23.5 32.5s8.5 31.167 8.5 52.5v535h30v-535z" />
    <glyph glyph-name="uni0259" unicode="&#x259;" horiz-adv-x="573" 
d="M276 490c32.667 0 63.501 -6.49707 92.501 -19.4971s54.167 -30.667 75.5 -53s38.166 -48.666 50.499 -78.999s18.5 -62.833 18.5 -97.5s-6.16699 -67.334 -18.5 -98.001s-29.333 -57.334 -51 -80.001s-47 -40.5 -76 -53.5s-60.5 -19.5 -94.5 -19.5
c-28 0 -55 4.83301 -81 14.5s-48.667 23.5 -68 41.5s-34.833 40.167 -46.5 66.5s-17.5 56.166 -17.5 89.499v16c0 5.33301 0.333008 9.66602 1 12.999l2 12h418c0 30.667 -5.33301 59.334 -16 86.001s-25.167 49.667 -43.5 69s-40 34.666 -65 45.999s-51.833 17 -80.5 17
c-34 0 -65.667 -7.5 -95 -22.5s-54 -35.5 -74 -61.5l-22 18c22.667 29.333 50.667 52.5 84 69.5s69 25.5 107 25.5zM275.001 19.0029c26.667 0 51.832 5 75.499 15s44.5 23.667 62.5 41s32.833 38 44.5 62s18.834 50 21.501 78h-387c-2 -30.667 1.66699 -58 11 -82
s22.5 -44.5 39.5 -61.5s37 -30 60 -39s47.167 -13.5 72.5 -13.5z" />
    </font>
</defs>
</svg>
