<?xml version="1.0" standalone="no"?>
<!DOCTYPE svg PUBLIC "-//W3C//DTD SVG 1.1//EN" "http://www.w3.org/Graphics/SVG/1.1/DTD/svg11.dtd" >
<svg>
<metadata>
Created by FontForge 20090914 at Tue Jan 26 06:21:42 2021
 By www-data
Copyright (c) 2015 by Jakob Runge, under exclusive license to TypeMates, Runge Thomsen GbR. All rights reserved.
</metadata>
<defs>
<font id="Cera-Medium" horiz-adv-x="560" >
  <font-face 
    font-family="Cera Medium"
    font-weight="500"
    font-stretch="normal"
    units-per-em="1000"
    panose-1="2 11 6 0 0 0 0 0 0 0"
    ascent="808"
    descent="-192"
    x-height="491"
    cap-height="660"
    bbox="-111 -242 1336 1000"
    underline-thickness="80"
    underline-position="-100"
    unicode-range="U+0020-U+FB02"
  />
<missing-glyph horiz-adv-x="710" 
d="M626 0h-543v660h543v-660zM156 592l396 -527v527h-396z" />
    <glyph glyph-name="fi" unicode="fi" horiz-adv-x="594" 
d="M315 400l-115.999 0.000976562v-400h-105v400h-70v91h70v99c0 59.333 16.167 102.666 48.5 129.999s74.833 41 127.5 41c25.333 0 47.666 -3 66.999 -9v-89c-16 2 -30 3 -42 3c-30 0 -53.5 -6 -70.5 -18s-25.5 -34.333 -25.5 -67v-90h116v-91zM518.001 0.000976562h-105
v491h105v-491zM466.001 744.001c19.333 0 36.166 -6.83301 50.499 -20.5s21.5 -30.167 21.5 -49.5s-7.16699 -35.666 -21.5 -48.999s-31.166 -20 -50.499 -20c-20 0 -37 6.66699 -51 20s-21 29.666 -21 48.999s7 35.833 21 49.5s31 20.5 51 20.5z" />
    <glyph glyph-name="fl" unicode="fl" horiz-adv-x="594" 
d="M315 400l-115.999 0.000976562v-400h-105v400h-70v91h70v99c0 59.333 16.167 102.666 48.5 129.999s74.833 41 127.5 41c25.333 0 47.666 -3 66.999 -9v-89c-16 2 -30 3 -42 3c-30 0 -53.5 -6 -70.5 -18s-25.5 -34.333 -25.5 -67v-90h116v-91zM518.001 0.000976562h-105
v750h105v-750z" />
    <glyph glyph-name=".notdef" horiz-adv-x="710" 
d="M626 0h-543v660h543v-660zM156 592l396 -527v527h-396z" />
    <glyph glyph-name="space" unicode=" " horiz-adv-x="280" 
 />
    <glyph glyph-name="exclam" unicode="!" horiz-adv-x="326" 
d="M206 225h-87l-20 435h126zM163 144c21.333 0 39.5 -7.33301 54.5 -22s22.5 -33.334 22.5 -56.001s-7.5 -41.167 -22.5 -55.5s-33.167 -21.5 -54.5 -21.5c-22 0 -40.5 7.16699 -55.5 21.5s-22.5 32.833 -22.5 55.5s7.5 41.334 22.5 56.001s33.5 22 55.5 22z" />
    <glyph glyph-name="quotedbl" unicode="&#x22;" horiz-adv-x="500" 
d="M170 392h-81l9 268h121zM380 392h-81l9 268h121z" />
    <glyph glyph-name="numbersign" unicode="#" horiz-adv-x="614" 
d="M241 480h171l24 180h88l-24 -180h86v-89h-98l-17 -122h94v-89h-106l-24 -180h-87l24 180h-171l-24 -180h-87l24 180h-86v89h98l16 122h-92v89h104l24 180h88zM213 266h170l17 128h-170z" />
    <glyph glyph-name="dollar" unicode="$" horiz-adv-x="537" 
d="M316 631c36 -6 66.332 -18.8359 90.999 -38.5029s45 -43.5 61 -71.5l-72 -54c-24 35.333 -50.667 57.666 -80 66.999v-163l18 -7c46.667 -18 83.167 -40.5 109.5 -67.5s39.5 -61.5 39.5 -103.5c0 -23.333 -4.16699 -44.666 -12.5 -63.999s-20 -36.166 -35 -50.499
s-32.667 -26.166 -53 -35.499s-42.5 -15.666 -66.5 -18.999v-119h-97v120c-42 7.33301 -78.167 22.833 -108.5 46.5s-55.166 53.5 -74.499 89.5l73 54c14 -23.333 30 -42.833 48 -58.5s38.667 -27.167 62 -34.5v184c-20 8 -38.833 17.167 -56.5 27.5s-33 22.333 -46 36
s-23.167 29 -30.5 46s-11 36.167 -11 57.5c0 42 13.5 76.5 40.5 103.5s61.5 44.833 103.5 53.5v119h97v-118zM377.999 190.997c0 18 -5.66699 32.668 -17 44.001s-26.333 21.666 -45 30.999v-147c18 5.33301 32.833 14 44.5 26s17.5 27.333 17.5 46zM179.999 473.998
c0 -14.667 3.49902 -26.833 10.499 -36.5s16.5 -18.167 28.5 -25.5v119c-11.333 -5.33301 -20.666 -12.5 -27.999 -21.5s-11 -20.833 -11 -35.5z" />
    <glyph glyph-name="percent" unicode="%" horiz-adv-x="821" 
d="M607 315c22.667 0 44.334 -4.16699 65.001 -12.5s38.5 -19.666 53.5 -33.999s27 -31.5 36 -51.5s13.5 -41.667 13.5 -65s-4.5 -44.833 -13.5 -64.5s-21 -36.667 -36 -51s-32.833 -25.666 -53.5 -33.999s-42.334 -12.5 -65.001 -12.5c-23.333 0 -45 4.16699 -65 12.5
s-37.5 19.666 -52.5 33.999s-26.833 31.333 -35.5 51s-13 41.167 -13 64.5s4.33301 45 13 65s20.5 37.167 35.5 51.5s32.5 25.666 52.5 33.999s41.667 12.5 65 12.5zM608 240c-24.667 0 -44.667 -8.33301 -60 -25s-23 -37.667 -23 -63s7.66699 -46.166 23 -62.499
s35.333 -24.5 60 -24.5c23.333 0 42.833 8.16699 58.5 24.5s23.5 37.166 23.5 62.499s-7.83301 46.333 -23.5 63s-35.167 25 -58.5 25zM213 671c22.667 0 44.167 -4.16699 64.5 -12.5s38.166 -19.666 53.499 -33.999s27.333 -31.5 36 -51.5s13 -41.333 13 -64
c0 -23.333 -4.33301 -45 -13 -65s-20.667 -37.167 -36 -51.5s-33.166 -25.666 -53.499 -33.999s-41.833 -12.5 -64.5 -12.5c-23.333 0 -45.166 4.16699 -65.499 12.5s-38 19.666 -53 33.999s-26.833 31.5 -35.5 51.5s-13 41.667 -13 65c0 22.667 4.33301 44 13 64
s20.5 37.167 35.5 51.5s32.667 25.666 53 33.999s42.166 12.5 65.499 12.5zM213 597c-24.667 0 -44.667 -8.33301 -60 -25s-23 -37.667 -23 -63s7.66699 -46.333 23 -63s35.333 -25 60 -25c24 0 43.833 8.33301 59.5 25s23.5 37.667 23.5 63s-7.83301 46.333 -23.5 63
s-35.5 25 -59.5 25zM265 0h-88l378 660h89z" />
    <glyph glyph-name="ampersand" unicode="&#x26;" horiz-adv-x="649" 
d="M282 671c23.333 0 44.5 -3.6709 63.5 -11.0039s35.167 -17.166 48.5 -29.499s23.666 -27 30.999 -44s11 -35.5 11 -55.5c0 -35.333 -10.333 -66.666 -31 -93.999s-47.667 -54 -81 -80l120 -145c14.667 20 29.667 41.667 45 65l49 74l84 -58l-56.5 -83.5
c-18.333 -27 -37.166 -52.5 -56.499 -76.5l111 -133h-125l-52 62c-26 -22.667 -54 -40.5 -84 -53.5s-64 -19.5 -102 -19.5c-30 0 -57.833 4.16699 -83.5 12.5s-47.667 20.333 -66 36s-32.833 34.334 -43.5 56.001s-16 45.834 -16 72.501c0 22 3.66699 42 11 60
s17.333 35.167 30 51.5s27.5 31.833 44.5 46.5s35.167 29.334 54.5 44.001c-19.333 25.333 -34.666 50 -45.999 74s-17 50 -17 78c0 22 3.66699 42.167 11 60.5s17.666 34.166 30.999 47.499s29.833 23.833 49.5 31.5s41.5 11.5 65.5 11.5zM262 83.9961
c22.667 0 43.5 4.66797 62.5 14.001s37.5 22.666 55.5 39.999l-133 160l-36.5 -29.5c-11 -9 -20.5 -18.333 -28.5 -28s-14.333 -19.667 -19 -30s-7 -21.833 -7 -34.5c0 -27.333 10 -49.5 30 -66.5s45.333 -25.5 76 -25.5zM224 519.997
c0 -18.667 4.33203 -35.332 12.999 -49.999s19.667 -30.334 33 -47.001c21.333 17.333 37.833 33.5 49.5 48.5s17.5 32.167 17.5 51.5c0 16 -4.5 29.333 -13.5 40s-23.167 16 -42.5 16s-33.666 -5.5 -42.999 -16.5s-14 -25.167 -14 -42.5z" />
    <glyph glyph-name="quotesingle" unicode="'" horiz-adv-x="291" 
d="M170 392h-81l9 268h121z" />
    <glyph glyph-name="parenleft" unicode="(" horiz-adv-x="349" 
d="M321 670c-19.333 -12.667 -38 -28.6699 -56 -48.0029s-34 -43.666 -48 -72.999s-25.333 -64.166 -34 -104.499s-13 -87.833 -13 -142.5s4.33301 -102.167 13 -142.5s20 -75 34 -104s30 -53.167 48 -72.5s36.667 -35.333 56 -48l-43 -66c-26 12 -51.333 29.333 -76 52
s-46.5 51.5 -65.5 86.5s-34.333 76.667 -46 125s-17.5 104.833 -17.5 169.5s5.83301 121.334 17.5 170.001s27 90.5 46 125.5s40.833 63.833 65.5 86.5s50 40 76 52z" />
    <glyph glyph-name="parenright" unicode=")" horiz-adv-x="349" 
d="M71 736c26 -12 51.333 -29.3301 76 -51.9971s46.5 -51.5 65.5 -86.5s34.167 -76.833 45.5 -125.5s17 -105.334 17 -170.001s-5.66699 -121.167 -17 -169.5s-26.5 -90 -45.5 -125s-40.833 -63.833 -65.5 -86.5s-50 -40 -76 -52l-44 66
c19.333 12.667 38.166 28.667 56.499 48s34.5 43.5 48.5 72.5s25.333 63.667 34 104s13 87.833 13 142.5s-4.33301 102.167 -13 142.5s-20 75.166 -34 104.499s-30.167 53.666 -48.5 72.999s-37.166 35.333 -56.499 48z" />
    <glyph glyph-name="asterisk" unicode="*" horiz-adv-x="438" 
d="M74 684l103 -47l11 113h62l11 -113l103 47l31 -54l-93 -66l93 -66l-31 -53l-103 46l-11 -112h-62l-11 113l-103 -47l-31 53l92 66l-92 66z" />
    <glyph glyph-name="plus" unicode="+" 
d="M333 272v-185h-102v185h-180v91h180v183h102v-183h176v-91h-176z" />
    <glyph glyph-name="comma" unicode="," horiz-adv-x="270" 
d="M159 -178h-85l9 284h122z" />
    <glyph glyph-name="hyphen" unicode="-" horiz-adv-x="344" 
d="M295 273h-246v89h246v-89z" />
    <glyph glyph-name="period" unicode="." horiz-adv-x="270" 
d="M135 144c21.333 0 39.5 -7.33301 54.5 -22s22.5 -33.334 22.5 -56.001s-7.5 -41.167 -22.5 -55.5s-33.167 -21.5 -54.5 -21.5c-22 0 -40.5 7.16699 -55.5 21.5s-22.5 32.833 -22.5 55.5s7.5 41.334 22.5 56.001s33.5 22 55.5 22z" />
    <glyph glyph-name="slash" unicode="/" horiz-adv-x="650" 
d="M122 -121h-117l523 901h117z" />
    <glyph glyph-name="zero" unicode="0" horiz-adv-x="661" 
d="M330 546c39.333 0 76.3301 -7.16699 110.997 -21.5s64.834 -34 90.501 -59s46 -54.5 61 -88.5s22.5 -70.667 22.5 -110s-7.5 -75.833 -22.5 -109.5s-35.5 -63.167 -61.5 -88.5s-56.333 -45.166 -91 -59.499s-71.667 -21.5 -111 -21.5s-76.166 7.16699 -110.499 21.5
s-64.333 34.166 -90 59.499s-45.834 54.833 -60.501 88.5s-22 70.167 -22 109.5s7.33301 76 22 110s34.834 63.5 60.501 88.5s55.834 44.667 90.501 59s71.667 21.5 111 21.5zM330.997 449c-26 0 -49.667 -4.66699 -71 -14s-39.833 -22 -55.5 -38
s-27.834 -35.167 -36.501 -57.5s-13 -46.5 -13 -72.5s4.33301 -50 13 -72s20.834 -41.167 36.501 -57.5s34.167 -29.166 55.5 -38.499s45 -14 71 -14c24.667 0 47.834 4.66699 69.501 14s40.334 22.166 56.001 38.499s28 35.5 37 57.5s13.5 46 13.5 72
s-4.5 50.167 -13.5 72.5s-21.333 41.5 -37 57.5s-34.334 28.667 -56.001 38s-44.834 14 -69.501 14z" />
    <glyph glyph-name="one" unicode="1" horiz-adv-x="504" 
d="M326 91h136v-91h-388v91h146v348h-136v96h242v-444z" />
    <glyph glyph-name="two" unicode="2" horiz-adv-x="567" 
d="M281 546c30.667 0 58.832 -4.66504 84.499 -13.998s47.834 -22.5 66.501 -39.5s33.167 -37.167 43.5 -60.5s15.5 -48.666 15.5 -75.999c0 -24 -4 -46.333 -12 -67s-19 -40.167 -33 -58.5s-30.5 -35.833 -49.5 -52.5s-39.5 -33.334 -61.5 -50.001l-50 -37h230v-91h-472v24
l201 150l54.5 41.5c17 13 31.667 26.167 44 39.5s22.166 27.333 29.499 42s11 31 11 49c0 28 -9 52.333 -27 73s-44 31 -78 31c-17.333 0 -32.5 -2.83301 -45.5 -8.5s-24.167 -13.334 -33.5 -23.001s-16.333 -20.834 -21 -33.501s-7 -25.667 -7 -39
c0 -12.667 1.66699 -28.334 5 -47.001h-104c-2.66699 9.33301 -4.5 18.833 -5.5 28.5s-1.5 18.834 -1.5 27.501c0 24 5 47.5 15 70.5s24.333 43.5 43 61.5s41.334 32.333 68.001 43s56.667 16 90 16z" />
    <glyph glyph-name="three" unicode="3" horiz-adv-x="527" 
d="M463 506l-159 -211.998c21.333 -4 42.5 -11.333 63.5 -22s39.667 -24.5 56 -41.5s29.5 -37.167 39.5 -60.5s15 -50 15 -80c0 -34 -6.5 -64.667 -19.5 -92s-30.5 -50.833 -52.5 -70.5s-47.667 -34.667 -77 -45s-60 -15.5 -92 -15.5c-28 0 -53.833 3.66699 -77.5 11
s-45.334 17.5 -65.001 30.5s-37 28.167 -52 45.5s-27.5 35.666 -37.5 54.999l74 53c18 -28 39.167 -51.333 63.5 -70s54.833 -28 91.5 -28c19.333 0 37.333 3 54 9s31 14.333 43 25s21.5 23.667 28.5 39s10.5 32.666 10.5 51.999c0 37.333 -13.167 66.333 -39.5 87
s-64.166 31 -113.499 31h-70v29l152 203h-247v96h411v-29z" />
    <glyph glyph-name="four" unicode="4" horiz-adv-x="559" 
d="M454 91h91v-91h-91v-121h-105v121h-330v29l206 506h109l-183 -444h198v204h105v-204z" />
    <glyph glyph-name="five" unicode="5" horiz-adv-x="547" 
d="M447 439l-258.998 0.00292969v-150c13.333 3.33301 27.166 5.83301 41.499 7.5s29.166 2.5 44.499 2.5c28 0 55.5 -4.33301 82.5 -13s51 -21.667 72 -39s37.833 -39 50.5 -65s19 -56.333 19 -91c0 -34 -6.5 -64.833 -19.5 -92.5s-30.5 -51.334 -52.5 -71.001
s-47.667 -34.667 -77 -45s-60.333 -15.5 -93 -15.5c-28.667 0 -55.167 3.66699 -79.5 11s-46.5 17.5 -66.5 30.5s-37.5 28.167 -52.5 45.5s-27.833 35.666 -38.5 54.999l74 53c18 -28 39.5 -51.333 64.5 -70s56.833 -28 95.5 -28c19.333 0 37.333 3 54 9
s31.167 14.5 43.5 25.5s22 24.167 29 39.5s10.5 32.666 10.5 51.999c0 38 -13.167 67 -39.5 87s-63.833 30 -112.5 30h-152v328h361v-96z" />
    <glyph glyph-name="six" unicode="6" horiz-adv-x="556" 
d="M266 435c8.66699 2 18.3281 3 28.9951 3c28.667 0 56 -5.5 82 -16.5s49 -26.333 69 -46s36 -43 48 -70s18 -56.5 18 -88.5c0 -32.667 -6.16699 -63 -18.5 -91s-29.166 -52.167 -50.499 -72.5s-46.166 -36.166 -74.499 -47.499s-58.5 -17 -90.5 -17
c-31.333 0 -61.166 5.66699 -89.499 17s-53.166 27.166 -74.499 47.499s-38.166 44.5 -50.499 72.5s-18.5 58.667 -18.5 92c0 20 2.33301 38.667 7 56s11 34.333 19 51s17.5 33.167 28.5 49.5l36.5 52.5l164 233h126zM276.994 348c-18 0 -34.833 -3.33301 -50.5 -10
s-29.167 -15.834 -40.5 -27.501s-20.333 -25.5 -27 -41.5s-10 -33.333 -10 -52s3.33301 -36 10 -52s15.667 -29.833 27 -41.5s24.833 -20.834 40.5 -27.501s32.5 -10 50.5 -10s35 3.33301 51 10s29.833 15.834 41.5 27.501s20.834 25.5 27.501 41.5s10 33.333 10 52
s-3.33301 36 -10 52s-15.834 29.833 -27.501 41.5s-25.5 20.834 -41.5 27.501s-33 10 -51 10z" />
    <glyph glyph-name="seven" unicode="7" horiz-adv-x="513" 
d="M488 506l-317 -627h-115l288 560h-308v96h452v-29z" />
    <glyph glyph-name="eight" unicode="8" horiz-adv-x="583" 
d="M291 671c28.667 0 55.668 -3.66602 81.001 -10.999s47.5 -18.166 66.5 -32.499s34 -32 45 -53s16.5 -45.167 16.5 -72.5c0 -36 -9.83301 -67 -29.5 -93s-47.5 -48 -83.5 -66c19.333 -7.33301 37.666 -16.166 54.999 -26.499s32.5 -22.5 45.5 -36.5
s23.333 -29.833 31 -47.5s11.5 -37.834 11.5 -60.501c0 -28 -5.83301 -53.167 -17.5 -75.5s-28 -41.5 -49 -57.5s-46.167 -28.333 -75.5 -37s-61.666 -13 -96.999 -13s-67.833 4.33301 -97.5 13s-55 21 -76 37s-37.333 35.167 -49 57.5s-17.5 47.5 -17.5 75.5
c0 43.333 13.5 78.833 40.5 106.5s60.833 49.167 101.5 64.5c-34.667 18 -62 39.667 -82 65s-30 56.666 -30 93.999c0 27.333 5.5 51.5 16.5 72.5s26 38.667 45 53s41.167 25.166 66.5 32.499s52.666 11 81.999 11zM425.001 176.001c0 16 -3.5 30 -10.5 42
s-16.5 22.667 -28.5 32s-26.167 17.666 -42.5 24.999s-33.833 14.666 -52.5 21.999c-19.333 -7.33301 -37 -14.666 -53 -21.999s-30 -15.666 -42 -24.999s-21.333 -20 -28 -32s-10 -26 -10 -42c0 -29.333 11.333 -53.166 34 -71.499s56 -27.5 100 -27.5
s77.167 9.16699 99.5 27.5s33.5 42.166 33.5 71.499zM292.001 584.001c-31.333 0 -57.333 -7.33301 -78 -22s-31 -36 -31 -64c0 -26 9.66699 -46.833 29 -62.5s45.666 -30.834 78.999 -45.501c32.667 14 58.834 28.833 78.501 44.5s29.5 36.834 29.5 63.501
c0 28 -10.333 49.333 -31 64s-46 22 -76 22z" />
    <glyph glyph-name="nine" unicode="9" horiz-adv-x="556" 
d="M279 546c31.333 0 61.1709 -5.66797 89.5039 -17.001s53.166 -27.166 74.499 -47.499s38.166 -44.5 50.499 -72.5s18.5 -58.667 18.5 -92c0 -20 -2.16699 -38.333 -6.5 -55s-10.333 -33.167 -18 -49.5s-17.167 -32.833 -28.5 -49.5l-38 -54l-162 -230h-125l157 222
c-9.33301 -2 -19 -3 -29 -3c-28.667 0 -56 5.5 -82 16.5s-49 26.333 -69 46s-36 42.834 -48 69.501s-18 56 -18 88c0 32.667 6.16699 63 18.5 91s29.166 52.167 50.499 72.5s46.166 36.166 74.499 47.499s58.5 17 90.5 17zM277.005 449.999
c-18 0 -34.667 -3.33203 -50 -9.99902s-28.833 -15.834 -40.5 -27.501s-20.834 -25.667 -27.501 -42s-10 -33.833 -10 -52.5s3.33301 -36 10 -52s15.834 -29.833 27.501 -41.5s25.167 -20.834 40.5 -27.501s32 -10 50 -10c18.667 0 35.834 3.33301 51.501 10
s29.334 15.834 41.001 27.501s20.834 25.5 27.501 41.5s10 33.333 10 52s-3.33301 36 -10 52s-15.834 30 -27.501 42s-25.334 21.333 -41.001 28s-32.834 10 -51.501 10z" />
    <glyph glyph-name="colon" unicode=":" horiz-adv-x="270" 
d="M135 498c21.333 0 39.5 -7.33301 54.5 -22s22.5 -33.334 22.5 -56.001s-7.5 -41.167 -22.5 -55.5s-33.167 -21.5 -54.5 -21.5c-22 0 -40.5 7.16699 -55.5 21.5s-22.5 32.833 -22.5 55.5s7.5 41.334 22.5 56.001s33.5 22 55.5 22zM135 144
c21.333 0 39.5 -7.33301 54.5 -22s22.5 -33.334 22.5 -56.001s-7.5 -41.167 -22.5 -55.5s-33.167 -21.5 -54.5 -21.5c-22 0 -40.5 7.16699 -55.5 21.5s-22.5 32.833 -22.5 55.5s7.5 41.334 22.5 56.001s33.5 22 55.5 22z" />
    <glyph glyph-name="semicolon" unicode=";" horiz-adv-x="270" 
d="M135 498c21.333 0 39.5 -7.33301 54.5 -22s22.5 -33.334 22.5 -56.001s-7.5 -41.167 -22.5 -55.5s-33.167 -21.5 -54.5 -21.5c-22 0 -40.5 7.16699 -55.5 21.5s-22.5 32.833 -22.5 55.5s7.5 41.334 22.5 56.001s33.5 22 55.5 22zM159 -178h-85l9 284h122z" />
    <glyph glyph-name="less" unicode="&#x3c;" 
d="M495 434l-276 -116l276 -116v-95l-451 196v30l451 196v-95z" />
    <glyph glyph-name="equal" unicode="=" 
d="M500 378h-439v91h439v-91zM500 166h-439v91h439v-91z" />
    <glyph glyph-name="greater" unicode="&#x3e;" 
d="M516 333v-30l-451 -196v95l276 116l-276 116v95z" />
    <glyph glyph-name="question" unicode="?" horiz-adv-x="448" 
d="M222 671c26 0 50.332 -4.16797 72.999 -12.501s42.5 -20 59.5 -35s30.333 -32.833 40 -53.5s14.5 -43.667 14.5 -69c0 -16.667 -2.16699 -31.834 -6.5 -45.501s-10.5 -26.667 -18.5 -39s-17.5 -24.166 -28.5 -35.499s-23.167 -23 -36.5 -35
c-21.333 -18.667 -38.333 -34.834 -51 -48.501s-19 -28.834 -19 -45.501c0 -5.33301 0.333008 -10.166 1 -14.499l2 -12.5h-90c-6.66699 14.667 -10 30 -10 46c0 12 2.33301 23.333 7 34s10.667 20.834 18 30.501s15.666 18.834 24.999 27.501l29 26l30 27.5
c8.66699 8.33301 15.834 16.333 21.501 24s10 15.667 13 24s4.5 17.5 4.5 27.5c0 25.333 -8 45.333 -24 60s-35 22 -57 22c-45.333 0 -77.666 -28.667 -96.999 -86l-88 38c13.333 48 36.5 84.167 69.5 108.5s72.5 36.5 118.5 36.5zM211.999 143.999
c22 0 40.5 -7.33301 55.5 -22s22.5 -33.334 22.5 -56.001s-7.5 -41.167 -22.5 -55.5s-33.5 -21.5 -55.5 -21.5c-21.333 0 -39.666 7.16699 -54.999 21.5s-23 32.833 -23 55.5s7.66699 41.334 23 56.001s33.666 22 54.999 22z" />
    <glyph glyph-name="at" unicode="@" horiz-adv-x="937" 
d="M480 661c60 0 115.162 -9.99902 165.495 -29.999s93.833 -47 130.5 -81s65.334 -73.833 86.001 -119.5s31 -94.5 31 -146.5c0 -42 -6.83301 -78.667 -20.5 -110s-32.5 -57.5 -56.5 -78.5s-52.5 -36.667 -85.5 -47s-69.167 -15.5 -108.5 -15.5h-36v57
c-15.333 -22 -35.333 -38.833 -60 -50.5s-52 -17.5 -82 -17.5c-29.333 0 -56.166 5.5 -80.499 16.5s-45.333 26 -63 45s-31.5 41.667 -41.5 68s-15 54.833 -15 85.5s5 59.167 15 85.5s23.833 49 41.5 68s38.834 34 63.501 45s51.667 16.5 81 16.5
c28 0 53.833 -5.16699 77.5 -15.5s43.167 -25.166 58.5 -44.499v51h93v-324c40 3.33301 71.833 18.5 95.5 45.5s35.5 66.833 35.5 119.5c0 42 -7.66699 80.833 -23 116.5s-37.166 66.667 -65.499 93s-62.333 46.833 -102 61.5s-83.5 22 -131.5 22
c-50.667 0 -97.334 -8.16699 -140.001 -24.5s-79.5 -39.333 -110.5 -69s-55.333 -64.834 -73 -105.501s-26.5 -85.334 -26.5 -134.001c0 -50 8.83301 -95.5 26.5 -136.5s42 -76.167 73 -105.5s67.167 -52 108.5 -68s85.666 -24 132.999 -24c22 0 43.667 1.83301 65 5.5
s41.333 8.16699 60 13.5l17 -76c-23.333 -9.33301 -48.166 -16.166 -74.499 -20.499s-52.166 -6.5 -77.499 -6.5c-58.667 0 -113.5 10.5 -164.5 31.5s-95.5 50 -133.5 87s-68 80.833 -90 131.5s-33 106 -33 166c0 60.667 11.333 116.667 34 168
s53.834 95.666 93.501 132.999s86 66.333 139 87s109.833 31 170.5 31zM462.995 362.001c-16 0 -31.168 -2.99805 -45.501 -8.99805s-26.833 -14.333 -37.5 -25s-19 -23.834 -25 -39.501s-9 -32.834 -9 -51.501s3 -35.667 9 -51s14.333 -28.333 25 -39s23 -19 37 -25
s29 -9 45 -9c14 0 27.833 2.5 41.5 7.5s25.834 12.5 36.501 22.5s19.334 22.833 26.001 38.5s10 34.5 10 56.5c0 21.333 -3.16699 39.833 -9.5 55.5s-14.833 28.5 -25.5 38.5s-22.834 17.5 -36.501 22.5s-27.5 7.5 -41.5 7.5z" />
    <glyph glyph-name="A" unicode="A" horiz-adv-x="662" 
d="M640 0h-114l-47 110h-297l-47 -110h-113l291 671h36zM220 201h220l-109 273z" />
    <glyph glyph-name="B" unicode="B" horiz-adv-x="618" 
d="M314 660c30 0 57.1689 -4.33301 81.502 -13s45.166 -20.834 62.499 -36.501s30.666 -34.167 39.999 -55.5s14 -45 14 -71c0 -51.333 -18.667 -92.666 -56 -123.999c39.333 -12.667 69.833 -33.5 91.5 -62.5s32.5 -64.167 32.5 -105.5c0 -28 -5 -53.667 -15 -77
s-24.333 -43.5 -43 -60.5s-41.167 -30.333 -67.5 -40s-55.833 -14.5 -88.5 -14.5h-283v660h231zM187.002 298v-204.999h170c38 0 66.833 9.16699 86.5 27.5s29.5 43.166 29.5 74.499s-9.83301 56.333 -29.5 75s-48.5 28 -86.5 28h-170zM187.002 567.001v-178.001h117
c34 0 59.333 8.33301 76 25s25 38.334 25 65.001s-8.33301 48 -25 64s-42 24 -76 24h-117z" />
    <glyph glyph-name="C" unicode="C" horiz-adv-x="717" 
d="M390 671c62 0 117.5 -13.832 166.5 -41.499s87.833 -64.5 116.5 -110.5l-80 -59c-23.333 36 -52 64 -86 84s-73 30 -117 30c-34 0 -65.5 -6.16699 -94.5 -18.5s-54.167 -29.333 -75.5 -51s-38 -47.334 -50 -77.001s-18 -62.167 -18 -97.5s6 -67.833 18 -97.5
s28.667 -55.334 50 -77.001s46.5 -38.667 75.5 -51s60.5 -18.5 94.5 -18.5c44 0 83 10 117 30s62.667 48 86 84l80 -59c-28 -46 -66.667 -82.833 -116 -110.5s-105 -41.5 -167 -41.5c-48.667 0 -94 8.66699 -136 26s-78.667 41.166 -110 71.499s-56 66.333 -74 108
s-27 86.834 -27 135.501c0 48 9 92.833 27 134.5s42.667 77.834 74 108.501s68 54.667 110 72s87.333 26 136 26z" />
    <glyph glyph-name="D" unicode="D" horiz-adv-x="692" 
d="M289 660c54.667 0 104.167 -8 148.5 -24s82.166 -38.5 113.499 -67.5s55.5 -63.667 72.5 -104s25.5 -84.833 25.5 -133.5c0 -48 -8.5 -92.167 -25.5 -132.5s-41.167 -75.333 -72.5 -105s-69.166 -52.667 -113.499 -69s-93.833 -24.5 -148.5 -24.5h-206v660h206zM189 564
v-469h99c38.667 0 73.667 5.83301 105 17.5s57.666 28 78.999 49s37.833 46 49.5 75s17.5 60.5 17.5 94.5c0 35.333 -5.83301 67.333 -17.5 96s-28.167 53.167 -49.5 73.5s-47.666 36 -78.999 47s-66.333 16.5 -105 16.5h-99z" />
    <glyph glyph-name="E" unicode="E" horiz-adv-x="569" 
d="M517 565h-328v-169h246v-92h-246v-209h340v-95h-446v660h434v-95z" />
    <glyph glyph-name="F" unicode="F" horiz-adv-x="529" 
d="M507 565h-318v-197h262v-96h-262v-272h-106v660h424v-95z" />
    <glyph glyph-name="G" unicode="G" horiz-adv-x="746" 
d="M391 671c58 0 110.168 -12.0029 156.501 -36.0029s85.166 -58 116.499 -102l-77 -63c-23.333 32.667 -51.333 58.167 -84 76.5s-70.334 27.5 -113.001 27.5c-35.333 0 -67.5 -6.16699 -96.5 -18.5s-54 -29.333 -75 -51s-37.333 -47.334 -49 -77.001
s-17.5 -61.834 -17.5 -96.501c0 -35.333 6 -68.166 18 -98.499s28.667 -56.5 50 -78.5s46.833 -39.167 76.5 -51.5s62.5 -18.5 98.5 -18.5c44.667 0 83.834 9.16699 117.501 27.5s60.5 42.5 80.5 72.5v71h-204v94h310v-186c-14.667 -26 -32.5 -49.667 -53.5 -71
s-44.667 -39.666 -71 -54.999s-55 -27.166 -86 -35.499s-63.5 -12.5 -97.5 -12.5c-49.333 0 -95.166 8.66699 -137.499 26s-79 41.333 -110 72s-55.5 66.834 -73.5 108.501s-27 86.5 -27 134.5s9 92.833 27 134.5s42.5 77.834 73.5 108.501s67.667 54.667 110 72
s88.166 26 137.499 26z" />
    <glyph glyph-name="H" unicode="H" horiz-adv-x="711" 
d="M627 0h-106v302h-332v-302h-106v660h106v-263h332v263h106v-660z" />
    <glyph glyph-name="I" unicode="I" horiz-adv-x="272" 
d="M189 0h-106v660h106v-660z" />
    <glyph glyph-name="J" unicode="J" horiz-adv-x="381" 
d="M298 164c0 -60.667 -16.833 -105 -50.5 -133s-78.834 -42 -135.501 -42c-17.333 0 -33.5 1 -48.5 3s-29.167 4.66699 -42.5 8v91c13.333 -1.33301 25.833 -2.5 37.5 -3.5s22.167 -1.5 31.5 -1.5c32.667 0 57.834 6.16699 75.501 18.5s26.5 35.833 26.5 70.5v485h106v-496
z" />
    <glyph glyph-name="K" unicode="K" horiz-adv-x="651" 
d="M324 351l305 -351h-131l-306 351l277 309h130zM189 0h-106v660h106v-660z" />
    <glyph glyph-name="L" unicode="L" horiz-adv-x="515" 
d="M189 95h302v-95h-408v660h106v-565z" />
    <glyph glyph-name="M" unicode="M" horiz-adv-x="793" 
d="M710 0h-106v414l-190 -248h-35l-190 249v-415h-106v671h36l277 -369l278 369h36v-671z" />
    <glyph glyph-name="N" unicode="N" horiz-adv-x="711" 
d="M521 214v446h106v-671h-36l-402 457v-446h-106v671h36z" />
    <glyph glyph-name="O" unicode="O" horiz-adv-x="780" 
d="M389 671c48 0 93 -8.66797 135 -26.001s78.667 -41.333 110 -72s56.166 -66.834 74.499 -108.501s27.5 -86.5 27.5 -134.5c0 -48.667 -9.16699 -93.834 -27.5 -135.501s-43.166 -77.667 -74.499 -108s-68 -54.166 -110 -71.499s-87 -26 -135 -26
s-93.167 8.66699 -135.5 26s-79 41.333 -110 72s-55.5 66.834 -73.5 108.501s-27 86.5 -27 134.5s9 92.833 27 134.5s42.667 77.834 74 108.501s68 54.667 110 72s87 26 135 26zM390 573.999c-34 0 -65.5 -6.16992 -94.5 -18.5029s-54 -29.166 -75 -50.499
s-37.5 -47 -49.5 -77s-18 -62.333 -18 -97c0 -35.333 6 -68 18 -98s28.5 -55.833 49.5 -77.5s46 -38.667 75 -51s60.5 -18.5 94.5 -18.5s65.333 6.16699 94 18.5s53.667 29.333 75 51s38 47.5 50 77.5s18 62.667 18 98c0 34.667 -6 66.834 -18 96.501
s-28.667 55.334 -50 77.001s-46.333 38.667 -75 51s-60 18.5 -94 18.5z" />
    <glyph glyph-name="P" unicode="P" horiz-adv-x="583" 
d="M323 660c34 0 64.833 -4.83301 92.5 -14.5s51.334 -23.5 71.001 -41.5s34.834 -39.333 45.501 -64s16 -52 16 -82s-5.33301 -57.333 -16 -82s-25.834 -46 -45.501 -64s-43.334 -32 -71.001 -42s-58.5 -15 -92.5 -15h-134v-255h-106v660h240zM189 566v-217h133
c38 0 67 10 87 30s30 46 30 78s-10 58.167 -30 78.5s-49 30.5 -87 30.5h-133z" />
    <glyph glyph-name="Q" unicode="Q" horiz-adv-x="780" 
d="M389 671c48 0 93.002 -8.66895 135.002 -26.002s78.667 -41.333 110 -72s56.166 -66.834 74.499 -108.501s27.5 -86.5 27.5 -134.5c0 -58 -12.667 -110.5 -38 -157.5s-59 -85.833 -101 -116.5c45.333 -59.333 96.666 -103.666 153.999 -132.999s125.333 -44 204 -44
c13.333 0 28 0.333008 44 1s32.667 1.66699 50 3v-84c-16 -3.33301 -33.333 -6 -52 -8s-38.667 -3 -60 -3c-88 0 -168.167 18.667 -240.5 56s-134.5 92.333 -186.5 165c-38.667 -13.333 -79 -20 -121 -20c-48 0 -93.167 8.66699 -135.5 26s-79 41.333 -110 72
s-55.5 66.834 -73.5 108.501s-27 86.5 -27 134.5s9 92.833 27 134.5s42.667 77.834 74 108.501s68 54.667 110 72s87 26 135 26zM390.002 573.998c-34 0 -65.5 -6.16895 -94.5 -18.502s-54 -29.166 -75 -50.499s-37.5 -47 -49.5 -77s-18 -62.333 -18 -97
c0 -35.333 6 -68 18 -98s28.5 -55.833 49.5 -77.5s46 -38.667 75 -51s60.5 -18.5 94.5 -18.5s65.333 6.16699 94 18.5s53.667 29.333 75 51s38 47.334 50 77.001s18 62.167 18 97.5c0 34.667 -6 67 -18 97s-28.5 55.833 -49.5 77.5s-46 38.667 -75 51s-60.5 18.5 -94.5 18.5
z" />
    <glyph glyph-name="R" unicode="R" horiz-adv-x="631" 
d="M323 660c34 0 64.8311 -4.83398 92.498 -14.501s51.334 -23.5 71.001 -41.5s34.834 -39.333 45.501 -64s16 -52 16 -82c0 -44 -11.333 -82.167 -34 -114.5s-54 -56.166 -94 -71.499l199 -272h-121l-189 255h-120v-255h-106v660h240zM188.998 565.999v-217h132
c38 0 67.167 10 87.5 30s30.5 46 30.5 78s-10.167 58.167 -30.5 78.5s-49.5 30.5 -87.5 30.5h-132z" />
    <glyph glyph-name="S" unicode="S" horiz-adv-x="559" 
d="M282 671c48.667 0 91.3359 -11.1641 128.003 -33.4971s65 -50.5 85 -84.5l-74 -57c-17.333 25.333 -37.666 45 -60.999 59s-49.333 21 -78 21c-26.667 0 -50 -6.5 -70 -19.5s-30 -33.167 -30 -60.5c0 -12.667 2.33301 -23.5 7 -32.5s11 -17 19 -24s17.667 -13.333 29 -19
l37 -18.5l74 -34c24.667 -11.333 47 -23.333 67 -36s36.667 -26.5 50 -41.5s23.666 -31.5 30.999 -49.5s11 -38.333 11 -61c0 -29.333 -5.66699 -55.833 -17 -79.5s-27 -43.667 -47 -60s-43.5 -29 -70.5 -38s-56.167 -13.5 -87.5 -13.5c-55.333 0 -104.333 12.833 -147 38.5
s-76.667 60.5 -102 104.5l75 57c9.33301 -14 19.833 -27.333 31.5 -40s24.5 -23.834 38.5 -33.501s29.5 -17.334 46.5 -23.001s35.833 -8.5 56.5 -8.5c34 0 61.5 8.16699 82.5 24.5s31.5 38.833 31.5 67.5c0 12.667 -2.33301 23.834 -7 33.501s-11.334 18.167 -20.001 25.5
s-18.834 14.166 -30.501 20.499s-24.834 12.833 -39.501 19.5l-73 34c-21.333 10 -41.333 20.667 -60 32s-35 24.333 -49 39s-25 31.167 -33 49.5s-12 39.166 -12 62.499c0 27.333 5.5 52 16.5 74s26 40.833 45 56.5s41 27.667 66 36s51.833 12.5 80.5 12.5z" />
    <glyph glyph-name="T" unicode="T" horiz-adv-x="583" 
d="M566 565h-222v-565h-106v565h-222v95h550v-95z" />
    <glyph glyph-name="U" unicode="U" horiz-adv-x="694" 
d="M618 267c0 -44 -6.83398 -83.167 -20.501 -117.5s-32.667 -63.5 -57 -87.5s-53 -42.167 -86 -54.5s-68.833 -18.5 -107.5 -18.5c-39.333 0 -75.5 6.16699 -108.5 18.5s-61.5 30.5 -85.5 54.5s-42.833 53.167 -56.5 87.5s-20.5 73.5 -20.5 117.5v393h106v-400
c0 -29.333 4.16699 -54.833 12.5 -76.5s20 -39.667 35 -54s32.5 -25.166 52.5 -32.499s41.667 -11 65 -11c22.667 0 44.167 3.66699 64.5 11s37.833 18.166 52.5 32.499s26.334 32.333 35.001 54s13 47.167 13 76.5v400h106v-393z" />
    <glyph glyph-name="V" unicode="V" horiz-adv-x="662" 
d="M349 -11h-36l-291 671h119l190 -459l190 459h119z" />
    <glyph glyph-name="W" unicode="W" horiz-adv-x="1051" 
d="M734 214l165 446h117l-257 -671h-36l-197 468l-197 -468h-36l-257 671h117l164 -447l191 458h36z" />
    <glyph glyph-name="X" unicode="X" horiz-adv-x="607" 
d="M363 336l221 -336h-121l-160 245l-159 -245h-122l223 336l-209 324h122l145 -234l145 234h121z" />
    <glyph glyph-name="Y" unicode="Y" horiz-adv-x="620" 
d="M363 266v-266h-106v266l-228 394h118l163 -288l164 288h118z" />
    <glyph glyph-name="Z" unicode="Z" horiz-adv-x="588" 
d="M556 631l-367 -536h368v-95h-531v29l364 536h-321v95h487v-29z" />
    <glyph glyph-name="bracketleft" unicode="[" horiz-adv-x="350" 
d="M306 641h-115v-682h115v-90h-210v860h210v-88z" />
    <glyph glyph-name="backslash" unicode="\" horiz-adv-x="650" 
d="M122 780l523 -901h-117l-523 901h117z" />
    <glyph glyph-name="bracketright" unicode="]" horiz-adv-x="350" 
d="M254 -131h-210v90h115v682h-115v88h210v-860z" />
    <glyph glyph-name="asciicircum" unicode="^" horiz-adv-x="524" 
d="M469 280h-104l-103 216l-103 -216h-104l189 390h36z" />
    <glyph glyph-name="underscore" unicode="_" horiz-adv-x="504" 
d="M465 -155h-426v85h426v-85z" />
    <glyph glyph-name="grave" unicode="`" horiz-adv-x="266" 
d="M236 568h-78l-128 193v19h127z" />
    <glyph glyph-name="a" unicode="a" horiz-adv-x="536" 
d="M264 502c30 0 57.334 -4.33203 82.001 -12.999s45.834 -21.5 63.501 -38.5s31.5 -38.333 41.5 -64s15 -55.5 15 -89.5v-297h-98v55c-17.333 -20.667 -39.333 -36.834 -66 -48.501s-57 -17.5 -91 -17.5c-26 0 -49.5 3.33301 -70.5 10s-39 16.334 -54 29.001
s-26.5 27.667 -34.5 45s-12 36.666 -12 57.999c0 43.333 16.333 77.5 49 102.5s76.667 37.5 132 37.5h139v32c0 34 -9 60 -27 78s-44 27 -78 27c-28.667 0 -53.667 -6.33301 -75 -19s-42 -30.667 -62 -54l-60 62c25.333 36 55.666 62.5 90.999 79.5
s73.666 25.5 114.999 25.5zM233.001 70.001c17.333 0 33.666 2.83398 48.999 8.50098s28.833 13.667 40.5 24s20.834 22.666 27.501 36.999s10 29.833 10 46.5v9h-126c-28 0 -49.5 -5 -64.5 -15s-22.5 -25 -22.5 -45c0 -21.333 8.33301 -37.5 25 -48.5s37 -16.5 61 -16.5z
" />
    <glyph glyph-name="b" unicode="b" horiz-adv-x="631" 
d="M181 431c18.667 22 42.166 39.333 70.499 52s59.5 19 93.5 19c34.667 0 66.667 -6.5 96 -19.5s54.833 -31 76.5 -54s38.5 -50.167 50.5 -81.5s18 -65.333 18 -102s-6 -70.5 -18 -101.5s-28.667 -58 -50 -81s-46.666 -41 -75.999 -54s-61.333 -19.5 -96 -19.5
c-36.667 0 -70.167 7 -100.5 21s-54.5 34 -72.5 60v-70h-97v750h105v-319zM327.999 406c-18.667 0 -36.8301 -3.16797 -54.4971 -9.50098s-33.5 -16.166 -47.5 -29.499s-25.167 -30 -33.5 -50s-12.5 -44 -12.5 -72s4.33301 -52.167 13 -72.5s20 -37 34 -50
s29.833 -22.5 47.5 -28.5s35.5 -9 53.5 -9c21.333 0 41.166 4 59.499 12s34.166 19 47.499 33s23.833 30.833 31.5 50.5s11.5 41.5 11.5 65.5s-3.83301 45.833 -11.5 65.5s-18.334 36.5 -32.001 50.5s-29.667 24.833 -48 32.5s-37.833 11.5 -58.5 11.5z" />
    <glyph glyph-name="c" unicode="c" horiz-adv-x="552" 
d="M305 502c46.667 0 87.666 -10.333 122.999 -31s63.666 -48.334 84.999 -83.001l-74 -58c-16.667 22.667 -35.5 40.834 -56.5 54.501s-46.5 20.5 -76.5 20.5c-22 0 -42.5 -4.16699 -61.5 -12.5s-35.167 -19.666 -48.5 -33.999s-23.833 -31.166 -31.5 -50.499
s-11.5 -40 -11.5 -62c0 -22.667 3.83301 -43.834 11.5 -63.501s18.167 -36.667 31.5 -51s29.5 -25.5 48.5 -33.5s39.5 -12 61.5 -12c30 0 55.333 6.66699 76 20s39.334 31.333 56.001 54l74 -57c-21.333 -34.667 -49.666 -62.334 -84.999 -83.001s-76 -31 -122 -31
c-36 0 -69.833 6.66699 -101.5 20s-59.334 31.5 -83.001 54.5s-42.167 50.167 -55.5 81.5s-20 65 -20 101s6.66699 69.5 20 100.5s31.833 58 55.5 81s51.334 41.167 83.001 54.5s65.5 20 101.5 20z" />
    <glyph glyph-name="d" unicode="d" horiz-adv-x="631" 
d="M555 0l-97.999 0.000976562v69c-18.667 -25.333 -42.834 -45 -72.501 -59s-62.5 -21 -98.5 -21c-35.333 0 -67.666 6.5 -96.999 19.5s-54.666 31 -75.999 54s-38 50 -50 81s-18 64.833 -18 101.5s6 70.667 18 102s28.667 58.5 50 81.5s46.666 41 75.999 54
s61.666 19.5 96.999 19.5c34 0 65.167 -6.33301 93.5 -19s51.833 -30.334 70.5 -53.001v320h105v-750zM302.001 406.001c-21.333 0 -40.9961 -3.83203 -58.9961 -11.499s-33.833 -18.5 -47.5 -32.5s-24.334 -30.833 -32.001 -50.5s-11.5 -41.5 -11.5 -65.5
s3.83301 -45.833 11.5 -65.5s18.167 -36.5 31.5 -50.5s29.166 -25 47.499 -33s38.166 -12 59.499 -12c18 0 35.833 3 53.5 9s33.5 15.5 47.5 28.5s25.333 29.667 34 50s13 44.5 13 72.5s-4.16699 52 -12.5 72s-19.5 36.667 -33.5 50s-29.833 23.166 -47.5 29.499
s-35.834 9.5 -54.501 9.5z" />
    <glyph glyph-name="e" unicode="e" horiz-adv-x="570" 
d="M299 502c32.667 0 62.999 -5.66602 90.999 -16.999s52 -27 72 -47s35.667 -43.833 47 -71.5s17 -57.5 17 -89.5c0 -13.333 -0.833008 -26 -2.5 -38s-3.5 -21.333 -5.5 -28h-366c7.33301 -40.667 25.333 -72.334 54 -95.001s64 -34 106 -34
c28.667 0 54.667 5.16699 78 15.5s45 24.5 65 42.5l51 -72c-26 -24.667 -55.333 -44 -88 -58s-68.667 -21 -108 -21c-38 0 -73.333 6.5 -106 19.5s-60.667 31 -84 54s-41.666 50.167 -54.999 81.5s-20 65 -20 101s6.5 69.667 19.5 101s31 58.5 54 81.5
s49.833 41.167 80.5 54.5s64 20 100 20zM295.999 413.001c-36 0 -66.6689 -10.833 -92.002 -32.5s-42 -50.834 -50 -87.501h267c-1.33301 38.667 -14.166 68.334 -38.499 89.001s-53.166 31 -86.499 31z" />
    <glyph glyph-name="f" unicode="f" horiz-adv-x="322" 
d="M315 400l-115.999 0.000976562v-400h-105v400h-70v91h70v99c0 59.333 16.167 102.666 48.5 129.999s74.833 41 127.5 41c25.333 0 47.666 -3 66.999 -9v-89c-16 2 -30 3 -42 3c-30 0 -53.5 -6 -70.5 -18s-25.5 -34.333 -25.5 -67v-90h116v-91z" />
    <glyph glyph-name="g" unicode="g" horiz-adv-x="634" 
d="M286 502c37.333 0 71 -7.17188 101 -21.5049s54.333 -34.166 73 -59.499v70h98v-440c0 -39.333 -6 -74.166 -18 -104.499s-28.833 -55.666 -50.5 -75.999s-47.5 -35.666 -77.5 -45.999s-63.333 -15.5 -100 -15.5c-52.667 0 -98.667 9.33301 -138 28
s-72 40.334 -98 65.001l57 73c24.667 -19.333 50.667 -35.833 78 -49.5s59 -20.5 95 -20.5c44 0 79.5 11.5 106.5 34.5s40.5 58.167 40.5 105.5v35c-19.333 -22.667 -43.5 -40 -72.5 -52s-60.5 -18 -94.5 -18s-65.5 6 -94.5 18s-54.167 28.833 -75.5 50.5s-38 47.667 -50 78
s-18 63.5 -18 99.5s6 69.167 18 99.5s28.667 56.333 50 78s46.5 38.5 75.5 50.5s60.5 18 94.5 18zM306 407.995c-21.333 0 -41.001 -3.66992 -59.001 -11.0029s-33.833 -17.5 -47.5 -30.5s-24.334 -29 -32.001 -48s-11.5 -39.833 -11.5 -62.5
c0 -23.333 3.83301 -44.5 11.5 -63.5s18.334 -35.167 32.001 -48.5s29.5 -23.666 47.5 -30.999s37.667 -11 59 -11c18.667 0 36.834 3 54.501 9s33.5 15.333 47.5 28s25.167 28.834 33.5 48.501s12.5 42.834 12.5 69.501s-4.33301 49.5 -13 68.5s-20 34.667 -34 47
s-29.833 21.333 -47.5 27s-35.5 8.5 -53.5 8.5z" />
    <glyph glyph-name="h" unicode="h" horiz-adv-x="575" 
d="M181 441c16.667 19.333 36.8311 34.333 60.498 45s50.834 16 81.501 16c28 0 53.333 -4.83301 76 -14.5s41.834 -23 57.501 -40s27.667 -37.5 36 -61.5s12.5 -50.333 12.5 -79v-307h-106v292c0 34 -9.5 61.5 -28.5 82.5s-44.833 31.5 -77.5 31.5s-59.5 -10.5 -80.5 -31.5
s-31.5 -48.5 -31.5 -82.5v-292h-105v750h105v-309z" />
    <glyph glyph-name="i" unicode="i" horiz-adv-x="257" 
d="M181 0h-105v491h105v-491zM129 744c19.333 0 36.166 -6.83301 50.499 -20.5s21.5 -30.167 21.5 -49.5s-7.16699 -35.666 -21.5 -48.999s-31.166 -20 -50.499 -20c-20 0 -37 6.66699 -51 20s-21 29.666 -21 48.999s7 35.833 21 49.5s31 20.5 51 20.5z" />
    <glyph glyph-name="j" unicode="j" horiz-adv-x="257" 
d="M181 -20c0 -59.333 -16.165 -102.668 -48.498 -130.001s-74.5 -41 -126.5 -41c-26.667 0 -49.334 3 -68.001 9v89c8.66699 -1.33301 16.167 -2.16602 22.5 -2.49902s13.166 -0.5 20.499 -0.5c30 0 53.333 6.16699 70 18.5s25 34.5 25 66.5v502h105v-511zM129.002 743.998
c19.333 0 36.166 -6.83301 50.499 -20.5s21.5 -30.167 21.5 -49.5s-7.16699 -35.666 -21.5 -48.999s-31.166 -20 -50.499 -20c-20 0 -37 6.66699 -51 20s-21 29.666 -21 48.999s7 35.833 21 49.5s31 20.5 51 20.5z" />
    <glyph glyph-name="k" unicode="k" horiz-adv-x="533" 
d="M181 0h-105v750h105v-750zM308 274l216 -274h-126l-214 276l192 215h131z" />
    <glyph glyph-name="l" unicode="l" horiz-adv-x="257" 
d="M181 0h-105v750h105v-750z" />
    <glyph glyph-name="m" unicode="m" horiz-adv-x="883" 
d="M631 502c28.667 0 54.333 -4.83203 77 -14.499s41.667 -23 57 -40s27 -37.5 35 -61.5s12 -50.333 12 -79v-307h-105v292c0 34 -9 61.5 -27 82.5s-43 31.5 -75 31.5s-58 -10.333 -78 -31s-30 -46.667 -30 -78v-297h-105v292c0 34 -9.16699 61.5 -27.5 82.5
s-43.5 31.5 -75.5 31.5s-58 -10.5 -78 -31.5s-30 -48.5 -30 -82.5v-292h-105v491h97v-48c16.667 18.667 37.167 33.167 61.5 43.5s51.5 15.5 81.5 15.5c35.333 0 65.333 -7 90 -21s44.334 -33 59.001 -57c17.333 23.333 40.166 42.166 68.499 56.499s60.833 21.5 97.5 21.5z
" />
    <glyph glyph-name="n" unicode="n" horiz-adv-x="575" 
d="M321 502c28.667 0 54.333 -4.83301 77 -14.5s42 -23 58 -40s28.167 -37.5 36.5 -61.5s12.5 -50.333 12.5 -79v-307h-106v293c0 34 -9.5 61.5 -28.5 82.5s-44.833 31.5 -77.5 31.5s-59.5 -10.5 -80.5 -31.5s-31.5 -48.5 -31.5 -82.5v-293h-105v491h97v-50
c17.333 19.333 38.5 34.333 63.5 45s53.167 16 84.5 16z" />
    <glyph glyph-name="o" unicode="o" horiz-adv-x="609" 
d="M305 502c36 0 69.667 -6.66699 101 -20s58.833 -31.5 82.5 -54.5s42.334 -50 56.001 -81s20.5 -64.5 20.5 -100.5s-6.83301 -69.667 -20.5 -101s-32.334 -58.5 -56.001 -81.5s-51.334 -41.167 -83.001 -54.5s-65.5 -20 -101.5 -20s-69.667 6.66699 -101 20
s-58.833 31.5 -82.5 54.5s-42.167 50.167 -55.5 81.5s-20 65 -20 101s6.66699 69.5 20 100.5s31.833 58 55.5 81s51.334 41.167 83.001 54.5s65.5 20 101.5 20zM305 406c-22 0 -42.501 -4.16699 -61.501 -12.5s-35.167 -19.666 -48.5 -33.999s-23.666 -31.333 -30.999 -51
s-11 -40.834 -11 -63.501s3.66699 -43.667 11 -63s17.833 -36.166 31.5 -50.499s29.667 -25.5 48 -33.5s38.5 -12 60.5 -12s42.333 4 61 12s34.834 19.167 48.501 33.5s24.334 31.166 32.001 50.499s11.5 40.333 11.5 63s-3.83301 43.834 -11.5 63.501
s-18.334 36.667 -32.001 51s-29.834 25.666 -48.501 33.999s-38.667 12.5 -60 12.5z" />
    <glyph glyph-name="p" unicode="p" horiz-adv-x="631" 
d="M345 502c34.667 0 66.833 -6.5 96.5 -19.5s55.167 -31 76.5 -54s38 -50 50 -81s18 -64.833 18 -101.5s-6 -70.667 -18 -102s-28.833 -58.5 -50.5 -81.5s-47.167 -41 -76.5 -54s-61.333 -19.5 -96 -19.5c-34 0 -65.167 6 -93.5 18s-51.833 29.333 -70.5 52v-239h-105v671
h97v-71c18 26 42 46.167 72 60.5s63.333 21.5 100 21.5zM327.999 406c-18 0 -35.8369 -3.16797 -53.5039 -9.50098s-33.5 -16 -47.5 -29s-25.333 -29.5 -34 -49.5s-13 -44 -13 -72s4.16699 -52 12.5 -72s19.5 -36.667 33.5 -50s29.833 -23.166 47.5 -29.499
s35.834 -9.5 54.501 -9.5c20.667 0 40.167 3.83301 58.5 11.5s34.333 18.5 48 32.5s24.334 30.833 32.001 50.5s11.5 41.5 11.5 65.5s-3.83301 45.833 -11.5 65.5s-18.167 36.5 -31.5 50.5s-29.166 25 -47.499 33s-38.166 12 -59.499 12z" />
    <glyph glyph-name="q" unicode="q" horiz-adv-x="631" 
d="M286 502c36 0 68.8301 -7.16797 98.4971 -21.501s53.834 -34.166 72.501 -59.499v70h98v-671h-105v239c-19.333 -22.667 -43.166 -40 -71.499 -52s-59.166 -18 -92.499 -18c-35.333 0 -67.666 6.5 -96.999 19.5s-54.666 31 -75.999 54s-38 50.167 -50 81.5
s-18 65.333 -18 102s6 70.5 18 101.5s28.667 58 50 81s46.666 41 75.999 54s61.666 19.5 96.999 19.5zM301.997 405.999c-21.333 0 -41.1699 -3.99902 -59.5029 -11.999s-34.166 -19.167 -47.499 -33.5s-23.833 -31.333 -31.5 -51s-11.5 -41.167 -11.5 -64.5
c0 -24 3.83301 -45.833 11.5 -65.5s18.334 -36.5 32.001 -50.5s29.5 -24.833 47.5 -32.5s37.667 -11.5 59 -11.5c18.667 0 36.834 3.16699 54.501 9.5s33.5 16.166 47.5 29.499s25.167 30 33.5 50s12.5 44 12.5 72s-4.33301 52 -13 72s-20 36.5 -34 49.5
s-29.833 22.667 -47.5 29s-35.5 9.5 -53.5 9.5z" />
    <glyph glyph-name="r" unicode="r" horiz-adv-x="375" 
d="M317 496c8.66699 0 16.168 -0.5 22.501 -1.5s12.166 -2.16699 17.499 -3.5v-93h-32c-19.333 0 -37.833 -2.83301 -55.5 -8.5s-33 -14.167 -46 -25.5s-23.333 -25.5 -31 -42.5s-11.5 -36.833 -11.5 -59.5v-262h-105v491h97v-66c17.333 23.333 38.5 41 63.5 53
s51.833 18 80.5 18z" />
    <glyph glyph-name="s" unicode="s" horiz-adv-x="455" 
d="M233 502c36 0 68.167 -6.49902 96.5 -19.499s52.833 -31.833 73.5 -56.5l-57 -65c-16 16 -34 28.333 -54 37s-40.667 13 -62 13c-19.333 0 -35.333 -3.83301 -48 -11.5s-19 -19.5 -19 -35.5c0 -13.333 5.33301 -24 16 -32s27.334 -16.667 50.001 -26l46 -19
c44.667 -18.667 78.334 -39 101.001 -61s34 -51 34 -87c0 -24.667 -4.83301 -46.334 -14.5 -65.001s-22.834 -34.334 -39.501 -47.001s-36 -22.167 -58 -28.5s-45.333 -9.5 -70 -9.5c-44 0 -82.667 8.83301 -116 26.5s-60.666 40.5 -81.999 68.5l59 66
c20 -20.667 41.167 -37.5 63.5 -50.5s47.5 -19.5 75.5 -19.5c21.333 0 39.666 4.5 54.999 13.5s23 22.833 23 41.5c0 16 -6.33301 28.167 -19 36.5s-29 16.5 -49 24.5l-50 21c-20 8 -37.833 16.5 -53.5 25.5s-29 19.167 -40 30.5s-19.5 24 -25.5 38s-9 30.333 -9 49
c0 22.667 4.5 42.834 13.5 60.501s21.167 32.5 36.5 44.5s33.666 21.167 54.999 27.5s44 9.5 68 9.5z" />
    <glyph glyph-name="t" unicode="t" horiz-adv-x="398" 
d="M352 400l-147.001 0.000976562v-231c0 -32.667 8.5 -55 25.5 -67s41.167 -18 72.5 -18c8.66699 0 18.334 0.5 29.001 1.5s22.334 2.16699 35.001 3.5v-89c-13.333 -3.33301 -26.833 -6 -40.5 -8s-28.834 -3 -45.501 -3c-54.667 0 -98.5 13.667 -131.5 41
s-49.5 70.666 -49.5 129.999v240h-80v91h80v129h105v-129h147v-91z" />
    <glyph glyph-name="u" unicode="u" horiz-adv-x="570" 
d="M500 206c0 -33.333 -5.5 -63.333 -16.5 -90s-26 -49.5 -45 -68.5s-41.667 -33.5 -68 -43.5s-54.5 -15 -84.5 -15c-30.667 0 -59 5 -85 15s-48.667 24.5 -68 43.5s-34.5 41.833 -45.5 68.5s-16.5 56.667 -16.5 90v285h105v-293c0 -34.667 10.667 -62 32 -82
s47.333 -30 78 -30c30 0 55.5 10 76.5 30s31.5 47.333 31.5 82v293h106v-285z" />
    <glyph glyph-name="v" unicode="v" horiz-adv-x="549" 
d="M293 -11h-37l-237 502h112l143 -325l144 325h111z" />
    <glyph glyph-name="w" unicode="w" horiz-adv-x="854" 
d="M596 173l127 318h111l-217 -502h-36l-155 328l-153 -328h-36l-218 502h112l129 -321l149 332h36z" />
    <glyph glyph-name="x" unicode="x" horiz-adv-x="514" 
d="M315 254l184 -254h-120l-123 178l-122 -178h-120l182 255l-169 236h120l109 -160l110 160h120z" />
    <glyph glyph-name="y" unicode="y" horiz-adv-x="549" 
d="M291 -56c-20.667 -47.333 -45.501 -81.666 -74.501 -102.999s-64.5 -32 -106.5 -32c-13.333 0 -27 0.833008 -41 2.5s-27.333 4.16699 -40 7.5v89c12 -1.33301 22.667 -2.33301 32 -3s18.333 -1 27 -1c22.667 0 42.834 4.66699 60.501 14s33.167 28.666 46.5 57.999
l20 46l-196 469h113l140 -358l146 358h112z" />
    <glyph glyph-name="z" unicode="z" horiz-adv-x="461" 
d="M437 461l-258 -370h260v-91h-417v29l257 371h-234v91h392v-30z" />
    <glyph glyph-name="braceleft" unicode="{" horiz-adv-x="404" 
d="M288 -131c-44.667 0 -80.167 10.502 -106.5 31.502s-39.5 56.167 -39.5 105.5c0 16 1.16699 33 3.5 51s5 35.833 8 53.5l8.5 49.5c2.66699 15.333 4 28.333 4 39c0 19.333 -4.83301 33.333 -14.5 42s-24.167 13 -43.5 13h-59v91h59c19.333 0 33.833 4.16699 43.5 12.5
s14.5 22.166 14.5 41.499c0 10.667 -1.33301 23.834 -4 39.501l-8.5 49.5c-3 17.333 -5.66699 35.166 -8 53.499s-3.5 35.5 -3.5 51.5c0 49.333 13.167 84.333 39.5 105s61.833 31 106.5 31h72v-88h-54c-22 0 -39.167 -6 -51.5 -18s-18.5 -30.667 -18.5 -56
c0 -12 1.16699 -26 3.5 -42s5 -32.167 8 -48.5s5.83301 -32.5 8.5 -48.5s4 -30.333 4 -43c0 -24 -5.16699 -42.5 -15.5 -55.5s-26.166 -23.167 -47.499 -30.5c21.333 -7.33301 37.166 -17.5 47.499 -30.5s15.5 -31.167 15.5 -54.5c0 -12.667 -1.33301 -27 -4 -43l-8.5 -49
c-3 -16.667 -5.66699 -32.834 -8 -48.501s-3.5 -29.5 -3.5 -41.5c0 -26 6.16699 -45 18.5 -57s29.5 -18 51.5 -18h54v-88h-72z" />
    <glyph glyph-name="bar" unicode="|" horiz-adv-x="332" 
d="M211 -121h-89v901h89v-901z" />
    <glyph glyph-name="braceright" unicode="}" horiz-adv-x="404" 
d="M44 -43l53 -0.000976562c22.667 0 40.167 6 52.5 18s18.5 31 18.5 57c0 12 -1.33301 25.833 -4 41.5l-8.5 48.5c-3 16.667 -5.66699 33 -8 49s-3.5 30.333 -3.5 43c0 23.333 5 41.5 15 54.5s25.667 23.167 47 30.5c-21.333 7.33301 -37 17.5 -47 30.5s-15 31.5 -15 55.5
c0 12.667 1.16699 27 3.5 43s5 32.167 8 48.5s5.83301 32.5 8.5 48.5s4 30 4 42c0 25.333 -6.16699 44 -18.5 56s-29.833 18 -52.5 18h-53v88h72c44.667 0 80.167 -10.333 106.5 -31s39.5 -55.667 39.5 -105c0 -16 -1.33301 -33.167 -4 -51.5s-5.5 -36.166 -8.5 -53.499
s-5.66699 -33.833 -8 -49.5s-3.5 -28.834 -3.5 -39.501c0 -19.333 4.83301 -33.166 14.5 -41.499s23.834 -12.5 42.501 -12.5h60v-91h-60c-18.667 0 -32.834 -4.33301 -42.501 -13s-14.5 -22.667 -14.5 -42c0 -10.667 1.16699 -23.667 3.5 -39s5 -31.833 8 -49.5
s5.83301 -35.5 8.5 -53.5s4 -35 4 -51c0 -49.333 -13.167 -84.5 -39.5 -105.5s-61.833 -31.5 -106.5 -31.5h-72v88z" />
    <glyph glyph-name="asciitilde" unicode="~" 
d="M157 417c13.333 0 27.167 -2.33105 41.5 -6.99805s28.5 -11 42.5 -19l91 -56c12 -6.66699 22.667 -12.334 32 -17.001s18.333 -7 27 -7c11.333 0 20 4.16699 26 12.5s9 18.166 9 29.499v17h83c0.666992 -3.33301 1.16699 -7.83301 1.5 -13.5s0.5 -11.167 0.5 -16.5
c0 -18 -2.66699 -34.5 -8 -49.5s-12.833 -28 -22.5 -39s-21.167 -19.667 -34.5 -26s-28 -9.5 -44 -9.5c-26.667 0 -54.334 8.66699 -83.001 26l-91 55c-12 7.33301 -22.667 13.333 -32 18s-18.333 7 -27 7c-11.333 0 -20.166 -4 -26.499 -12s-9.5 -18 -9.5 -30v-17h-82
c-0.666992 3.33301 -1.16699 7.83301 -1.5 13.5s-0.5 11.167 -0.5 16.5c0 35.333 10 64.833 30 88.5s46 35.5 78 35.5z" />
    <glyph glyph-name="exclamdown" unicode="&#xa1;" horiz-adv-x="326" 
d="M226 -180h-127l20 445h87zM163 502c21.333 0 39.5 -7.33301 54.5 -22s22.5 -33.334 22.5 -56.001c0 -22 -7.5 -40.333 -22.5 -55s-33.167 -22 -54.5 -22c-22 0 -40.5 7.33301 -55.5 22s-22.5 33 -22.5 55c0 22.667 7.5 41.334 22.5 56.001s33.5 22 55.5 22z" />
    <glyph glyph-name="cent" unicode="&#xa2;" horiz-adv-x="555" 
d="M327 581c38.667 -4.66699 72.835 -16.8311 102.502 -36.498s54.167 -44.5 73.5 -74.5l-73 -58c-13.333 18 -28.5 33.167 -45.5 45.5s-36.167 20.833 -57.5 25.5v-313c21.333 4 40.333 12.333 57 25s31.667 28.334 45 47.001l73 -58
c-18.667 -30.667 -42.834 -55.834 -72.501 -75.501s-63.834 -31.834 -102.501 -36.501v-167h-97v173c-28 6.66699 -54 17.667 -78 33s-44.667 33.833 -62 55.5s-30.833 46.167 -40.5 73.5s-14.5 56.333 -14.5 87c0 30 4.83301 58.5 14.5 85.5s23.167 51.333 40.5 73
s38 40.167 62 55.5s50 26.666 78 33.999v174h97v-168zM143.001 327.003c0 -33.333 7.83301 -62.8301 23.5 -88.4971s36.834 -44.834 63.501 -57.501v291c-26.667 -12.667 -47.834 -31.834 -63.501 -57.501s-23.5 -54.834 -23.5 -87.501z" />
    <glyph glyph-name="sterling" unicode="&#xa3;" horiz-adv-x="548" 
d="M416 235l-130.001 -0.000976562c0 -3.33301 0.166992 -6.66602 0.5 -9.99902s0.5 -6.66602 0.5 -9.99902c0 -23.333 -3.83301 -45.666 -11.5 -66.999s-18.834 -40.333 -33.501 -57h262v-91h-455v24c19.333 13.333 37.166 27 53.499 41s30.333 28.667 42 44
s20.834 31.666 27.501 48.999s10 36 10 56c0 3.33301 -0.166992 6.83301 -0.5 10.5s-0.833008 7.16699 -1.5 10.5h-121v91h89c-12.667 24 -25 48.667 -37 74s-18 54.666 -18 87.999c0 28 5.16699 53.167 15.5 75.5s24.5 41.5 42.5 57.5s39.5 28.333 64.5 37
s52.167 13 81.5 13c52.667 0 98 -14.333 136 -43s64.667 -71.667 80 -129l-91 -33c-10.667 34 -25.667 60.5 -45 79.5s-44 28.5 -74 28.5c-33.333 0 -58.666 -10 -75.999 -30s-26 -44.333 -26 -73c0 -13.333 1.66699 -26.166 5 -38.499s7.83301 -24.333 13.5 -36
s11.834 -23.334 18.501 -35.001s13 -23.5 19 -35.5h159v-91z" />
    <glyph glyph-name="currency" unicode="&#xa4;" horiz-adv-x="649" 
d="M323 560c24 0 47.001 -3.33301 69.001 -10s42.333 -15.667 61 -27l110 110l63 -63l-107 -107c13.333 -18.667 23.833 -39.167 31.5 -61.5s11.5 -46.166 11.5 -71.499s-3.83301 -49.166 -11.5 -71.499s-18.167 -42.833 -31.5 -61.5l108 -109l-63 -63l-111 112
c-19.333 -11.333 -40 -20.333 -62 -27s-45 -10 -69 -10s-46.833 3.16699 -68.5 9.5s-41.834 15.166 -60.501 26.499l-108 -111l-63 63l105 109c-13.333 18.667 -23.666 39.167 -30.999 61.5s-11 46.166 -11 71.499c0 24.667 3.66699 48.167 11 70.5
s17.666 42.833 30.999 61.5l-105 108l63 63l108 -110c18.667 11.333 39 20.333 61 27s45 10 69 10zM323.001 463c-19.333 0 -37 -3.33301 -53 -10s-29.667 -16 -41 -28s-20.166 -26.167 -26.499 -42.5s-9.5 -34.166 -9.5 -53.499c0 -18.667 3.16699 -36 9.5 -52
s15.166 -30 26.499 -42s25 -21.333 41 -28s33.667 -10 53 -10c18.667 0 36 3.33301 52 10s29.833 16 41.5 28s20.834 26 27.501 42s10 33.333 10 52c0 19.333 -3.33301 37.166 -10 53.499s-15.834 30.5 -27.501 42.5s-25.5 21.333 -41.5 28s-33.333 10 -52 10z" />
    <glyph glyph-name="yen" unicode="&#xa5;" horiz-adv-x="575" 
d="M529 114h-188v-114h-106v114h-187v88h187v77h-187v89h163l-204 292h118l163 -237l163 237h118l-204 -292h164v-89h-188v-77h188v-88z" />
    <glyph glyph-name="brokenbar" unicode="&#xa6;" horiz-adv-x="332" 
d="M211 480h-89v300h89v-300zM211 -121h-89v300h89v-300z" />
    <glyph glyph-name="section" unicode="&#xa7;" horiz-adv-x="590" 
d="M325 677c38 0 72.501 -7.99805 103.501 -23.998s57.833 -40.333 80.5 -73l-71 -59c-17.333 21.333 -35.166 37.166 -53.499 47.499s-38.833 15.5 -61.5 15.5c-21.333 0 -38.333 -4.66699 -51 -14s-19 -23.666 -19 -42.999c0 -22 8.16699 -40.667 24.5 -56
s37.166 -32.666 62.499 -51.999l99 -75c38.667 -27.333 68.167 -53.5 88.5 -78.5s30.5 -53.833 30.5 -86.5c0 -35.333 -11 -64.5 -33 -87.5s-51 -39.167 -87 -48.5c0 -2.66699 0.166992 -5.33398 0.5 -8.00098s0.5 -5.66699 0.5 -9c0 -21.333 -4 -41.333 -12 -60
s-19.667 -34.834 -35 -48.501s-33.833 -24.334 -55.5 -32.001s-45.834 -11.5 -72.501 -11.5c-37.333 0 -71.5 8 -102.5 24s-57.833 40.333 -80.5 73l71 58c17.333 -20.667 35 -36.334 53 -47.001s38.667 -16 62 -16c21.333 0 38.166 4.83301 50.499 14.5
s18.5 24.167 18.5 43.5c0 10.667 -2.16699 20.5 -6.5 29.5s-10.166 17.667 -17.499 26s-16.333 16.666 -27 24.999l-35 26.5l-99 76c-39.333 27.333 -69 53.5 -89 78.5s-30 53.833 -30 86.5c0 34.667 10.833 63.667 32.5 87s50.834 39.333 87.501 48
c-0.666992 3.33301 -1 6.33301 -1 9v9c0 21.333 4 41.333 12 60s19.5 34.834 34.5 48.501s33.167 24.334 54.5 32.001s45.666 11.5 72.999 11.5zM276.001 347.002c-19.333 14 -37.168 28.001 -53.501 42.001s-30.166 28.667 -41.499 44
c-14 -5.33301 -25.333 -12.833 -34 -22.5s-13 -22.167 -13 -37.5c0 -7.33301 1.16699 -14.166 3.5 -20.499s6.5 -12.833 12.5 -19.5s14 -14.167 24 -22.5l37 -29.5l99 -75l55 -44c16.667 -14 30.667 -28.667 42 -44c14 5.33301 25.5 12.666 34.5 21.999s13.5 22 13.5 38
c0 7.33301 -1.16699 14.166 -3.5 20.499s-6.5 12.833 -12.5 19.5s-13.833 14 -23.5 22l-36.5 29z" />
    <glyph glyph-name="dieresis" unicode="&#xa8;" horiz-adv-x="420" 
d="M323 740c18.667 0 34.5 -6.16699 47.5 -18.5s19.5 -28.166 19.5 -47.499c0 -17.333 -6.5 -32.5 -19.5 -45.5s-28.833 -19.5 -47.5 -19.5c-17.333 0 -33 6.5 -47 19.5s-21 28.167 -21 45.5c0 19.333 7 35.166 21 47.499s29.667 18.5 47 18.5zM98 740
c18.667 0 34.5 -6.16699 47.5 -18.5s19.5 -28.166 19.5 -47.499c0 -17.333 -6.5 -32.5 -19.5 -45.5s-28.833 -19.5 -47.5 -19.5c-17.333 0 -33 6.5 -47 19.5s-21 28.167 -21 45.5c0 19.333 7 35.166 21 47.499s29.667 18.5 47 18.5z" />
    <glyph glyph-name="copyright" unicode="&#xa9;" horiz-adv-x="780" 
d="M389 671c46.667 0 91.168 -8.66602 133.501 -25.999s79.166 -41.333 110.499 -72s56.333 -66.834 75 -108.501s28 -86.5 28 -134.5c0 -48.667 -9.33301 -93.834 -28 -135.501s-43.667 -77.667 -75 -108s-68.166 -54.166 -110.499 -71.499s-86.833 -26 -133.5 -26
c-47.333 0 -91.833 8.66699 -133.5 26s-78.334 41.166 -110.001 71.499s-56.667 66.333 -75 108s-27.5 86.834 -27.5 135.501s9.33301 93.667 28 135s43.667 77.333 75 108s68 54.667 110 72s86.333 26 133 26zM398.001 519.001c32 0 60.833 -7.00098 86.5 -21.001
s47.5 -33 65.5 -57l-60 -52c-11.333 15.333 -24.333 27.5 -39 36.5s-31.667 13.5 -51 13.5c-30.667 0 -55.667 -10.167 -75 -30.5s-29 -46.5 -29 -78.5c0 -30.667 9.66699 -56.334 29 -77.001s44 -31 74 -31c19.333 0 36.5 4.33301 51.5 13s28.167 20.667 39.5 36l60 -52
c-18 -23.333 -40 -42 -66 -56s-55 -21 -87 -21c-26.667 0 -51.5 4.83301 -74.5 14.5s-43 22.834 -60 39.501s-30.333 36.5 -40 59.5s-14.5 47.833 -14.5 74.5s4.83301 51.667 14.5 75s23 43.333 40 60s37.167 29.834 60.5 39.501s48.333 14.5 75 14.5zM389.001 604
c-36.667 0 -71.334 -6.66699 -104.001 -20s-61.5 -32 -86.5 -56s-44.833 -52.833 -59.5 -86.5s-22 -70.834 -22 -111.501c0 -41.333 7.33301 -78.833 22 -112.5s34.5 -62.5 59.5 -86.5s53.833 -42.5 86.5 -55.5s67.334 -19.5 104.001 -19.5c36 0 70.667 6.5 104 19.5
s62.5 31.5 87.5 55.5s45 52.833 60 86.5s22.5 71.167 22.5 112.5c0 40.667 -7.5 77.834 -22.5 111.501s-35 62.5 -60 86.5s-54 42.667 -87 56s-67.833 20 -104.5 20z" />
    <glyph glyph-name="ordfeminine" unicode="&#xaa;" horiz-adv-x="367" 
d="M181 563c40.667 0 73.165 -11.167 97.498 -33.5s36.5 -55.5 36.5 -99.5v-186h-78v27c-11.333 -10.667 -24.666 -19 -39.999 -25s-32.666 -9 -51.999 -9c-34.667 0 -61.334 8.83301 -80.001 26.5s-28 40.167 -28 67.5c0 29.333 10.5 51.833 31.5 67.5s49.5 23.5 85.5 23.5
h76v14c0 17.333 -4.83301 30.666 -14.5 39.999s-24.167 14 -43.5 14c-16 0 -30.667 -3.16699 -44 -9.5s-26.666 -15.166 -39.999 -26.499l-38 55c38 36 81.667 54 131 54zM167.998 300c17.333 0 32 5.33301 44 16s18 24.667 18 42v10h-62
c-14.667 0 -25.834 -3.16699 -33.501 -9.5s-11.5 -14.5 -11.5 -24.5c0 -11.333 4.33301 -19.833 13 -25.5s19.334 -8.5 32.001 -8.5z" />
    <glyph glyph-name="guillemotleft" unicode="&#xab;" horiz-adv-x="550" 
d="M288 425l-138 -153l138 -155l-68 -59l-186 199v29l186 199zM515 425l-138 -153l138 -155l-68 -59l-186 199v29l186 199z" />
    <glyph glyph-name="logicalnot" unicode="&#xac;" 
d="M478 99h-101v173h-328v91h429v-264z" />
    <glyph glyph-name="uni00AD" unicode="&#xad;" horiz-adv-x="344" 
d="M295 273h-246v89h246v-89z" />
    <glyph glyph-name="registered" unicode="&#xae;" horiz-adv-x="572" 
d="M286 688c34 0 66 -6.66699 96 -20s56.167 -31.5 78.5 -54.5s40 -49.833 53 -80.5s19.5 -63.334 19.5 -98.001s-6.5 -67.167 -19.5 -97.5s-30.667 -57 -53 -80s-48.5 -41.167 -78.5 -54.5s-62 -20 -96 -20s-66 6.66699 -96 20s-56.333 31.5 -79 54.5
s-40.5 49.667 -53.5 80s-19.5 62.833 -19.5 97.5s6.5 67.334 19.5 98.001s30.833 57.5 53.5 80.5s49 41.167 79 54.5s62 20 96 20zM287 631c-26.667 0 -51.5 -4.99805 -74.5 -14.998s-43 -23.833 -60 -41.5s-30.333 -38.334 -40 -62.001s-14.5 -49.167 -14.5 -76.5
c0 -28 4.83301 -53.833 14.5 -77.5s23 -44.334 40 -62.001s37 -31.5 60 -41.5s47.833 -15 74.5 -15c26 0 50.5 5 73.5 15s43 23.667 60 41s30.5 38 40.5 62s15 50 15 78s-5 53.833 -15 77.5s-23.5 44.167 -40.5 61.5s-37 31 -60 41s-47.5 15 -73.5 15zM290 561.002
c28 0 51 -7.66895 69 -23.002s27 -36.333 27 -63c0 -15.333 -3.5 -29.166 -10.5 -41.499s-16.5 -22.166 -28.5 -29.499l68 -94h-71l-60 79h-32v-79h-64v251h102zM252 505v-60h38c9.33301 0 16.833 2.66699 22.5 8s8.5 12.333 8.5 21c0 9.33301 -2.83301 16.833 -8.5 22.5
s-13.167 8.5 -22.5 8.5h-38z" />
    <glyph glyph-name="macron" unicode="&#xaf;" horiz-adv-x="348" 
d="M318 632h-288v84h288v-84z" />
    <glyph glyph-name="degree" unicode="&#xb0;" horiz-adv-x="361" 
d="M181 671c21.333 0 41.166 -4 59.499 -12s34.333 -18.667 48 -32s24.5 -29.166 32.5 -47.499s12 -37.833 12 -58.5s-4 -40.167 -12 -58.5s-18.833 -34.166 -32.5 -47.499s-29.667 -24 -48 -32s-38.166 -12 -59.499 -12s-41.333 4 -60 12s-34.834 18.667 -48.501 32
s-24.5 29.166 -32.5 47.499s-12 37.833 -12 58.5s4 40.167 12 58.5s18.833 34.166 32.5 47.499s29.834 24 48.501 32s38.667 12 60 12zM180 598c-21.333 0 -39.166 -7.5 -53.499 -22.5s-21.5 -33.167 -21.5 -54.5s7.16699 -39.5 21.5 -54.5s32.166 -22.5 53.499 -22.5
c22.667 0 41 7.5 55 22.5s21 33.167 21 54.5s-7 39.5 -21 54.5s-32.333 22.5 -55 22.5z" />
    <glyph glyph-name="plusminus" unicode="&#xb1;" 
d="M332 401h168v-88h-168v-151h-102v151h-169v88h169v145h102v-145zM500 0h-439v88h439v-88z" />
    <glyph glyph-name="uni00B2" unicode="&#xb2;" horiz-adv-x="376" 
d="M182 787c20.667 0 39.666 -3.33105 56.999 -9.99805s32.333 -15.834 45 -27.501s22.667 -25.667 30 -42s11 -33.833 11 -52.5c0 -15.333 -2.33301 -30 -7 -44s-11 -27.5 -19 -40.5s-17.5 -25.833 -28.5 -38.5l-35.5 -39l-51 -54h153v-75h-303v18l148 160
c19.333 21.333 33.833 40 43.5 56s14.5 32.667 14.5 50c0 18 -5.33301 33 -16 45s-24.667 18 -42 18c-18 0 -32.5 -6 -43.5 -18s-16.5 -27.667 -16.5 -47c0 -4.66699 0.166992 -9.5 0.5 -14.5s0.833008 -10.5 1.5 -16.5h-82c-1.33301 6 -2.33301 12.167 -3 18.5
s-1 12.166 -1 17.499c0 16.667 3.33301 33.167 10 49.5s16.167 31 28.5 44s27.333 23.333 45 31s37.834 11.5 60.501 11.5z" />
    <glyph glyph-name="uni00B3" unicode="&#xb3;" horiz-adv-x="357" 
d="M311 757l-92.001 -129.998c12 -3.33301 24 -8.33301 36 -15s22.833 -15.334 32.5 -26.001s17.334 -23.167 23.001 -37.5s8.5 -30.5 8.5 -48.5c0 -21.333 -4.16699 -40.833 -12.5 -58.5s-19.5 -32.834 -33.5 -45.501s-30.333 -22.334 -49 -29.001s-38.334 -10 -59.001 -10
c-36 0 -66.667 8.83301 -92 26.5s-44.666 39.834 -57.999 66.501l57 41c11.333 -18 24 -32.167 38 -42.5s31.333 -15.5 52 -15.5c21.333 0 38.833 5.83301 52.5 17.5s20.5 28.167 20.5 49.5c0 40.667 -28.667 61 -86 61h-45v21l87 123h-145v75h265v-23z" />
    <glyph glyph-name="acute" unicode="&#xb4;" horiz-adv-x="266" 
d="M236 761l-128 -193h-78l79 212h127v-19z" />
    <glyph glyph-name="uni00B5" unicode="&#xb5;" horiz-adv-x="601" 
d="M505 154c0 -24 4.00098 -41.334 12.001 -52.001s20.667 -16 38 -16c3.33301 0 7 0.166992 11 0.5s9.66699 0.833008 17 1.5v-88c-19.333 -5.33301 -40 -8 -62 -8c-48.667 0 -82.334 18 -101.001 54c-14 -17.333 -31.5 -31.166 -52.5 -41.499s-44.5 -15.5 -70.5 -15.5
c-24 0 -45.833 4.5 -65.5 13.5s-36.5 21.5 -50.5 37.5v-220h-105v671h105v-288c0 -36 10.333 -64.667 31 -86s46.667 -32 78 -32c32 0 58.167 10.667 78.5 32s30.5 50 30.5 86v288h106v-337z" />
    <glyph glyph-name="paragraph" unicode="&#xb6;" horiz-adv-x="588" 
d="M505 -14c0 -62.667 -16.499 -107.833 -49.499 -135.5s-77.167 -41.5 -132.5 -41.5c-16 0 -31.167 1 -45.5 3s-27.833 4.66699 -40.5 8v90l35 -3.5c10 -1 19.667 -1.5 29 -1.5c31.333 0 55.666 6.33301 72.999 19s26 36.667 26 72v664h105v-674zM338.001 227.001
l-59 -0.00195312c-34.667 0 -66.834 5.16699 -96.501 15.5s-55.334 25 -77.001 44s-38.667 41.833 -51 68.5s-18.5 56.667 -18.5 90c0 32.667 6.16699 62.334 18.5 89.001s29.333 49.334 51 68.001s47.334 33 77.001 43s61.834 15 96.501 15h59v-433z" />
    <glyph glyph-name="periodcentered" unicode="&#xb7;" horiz-adv-x="270" 
d="M135 395c21.333 0 39.5 -7.33301 54.5 -22s22.5 -33.334 22.5 -56.001s-7.5 -41.167 -22.5 -55.5s-33.167 -21.5 -54.5 -21.5c-22 0 -40.5 7.16699 -55.5 21.5s-22.5 32.833 -22.5 55.5s7.5 41.334 22.5 56.001s33.5 22 55.5 22z" />
    <glyph glyph-name="cedilla" unicode="&#xb8;" horiz-adv-x="274" 
d="M178 35c20 -10.667 36 -25.001 48 -43.001s18 -39 18 -63c0 -16.667 -3.16699 -32.167 -9.5 -46.5s-15.666 -27 -27.999 -38s-27.333 -19.667 -45 -26s-37.834 -9.5 -60.501 -9.5c-12 0 -24.167 0.833008 -36.5 2.5s-23.833 3.83398 -34.5 6.50098v72
c24.667 -2 44 -3 58 -3c20.667 0 37.5 4.83301 50.5 14.5s19.5 25.167 19.5 46.5c0 13.333 -2.33301 25.5 -7 36.5s-10 20.833 -16 29.5z" />
    <glyph glyph-name="uni00B9" unicode="&#xb9;" horiz-adv-x="361" 
d="M232 439h88v-75h-275v75h104v266h-97v75h180v-341z" />
    <glyph glyph-name="ordmasculine" unicode="&#xba;" horiz-adv-x="404" 
d="M201 562c22.667 0 44.334 -4.16699 65.001 -12.5s38.5 -19.666 53.5 -33.999s27 -31.5 36 -51.5s13.5 -41.667 13.5 -65s-4.5 -44.833 -13.5 -64.5s-21 -36.667 -36 -51s-32.833 -25.666 -53.5 -33.999s-42.334 -12.5 -65.001 -12.5c-23.333 0 -45 4.16699 -65 12.5
s-37.5 19.666 -52.5 33.999s-26.833 31.333 -35.5 51s-13 41.167 -13 64.5s4.33301 45 13 65s20.5 37.167 35.5 51.5s32.5 25.666 52.5 33.999s41.667 12.5 65 12.5zM201 486c-24.667 0 -44.5 -7.99902 -59.5 -23.999s-22.5 -37 -22.5 -63c0 -25.333 7.5 -46 22.5 -62
s34.833 -24 59.5 -24s44.667 8 60 24s23 36.667 23 62s-7.66699 46.166 -23 62.499s-35.333 24.5 -60 24.5z" />
    <glyph glyph-name="guillemotright" unicode="&#xbb;" horiz-adv-x="550" 
d="M289 286v-29l-186 -199l-68 59l138 155l-138 153l68 60zM516 286v-29l-186 -199l-68 59l138 155l-138 153l68 60z" />
    <glyph glyph-name="onequarter" unicode="&#xbc;" horiz-adv-x="910" 
d="M232 319h88v-75h-275v75h104v266h-97v75h180v-341zM338 0h-88l378 660h89zM844 138h53v-68h-53v-69h-76v69h-209v22l127 325h85l-110 -279h107v120h76v-120z" />
    <glyph glyph-name="onehalf" unicode="&#xbd;" horiz-adv-x="946" 
d="M232 319h88v-75h-275v75h104v266h-97v75h180v-341zM338 0h-88l378 660h89zM752 424c20.667 0 39.666 -3.33105 56.999 -9.99805s32.333 -15.834 45 -27.501s22.667 -25.667 30 -42s11 -33.833 11 -52.5c0 -15.333 -2.33301 -30 -7 -44s-11 -27.5 -19 -40.5
s-17.5 -25.833 -28.5 -38.5l-35.5 -39l-51 -54h153v-75h-303v18l148 160c19.333 21.333 33.833 40 43.5 56s14.5 32.667 14.5 50c0 18 -5.33301 33 -16 45s-24.667 18 -42 18c-18 0 -32.5 -6 -43.5 -18s-16.5 -27.667 -16.5 -47c0 -4.66699 0.166992 -9.5 0.5 -14.5
s0.833008 -10.5 1.5 -16.5h-82c-1.33301 6 -2.33301 12.167 -3 18.5s-1 12.166 -1 17.499c0 16.667 3.33301 33.167 10 49.5s16.167 31 28.5 44s27.333 23.333 45 31s37.834 11.5 60.501 11.5z" />
    <glyph glyph-name="threequarters" unicode="&#xbe;" horiz-adv-x="871" 
d="M311 637l-92.001 -129.998c12 -3.33301 24 -8.33301 36 -15s22.833 -15.334 32.5 -26.001s17.334 -23.167 23.001 -37.5s8.5 -30.5 8.5 -48.5c0 -21.333 -4.16699 -40.833 -12.5 -58.5s-19.5 -32.834 -33.5 -45.501s-30.333 -22.334 -49 -29.001s-38.334 -10 -59.001 -10
c-36 0 -66.667 8.83301 -92 26.5s-44.666 39.834 -57.999 66.501l57 41c11.333 -18 24 -32.167 38 -42.5s31.333 -15.5 52 -15.5c21.333 0 38.833 5.83301 52.5 17.5s20.5 28.167 20.5 49.5c0 40.667 -28.667 61 -86 61h-45v21l87 123h-145v75h265v-23zM298.999 0.00195312
h-88l378 660h89zM804.999 138.002h53v-68h-53v-69h-76v69h-209v22l127 325h85l-110 -279h107v120h76v-120z" />
    <glyph glyph-name="questiondown" unicode="&#xbf;" horiz-adv-x="447" 
d="M285 265c3.33301 -6 6 -13 8 -21s3 -16 3 -24c0 -12.667 -2.5 -24.667 -7.5 -36s-11.333 -22 -19 -32s-16.334 -19.5 -26.001 -28.5l-27.5 -25.5c-22 -20.667 -39 -38.667 -51 -54s-18 -33.666 -18 -54.999c0 -25.333 8.16699 -45.5 24.5 -60.5s35.5 -22.5 57.5 -22.5
c44.667 0 77 28.667 97 86l87 -38c-13.333 -48 -36.666 -84.167 -69.999 -108.5s-72.333 -36.5 -117 -36.5c-26 0 -50.333 4.16699 -73 12.5s-42.5 20.166 -59.5 35.499s-30.333 33.666 -40 54.999s-14.5 45 -14.5 71c0 18 2.33301 34.333 7 49s11 28.334 19 41.001
s17.5 24.5 28.5 35.5s22.5 21.833 34.5 32.5c23.333 20.667 40.833 38 52.5 52s17.5 29.333 17.5 46c0 10 -1 18.667 -3 26h90zM234 502c22 0 40.5 -7.33301 55.5 -22s22.5 -33.334 22.5 -56.001c0 -22 -7.5 -40.5 -22.5 -55.5s-33.5 -22.5 -55.5 -22.5
c-21.333 0 -39.5 7.5 -54.5 22.5s-22.5 33.5 -22.5 55.5c0 22.667 7.5 41.334 22.5 56.001s33.167 22 54.5 22z" />
    <glyph glyph-name="Agrave" unicode="&#xc0;" horiz-adv-x="662" 
d="M640 0h-114l-47 110h-297l-47 -110h-113l291 671h36zM220 201h220l-109 273zM370 724h-78l-128 167v19h127z" />
    <glyph glyph-name="Aacute" unicode="&#xc1;" horiz-adv-x="662" 
d="M640 0h-114l-47 110h-297l-47 -110h-113l291 671h36zM220 201h220l-109 273zM496 891l-128 -167h-78l79 186h127v-19z" />
    <glyph glyph-name="Acircumflex" unicode="&#xc2;" horiz-adv-x="662" 
d="M640 0h-114l-47 110h-297l-47 -110h-113l291 671h36zM220 201h220l-109 273zM512 724h-81l-101 93l-100 -93h-81l148 186h67z" />
    <glyph glyph-name="Atilde" unicode="&#xc3;" horiz-adv-x="662" 
d="M640 0h-114l-47 110h-297l-47 -110h-113l291 671h36zM220 201h220l-109 273zM250 890c24 0 48.001 -7.33594 72.001 -22.0029l33 -20l22 -12.5c6.66699 -3.66699 14 -5.5 22 -5.5c9.33301 0 16.333 3.33301 21 10s7 15 7 25v15h84
c0.666992 -4.66699 1 -9.33398 1 -14.001v-15c0 -35.333 -9.33301 -63.666 -28 -84.999s-42.334 -32 -71.001 -32c-12.667 0 -25.167 2 -37.5 6s-24.833 9.66699 -37.5 17l-31 18c-8 4.66699 -15.5 8.83398 -22.5 12.501s-14.167 5.5 -21.5 5.5
c-9.33301 0 -16.333 -3.5 -21 -10.5s-7 -15.5 -7 -25.5v-13h-84c-0.666992 4.66699 -1.16699 9.33398 -1.5 14.001s-0.5 9.66699 -0.5 15c0 34.667 9.5 62.834 28.5 84.501s43.167 32.5 72.5 32.5z" />
    <glyph glyph-name="Adieresis" unicode="&#xc4;" horiz-adv-x="662" 
d="M640 0h-114l-47 110h-297l-47 -110h-113l291 671h36zM220 201h220l-109 273zM453 877c18.667 0 34.5 -6.33301 47.5 -19s19.5 -28.334 19.5 -47.001c0 -17.333 -6.5 -32.5 -19.5 -45.5s-28.833 -19.5 -47.5 -19.5c-17.333 0 -33 6.5 -47 19.5s-21 28.167 -21 45.5
c0 18.667 7 34.334 21 47.001s29.667 19 47 19zM208 877c18.667 0 34.5 -6.16699 47.5 -18.5s19.5 -27.833 19.5 -46.5c0 -17.333 -6.5 -32.5 -19.5 -45.5s-28.833 -19.5 -47.5 -19.5c-17.333 0 -33 6.5 -47 19.5s-21 28.167 -21 45.5c0 18.667 7 34.167 21 46.5
s29.667 18.5 47 18.5z" />
    <glyph glyph-name="Aring" unicode="&#xc5;" horiz-adv-x="662" 
d="M640 0h-114l-47 110h-297l-47 -110h-113l291 671h36zM220 201h220l-109 273zM330 917c17.333 0 33.333 -3 48 -9s27.167 -14.167 37.5 -24.5s18.5 -22.5 24.5 -36.5s9 -29 9 -45c0 -32.667 -11.167 -60 -33.5 -82s-50.833 -33 -85.5 -33c-17.333 0 -33.166 3 -47.499 9
s-26.666 14.167 -36.999 24.5s-18.5 22.5 -24.5 36.5s-9 29 -9 45s3 31 9 45s14.167 26.167 24.5 36.5s22.666 18.5 36.999 24.5s30.166 9 47.499 9zM331 848c-13.333 0 -24.335 -4.33301 -33.002 -13s-13 -19.667 -13 -33s4.33301 -24.333 13 -33s19.667 -13 33 -13
c12.667 0 23.334 4.33301 32.001 13s13 19.667 13 33s-4.16699 24.333 -12.5 33s-19.166 13 -32.499 13z" />
    <glyph glyph-name="AE" unicode="&#xc6;" horiz-adv-x="836" 
d="M704 304h-188l35 -209h245v-95h-335l-19 110h-261l-58 -110h-114l341 660h434v-95h-312l28 -169h204v-92zM228 201h199l-49 303z" />
    <glyph glyph-name="Ccedilla" unicode="&#xc7;" horiz-adv-x="717" 
d="M390 671c62 0 117.5 -13.832 166.5 -41.499s87.833 -64.5 116.5 -110.5l-80 -59c-23.333 36 -52 64 -86 84s-73 30 -117 30c-34 0 -65.5 -6.16699 -94.5 -18.5s-54.167 -29.333 -75.5 -51s-38 -47.334 -50 -77.001s-18 -62.167 -18 -97.5s6 -67.833 18 -97.5
s28.667 -55.334 50 -77.001s46.5 -38.667 75.5 -51s60.5 -18.5 94.5 -18.5c44 0 83 10 117 30s62.667 48 86 84l80 -59c-28 -46 -66.667 -82.833 -116 -110.5s-105 -41.5 -167 -41.5c-48.667 0 -94 8.66699 -136 26s-78.667 41.166 -110 71.499s-56 66.333 -74 108
s-27 86.834 -27 135.501c0 48 9 92.833 27 134.5s42.667 77.834 74 108.501s68 54.667 110 72s87.333 26 136 26zM410 35.001c20 -10.667 36 -25.001 48 -43.001s18 -39 18 -63c0 -16.667 -3.16699 -32.167 -9.5 -46.5s-15.666 -27 -27.999 -38s-27.333 -19.667 -45 -26
s-37.834 -9.5 -60.501 -9.5c-12 0 -24.167 0.833008 -36.5 2.5s-23.833 3.83398 -34.5 6.50098v72c24.667 -2 44 -3 58 -3c20.667 0 37.5 4.83301 50.5 14.5s19.5 25.167 19.5 46.5c0 13.333 -2.33301 25.5 -7 36.5s-10 20.833 -16 29.5z" />
    <glyph glyph-name="Egrave" unicode="&#xc8;" horiz-adv-x="569" 
d="M517 565h-328v-169h246v-92h-246v-209h340v-95h-446v660h434v-95zM338 724h-78l-128 167v19h127z" />
    <glyph glyph-name="Eacute" unicode="&#xc9;" horiz-adv-x="569" 
d="M517 565h-328v-169h246v-92h-246v-209h340v-95h-446v660h434v-95zM464 891l-128 -167h-78l79 186h127v-19z" />
    <glyph glyph-name="Ecircumflex" unicode="&#xca;" horiz-adv-x="569" 
d="M517 565h-328v-169h246v-92h-246v-209h340v-95h-446v660h434v-95zM480 724h-81l-101 93l-100 -93h-81l148 186h67z" />
    <glyph glyph-name="Edieresis" unicode="&#xcb;" horiz-adv-x="569" 
d="M517 565h-328v-169h246v-92h-246v-209h340v-95h-446v660h434v-95zM421 877c18.667 0 34.5 -6.33301 47.5 -19s19.5 -28.334 19.5 -47.001c0 -17.333 -6.5 -32.5 -19.5 -45.5s-28.833 -19.5 -47.5 -19.5c-17.333 0 -33 6.5 -47 19.5s-21 28.167 -21 45.5
c0 18.667 7 34.334 21 47.001s29.667 19 47 19zM176 877c18.667 0 34.5 -6.16699 47.5 -18.5s19.5 -27.833 19.5 -46.5c0 -17.333 -6.5 -32.5 -19.5 -45.5s-28.833 -19.5 -47.5 -19.5c-17.333 0 -33 6.5 -47 19.5s-21 28.167 -21 45.5c0 18.667 7 34.167 21 46.5
s29.667 18.5 47 18.5z" />
    <glyph glyph-name="Igrave" unicode="&#xcc;" horiz-adv-x="272" 
d="M189 0h-106v660h106v-660zM177 724h-78l-128 167v19h127z" />
    <glyph glyph-name="Iacute" unicode="&#xcd;" horiz-adv-x="272" 
d="M189 0h-106v660h106v-660zM302 891l-128 -167h-78l79 186h127v-19z" />
    <glyph glyph-name="Icircumflex" unicode="&#xce;" horiz-adv-x="272" 
d="M189 0h-106v660h106v-660zM319 724h-81l-101 93l-100 -93h-81l148 186h67z" />
    <glyph glyph-name="Idieresis" unicode="&#xcf;" horiz-adv-x="272" 
d="M189 0h-106v660h106v-660zM260 877c18.667 0 34.5 -6.33301 47.5 -19s19.5 -28.334 19.5 -47.001c0 -17.333 -6.5 -32.5 -19.5 -45.5s-28.833 -19.5 -47.5 -19.5c-17.333 0 -33 6.5 -47 19.5s-21 28.167 -21 45.5c0 18.667 7 34.334 21 47.001s29.667 19 47 19zM15 877
c18.667 0 34.5 -6.16699 47.5 -18.5s19.5 -27.833 19.5 -46.5c0 -17.333 -6.5 -32.5 -19.5 -45.5s-28.833 -19.5 -47.5 -19.5c-17.333 0 -33 6.5 -47 19.5s-21 28.167 -21 45.5c0 18.667 7 34.167 21 46.5s29.667 18.5 47 18.5z" />
    <glyph glyph-name="Eth" unicode="&#xd0;" horiz-adv-x="692" 
d="M289 660c54.667 0 104.167 -8 148.5 -24s82.166 -38.5 113.499 -67.5s55.5 -63.667 72.5 -104s25.5 -84.833 25.5 -133.5c0 -48 -8.5 -92.167 -25.5 -132.5s-41.167 -75.333 -72.5 -105s-69.166 -52.667 -113.499 -69s-93.833 -24.5 -148.5 -24.5h-206v265h-88v90h88v305
h206zM189 564v-209h120v-90h-120v-170h99c38.667 0 73.667 5.83301 105 17.5s57.666 28 78.999 49s37.833 46 49.5 75s17.5 60.5 17.5 94.5c0 35.333 -5.83301 67.333 -17.5 96s-28.167 53.167 -49.5 73.5s-47.666 36 -78.999 47s-66.333 16.5 -105 16.5h-99z" />
    <glyph glyph-name="Ntilde" unicode="&#xd1;" horiz-adv-x="711" 
d="M521 214v446h106v-671h-36l-402 457v-446h-106v671h36zM274 890c24 0 48.001 -7.33594 72.001 -22.0029l33 -20l22 -12.5c6.66699 -3.66699 14 -5.5 22 -5.5c9.33301 0 16.333 3.33301 21 10s7 15 7 25v15h84c0.666992 -4.66699 1 -9.33398 1 -14.001v-15
c0 -35.333 -9.33301 -63.666 -28 -84.999s-42.334 -32 -71.001 -32c-12.667 0 -25.167 2 -37.5 6s-24.833 9.66699 -37.5 17l-31 18c-8 4.66699 -15.5 8.83398 -22.5 12.501s-14.167 5.5 -21.5 5.5c-9.33301 0 -16.333 -3.5 -21 -10.5s-7 -15.5 -7 -25.5v-13h-84
c-0.666992 4.66699 -1.16699 9.33398 -1.5 14.001s-0.5 9.66699 -0.5 15c0 34.667 9.5 62.834 28.5 84.501s43.167 32.5 72.5 32.5z" />
    <glyph glyph-name="Ograve" unicode="&#xd2;" horiz-adv-x="780" 
d="M389 671c48 0 93 -8.66797 135 -26.001s78.667 -41.333 110 -72s56.166 -66.834 74.499 -108.501s27.5 -86.5 27.5 -134.5c0 -48.667 -9.16699 -93.834 -27.5 -135.501s-43.166 -77.667 -74.499 -108s-68 -54.166 -110 -71.499s-87 -26 -135 -26
s-93.167 8.66699 -135.5 26s-79 41.333 -110 72s-55.5 66.834 -73.5 108.501s-27 86.5 -27 134.5s9 92.833 27 134.5s42.667 77.834 74 108.501s68 54.667 110 72s87 26 135 26zM390 573.999c-34 0 -65.5 -6.16992 -94.5 -18.5029s-54 -29.166 -75 -50.499
s-37.5 -47 -49.5 -77s-18 -62.333 -18 -97c0 -35.333 6 -68 18 -98s28.5 -55.833 49.5 -77.5s46 -38.667 75 -51s60.5 -18.5 94.5 -18.5s65.333 6.16699 94 18.5s53.667 29.333 75 51s38 47.5 50 77.5s18 62.667 18 98c0 34.667 -6 66.834 -18 96.501
s-28.667 55.334 -50 77.001s-46.333 38.667 -75 51s-60 18.5 -94 18.5zM429 723.996h-78l-128 167v19h127z" />
    <glyph glyph-name="Oacute" unicode="&#xd3;" horiz-adv-x="780" 
d="M389 671c48 0 93 -8.66797 135 -26.001s78.667 -41.333 110 -72s56.166 -66.834 74.499 -108.501s27.5 -86.5 27.5 -134.5c0 -48.667 -9.16699 -93.834 -27.5 -135.501s-43.166 -77.667 -74.499 -108s-68 -54.166 -110 -71.499s-87 -26 -135 -26
s-93.167 8.66699 -135.5 26s-79 41.333 -110 72s-55.5 66.834 -73.5 108.501s-27 86.5 -27 134.5s9 92.833 27 134.5s42.667 77.834 74 108.501s68 54.667 110 72s87 26 135 26zM390 573.999c-34 0 -65.5 -6.16992 -94.5 -18.5029s-54 -29.166 -75 -50.499
s-37.5 -47 -49.5 -77s-18 -62.333 -18 -97c0 -35.333 6 -68 18 -98s28.5 -55.833 49.5 -77.5s46 -38.667 75 -51s60.5 -18.5 94.5 -18.5s65.333 6.16699 94 18.5s53.667 29.333 75 51s38 47.5 50 77.5s18 62.667 18 98c0 34.667 -6 66.834 -18 96.501
s-28.667 55.334 -50 77.001s-46.333 38.667 -75 51s-60 18.5 -94 18.5zM555 890.996l-128 -167h-78l79 186h127v-19z" />
    <glyph glyph-name="Ocircumflex" unicode="&#xd4;" horiz-adv-x="780" 
d="M389 671c48 0 93 -8.66797 135 -26.001s78.667 -41.333 110 -72s56.166 -66.834 74.499 -108.501s27.5 -86.5 27.5 -134.5c0 -48.667 -9.16699 -93.834 -27.5 -135.501s-43.166 -77.667 -74.499 -108s-68 -54.166 -110 -71.499s-87 -26 -135 -26
s-93.167 8.66699 -135.5 26s-79 41.333 -110 72s-55.5 66.834 -73.5 108.501s-27 86.5 -27 134.5s9 92.833 27 134.5s42.667 77.834 74 108.501s68 54.667 110 72s87 26 135 26zM390 573.999c-34 0 -65.5 -6.16992 -94.5 -18.5029s-54 -29.166 -75 -50.499
s-37.5 -47 -49.5 -77s-18 -62.333 -18 -97c0 -35.333 6 -68 18 -98s28.5 -55.833 49.5 -77.5s46 -38.667 75 -51s60.5 -18.5 94.5 -18.5s65.333 6.16699 94 18.5s53.667 29.333 75 51s38 47.5 50 77.5s18 62.667 18 98c0 34.667 -6 66.834 -18 96.501
s-28.667 55.334 -50 77.001s-46.333 38.667 -75 51s-60 18.5 -94 18.5zM571 723.996h-81l-101 93l-100 -93h-81l148 186h67z" />
    <glyph glyph-name="Otilde" unicode="&#xd5;" horiz-adv-x="780" 
d="M389 671c48 0 93 -8.66797 135 -26.001s78.667 -41.333 110 -72s56.166 -66.834 74.499 -108.501s27.5 -86.5 27.5 -134.5c0 -48.667 -9.16699 -93.834 -27.5 -135.501s-43.166 -77.667 -74.499 -108s-68 -54.166 -110 -71.499s-87 -26 -135 -26
s-93.167 8.66699 -135.5 26s-79 41.333 -110 72s-55.5 66.834 -73.5 108.501s-27 86.5 -27 134.5s9 92.833 27 134.5s42.667 77.834 74 108.501s68 54.667 110 72s87 26 135 26zM390 573.999c-34 0 -65.5 -6.16992 -94.5 -18.5029s-54 -29.166 -75 -50.499
s-37.5 -47 -49.5 -77s-18 -62.333 -18 -97c0 -35.333 6 -68 18 -98s28.5 -55.833 49.5 -77.5s46 -38.667 75 -51s60.5 -18.5 94.5 -18.5s65.333 6.16699 94 18.5s53.667 29.333 75 51s38 47.5 50 77.5s18 62.667 18 98c0 34.667 -6 66.834 -18 96.501
s-28.667 55.334 -50 77.001s-46.333 38.667 -75 51s-60 18.5 -94 18.5zM309 889.996c24 0 48.001 -7.33594 72.001 -22.0029l33 -20l22 -12.5c6.66699 -3.66699 14 -5.5 22 -5.5c9.33301 0 16.333 3.33301 21 10s7 15 7 25v15h84c0.666992 -4.66699 1 -9.33398 1 -14.001
v-15c0 -35.333 -9.33301 -63.666 -28 -84.999s-42.334 -32 -71.001 -32c-12.667 0 -25.167 2 -37.5 6s-24.833 9.66699 -37.5 17l-31 18c-8 4.66699 -15.5 8.83398 -22.5 12.501s-14.167 5.5 -21.5 5.5c-9.33301 0 -16.333 -3.5 -21 -10.5s-7 -15.5 -7 -25.5v-13h-84
c-0.666992 4.66699 -1.16699 9.33398 -1.5 14.001s-0.5 9.66699 -0.5 15c0 34.667 9.5 62.834 28.5 84.501s43.167 32.5 72.5 32.5z" />
    <glyph glyph-name="Odieresis" unicode="&#xd6;" horiz-adv-x="780" 
d="M389 671c48 0 93 -8.66797 135 -26.001s78.667 -41.333 110 -72s56.166 -66.834 74.499 -108.501s27.5 -86.5 27.5 -134.5c0 -48.667 -9.16699 -93.834 -27.5 -135.501s-43.166 -77.667 -74.499 -108s-68 -54.166 -110 -71.499s-87 -26 -135 -26
s-93.167 8.66699 -135.5 26s-79 41.333 -110 72s-55.5 66.834 -73.5 108.501s-27 86.5 -27 134.5s9 92.833 27 134.5s42.667 77.834 74 108.501s68 54.667 110 72s87 26 135 26zM390 573.999c-34 0 -65.5 -6.16992 -94.5 -18.5029s-54 -29.166 -75 -50.499
s-37.5 -47 -49.5 -77s-18 -62.333 -18 -97c0 -35.333 6 -68 18 -98s28.5 -55.833 49.5 -77.5s46 -38.667 75 -51s60.5 -18.5 94.5 -18.5s65.333 6.16699 94 18.5s53.667 29.333 75 51s38 47.5 50 77.5s18 62.667 18 98c0 34.667 -6 66.834 -18 96.501
s-28.667 55.334 -50 77.001s-46.333 38.667 -75 51s-60 18.5 -94 18.5zM512 876.996c18.667 0 34.5 -6.33301 47.5 -19s19.5 -28.334 19.5 -47.001c0 -17.333 -6.5 -32.5 -19.5 -45.5s-28.833 -19.5 -47.5 -19.5c-17.333 0 -33 6.5 -47 19.5s-21 28.167 -21 45.5
c0 18.667 7 34.334 21 47.001s29.667 19 47 19zM267 876.996c18.667 0 34.5 -6.16699 47.5 -18.5s19.5 -27.833 19.5 -46.5c0 -17.333 -6.5 -32.5 -19.5 -45.5s-28.833 -19.5 -47.5 -19.5c-17.333 0 -33 6.5 -47 19.5s-21 28.167 -21 45.5c0 18.667 7 34.167 21 46.5
s29.667 18.5 47 18.5z" />
    <glyph glyph-name="multiply" unicode="&#xd7;" 
d="M495 471l-152 -152l152 -152l-62 -63l-153 151l-152 -151l-63 63l152 152l-152 152l63 63l152 -151l152 151z" />
    <glyph glyph-name="Oslash" unicode="&#xd8;" horiz-adv-x="780" 
d="M389 671c39.333 0 76.666 -6.00098 111.999 -18.001s67.666 -28.667 96.999 -50l81 81l64 -64l-80 -80c23.333 -28.667 41.333 -60.834 54 -96.501s19 -73.5 19 -113.5c0 -48.667 -9.16699 -93.834 -27.5 -135.501s-43.166 -77.667 -74.499 -108
s-68 -54.166 -110 -71.499s-87 -26 -135 -26c-40 0 -77.5 5.83301 -112.5 17.5s-67.167 28.167 -96.5 49.5l-79 -80l-64 64l78 78c-23.333 29.333 -41.166 61.833 -53.499 97.5s-18.5 73.834 -18.5 114.501c0 48 9 92.833 27 134.5s42.667 77.834 74 108.501
s68 54.667 110 72s87 26 135 26zM390 577.999c-35.333 0 -67.666 -6.16895 -96.999 -18.502s-54.833 -29.5 -76.5 -51.5s-38.5 -48.167 -50.5 -78.5s-18 -63.166 -18 -98.499c0 -27.333 3.33301 -52.666 10 -75.999s16 -45 28 -65l344 344
c-19.333 14 -40.833 24.833 -64.5 32.5s-48.834 11.5 -75.501 11.5zM631 330.997c0 26 -3.33105 50.6699 -9.99805 74.0029s-16.334 44.666 -29.001 63.999l-343 -344c40 -28.667 87 -43 141 -43c34 0 65.833 6.16699 95.5 18.5s55.167 29.666 76.5 51.999
s38.166 48.666 50.499 78.999s18.5 63.5 18.5 99.5z" />
    <glyph glyph-name="Ugrave" unicode="&#xd9;" horiz-adv-x="694" 
d="M618 267c0 -44 -6.83398 -83.167 -20.501 -117.5s-32.667 -63.5 -57 -87.5s-53 -42.167 -86 -54.5s-68.833 -18.5 -107.5 -18.5c-39.333 0 -75.5 6.16699 -108.5 18.5s-61.5 30.5 -85.5 54.5s-42.833 53.167 -56.5 87.5s-20.5 73.5 -20.5 117.5v393h106v-400
c0 -29.333 4.16699 -54.833 12.5 -76.5s20 -39.667 35 -54s32.5 -25.166 52.5 -32.499s41.667 -11 65 -11c22.667 0 44.167 3.66699 64.5 11s37.833 18.166 52.5 32.499s26.334 32.333 35.001 54s13 47.167 13 76.5v400h106v-393zM385.999 724h-78l-128 167v19h127z" />
    <glyph glyph-name="Uacute" unicode="&#xda;" horiz-adv-x="694" 
d="M618 267c0 -44 -6.83398 -83.167 -20.501 -117.5s-32.667 -63.5 -57 -87.5s-53 -42.167 -86 -54.5s-68.833 -18.5 -107.5 -18.5c-39.333 0 -75.5 6.16699 -108.5 18.5s-61.5 30.5 -85.5 54.5s-42.833 53.167 -56.5 87.5s-20.5 73.5 -20.5 117.5v393h106v-400
c0 -29.333 4.16699 -54.833 12.5 -76.5s20 -39.667 35 -54s32.5 -25.166 52.5 -32.499s41.667 -11 65 -11c22.667 0 44.167 3.66699 64.5 11s37.833 18.166 52.5 32.499s26.334 32.333 35.001 54s13 47.167 13 76.5v400h106v-393zM511.999 891l-128 -167h-78l79 186h127v-19
z" />
    <glyph glyph-name="Ucircumflex" unicode="&#xdb;" horiz-adv-x="694" 
d="M618 267c0 -44 -6.83398 -83.167 -20.501 -117.5s-32.667 -63.5 -57 -87.5s-53 -42.167 -86 -54.5s-68.833 -18.5 -107.5 -18.5c-39.333 0 -75.5 6.16699 -108.5 18.5s-61.5 30.5 -85.5 54.5s-42.833 53.167 -56.5 87.5s-20.5 73.5 -20.5 117.5v393h106v-400
c0 -29.333 4.16699 -54.833 12.5 -76.5s20 -39.667 35 -54s32.5 -25.166 52.5 -32.499s41.667 -11 65 -11c22.667 0 44.167 3.66699 64.5 11s37.833 18.166 52.5 32.499s26.334 32.333 35.001 54s13 47.167 13 76.5v400h106v-393zM527.999 724h-81l-101 93l-100 -93h-81
l148 186h67z" />
    <glyph glyph-name="Udieresis" unicode="&#xdc;" horiz-adv-x="694" 
d="M618 267c0 -44 -6.83398 -83.167 -20.501 -117.5s-32.667 -63.5 -57 -87.5s-53 -42.167 -86 -54.5s-68.833 -18.5 -107.5 -18.5c-39.333 0 -75.5 6.16699 -108.5 18.5s-61.5 30.5 -85.5 54.5s-42.833 53.167 -56.5 87.5s-20.5 73.5 -20.5 117.5v393h106v-400
c0 -29.333 4.16699 -54.833 12.5 -76.5s20 -39.667 35 -54s32.5 -25.166 52.5 -32.499s41.667 -11 65 -11c22.667 0 44.167 3.66699 64.5 11s37.833 18.166 52.5 32.499s26.334 32.333 35.001 54s13 47.167 13 76.5v400h106v-393zM468.999 877
c18.667 0 34.5 -6.33301 47.5 -19s19.5 -28.334 19.5 -47.001c0 -17.333 -6.5 -32.5 -19.5 -45.5s-28.833 -19.5 -47.5 -19.5c-17.333 0 -33 6.5 -47 19.5s-21 28.167 -21 45.5c0 18.667 7 34.334 21 47.001s29.667 19 47 19zM223.999 877
c18.667 0 34.5 -6.16699 47.5 -18.5s19.5 -27.833 19.5 -46.5c0 -17.333 -6.5 -32.5 -19.5 -45.5s-28.833 -19.5 -47.5 -19.5c-17.333 0 -33 6.5 -47 19.5s-21 28.167 -21 45.5c0 18.667 7 34.167 21 46.5s29.667 18.5 47 18.5z" />
    <glyph glyph-name="Yacute" unicode="&#xdd;" horiz-adv-x="620" 
d="M363 266v-266h-106v266l-228 394h118l163 -288l164 288h118zM473 891l-128 -167h-78l79 186h127v-19z" />
    <glyph glyph-name="Thorn" unicode="&#xde;" horiz-adv-x="583" 
d="M189 550l134 -0.00195312c34 0 64.833 -4.83301 92.5 -14.5s51.334 -23.5 71.001 -41.5s34.834 -39.667 45.501 -65s16 -53.333 16 -84c0 -30 -5.33301 -57.667 -16 -83s-25.834 -47.166 -45.501 -65.499s-43.334 -32.666 -71.001 -42.999s-58.5 -15.5 -92.5 -15.5h-134
v-138h-106v660h106v-110zM189 455.998v-224h133c38 0 67 10.5 87 31.5s30 47.833 30 80.5c0 33.333 -10 60.333 -30 81s-49 31 -87 31h-133z" />
    <glyph glyph-name="germandbls" unicode="&#xdf;" horiz-adv-x="630" 
d="M301 761c57.333 0 102.999 -13.668 136.999 -41.001s51 -65 51 -113c0 -10 -1 -21.833 -3 -35.5s-6 -28.5 -12 -44.5l-39 -107c-4.66699 -11.333 -8.5 -22.166 -11.5 -32.499s-4.5 -19.833 -4.5 -28.5c0 -18 7.33301 -32.333 22 -43s34.334 -23.334 59.001 -38.001
c31.333 -19.333 56.333 -39.666 75 -60.999s28 -48.666 28 -81.999c0 -22.667 -4.5 -43.167 -13.5 -61.5s-21.333 -33.833 -37 -46.5s-34.334 -22.334 -56.001 -29.001s-45.5 -10 -71.5 -10c-37.333 0 -70.333 6.33301 -99 19s-52.667 28 -72 46l48 75
c18 -14 37.667 -25.5 59 -34.5s43.666 -13.5 66.999 -13.5c20.667 0 37.667 4.16699 51 12.5s20 21.5 20 39.5s-7.33301 32.333 -22 43s-34.667 23.667 -60 39c-32 18.667 -57.5 37.167 -76.5 55.5s-28.5 40.833 -28.5 67.5c0 11.333 1.66699 23.5 5 36.5
s7.66602 26.167 12.999 39.5l38 102c4.66699 12.667 8.33398 24.667 11.001 36s4 22.333 4 33c0 24 -7.5 43.5 -22.5 58.5s-36.5 22.5 -64.5 22.5c-32 0 -59.333 -11 -82 -33s-34 -57.333 -34 -106v-526h-104v531c0 36.667 5.33301 69.167 16 97.5s25.834 52.333 45.501 72
s43.334 34.667 71.001 45s58.5 15.5 92.5 15.5z" />
    <glyph glyph-name="agrave" unicode="&#xe0;" horiz-adv-x="536" 
d="M264 502c30 0 57.334 -4.33203 82.001 -12.999s45.834 -21.5 63.501 -38.5s31.5 -38.333 41.5 -64s15 -55.5 15 -89.5v-297h-98v55c-17.333 -20.667 -39.333 -36.834 -66 -48.501s-57 -17.5 -91 -17.5c-26 0 -49.5 3.33301 -70.5 10s-39 16.334 -54 29.001
s-26.5 27.667 -34.5 45s-12 36.666 -12 57.999c0 43.333 16.333 77.5 49 102.5s76.667 37.5 132 37.5h139v32c0 34 -9 60 -27 78s-44 27 -78 27c-28.667 0 -53.667 -6.33301 -75 -19s-42 -30.667 -62 -54l-60 62c25.333 36 55.666 62.5 90.999 79.5
s73.666 25.5 114.999 25.5zM233.001 70.001c17.333 0 33.666 2.83398 48.999 8.50098s28.833 13.667 40.5 24s20.834 22.666 27.501 36.999s10 29.833 10 46.5v9h-126c-28 0 -49.5 -5 -64.5 -15s-22.5 -25 -22.5 -45c0 -21.333 8.33301 -37.5 25 -48.5s37 -16.5 61 -16.5z
M304.001 568.002h-78l-128 193v19h127z" />
    <glyph glyph-name="aacute" unicode="&#xe1;" horiz-adv-x="536" 
d="M264 502c30 0 57.334 -4.33203 82.001 -12.999s45.834 -21.5 63.501 -38.5s31.5 -38.333 41.5 -64s15 -55.5 15 -89.5v-297h-98v55c-17.333 -20.667 -39.333 -36.834 -66 -48.501s-57 -17.5 -91 -17.5c-26 0 -49.5 3.33301 -70.5 10s-39 16.334 -54 29.001
s-26.5 27.667 -34.5 45s-12 36.666 -12 57.999c0 43.333 16.333 77.5 49 102.5s76.667 37.5 132 37.5h139v32c0 34 -9 60 -27 78s-44 27 -78 27c-28.667 0 -53.667 -6.33301 -75 -19s-42 -30.667 -62 -54l-60 62c25.333 36 55.666 62.5 90.999 79.5
s73.666 25.5 114.999 25.5zM233.001 70.001c17.333 0 33.666 2.83398 48.999 8.50098s28.833 13.667 40.5 24s20.834 22.666 27.501 36.999s10 29.833 10 46.5v9h-126c-28 0 -49.5 -5 -64.5 -15s-22.5 -25 -22.5 -45c0 -21.333 8.33301 -37.5 25 -48.5s37 -16.5 61 -16.5z
M433.001 761.002l-128 -193h-78l79 212h127v-19z" />
    <glyph glyph-name="acircumflex" unicode="&#xe2;" horiz-adv-x="536" 
d="M264 502c30 0 57.334 -4.33203 82.001 -12.999s45.834 -21.5 63.501 -38.5s31.5 -38.333 41.5 -64s15 -55.5 15 -89.5v-297h-98v55c-17.333 -20.667 -39.333 -36.834 -66 -48.501s-57 -17.5 -91 -17.5c-26 0 -49.5 3.33301 -70.5 10s-39 16.334 -54 29.001
s-26.5 27.667 -34.5 45s-12 36.666 -12 57.999c0 43.333 16.333 77.5 49 102.5s76.667 37.5 132 37.5h139v32c0 34 -9 60 -27 78s-44 27 -78 27c-28.667 0 -53.667 -6.33301 -75 -19s-42 -30.667 -62 -54l-60 62c25.333 36 55.666 62.5 90.999 79.5
s73.666 25.5 114.999 25.5zM233.001 70.001c17.333 0 33.666 2.83398 48.999 8.50098s28.833 13.667 40.5 24s20.834 22.666 27.501 36.999s10 29.833 10 46.5v9h-126c-28 0 -49.5 -5 -64.5 -15s-22.5 -25 -22.5 -45c0 -21.333 8.33301 -37.5 25 -48.5s37 -16.5 61 -16.5z
M434.001 568.002h-79l-90 109l-90 -109h-79l135 212h68z" />
    <glyph glyph-name="atilde" unicode="&#xe3;" horiz-adv-x="536" 
d="M264 502c30 0 57.334 -4.33203 82.001 -12.999s45.834 -21.5 63.501 -38.5s31.5 -38.333 41.5 -64s15 -55.5 15 -89.5v-297h-98v55c-17.333 -20.667 -39.333 -36.834 -66 -48.501s-57 -17.5 -91 -17.5c-26 0 -49.5 3.33301 -70.5 10s-39 16.334 -54 29.001
s-26.5 27.667 -34.5 45s-12 36.666 -12 57.999c0 43.333 16.333 77.5 49 102.5s76.667 37.5 132 37.5h139v32c0 34 -9 60 -27 78s-44 27 -78 27c-28.667 0 -53.667 -6.33301 -75 -19s-42 -30.667 -62 -54l-60 62c25.333 36 55.666 62.5 90.999 79.5
s73.666 25.5 114.999 25.5zM233.001 70.001c17.333 0 33.666 2.83398 48.999 8.50098s28.833 13.667 40.5 24s20.834 22.666 27.501 36.999s10 29.833 10 46.5v9h-126c-28 0 -49.5 -5 -64.5 -15s-22.5 -25 -22.5 -45c0 -21.333 8.33301 -37.5 25 -48.5s37 -16.5 61 -16.5z
M189.001 748.002c25.333 0 48.6689 -8.00098 70.002 -24.001l27 -20c7.33301 -6 14.166 -10.833 20.499 -14.5s13.166 -5.5 20.499 -5.5c10 0 17.167 3.66699 21.5 11s6.5 16.333 6.5 27v14h83c0.666992 -5.33301 1 -10.166 1 -14.499v-14.5
c0 -35.333 -9 -64.166 -27 -86.499s-42 -33.5 -72 -33.5c-23.333 0 -46.666 8 -69.999 24l-26 20c-8 6 -15 11 -21 15s-13 6 -21 6c-10 0 -17.167 -3.5 -21.5 -10.5s-6.5 -16.167 -6.5 -27.5v-14h-82c-1.33301 5.33301 -2 10.166 -2 14.499v14.5
c0 36 9.16699 64.833 27.5 86.5s42.166 32.5 71.499 32.5z" />
    <glyph glyph-name="adieresis" unicode="&#xe4;" horiz-adv-x="536" 
d="M264 502c30 0 57.334 -4.33203 82.001 -12.999s45.834 -21.5 63.501 -38.5s31.5 -38.333 41.5 -64s15 -55.5 15 -89.5v-297h-98v55c-17.333 -20.667 -39.333 -36.834 -66 -48.501s-57 -17.5 -91 -17.5c-26 0 -49.5 3.33301 -70.5 10s-39 16.334 -54 29.001
s-26.5 27.667 -34.5 45s-12 36.666 -12 57.999c0 43.333 16.333 77.5 49 102.5s76.667 37.5 132 37.5h139v32c0 34 -9 60 -27 78s-44 27 -78 27c-28.667 0 -53.667 -6.33301 -75 -19s-42 -30.667 -62 -54l-60 62c25.333 36 55.666 62.5 90.999 79.5
s73.666 25.5 114.999 25.5zM233.001 70.001c17.333 0 33.666 2.83398 48.999 8.50098s28.833 13.667 40.5 24s20.834 22.666 27.501 36.999s10 29.833 10 46.5v9h-126c-28 0 -49.5 -5 -64.5 -15s-22.5 -25 -22.5 -45c0 -21.333 8.33301 -37.5 25 -48.5s37 -16.5 61 -16.5z
M377.001 740.002c18.667 0 34.5 -6.16699 47.5 -18.5s19.5 -28.166 19.5 -47.499c0 -17.333 -6.5 -32.5 -19.5 -45.5s-28.833 -19.5 -47.5 -19.5c-17.333 0 -33 6.5 -47 19.5s-21 28.167 -21 45.5c0 19.333 7 35.166 21 47.499s29.667 18.5 47 18.5zM152.001 740.002
c18.667 0 34.5 -6.16699 47.5 -18.5s19.5 -28.166 19.5 -47.499c0 -17.333 -6.5 -32.5 -19.5 -45.5s-28.833 -19.5 -47.5 -19.5c-17.333 0 -33 6.5 -47 19.5s-21 28.167 -21 45.5c0 19.333 7 35.166 21 47.499s29.667 18.5 47 18.5z" />
    <glyph glyph-name="aring" unicode="&#xe5;" horiz-adv-x="536" 
d="M264 502c30 0 57.334 -4.33203 82.001 -12.999s45.834 -21.5 63.501 -38.5s31.5 -38.333 41.5 -64s15 -55.5 15 -89.5v-297h-98v55c-17.333 -20.667 -39.333 -36.834 -66 -48.501s-57 -17.5 -91 -17.5c-26 0 -49.5 3.33301 -70.5 10s-39 16.334 -54 29.001
s-26.5 27.667 -34.5 45s-12 36.666 -12 57.999c0 43.333 16.333 77.5 49 102.5s76.667 37.5 132 37.5h139v32c0 34 -9 60 -27 78s-44 27 -78 27c-28.667 0 -53.667 -6.33301 -75 -19s-42 -30.667 -62 -54l-60 62c25.333 36 55.666 62.5 90.999 79.5
s73.666 25.5 114.999 25.5zM233.001 70.001c17.333 0 33.666 2.83398 48.999 8.50098s28.833 13.667 40.5 24s20.834 22.666 27.501 36.999s10 29.833 10 46.5v9h-126c-28 0 -49.5 -5 -64.5 -15s-22.5 -25 -22.5 -45c0 -21.333 8.33301 -37.5 25 -48.5s37 -16.5 61 -16.5z
M264.001 785.002c17.333 0 33.333 -3 48 -9s27.167 -14.167 37.5 -24.5s18.5 -22.666 24.5 -36.999s9 -29.5 9 -45.5s-3 -31 -9 -45s-14.167 -26.167 -24.5 -36.5s-22.833 -18.5 -37.5 -24.5s-30.667 -9 -48 -9s-33.166 3 -47.499 9s-26.666 14.167 -36.999 24.5
s-18.5 22.5 -24.5 36.5s-9 29 -9 45s3 31.167 9 45.5s14.167 26.666 24.5 36.999s22.666 18.5 36.999 24.5s30.166 9 47.499 9zM265.001 716.002c-13.333 0 -24.333 -4.5 -33 -13.5s-13 -20.167 -13 -33.5s4.33301 -24.166 13 -32.499s19.667 -12.5 33 -12.5
c12.667 0 23.334 4.16699 32.001 12.5s13 19.166 13 32.499s-4.33301 24.5 -13 33.5s-19.334 13.5 -32.001 13.5z" />
    <glyph glyph-name="ae" unicode="&#xe6;" horiz-adv-x="887" 
d="M265 502c37.333 0 70.168 -7.16797 98.501 -21.501s50.5 -36.166 66.5 -65.499c21.333 26.667 48 47.834 80 63.501s67.333 23.5 106 23.5c32.667 0 62.834 -5.66699 90.501 -17s51.5 -27 71.5 -47s35.667 -43.833 47 -71.5s17 -57.834 17 -90.501
c0 -13.333 -0.833008 -26.833 -2.5 -40.5s-3.5 -24.167 -5.5 -31.5h-364c8 -38.667 26 -68.667 54 -90s62.667 -32 104 -32c28 0 53.5 5 76.5 15s44.833 24 65.5 42l51 -71c-26.667 -25.333 -56.334 -44.833 -89.001 -58.5s-68 -20.5 -106 -20.5
c-46.667 0 -88.167 9.66699 -124.5 29s-65.5 45.666 -87.5 78.999c-18 -36 -44.333 -63 -79 -81s-74 -27 -118 -27c-56.667 0 -100.334 13.5 -131.001 40.5s-46 61.5 -46 103.5c0 44.667 16.333 80.334 49 107.001s76.667 40 132 40h139v23c0 34 -9.16699 60 -27.5 78
s-43.833 27 -76.5 27c-28 0 -52.833 -6.5 -74.5 -19.5s-42.167 -30.833 -61.5 -53.5l-61 62c26 36 56.667 62.5 92 79.5s73.333 25.5 114 25.5zM612.002 412.999c-38 0 -69.999 -12.165 -95.999 -36.498s-42 -56.5 -48 -96.5h269
c1.33301 21.333 -1.16699 40.166 -7.5 56.499s-15.333 30.166 -27 41.499s-25.334 20 -41.001 26s-32.167 9 -49.5 9zM233.003 71.001c17.333 0 33.666 2.83203 48.999 8.49902s28.833 13.5 40.5 23.5s20.834 22 27.501 36s10 29.333 10 46v19h-126
c-28 0 -49.5 -5.16699 -64.5 -15.5s-22.5 -26.166 -22.5 -47.499c0 -23.333 8.33301 -40.833 25 -52.5s37 -17.5 61 -17.5z" />
    <glyph glyph-name="ccedilla" unicode="&#xe7;" horiz-adv-x="552" 
d="M305 502c46.667 0 87.666 -10.333 122.999 -31s63.666 -48.334 84.999 -83.001l-74 -58c-16.667 22.667 -35.5 40.834 -56.5 54.501s-46.5 20.5 -76.5 20.5c-22 0 -42.5 -4.16699 -61.5 -12.5s-35.167 -19.666 -48.5 -33.999s-23.833 -31.166 -31.5 -50.499
s-11.5 -40 -11.5 -62c0 -22.667 3.83301 -43.834 11.5 -63.501s18.167 -36.667 31.5 -51s29.5 -25.5 48.5 -33.5s39.5 -12 61.5 -12c30 0 55.333 6.66699 76 20s39.334 31.333 56.001 54l74 -57c-21.333 -34.667 -49.666 -62.334 -84.999 -83.001s-76 -31 -122 -31
c-36 0 -69.833 6.66699 -101.5 20s-59.334 31.5 -83.001 54.5s-42.167 50.167 -55.5 81.5s-20 65 -20 101s6.66699 69.5 20 100.5s31.833 58 55.5 81s51.334 41.167 83.001 54.5s65.5 20 101.5 20zM314.999 35c20 -10.667 36 -25.001 48 -43.001s18 -39 18 -63
c0 -16.667 -3.16699 -32.167 -9.5 -46.5s-15.666 -27 -27.999 -38s-27.333 -19.667 -45 -26s-37.834 -9.5 -60.501 -9.5c-12 0 -24.167 0.833008 -36.5 2.5s-23.833 3.83398 -34.5 6.50098v72c24.667 -2 44 -3 58 -3c20.667 0 37.5 4.83301 50.5 14.5s19.5 25.167 19.5 46.5
c0 13.333 -2.33301 25.5 -7 36.5s-10 20.833 -16 29.5z" />
    <glyph glyph-name="egrave" unicode="&#xe8;" horiz-adv-x="570" 
d="M299 502c32.667 0 62.999 -5.66602 90.999 -16.999s52 -27 72 -47s35.667 -43.833 47 -71.5s17 -57.5 17 -89.5c0 -13.333 -0.833008 -26 -2.5 -38s-3.5 -21.333 -5.5 -28h-366c7.33301 -40.667 25.333 -72.334 54 -95.001s64 -34 106 -34
c28.667 0 54.667 5.16699 78 15.5s45 24.5 65 42.5l51 -72c-26 -24.667 -55.333 -44 -88 -58s-68.667 -21 -108 -21c-38 0 -73.333 6.5 -106 19.5s-60.667 31 -84 54s-41.666 50.167 -54.999 81.5s-20 65 -20 101s6.5 69.667 19.5 101s31 58.5 54 81.5
s49.833 41.167 80.5 54.5s64 20 100 20zM295.999 413.001c-36 0 -66.6689 -10.833 -92.002 -32.5s-42 -50.834 -50 -87.501h267c-1.33301 38.667 -14.166 68.334 -38.499 89.001s-53.166 31 -86.499 31zM335.997 568.001h-78l-128 193v19h127z" />
    <glyph glyph-name="eacute" unicode="&#xe9;" horiz-adv-x="570" 
d="M299 502c32.667 0 62.999 -5.66602 90.999 -16.999s52 -27 72 -47s35.667 -43.833 47 -71.5s17 -57.5 17 -89.5c0 -13.333 -0.833008 -26 -2.5 -38s-3.5 -21.333 -5.5 -28h-366c7.33301 -40.667 25.333 -72.334 54 -95.001s64 -34 106 -34
c28.667 0 54.667 5.16699 78 15.5s45 24.5 65 42.5l51 -72c-26 -24.667 -55.333 -44 -88 -58s-68.667 -21 -108 -21c-38 0 -73.333 6.5 -106 19.5s-60.667 31 -84 54s-41.666 50.167 -54.999 81.5s-20 65 -20 101s6.5 69.667 19.5 101s31 58.5 54 81.5
s49.833 41.167 80.5 54.5s64 20 100 20zM295.999 413.001c-36 0 -66.6689 -10.833 -92.002 -32.5s-42 -50.834 -50 -87.501h267c-1.33301 38.667 -14.166 68.334 -38.499 89.001s-53.166 31 -86.499 31zM464.997 761.001l-128 -193h-78l79 212h127v-19z" />
    <glyph glyph-name="ecircumflex" unicode="&#xea;" horiz-adv-x="570" 
d="M299 502c32.667 0 62.999 -5.66602 90.999 -16.999s52 -27 72 -47s35.667 -43.833 47 -71.5s17 -57.5 17 -89.5c0 -13.333 -0.833008 -26 -2.5 -38s-3.5 -21.333 -5.5 -28h-366c7.33301 -40.667 25.333 -72.334 54 -95.001s64 -34 106 -34
c28.667 0 54.667 5.16699 78 15.5s45 24.5 65 42.5l51 -72c-26 -24.667 -55.333 -44 -88 -58s-68.667 -21 -108 -21c-38 0 -73.333 6.5 -106 19.5s-60.667 31 -84 54s-41.666 50.167 -54.999 81.5s-20 65 -20 101s6.5 69.667 19.5 101s31 58.5 54 81.5
s49.833 41.167 80.5 54.5s64 20 100 20zM295.999 413.001c-36 0 -66.6689 -10.833 -92.002 -32.5s-42 -50.834 -50 -87.501h267c-1.33301 38.667 -14.166 68.334 -38.499 89.001s-53.166 31 -86.499 31zM465.997 568.001h-79l-90 109l-90 -109h-79l135 212h68z" />
    <glyph glyph-name="edieresis" unicode="&#xeb;" horiz-adv-x="570" 
d="M299 502c32.667 0 62.999 -5.66602 90.999 -16.999s52 -27 72 -47s35.667 -43.833 47 -71.5s17 -57.5 17 -89.5c0 -13.333 -0.833008 -26 -2.5 -38s-3.5 -21.333 -5.5 -28h-366c7.33301 -40.667 25.333 -72.334 54 -95.001s64 -34 106 -34
c28.667 0 54.667 5.16699 78 15.5s45 24.5 65 42.5l51 -72c-26 -24.667 -55.333 -44 -88 -58s-68.667 -21 -108 -21c-38 0 -73.333 6.5 -106 19.5s-60.667 31 -84 54s-41.666 50.167 -54.999 81.5s-20 65 -20 101s6.5 69.667 19.5 101s31 58.5 54 81.5
s49.833 41.167 80.5 54.5s64 20 100 20zM295.999 413.001c-36 0 -66.6689 -10.833 -92.002 -32.5s-42 -50.834 -50 -87.501h267c-1.33301 38.667 -14.166 68.334 -38.499 89.001s-53.166 31 -86.499 31zM408.997 740.001c18.667 0 34.5 -6.16699 47.5 -18.5
s19.5 -28.166 19.5 -47.499c0 -17.333 -6.5 -32.5 -19.5 -45.5s-28.833 -19.5 -47.5 -19.5c-17.333 0 -33 6.5 -47 19.5s-21 28.167 -21 45.5c0 19.333 7 35.166 21 47.499s29.667 18.5 47 18.5zM183.997 740.001c18.667 0 34.5 -6.16699 47.5 -18.5
s19.5 -28.166 19.5 -47.499c0 -17.333 -6.5 -32.5 -19.5 -45.5s-28.833 -19.5 -47.5 -19.5c-17.333 0 -33 6.5 -47 19.5s-21 28.167 -21 45.5c0 19.333 7 35.166 21 47.499s29.667 18.5 47 18.5z" />
    <glyph glyph-name="igrave" unicode="&#xec;" horiz-adv-x="257" 
d="M181 0h-105v491h105v-491zM170 568h-78l-98 193v19h127z" />
    <glyph glyph-name="iacute" unicode="&#xed;" horiz-adv-x="257" 
d="M181 0h-105v491h105v-491zM265 761l-98 -193h-78l49 212h127v-19z" />
    <glyph glyph-name="icircumflex" unicode="&#xee;" horiz-adv-x="257" 
d="M181 0h-105v491h105v-491zM299 568h-79l-90 109l-90 -109h-79l135 212h68z" />
    <glyph glyph-name="idieresis" unicode="&#xef;" horiz-adv-x="257" 
d="M181 0h-105v491h105v-491zM231 740c18.667 0 34.5 -6.16699 47.5 -18.5s19.5 -28.166 19.5 -47.499c0 -17.333 -6.5 -32.5 -19.5 -45.5s-28.833 -19.5 -47.5 -19.5c-17.333 0 -33 6.5 -47 19.5s-21 28.167 -21 45.5c0 19.333 7 35.166 21 47.499s29.667 18.5 47 18.5z
M30 740c18.667 0 34.5 -6.16699 47.5 -18.5s19.5 -28.166 19.5 -47.499c0 -17.333 -6.5 -32.5 -19.5 -45.5s-28.833 -19.5 -47.5 -19.5c-18 0 -33.833 6.5 -47.5 19.5s-20.5 28.167 -20.5 45.5c0 19.333 6.83301 35.166 20.5 47.499s29.5 18.5 47.5 18.5z" />
    <glyph glyph-name="eth" unicode="&#xf0;" horiz-adv-x="571" 
d="M460 665l-141.003 -69.001l94 -126l44.5 -61c13.667 -19.333 25.667 -38.833 36 -58.5s18.333 -39.834 24 -60.501s8.5 -42.667 8.5 -66c0 -34 -6 -65.333 -18 -94s-28.667 -53.5 -50 -74.5s-46.666 -37.333 -75.999 -49s-61.333 -17.5 -96 -17.5
c-35.333 0 -67.666 5.83301 -96.999 17.5s-54.666 27.834 -75.999 48.501s-38 45 -50 73s-18 58 -18 90c0 32.667 6 62.834 18 90.501s28.333 51.5 49 71.5s44.834 35.5 72.501 46.5s57.167 16.5 88.5 16.5c11.333 0 22.666 -1 33.999 -3l-80 111l-143 -69l-37 76l129 63
l-59 82l79 58l71 -96l155 75zM284.997 352.999c-19.333 0 -37.166 -3.33203 -53.499 -9.99902s-30.333 -16 -42 -28s-20.834 -26.167 -27.501 -42.5s-10 -34.5 -10 -54.5c0 -39.333 12.333 -71.5 37 -96.5s56.667 -37.5 96 -37.5c19.333 0 37.166 3.33301 53.499 10
s30.5 16 42.5 28s21.333 26.167 28 42.5s10 34.5 10 54.5c0 19.333 -3.33301 37.166 -10 53.499s-16 30.5 -28 42.5s-26.167 21.333 -42.5 28s-34.166 10 -53.499 10z" />
    <glyph glyph-name="ntilde" unicode="&#xf1;" horiz-adv-x="575" 
d="M321 502c28.667 0 54.333 -4.83301 77 -14.5s42 -23 58 -40s28.167 -37.5 36.5 -61.5s12.5 -50.333 12.5 -79v-307h-106v293c0 34 -9.5 61.5 -28.5 82.5s-44.833 31.5 -77.5 31.5s-59.5 -10.5 -80.5 -31.5s-31.5 -48.5 -31.5 -82.5v-293h-105v491h97v-50
c17.333 19.333 38.5 34.333 63.5 45s53.167 16 84.5 16zM206.999 748c25.333 0 48.6689 -8.00098 70.002 -24.001l27 -20c7.33301 -6 14.166 -10.833 20.499 -14.5s13.166 -5.5 20.499 -5.5c10 0 17.167 3.66699 21.5 11s6.5 16.333 6.5 27v14h83
c0.666992 -5.33301 1 -10.166 1 -14.499v-14.5c0 -35.333 -9 -64.166 -27 -86.499s-42 -33.5 -72 -33.5c-23.333 0 -46.666 8 -69.999 24l-26 20c-8 6 -15 11 -21 15s-13 6 -21 6c-10 0 -17.167 -3.5 -21.5 -10.5s-6.5 -16.167 -6.5 -27.5v-14h-82
c-1.33301 5.33301 -2 10.166 -2 14.499v14.5c0 36 9.16699 64.833 27.5 86.5s42.166 32.5 71.499 32.5z" />
    <glyph glyph-name="ograve" unicode="&#xf2;" horiz-adv-x="609" 
d="M305 502c36 0 69.667 -6.66699 101 -20s58.833 -31.5 82.5 -54.5s42.334 -50 56.001 -81s20.5 -64.5 20.5 -100.5s-6.83301 -69.667 -20.5 -101s-32.334 -58.5 -56.001 -81.5s-51.334 -41.167 -83.001 -54.5s-65.5 -20 -101.5 -20s-69.667 6.66699 -101 20
s-58.833 31.5 -82.5 54.5s-42.167 50.167 -55.5 81.5s-20 65 -20 101s6.66699 69.5 20 100.5s31.833 58 55.5 81s51.334 41.167 83.001 54.5s65.5 20 101.5 20zM305 406c-22 0 -42.501 -4.16699 -61.501 -12.5s-35.167 -19.666 -48.5 -33.999s-23.666 -31.333 -30.999 -51
s-11 -40.834 -11 -63.501s3.66699 -43.667 11 -63s17.833 -36.166 31.5 -50.499s29.667 -25.5 48 -33.5s38.5 -12 60.5 -12s42.333 4 61 12s34.834 19.167 48.501 33.5s24.334 31.166 32.001 50.499s11.5 40.333 11.5 63s-3.83301 43.834 -11.5 63.501
s-18.334 36.667 -32.001 51s-29.834 25.666 -48.501 33.999s-38.667 12.5 -60 12.5zM343.999 568h-78l-128 193v19h127z" />
    <glyph glyph-name="oacute" unicode="&#xf3;" horiz-adv-x="609" 
d="M305 502c36 0 69.667 -6.66699 101 -20s58.833 -31.5 82.5 -54.5s42.334 -50 56.001 -81s20.5 -64.5 20.5 -100.5s-6.83301 -69.667 -20.5 -101s-32.334 -58.5 -56.001 -81.5s-51.334 -41.167 -83.001 -54.5s-65.5 -20 -101.5 -20s-69.667 6.66699 -101 20
s-58.833 31.5 -82.5 54.5s-42.167 50.167 -55.5 81.5s-20 65 -20 101s6.66699 69.5 20 100.5s31.833 58 55.5 81s51.334 41.167 83.001 54.5s65.5 20 101.5 20zM305 406c-22 0 -42.501 -4.16699 -61.501 -12.5s-35.167 -19.666 -48.5 -33.999s-23.666 -31.333 -30.999 -51
s-11 -40.834 -11 -63.501s3.66699 -43.667 11 -63s17.833 -36.166 31.5 -50.499s29.667 -25.5 48 -33.5s38.5 -12 60.5 -12s42.333 4 61 12s34.834 19.167 48.501 33.5s24.334 31.166 32.001 50.499s11.5 40.333 11.5 63s-3.83301 43.834 -11.5 63.501
s-18.334 36.667 -32.001 51s-29.834 25.666 -48.501 33.999s-38.667 12.5 -60 12.5zM472.999 761l-128 -193h-78l79 212h127v-19z" />
    <glyph glyph-name="ocircumflex" unicode="&#xf4;" horiz-adv-x="609" 
d="M305 502c36 0 69.667 -6.66699 101 -20s58.833 -31.5 82.5 -54.5s42.334 -50 56.001 -81s20.5 -64.5 20.5 -100.5s-6.83301 -69.667 -20.5 -101s-32.334 -58.5 -56.001 -81.5s-51.334 -41.167 -83.001 -54.5s-65.5 -20 -101.5 -20s-69.667 6.66699 -101 20
s-58.833 31.5 -82.5 54.5s-42.167 50.167 -55.5 81.5s-20 65 -20 101s6.66699 69.5 20 100.5s31.833 58 55.5 81s51.334 41.167 83.001 54.5s65.5 20 101.5 20zM305 406c-22 0 -42.501 -4.16699 -61.501 -12.5s-35.167 -19.666 -48.5 -33.999s-23.666 -31.333 -30.999 -51
s-11 -40.834 -11 -63.501s3.66699 -43.667 11 -63s17.833 -36.166 31.5 -50.499s29.667 -25.5 48 -33.5s38.5 -12 60.5 -12s42.333 4 61 12s34.834 19.167 48.501 33.5s24.334 31.166 32.001 50.499s11.5 40.333 11.5 63s-3.83301 43.834 -11.5 63.501
s-18.334 36.667 -32.001 51s-29.834 25.666 -48.501 33.999s-38.667 12.5 -60 12.5zM473.999 568h-79l-90 109l-90 -109h-79l135 212h68z" />
    <glyph glyph-name="otilde" unicode="&#xf5;" horiz-adv-x="609" 
d="M305 502c36 0 69.667 -6.66699 101 -20s58.833 -31.5 82.5 -54.5s42.334 -50 56.001 -81s20.5 -64.5 20.5 -100.5s-6.83301 -69.667 -20.5 -101s-32.334 -58.5 -56.001 -81.5s-51.334 -41.167 -83.001 -54.5s-65.5 -20 -101.5 -20s-69.667 6.66699 -101 20
s-58.833 31.5 -82.5 54.5s-42.167 50.167 -55.5 81.5s-20 65 -20 101s6.66699 69.5 20 100.5s31.833 58 55.5 81s51.334 41.167 83.001 54.5s65.5 20 101.5 20zM305 406c-22 0 -42.501 -4.16699 -61.501 -12.5s-35.167 -19.666 -48.5 -33.999s-23.666 -31.333 -30.999 -51
s-11 -40.834 -11 -63.501s3.66699 -43.667 11 -63s17.833 -36.166 31.5 -50.499s29.667 -25.5 48 -33.5s38.5 -12 60.5 -12s42.333 4 61 12s34.834 19.167 48.501 33.5s24.334 31.166 32.001 50.499s11.5 40.333 11.5 63s-3.83301 43.834 -11.5 63.501
s-18.334 36.667 -32.001 51s-29.834 25.666 -48.501 33.999s-38.667 12.5 -60 12.5zM228.999 748c25.333 0 48.6689 -8.00098 70.002 -24.001l27 -20c7.33301 -6 14.166 -10.833 20.499 -14.5s13.166 -5.5 20.499 -5.5c10 0 17.167 3.66699 21.5 11s6.5 16.333 6.5 27v14h83
c0.666992 -5.33301 1 -10.166 1 -14.499v-14.5c0 -35.333 -9 -64.166 -27 -86.499s-42 -33.5 -72 -33.5c-23.333 0 -46.666 8 -69.999 24l-26 20c-8 6 -15 11 -21 15s-13 6 -21 6c-10 0 -17.167 -3.5 -21.5 -10.5s-6.5 -16.167 -6.5 -27.5v-14h-82
c-1.33301 5.33301 -2 10.166 -2 14.499v14.5c0 36 9.16699 64.833 27.5 86.5s42.166 32.5 71.499 32.5z" />
    <glyph glyph-name="odieresis" unicode="&#xf6;" horiz-adv-x="609" 
d="M305 502c36 0 69.667 -6.66699 101 -20s58.833 -31.5 82.5 -54.5s42.334 -50 56.001 -81s20.5 -64.5 20.5 -100.5s-6.83301 -69.667 -20.5 -101s-32.334 -58.5 -56.001 -81.5s-51.334 -41.167 -83.001 -54.5s-65.5 -20 -101.5 -20s-69.667 6.66699 -101 20
s-58.833 31.5 -82.5 54.5s-42.167 50.167 -55.5 81.5s-20 65 -20 101s6.66699 69.5 20 100.5s31.833 58 55.5 81s51.334 41.167 83.001 54.5s65.5 20 101.5 20zM305 406c-22 0 -42.501 -4.16699 -61.501 -12.5s-35.167 -19.666 -48.5 -33.999s-23.666 -31.333 -30.999 -51
s-11 -40.834 -11 -63.501s3.66699 -43.667 11 -63s17.833 -36.166 31.5 -50.499s29.667 -25.5 48 -33.5s38.5 -12 60.5 -12s42.333 4 61 12s34.834 19.167 48.501 33.5s24.334 31.166 32.001 50.499s11.5 40.333 11.5 63s-3.83301 43.834 -11.5 63.501
s-18.334 36.667 -32.001 51s-29.834 25.666 -48.501 33.999s-38.667 12.5 -60 12.5zM416.999 740c18.667 0 34.5 -6.16699 47.5 -18.5s19.5 -28.166 19.5 -47.499c0 -17.333 -6.5 -32.5 -19.5 -45.5s-28.833 -19.5 -47.5 -19.5c-17.333 0 -33 6.5 -47 19.5
s-21 28.167 -21 45.5c0 19.333 7 35.166 21 47.499s29.667 18.5 47 18.5zM191.999 740c18.667 0 34.5 -6.16699 47.5 -18.5s19.5 -28.166 19.5 -47.499c0 -17.333 -6.5 -32.5 -19.5 -45.5s-28.833 -19.5 -47.5 -19.5c-17.333 0 -33 6.5 -47 19.5s-21 28.167 -21 45.5
c0 19.333 7 35.166 21 47.499s29.667 18.5 47 18.5z" />
    <glyph glyph-name="divide" unicode="&#xf7;" 
d="M278 564c18.667 0 34.667 -6.16699 48 -18.5s20 -27.833 20 -46.5c0 -18 -6.66699 -33.333 -20 -46s-29.333 -19 -48 -19c-19.333 0 -35.5 6.33301 -48.5 19s-19.5 28 -19.5 46c0 18.667 6.5 34.167 19.5 46.5s29.167 18.5 48.5 18.5zM278 199
c18.667 0 34.667 -6.16699 48 -18.5s20 -27.833 20 -46.5s-6.66699 -34.167 -20 -46.5s-29.333 -18.5 -48 -18.5c-19.333 0 -35.5 6.16699 -48.5 18.5s-19.5 27.833 -19.5 46.5s6.5 34.167 19.5 46.5s29.167 18.5 48.5 18.5zM508 272h-458v91h458v-91z" />
    <glyph glyph-name="oslash" unicode="&#xf8;" horiz-adv-x="617" 
d="M577 450l-56 -56.999c14.667 -20.667 26.167 -43.5 34.5 -68.5s12.5 -51.5 12.5 -79.5c0 -36 -6.83301 -69.5 -20.5 -100.5s-32.334 -58 -56.001 -81s-51.334 -41.167 -83.001 -54.5s-65.5 -20 -101.5 -20c-28 0 -54.167 3.83301 -78.5 11.5s-47.166 18.5 -68.499 32.5
l-56 -57l-64 64l55 55c-15.333 21.333 -27 44.666 -35 69.999s-12 52 -12 80c0 36 6.66699 69.667 20 101s31.833 58.5 55.5 81.5s51.334 41.167 83.001 54.5s65.5 20 101.5 20c28 0 54.333 -4 79 -12s47.667 -19 69 -33l57 56zM308 411.001
c-23.333 0 -44.833 -4.16699 -64.5 -12.5s-36.5 -19.833 -50.5 -34.5s-25 -32.167 -33 -52.5s-12 -42.5 -12 -66.5c0 -32 6.66699 -60.667 20 -86l227 227c-25.333 16.667 -54.333 25 -87 25zM468 245.001c0 31.333 -6.66895 59.667 -20.002 85l-228 -227
c24.667 -16.667 53.667 -25 87 -25c22.667 0 43.834 4.16699 63.501 12.5s36.834 20 51.501 35s26 32.667 34 53s12 42.5 12 66.5z" />
    <glyph glyph-name="ugrave" unicode="&#xf9;" horiz-adv-x="570" 
d="M500 206c0 -33.333 -5.5 -63.333 -16.5 -90s-26 -49.5 -45 -68.5s-41.667 -33.5 -68 -43.5s-54.5 -15 -84.5 -15c-30.667 0 -59 5 -85 15s-48.667 24.5 -68 43.5s-34.5 41.833 -45.5 68.5s-16.5 56.667 -16.5 90v285h105v-293c0 -34.667 10.667 -62 32 -82
s47.333 -30 78 -30c30 0 55.5 10 76.5 30s31.5 47.333 31.5 82v293h106v-285zM324 568h-78l-128 193v19h127z" />
    <glyph glyph-name="uacute" unicode="&#xfa;" horiz-adv-x="570" 
d="M500 206c0 -33.333 -5.5 -63.333 -16.5 -90s-26 -49.5 -45 -68.5s-41.667 -33.5 -68 -43.5s-54.5 -15 -84.5 -15c-30.667 0 -59 5 -85 15s-48.667 24.5 -68 43.5s-34.5 41.833 -45.5 68.5s-16.5 56.667 -16.5 90v285h105v-293c0 -34.667 10.667 -62 32 -82
s47.333 -30 78 -30c30 0 55.5 10 76.5 30s31.5 47.333 31.5 82v293h106v-285zM453 761l-128 -193h-78l79 212h127v-19z" />
    <glyph glyph-name="ucircumflex" unicode="&#xfb;" horiz-adv-x="570" 
d="M500 206c0 -33.333 -5.5 -63.333 -16.5 -90s-26 -49.5 -45 -68.5s-41.667 -33.5 -68 -43.5s-54.5 -15 -84.5 -15c-30.667 0 -59 5 -85 15s-48.667 24.5 -68 43.5s-34.5 41.833 -45.5 68.5s-16.5 56.667 -16.5 90v285h105v-293c0 -34.667 10.667 -62 32 -82
s47.333 -30 78 -30c30 0 55.5 10 76.5 30s31.5 47.333 31.5 82v293h106v-285zM454 568h-79l-90 109l-90 -109h-79l135 212h68z" />
    <glyph glyph-name="udieresis" unicode="&#xfc;" horiz-adv-x="570" 
d="M500 206c0 -33.333 -5.5 -63.333 -16.5 -90s-26 -49.5 -45 -68.5s-41.667 -33.5 -68 -43.5s-54.5 -15 -84.5 -15c-30.667 0 -59 5 -85 15s-48.667 24.5 -68 43.5s-34.5 41.833 -45.5 68.5s-16.5 56.667 -16.5 90v285h105v-293c0 -34.667 10.667 -62 32 -82
s47.333 -30 78 -30c30 0 55.5 10 76.5 30s31.5 47.333 31.5 82v293h106v-285zM397 740c18.667 0 34.5 -6.16699 47.5 -18.5s19.5 -28.166 19.5 -47.499c0 -17.333 -6.5 -32.5 -19.5 -45.5s-28.833 -19.5 -47.5 -19.5c-17.333 0 -33 6.5 -47 19.5s-21 28.167 -21 45.5
c0 19.333 7 35.166 21 47.499s29.667 18.5 47 18.5zM172 740c18.667 0 34.5 -6.16699 47.5 -18.5s19.5 -28.166 19.5 -47.499c0 -17.333 -6.5 -32.5 -19.5 -45.5s-28.833 -19.5 -47.5 -19.5c-17.333 0 -33 6.5 -47 19.5s-21 28.167 -21 45.5c0 19.333 7 35.166 21 47.499
s29.667 18.5 47 18.5z" />
    <glyph glyph-name="yacute" unicode="&#xfd;" horiz-adv-x="549" 
d="M291 -56c-20.667 -47.333 -45.501 -81.666 -74.501 -102.999s-64.5 -32 -106.5 -32c-13.333 0 -27 0.833008 -41 2.5s-27.333 4.16699 -40 7.5v89c12 -1.33301 22.667 -2.33301 32 -3s18.333 -1 27 -1c22.667 0 42.834 4.66699 60.501 14s33.167 28.666 46.5 57.999
l20 46l-196 469h113l140 -358l146 358h112zM440.999 761l-128 -193h-78l79 212h127v-19z" />
    <glyph glyph-name="thorn" unicode="&#xfe;" horiz-adv-x="631" 
d="M181 431c18.667 22.667 42.166 40.167 70.499 52.5s59.5 18.5 93.5 18.5c34.667 0 66.834 -6.5 96.501 -19.5s55.167 -31 76.5 -54s38 -50 50 -81s18 -64.833 18 -101.5s-6 -70.667 -18 -102s-28.833 -58.5 -50.5 -81.5s-47.167 -41 -76.5 -54s-61.333 -19.5 -96 -19.5
c-34 0 -65.167 6 -93.5 18s-51.833 29.333 -70.5 52v-239h-105v930h105v-319zM327.999 406c-18 0 -35.8369 -3.16797 -53.5039 -9.50098s-33.5 -16 -47.5 -29s-25.333 -29.5 -34 -49.5s-13 -44 -13 -72s4.16699 -52 12.5 -72s19.5 -36.667 33.5 -50
s29.833 -23.166 47.5 -29.499s35.834 -9.5 54.501 -9.5c20.667 0 40.167 3.83301 58.5 11.5s34.333 18.5 48 32.5s24.334 30.833 32.001 50.5s11.5 41.5 11.5 65.5s-3.83301 45.833 -11.5 65.5s-18.167 36.5 -31.5 50.5s-29.166 25 -47.499 33s-38.166 12 -59.499 12z" />
    <glyph glyph-name="ydieresis" unicode="&#xff;" horiz-adv-x="549" 
d="M291 -56c-20.667 -47.333 -45.501 -81.666 -74.501 -102.999s-64.5 -32 -106.5 -32c-13.333 0 -27 0.833008 -41 2.5s-27.333 4.16699 -40 7.5v89c12 -1.33301 22.667 -2.33301 32 -3s18.333 -1 27 -1c22.667 0 42.834 4.66699 60.501 14s33.167 28.666 46.5 57.999
l20 46l-196 469h113l140 -358l146 358h112zM384.999 740c18.667 0 34.5 -6.16699 47.5 -18.5s19.5 -28.166 19.5 -47.499c0 -17.333 -6.5 -32.5 -19.5 -45.5s-28.833 -19.5 -47.5 -19.5c-17.333 0 -33 6.5 -47 19.5s-21 28.167 -21 45.5c0 19.333 7 35.166 21 47.499
s29.667 18.5 47 18.5zM159.999 740c18.667 0 34.5 -6.16699 47.5 -18.5s19.5 -28.166 19.5 -47.499c0 -17.333 -6.5 -32.5 -19.5 -45.5s-28.833 -19.5 -47.5 -19.5c-17.333 0 -33 6.5 -47 19.5s-21 28.167 -21 45.5c0 19.333 7 35.166 21 47.499s29.667 18.5 47 18.5z" />
    <glyph glyph-name="Amacron" unicode="&#x100;" horiz-adv-x="662" 
d="M640 0h-114l-47 110h-297l-47 -110h-113l291 671h36zM220 201h220l-109 273zM485 762h-308v85h308v-85z" />
    <glyph glyph-name="amacron" unicode="&#x101;" horiz-adv-x="536" 
d="M264 502c30 0 57.334 -4.33203 82.001 -12.999s45.834 -21.5 63.501 -38.5s31.5 -38.333 41.5 -64s15 -55.5 15 -89.5v-297h-98v55c-17.333 -20.667 -39.333 -36.834 -66 -48.501s-57 -17.5 -91 -17.5c-26 0 -49.5 3.33301 -70.5 10s-39 16.334 -54 29.001
s-26.5 27.667 -34.5 45s-12 36.666 -12 57.999c0 43.333 16.333 77.5 49 102.5s76.667 37.5 132 37.5h139v32c0 34 -9 60 -27 78s-44 27 -78 27c-28.667 0 -53.667 -6.33301 -75 -19s-42 -30.667 -62 -54l-60 62c25.333 36 55.666 62.5 90.999 79.5
s73.666 25.5 114.999 25.5zM233.001 70.001c17.333 0 33.666 2.83398 48.999 8.50098s28.833 13.667 40.5 24s20.834 22.666 27.501 36.999s10 29.833 10 46.5v9h-126c-28 0 -49.5 -5 -64.5 -15s-22.5 -25 -22.5 -45c0 -21.333 8.33301 -37.5 25 -48.5s37 -16.5 61 -16.5z
M409.001 632.002h-288v84h288v-84z" />
    <glyph glyph-name="Abreve" unicode="&#x102;" horiz-adv-x="662" 
d="M640 0h-114l-47 110h-297l-47 -110h-113l291 671h36zM220 201h220l-109 273zM493 897c0 -23.333 -4 -44.833 -12 -64.5s-19.167 -36.834 -33.5 -51.501s-31.333 -26 -51 -34s-41.5 -12 -65.5 -12s-45.833 4 -65.5 12s-36.667 19.333 -51 34s-25.5 31.834 -33.5 51.501
s-12 41.167 -12 64.5h85c0 -25.333 7.33301 -45.333 22 -60s33 -22 55 -22c22.667 0 41.167 7.33301 55.5 22s21.5 34.667 21.5 60h85z" />
    <glyph glyph-name="abreve" unicode="&#x103;" horiz-adv-x="536" 
d="M264 502c30 0 57.334 -4.33203 82.001 -12.999s45.834 -21.5 63.501 -38.5s31.5 -38.333 41.5 -64s15 -55.5 15 -89.5v-297h-98v55c-17.333 -20.667 -39.333 -36.834 -66 -48.501s-57 -17.5 -91 -17.5c-26 0 -49.5 3.33301 -70.5 10s-39 16.334 -54 29.001
s-26.5 27.667 -34.5 45s-12 36.666 -12 57.999c0 43.333 16.333 77.5 49 102.5s76.667 37.5 132 37.5h139v32c0 34 -9 60 -27 78s-44 27 -78 27c-28.667 0 -53.667 -6.33301 -75 -19s-42 -30.667 -62 -54l-60 62c25.333 36 55.666 62.5 90.999 79.5
s73.666 25.5 114.999 25.5zM233.001 70.001c17.333 0 33.666 2.83398 48.999 8.50098s28.833 13.667 40.5 24s20.834 22.666 27.501 36.999s10 29.833 10 46.5v9h-126c-28 0 -49.5 -5 -64.5 -15s-22.5 -25 -22.5 -45c0 -21.333 8.33301 -37.5 25 -48.5s37 -16.5 61 -16.5z
M427.001 742.002c0 -23.333 -4.00098 -44.833 -12.001 -64.5s-19.167 -36.834 -33.5 -51.501s-31.333 -26 -51 -34s-41.5 -12 -65.5 -12s-45.833 4 -65.5 12s-36.667 19.333 -51 34s-25.5 31.834 -33.5 51.501s-12 41.167 -12 64.5h85c0 -25.333 7.33301 -45.333 22 -60
s33 -22 55 -22c22.667 0 41.334 7.33301 56.001 22s22 34.667 22 60h84z" />
    <glyph glyph-name="Aogonek" unicode="&#x104;" horiz-adv-x="662" 
d="M640 0h-114l-47 110h-297l-47 -110h-113l291 671h36zM220 201h220l-109 273zM641 0l-45.002 -29c-13.333 -8.66699 -24.166 -16.334 -32.499 -23.001s-12.5 -15.667 -12.5 -27c0 -22 14 -33 42 -33c6.66699 0 14.167 0.666992 22.5 2l25.5 4v-73
c-10 -3.33301 -22.167 -6.16602 -36.5 -8.49902s-28.5 -3.5 -42.5 -3.5c-35.333 0 -63.166 8.5 -83.499 25.5s-30.5 39.5 -30.5 67.5c0 14 2.83301 26.833 8.5 38.5s14.5 23.167 26.5 34.5s27.5 22.5 46.5 33.5s41.833 22.833 68.5 35.5z" />
    <glyph glyph-name="aogonek" unicode="&#x105;" horiz-adv-x="536" 
d="M264 502c30 0 57.334 -4.33203 82.001 -12.999s45.834 -21.5 63.501 -38.5s31.5 -38.333 41.5 -64s15 -55.5 15 -89.5v-297h-98v55c-17.333 -20.667 -39.333 -36.834 -66 -48.501s-57 -17.5 -91 -17.5c-26 0 -49.5 3.33301 -70.5 10s-39 16.334 -54 29.001
s-26.5 27.667 -34.5 45s-12 36.666 -12 57.999c0 43.333 16.333 77.5 49 102.5s76.667 37.5 132 37.5h139v32c0 34 -9 60 -27 78s-44 27 -78 27c-28.667 0 -53.667 -6.33301 -75 -19s-42 -30.667 -62 -54l-60 62c25.333 36 55.666 62.5 90.999 79.5
s73.666 25.5 114.999 25.5zM233.001 70.001c17.333 0 33.666 2.83398 48.999 8.50098s28.833 13.667 40.5 24s20.834 22.666 27.501 36.999s10 29.833 10 46.5v9h-126c-28 0 -49.5 -5 -64.5 -15s-22.5 -25 -22.5 -45c0 -21.333 8.33301 -37.5 25 -48.5s37 -16.5 61 -16.5z
M467.001 0.00195312l-45.002 -29c-13.333 -8.66699 -24.166 -16.334 -32.499 -23.001s-12.5 -15.667 -12.5 -27c0 -22 14 -33 42 -33c6.66699 0 14.167 0.666992 22.5 2l25.5 4v-73c-10 -3.33301 -22.167 -6.16602 -36.5 -8.49902s-28.5 -3.5 -42.5 -3.5
c-35.333 0 -63.166 8.5 -83.499 25.5s-30.5 39.5 -30.5 67.5c0 14 2.83301 26.833 8.5 38.5s14.5 23.167 26.5 34.5s27.5 22.5 46.5 33.5s41.833 22.833 68.5 35.5z" />
    <glyph glyph-name="Cacute" unicode="&#x106;" horiz-adv-x="717" 
d="M390 671c62 0 117.5 -13.832 166.5 -41.499s87.833 -64.5 116.5 -110.5l-80 -59c-23.333 36 -52 64 -86 84s-73 30 -117 30c-34 0 -65.5 -6.16699 -94.5 -18.5s-54.167 -29.333 -75.5 -51s-38 -47.334 -50 -77.001s-18 -62.167 -18 -97.5s6 -67.833 18 -97.5
s28.667 -55.334 50 -77.001s46.5 -38.667 75.5 -51s60.5 -18.5 94.5 -18.5c44 0 83 10 117 30s62.667 48 86 84l80 -59c-28 -46 -66.667 -82.833 -116 -110.5s-105 -41.5 -167 -41.5c-48.667 0 -94 8.66699 -136 26s-78.667 41.166 -110 71.499s-56 66.333 -74 108
s-27 86.834 -27 135.501c0 48 9 92.833 27 134.5s42.667 77.834 74 108.501s68 54.667 110 72s87.333 26 136 26zM556 891.001l-128 -167h-78l79 186h127v-19z" />
    <glyph glyph-name="cacute" unicode="&#x107;" horiz-adv-x="552" 
d="M305 502c46.667 0 87.666 -10.333 122.999 -31s63.666 -48.334 84.999 -83.001l-74 -58c-16.667 22.667 -35.5 40.834 -56.5 54.501s-46.5 20.5 -76.5 20.5c-22 0 -42.5 -4.16699 -61.5 -12.5s-35.167 -19.666 -48.5 -33.999s-23.833 -31.166 -31.5 -50.499
s-11.5 -40 -11.5 -62c0 -22.667 3.83301 -43.834 11.5 -63.501s18.167 -36.667 31.5 -51s29.5 -25.5 48.5 -33.5s39.5 -12 61.5 -12c30 0 55.333 6.66699 76 20s39.334 31.333 56.001 54l74 -57c-21.333 -34.667 -49.666 -62.334 -84.999 -83.001s-76 -31 -122 -31
c-36 0 -69.833 6.66699 -101.5 20s-59.334 31.5 -83.001 54.5s-42.167 50.167 -55.5 81.5s-20 65 -20 101s6.66699 69.5 20 100.5s31.833 58 55.5 81s51.334 41.167 83.001 54.5s65.5 20 101.5 20zM470.999 761l-128 -193h-78l79 212h127v-19z" />
    <glyph glyph-name="Ccircumflex" unicode="&#x108;" horiz-adv-x="717" 
d="M390 671c62 0 117.5 -13.832 166.5 -41.499s87.833 -64.5 116.5 -110.5l-80 -59c-23.333 36 -52 64 -86 84s-73 30 -117 30c-34 0 -65.5 -6.16699 -94.5 -18.5s-54.167 -29.333 -75.5 -51s-38 -47.334 -50 -77.001s-18 -62.167 -18 -97.5s6 -67.833 18 -97.5
s28.667 -55.334 50 -77.001s46.5 -38.667 75.5 -51s60.5 -18.5 94.5 -18.5c44 0 83 10 117 30s62.667 48 86 84l80 -59c-28 -46 -66.667 -82.833 -116 -110.5s-105 -41.5 -167 -41.5c-48.667 0 -94 8.66699 -136 26s-78.667 41.166 -110 71.499s-56 66.333 -74 108
s-27 86.834 -27 135.501c0 48 9 92.833 27 134.5s42.667 77.834 74 108.501s68 54.667 110 72s87.333 26 136 26zM572 724.001h-81l-101 93l-100 -93h-81l148 186h67z" />
    <glyph glyph-name="ccircumflex" unicode="&#x109;" horiz-adv-x="552" 
d="M305 502c46.667 0 87.666 -10.333 122.999 -31s63.666 -48.334 84.999 -83.001l-74 -58c-16.667 22.667 -35.5 40.834 -56.5 54.501s-46.5 20.5 -76.5 20.5c-22 0 -42.5 -4.16699 -61.5 -12.5s-35.167 -19.666 -48.5 -33.999s-23.833 -31.166 -31.5 -50.499
s-11.5 -40 -11.5 -62c0 -22.667 3.83301 -43.834 11.5 -63.501s18.167 -36.667 31.5 -51s29.5 -25.5 48.5 -33.5s39.5 -12 61.5 -12c30 0 55.333 6.66699 76 20s39.334 31.333 56.001 54l74 -57c-21.333 -34.667 -49.666 -62.334 -84.999 -83.001s-76 -31 -122 -31
c-36 0 -69.833 6.66699 -101.5 20s-59.334 31.5 -83.001 54.5s-42.167 50.167 -55.5 81.5s-20 65 -20 101s6.66699 69.5 20 100.5s31.833 58 55.5 81s51.334 41.167 83.001 54.5s65.5 20 101.5 20zM471.999 568h-79l-90 109l-90 -109h-79l135 212h68z" />
    <glyph glyph-name="Cdotaccent" unicode="&#x10a;" horiz-adv-x="717" 
d="M390 671c62 0 117.5 -13.832 166.5 -41.499s87.833 -64.5 116.5 -110.5l-80 -59c-23.333 36 -52 64 -86 84s-73 30 -117 30c-34 0 -65.5 -6.16699 -94.5 -18.5s-54.167 -29.333 -75.5 -51s-38 -47.334 -50 -77.001s-18 -62.167 -18 -97.5s6 -67.833 18 -97.5
s28.667 -55.334 50 -77.001s46.5 -38.667 75.5 -51s60.5 -18.5 94.5 -18.5c44 0 83 10 117 30s62.667 48 86 84l80 -59c-28 -46 -66.667 -82.833 -116 -110.5s-105 -41.5 -167 -41.5c-48.667 0 -94 8.66699 -136 26s-78.667 41.166 -110 71.499s-56 66.333 -74 108
s-27 86.834 -27 135.501c0 48 9 92.833 27 134.5s42.667 77.834 74 108.501s68 54.667 110 72s87.333 26 136 26zM391 882.001c19.333 0 36.166 -6.66699 50.499 -20s21.5 -30 21.5 -50c0 -19.333 -7.16699 -35.666 -21.5 -48.999s-31.166 -20 -50.499 -20
c-20 0 -37 6.66699 -51 20s-21 29.666 -21 48.999c0 20 7 36.667 21 50s31 20 51 20z" />
    <glyph glyph-name="cdotaccent" unicode="&#x10b;" horiz-adv-x="552" 
d="M305 502c46.667 0 87.666 -10.333 122.999 -31s63.666 -48.334 84.999 -83.001l-74 -58c-16.667 22.667 -35.5 40.834 -56.5 54.501s-46.5 20.5 -76.5 20.5c-22 0 -42.5 -4.16699 -61.5 -12.5s-35.167 -19.666 -48.5 -33.999s-23.833 -31.166 -31.5 -50.499
s-11.5 -40 -11.5 -62c0 -22.667 3.83301 -43.834 11.5 -63.501s18.167 -36.667 31.5 -51s29.5 -25.5 48.5 -33.5s39.5 -12 61.5 -12c30 0 55.333 6.66699 76 20s39.334 31.333 56.001 54l74 -57c-21.333 -34.667 -49.666 -62.334 -84.999 -83.001s-76 -31 -122 -31
c-36 0 -69.833 6.66699 -101.5 20s-59.334 31.5 -83.001 54.5s-42.167 50.167 -55.5 81.5s-20 65 -20 101s6.66699 69.5 20 100.5s31.833 58 55.5 81s51.334 41.167 83.001 54.5s65.5 20 101.5 20zM302.999 744c19.333 0 36.166 -6.83301 50.499 -20.5
s21.5 -30.167 21.5 -49.5s-7.16699 -35.666 -21.5 -48.999s-31.166 -20 -50.499 -20c-20 0 -37 6.66699 -51 20s-21 29.666 -21 48.999s7 35.833 21 49.5s31 20.5 51 20.5z" />
    <glyph glyph-name="Ccaron" unicode="&#x10c;" horiz-adv-x="717" 
d="M390 671c62 0 117.5 -13.832 166.5 -41.499s87.833 -64.5 116.5 -110.5l-80 -59c-23.333 36 -52 64 -86 84s-73 30 -117 30c-34 0 -65.5 -6.16699 -94.5 -18.5s-54.167 -29.333 -75.5 -51s-38 -47.334 -50 -77.001s-18 -62.167 -18 -97.5s6 -67.833 18 -97.5
s28.667 -55.334 50 -77.001s46.5 -38.667 75.5 -51s60.5 -18.5 94.5 -18.5c44 0 83 10 117 30s62.667 48 86 84l80 -59c-28 -46 -66.667 -82.833 -116 -110.5s-105 -41.5 -167 -41.5c-48.667 0 -94 8.66699 -136 26s-78.667 41.166 -110 71.499s-56 66.333 -74 108
s-27 86.834 -27 135.501c0 48 9 92.833 27 134.5s42.667 77.834 74 108.501s68 54.667 110 72s87.333 26 136 26zM424 724.001h-67l-148 186h81l100 -94l101 94h81z" />
    <glyph glyph-name="ccaron" unicode="&#x10d;" horiz-adv-x="552" 
d="M305 502c46.667 0 87.666 -10.333 122.999 -31s63.666 -48.334 84.999 -83.001l-74 -58c-16.667 22.667 -35.5 40.834 -56.5 54.501s-46.5 20.5 -76.5 20.5c-22 0 -42.5 -4.16699 -61.5 -12.5s-35.167 -19.666 -48.5 -33.999s-23.833 -31.166 -31.5 -50.499
s-11.5 -40 -11.5 -62c0 -22.667 3.83301 -43.834 11.5 -63.501s18.167 -36.667 31.5 -51s29.5 -25.5 48.5 -33.5s39.5 -12 61.5 -12c30 0 55.333 6.66699 76 20s39.334 31.333 56.001 54l74 -57c-21.333 -34.667 -49.666 -62.334 -84.999 -83.001s-76 -31 -122 -31
c-36 0 -69.833 6.66699 -101.5 20s-59.334 31.5 -83.001 54.5s-42.167 50.167 -55.5 81.5s-20 65 -20 101s6.66699 69.5 20 100.5s31.833 58 55.5 81s51.334 41.167 83.001 54.5s65.5 20 101.5 20zM336.999 568h-68l-135 212h79l90 -109l90 109h79z" />
    <glyph glyph-name="Dcaron" unicode="&#x10e;" horiz-adv-x="692" 
d="M289 660c54.667 0 104.167 -8 148.5 -24s82.166 -38.5 113.499 -67.5s55.5 -63.667 72.5 -104s25.5 -84.833 25.5 -133.5c0 -48 -8.5 -92.167 -25.5 -132.5s-41.167 -75.333 -72.5 -105s-69.166 -52.667 -113.499 -69s-93.833 -24.5 -148.5 -24.5h-206v660h206zM189 564
v-469h99c38.667 0 73.667 5.83301 105 17.5s57.666 28 78.999 49s37.833 46 49.5 75s17.5 60.5 17.5 94.5c0 35.333 -5.83301 67.333 -17.5 96s-28.167 53.167 -49.5 73.5s-47.666 36 -78.999 47s-66.333 16.5 -105 16.5h-99zM315 724h-67l-148 186h81l100 -94l101 94h81z
" />
    <glyph glyph-name="dcaron" unicode="&#x10f;" horiz-adv-x="631" 
d="M555 0l-97.999 0.000976562v69c-18.667 -25.333 -42.834 -45 -72.501 -59s-62.5 -21 -98.5 -21c-35.333 0 -67.666 6.5 -96.999 19.5s-54.666 31 -75.999 54s-38 50 -50 81s-18 64.833 -18 101.5s6 70.667 18 102s28.667 58.5 50 81.5s46.666 41 75.999 54
s61.666 19.5 96.999 19.5c34 0 65.167 -6.33301 93.5 -19s51.833 -30.334 70.5 -53.001v320h105v-750zM302.001 406.001c-21.333 0 -40.9961 -3.83203 -58.9961 -11.499s-33.833 -18.5 -47.5 -32.5s-24.334 -30.833 -32.001 -50.5s-11.5 -41.5 -11.5 -65.5
s3.83301 -45.833 11.5 -65.5s18.167 -36.5 31.5 -50.5s29.166 -25 47.499 -33s38.166 -12 59.499 -12c18 0 35.833 3 53.5 9s33.5 15.5 47.5 28.5s25.333 29.667 34 50s13 44.5 13 72.5s-4.16699 52 -12.5 72s-19.5 36.667 -33.5 50s-29.833 23.166 -47.5 29.499
s-35.834 9.5 -54.501 9.5zM725.005 542.002h-76l9 208h111z" />
    <glyph glyph-name="Dcroat" unicode="&#x110;" horiz-adv-x="692" 
d="M289 660c54.667 0 104.167 -8 148.5 -24s82.166 -38.5 113.499 -67.5s55.5 -63.667 72.5 -104s25.5 -84.833 25.5 -133.5c0 -48 -8.5 -92.167 -25.5 -132.5s-41.167 -75.333 -72.5 -105s-69.166 -52.667 -113.499 -69s-93.833 -24.5 -148.5 -24.5h-206v265h-88v90h88v305
h206zM189 564v-209h120v-90h-120v-170h99c38.667 0 73.667 5.83301 105 17.5s57.666 28 78.999 49s37.833 46 49.5 75s17.5 60.5 17.5 94.5c0 35.333 -5.83301 67.333 -17.5 96s-28.167 53.167 -49.5 73.5s-47.666 36 -78.999 47s-66.333 16.5 -105 16.5h-99z" />
    <glyph glyph-name="dcroat" unicode="&#x111;" horiz-adv-x="635" 
d="M634 567h-79.998v-567h-98v70c-18.667 -25.333 -43.334 -45.166 -74.001 -59.499s-64.334 -21.5 -101.001 -21.5c-33.333 0 -64.5 6.16699 -93.5 18.5s-54.167 29.333 -75.5 51s-38 47.5 -50 77.5s-18 62.667 -18 98s6 68.166 18 98.499s28.667 56.5 50 78.5
s46.333 39.167 75 51.5s60 18.5 94 18.5c34.667 0 66.5 -6.5 95.5 -19.5s53.167 -31.167 72.5 -54.5v160h-212v86h212v97h105v-97h80v-86zM302.002 389c-21.333 0 -40.9961 -3.66602 -58.9961 -10.999s-33.833 -17.833 -47.5 -31.5s-24.334 -30 -32.001 -49
s-11.5 -40.167 -11.5 -63.5s3.83301 -44.333 11.5 -63s18.167 -34.834 31.5 -48.501s29.166 -24.167 47.499 -31.5s38.166 -11 59.499 -11c18 0 35.833 2.83301 53.5 8.5s33.5 14.834 47.5 27.501s25.333 28.667 34 48s13 42.666 13 69.999s-4.16699 50.833 -12.5 70.5
s-19.5 35.667 -33.5 48s-29.833 21.5 -47.5 27.5s-35.834 9 -54.501 9z" />
    <glyph glyph-name="Emacron" unicode="&#x112;" horiz-adv-x="569" 
d="M517 565h-328v-169h246v-92h-246v-209h340v-95h-446v660h434v-95zM453 762h-308v85h308v-85z" />
    <glyph glyph-name="emacron" unicode="&#x113;" horiz-adv-x="570" 
d="M299 502c32.667 0 62.999 -5.66602 90.999 -16.999s52 -27 72 -47s35.667 -43.833 47 -71.5s17 -57.5 17 -89.5c0 -13.333 -0.833008 -26 -2.5 -38s-3.5 -21.333 -5.5 -28h-366c7.33301 -40.667 25.333 -72.334 54 -95.001s64 -34 106 -34
c28.667 0 54.667 5.16699 78 15.5s45 24.5 65 42.5l51 -72c-26 -24.667 -55.333 -44 -88 -58s-68.667 -21 -108 -21c-38 0 -73.333 6.5 -106 19.5s-60.667 31 -84 54s-41.666 50.167 -54.999 81.5s-20 65 -20 101s6.5 69.667 19.5 101s31 58.5 54 81.5
s49.833 41.167 80.5 54.5s64 20 100 20zM295.999 413.001c-36 0 -66.6689 -10.833 -92.002 -32.5s-42 -50.834 -50 -87.501h267c-1.33301 38.667 -14.166 68.334 -38.499 89.001s-53.166 31 -86.499 31zM440.997 632.001h-288v84h288v-84z" />
    <glyph glyph-name="Ebreve" unicode="&#x114;" horiz-adv-x="569" 
d="M517 565h-328v-169h246v-92h-246v-209h340v-95h-446v660h434v-95zM461 897c0 -23.333 -4 -44.833 -12 -64.5s-19.167 -36.834 -33.5 -51.501s-31.333 -26 -51 -34s-41.5 -12 -65.5 -12s-45.833 4 -65.5 12s-36.667 19.333 -51 34s-25.5 31.834 -33.5 51.501
s-12 41.167 -12 64.5h85c0 -25.333 7.33301 -45.333 22 -60s33 -22 55 -22c22.667 0 41.167 7.33301 55.5 22s21.5 34.667 21.5 60h85z" />
    <glyph glyph-name="ebreve" unicode="&#x115;" horiz-adv-x="570" 
d="M299 502c32.667 0 62.999 -5.66602 90.999 -16.999s52 -27 72 -47s35.667 -43.833 47 -71.5s17 -57.5 17 -89.5c0 -13.333 -0.833008 -26 -2.5 -38s-3.5 -21.333 -5.5 -28h-366c7.33301 -40.667 25.333 -72.334 54 -95.001s64 -34 106 -34
c28.667 0 54.667 5.16699 78 15.5s45 24.5 65 42.5l51 -72c-26 -24.667 -55.333 -44 -88 -58s-68.667 -21 -108 -21c-38 0 -73.333 6.5 -106 19.5s-60.667 31 -84 54s-41.666 50.167 -54.999 81.5s-20 65 -20 101s6.5 69.667 19.5 101s31 58.5 54 81.5
s49.833 41.167 80.5 54.5s64 20 100 20zM295.999 413.001c-36 0 -66.6689 -10.833 -92.002 -32.5s-42 -50.834 -50 -87.501h267c-1.33301 38.667 -14.166 68.334 -38.499 89.001s-53.166 31 -86.499 31zM458.997 742.001c0 -23.333 -4.00098 -44.833 -12.001 -64.5
s-19.167 -36.834 -33.5 -51.501s-31.333 -26 -51 -34s-41.5 -12 -65.5 -12s-45.833 4 -65.5 12s-36.667 19.333 -51 34s-25.5 31.834 -33.5 51.501s-12 41.167 -12 64.5h85c0 -25.333 7.33301 -45.333 22 -60s33 -22 55 -22c22.667 0 41.334 7.33301 56.001 22
s22 34.667 22 60h84z" />
    <glyph glyph-name="Edotaccent" unicode="&#x116;" horiz-adv-x="569" 
d="M517 565h-328v-169h246v-92h-246v-209h340v-95h-446v660h434v-95zM299 882c19.333 0 36.166 -6.66699 50.499 -20s21.5 -30 21.5 -50c0 -19.333 -7.16699 -35.666 -21.5 -48.999s-31.166 -20 -50.499 -20c-20 0 -37 6.66699 -51 20s-21 29.666 -21 48.999
c0 20 7 36.667 21 50s31 20 51 20z" />
    <glyph glyph-name="edotaccent" unicode="&#x117;" horiz-adv-x="570" 
d="M299 502c32.667 0 62.999 -5.66602 90.999 -16.999s52 -27 72 -47s35.667 -43.833 47 -71.5s17 -57.5 17 -89.5c0 -13.333 -0.833008 -26 -2.5 -38s-3.5 -21.333 -5.5 -28h-366c7.33301 -40.667 25.333 -72.334 54 -95.001s64 -34 106 -34
c28.667 0 54.667 5.16699 78 15.5s45 24.5 65 42.5l51 -72c-26 -24.667 -55.333 -44 -88 -58s-68.667 -21 -108 -21c-38 0 -73.333 6.5 -106 19.5s-60.667 31 -84 54s-41.666 50.167 -54.999 81.5s-20 65 -20 101s6.5 69.667 19.5 101s31 58.5 54 81.5
s49.833 41.167 80.5 54.5s64 20 100 20zM295.999 413.001c-36 0 -66.6689 -10.833 -92.002 -32.5s-42 -50.834 -50 -87.501h267c-1.33301 38.667 -14.166 68.334 -38.499 89.001s-53.166 31 -86.499 31zM296.997 744.001c19.333 0 36.166 -6.83301 50.499 -20.5
s21.5 -30.167 21.5 -49.5s-7.16699 -35.666 -21.5 -48.999s-31.166 -20 -50.499 -20c-20 0 -37 6.66699 -51 20s-21 29.666 -21 48.999s7 35.833 21 49.5s31 20.5 51 20.5z" />
    <glyph glyph-name="Eogonek" unicode="&#x118;" horiz-adv-x="569" 
d="M517 565h-328v-169h246v-92h-246v-209h340v-95h-446v660h434v-95zM530 0l-45.002 -29c-13.333 -8.66699 -24.166 -16.334 -32.499 -23.001s-12.5 -15.667 -12.5 -27c0 -22 14 -33 42 -33c6.66699 0 14.167 0.666992 22.5 2l25.5 4v-73
c-10 -3.33301 -22.167 -6.16602 -36.5 -8.49902s-28.5 -3.5 -42.5 -3.5c-35.333 0 -63.166 8.5 -83.499 25.5s-30.5 39.5 -30.5 67.5c0 14 2.83301 26.833 8.5 38.5s14.5 23.167 26.5 34.5s27.5 22.5 46.5 33.5s41.833 22.833 68.5 35.5z" />
    <glyph glyph-name="eogonek" unicode="&#x119;" horiz-adv-x="570" 
d="M299 502c32.667 0 62.998 -5.66602 90.998 -16.999s52 -27 72 -47s35.667 -43.833 47 -71.5s17 -57.5 17 -89.5c0 -13.333 -0.833008 -26 -2.5 -38s-3.5 -21.333 -5.5 -28h-366c7.33301 -40.667 25.333 -72.334 54 -95.001s64 -34 106 -34c28.667 0 55 5.16699 79 15.5
s46 24.833 66 43.5l48 -72c-14.667 -15.333 -30 -28.333 -46 -39l-55 -36c-15.333 -10.667 -28.333 -21.5 -39 -32.5s-16 -23.5 -16 -37.5c0 -24.667 14.667 -37 44 -37c6.66699 0 14.167 0.666992 22.5 2s16.833 3 25.5 5v-71c-8.66699 -3.33301 -20 -6.5 -34 -9.5
s-28.667 -4.5 -44 -4.5c-35.333 0 -63.166 8.5 -83.499 25.5s-30.5 39.5 -30.5 67.5c0 32.667 16 61.667 48 87c-35.333 0.666992 -68.166 7.5 -98.499 20.5s-57 31 -80 54s-41 50 -54 81s-19.5 64.5 -19.5 100.5s6.5 69.667 19.5 101s31 58.5 54 81.5s50 41.167 81 54.5
s64.167 20 99.5 20zM295.998 413.001c-36 0 -66.6689 -10.833 -92.002 -32.5s-42 -50.834 -50 -87.501h267c-1.33301 38.667 -14.166 68.334 -38.499 89.001s-53.166 31 -86.499 31z" />
    <glyph glyph-name="Ecaron" unicode="&#x11a;" horiz-adv-x="569" 
d="M517 565h-328v-169h246v-92h-246v-209h340v-95h-446v660h434v-95zM332 724h-67l-148 186h81l100 -94l101 94h81z" />
    <glyph glyph-name="ecaron" unicode="&#x11b;" horiz-adv-x="570" 
d="M299 502c32.667 0 62.999 -5.66602 90.999 -16.999s52 -27 72 -47s35.667 -43.833 47 -71.5s17 -57.5 17 -89.5c0 -13.333 -0.833008 -26 -2.5 -38s-3.5 -21.333 -5.5 -28h-366c7.33301 -40.667 25.333 -72.334 54 -95.001s64 -34 106 -34
c28.667 0 54.667 5.16699 78 15.5s45 24.5 65 42.5l51 -72c-26 -24.667 -55.333 -44 -88 -58s-68.667 -21 -108 -21c-38 0 -73.333 6.5 -106 19.5s-60.667 31 -84 54s-41.666 50.167 -54.999 81.5s-20 65 -20 101s6.5 69.667 19.5 101s31 58.5 54 81.5
s49.833 41.167 80.5 54.5s64 20 100 20zM295.999 413.001c-36 0 -66.6689 -10.833 -92.002 -32.5s-42 -50.834 -50 -87.501h267c-1.33301 38.667 -14.166 68.334 -38.499 89.001s-53.166 31 -86.499 31zM330.997 568.001h-68l-135 212h79l90 -109l90 109h79z" />
    <glyph glyph-name="Gcircumflex" unicode="&#x11c;" horiz-adv-x="746" 
d="M391 671c58 0 110.168 -12.0029 156.501 -36.0029s85.166 -58 116.499 -102l-77 -63c-23.333 32.667 -51.333 58.167 -84 76.5s-70.334 27.5 -113.001 27.5c-35.333 0 -67.5 -6.16699 -96.5 -18.5s-54 -29.333 -75 -51s-37.333 -47.334 -49 -77.001
s-17.5 -61.834 -17.5 -96.501c0 -35.333 6 -68.166 18 -98.499s28.667 -56.5 50 -78.5s46.833 -39.167 76.5 -51.5s62.5 -18.5 98.5 -18.5c44.667 0 83.834 9.16699 117.501 27.5s60.5 42.5 80.5 72.5v71h-204v94h310v-186c-14.667 -26 -32.5 -49.667 -53.5 -71
s-44.667 -39.666 -71 -54.999s-55 -27.166 -86 -35.499s-63.5 -12.5 -97.5 -12.5c-49.333 0 -95.166 8.66699 -137.499 26s-79 41.333 -110 72s-55.5 66.834 -73.5 108.501s-27 86.5 -27 134.5s9 92.833 27 134.5s42.5 77.834 73.5 108.501s67.667 54.667 110 72
s88.166 26 137.499 26zM573.001 723.997h-81l-101 93l-100 -93h-81l148 186h67z" />
    <glyph glyph-name="gcircumflex" unicode="&#x11d;" horiz-adv-x="634" 
d="M286 502c37.333 0 71 -7.17188 101 -21.5049s54.333 -34.166 73 -59.499v70h98v-440c0 -39.333 -6 -74.166 -18 -104.499s-28.833 -55.666 -50.5 -75.999s-47.5 -35.666 -77.5 -45.999s-63.333 -15.5 -100 -15.5c-52.667 0 -98.667 9.33301 -138 28
s-72 40.334 -98 65.001l57 73c24.667 -19.333 50.667 -35.833 78 -49.5s59 -20.5 95 -20.5c44 0 79.5 11.5 106.5 34.5s40.5 58.167 40.5 105.5v35c-19.333 -22.667 -43.5 -40 -72.5 -52s-60.5 -18 -94.5 -18s-65.5 6 -94.5 18s-54.167 28.833 -75.5 50.5s-38 47.667 -50 78
s-18 63.5 -18 99.5s6 69.167 18 99.5s28.667 56.333 50 78s46.5 38.5 75.5 50.5s60.5 18 94.5 18zM306 407.995c-21.333 0 -41.001 -3.66992 -59.001 -11.0029s-33.833 -17.5 -47.5 -30.5s-24.334 -29 -32.001 -48s-11.5 -39.833 -11.5 -62.5
c0 -23.333 3.83301 -44.5 11.5 -63.5s18.334 -35.167 32.001 -48.5s29.5 -23.666 47.5 -30.999s37.667 -11 59 -11c18.667 0 36.834 3 54.501 9s33.5 15.333 47.5 28s25.167 28.834 33.5 48.501s12.5 42.834 12.5 69.501s-4.33301 49.5 -13 68.5s-20 34.667 -34 47
s-29.833 21.333 -47.5 27s-35.5 8.5 -53.5 8.5zM480.999 567.992h-79l-90 109l-90 -109h-79l135 212h68z" />
    <glyph glyph-name="Gbreve" unicode="&#x11e;" horiz-adv-x="746" 
d="M391 671c58 0 110.168 -12.0029 156.501 -36.0029s85.166 -58 116.499 -102l-77 -63c-23.333 32.667 -51.333 58.167 -84 76.5s-70.334 27.5 -113.001 27.5c-35.333 0 -67.5 -6.16699 -96.5 -18.5s-54 -29.333 -75 -51s-37.333 -47.334 -49 -77.001
s-17.5 -61.834 -17.5 -96.501c0 -35.333 6 -68.166 18 -98.499s28.667 -56.5 50 -78.5s46.833 -39.167 76.5 -51.5s62.5 -18.5 98.5 -18.5c44.667 0 83.834 9.16699 117.501 27.5s60.5 42.5 80.5 72.5v71h-204v94h310v-186c-14.667 -26 -32.5 -49.667 -53.5 -71
s-44.667 -39.666 -71 -54.999s-55 -27.166 -86 -35.499s-63.5 -12.5 -97.5 -12.5c-49.333 0 -95.166 8.66699 -137.499 26s-79 41.333 -110 72s-55.5 66.834 -73.5 108.501s-27 86.5 -27 134.5s9 92.833 27 134.5s42.5 77.834 73.5 108.501s67.667 54.667 110 72
s88.166 26 137.499 26zM554.001 896.997c0 -23.333 -4 -44.833 -12 -64.5s-19.167 -36.834 -33.5 -51.501s-31.333 -26 -51 -34s-41.5 -12 -65.5 -12s-45.833 4 -65.5 12s-36.667 19.333 -51 34s-25.5 31.834 -33.5 51.501s-12 41.167 -12 64.5h85
c0 -25.333 7.33301 -45.333 22 -60s33 -22 55 -22c22.667 0 41.167 7.33301 55.5 22s21.5 34.667 21.5 60h85z" />
    <glyph glyph-name="gbreve" unicode="&#x11f;" horiz-adv-x="634" 
d="M286 502c37.333 0 71 -7.17188 101 -21.5049s54.333 -34.166 73 -59.499v70h98v-440c0 -39.333 -6 -74.166 -18 -104.499s-28.833 -55.666 -50.5 -75.999s-47.5 -35.666 -77.5 -45.999s-63.333 -15.5 -100 -15.5c-52.667 0 -98.667 9.33301 -138 28
s-72 40.334 -98 65.001l57 73c24.667 -19.333 50.667 -35.833 78 -49.5s59 -20.5 95 -20.5c44 0 79.5 11.5 106.5 34.5s40.5 58.167 40.5 105.5v35c-19.333 -22.667 -43.5 -40 -72.5 -52s-60.5 -18 -94.5 -18s-65.5 6 -94.5 18s-54.167 28.833 -75.5 50.5s-38 47.667 -50 78
s-18 63.5 -18 99.5s6 69.167 18 99.5s28.667 56.333 50 78s46.5 38.5 75.5 50.5s60.5 18 94.5 18zM306 407.995c-21.333 0 -41.001 -3.66992 -59.001 -11.0029s-33.833 -17.5 -47.5 -30.5s-24.334 -29 -32.001 -48s-11.5 -39.833 -11.5 -62.5
c0 -23.333 3.83301 -44.5 11.5 -63.5s18.334 -35.167 32.001 -48.5s29.5 -23.666 47.5 -30.999s37.667 -11 59 -11c18.667 0 36.834 3 54.501 9s33.5 15.333 47.5 28s25.167 28.834 33.5 48.501s12.5 42.834 12.5 69.501s-4.33301 49.5 -13 68.5s-20 34.667 -34 47
s-29.833 21.333 -47.5 27s-35.5 8.5 -53.5 8.5zM473.999 741.992c0 -23.333 -4.00098 -44.833 -12.001 -64.5s-19.167 -36.834 -33.5 -51.501s-31.333 -26 -51 -34s-41.5 -12 -65.5 -12s-45.833 4 -65.5 12s-36.667 19.333 -51 34s-25.5 31.834 -33.5 51.501
s-12 41.167 -12 64.5h85c0 -25.333 7.33301 -45.333 22 -60s33 -22 55 -22c22.667 0 41.334 7.33301 56.001 22s22 34.667 22 60h84z" />
    <glyph glyph-name="Gdotaccent" unicode="&#x120;" horiz-adv-x="746" 
d="M391 671c58 0 110.168 -12.0029 156.501 -36.0029s85.166 -58 116.499 -102l-77 -63c-23.333 32.667 -51.333 58.167 -84 76.5s-70.334 27.5 -113.001 27.5c-35.333 0 -67.5 -6.16699 -96.5 -18.5s-54 -29.333 -75 -51s-37.333 -47.334 -49 -77.001
s-17.5 -61.834 -17.5 -96.501c0 -35.333 6 -68.166 18 -98.499s28.667 -56.5 50 -78.5s46.833 -39.167 76.5 -51.5s62.5 -18.5 98.5 -18.5c44.667 0 83.834 9.16699 117.501 27.5s60.5 42.5 80.5 72.5v71h-204v94h310v-186c-14.667 -26 -32.5 -49.667 -53.5 -71
s-44.667 -39.666 -71 -54.999s-55 -27.166 -86 -35.499s-63.5 -12.5 -97.5 -12.5c-49.333 0 -95.166 8.66699 -137.499 26s-79 41.333 -110 72s-55.5 66.834 -73.5 108.501s-27 86.5 -27 134.5s9 92.833 27 134.5s42.5 77.834 73.5 108.501s67.667 54.667 110 72
s88.166 26 137.499 26zM392.001 881.997c19.333 0 36.166 -6.66699 50.499 -20s21.5 -30 21.5 -50c0 -19.333 -7.16699 -35.666 -21.5 -48.999s-31.166 -20 -50.499 -20c-20 0 -37 6.66699 -51 20s-21 29.666 -21 48.999c0 20 7 36.667 21 50s31 20 51 20z" />
    <glyph glyph-name="gdotaccent" unicode="&#x121;" horiz-adv-x="634" 
d="M286 502c37.333 0 71 -7.17188 101 -21.5049s54.333 -34.166 73 -59.499v70h98v-440c0 -39.333 -6 -74.166 -18 -104.499s-28.833 -55.666 -50.5 -75.999s-47.5 -35.666 -77.5 -45.999s-63.333 -15.5 -100 -15.5c-52.667 0 -98.667 9.33301 -138 28
s-72 40.334 -98 65.001l57 73c24.667 -19.333 50.667 -35.833 78 -49.5s59 -20.5 95 -20.5c44 0 79.5 11.5 106.5 34.5s40.5 58.167 40.5 105.5v35c-19.333 -22.667 -43.5 -40 -72.5 -52s-60.5 -18 -94.5 -18s-65.5 6 -94.5 18s-54.167 28.833 -75.5 50.5s-38 47.667 -50 78
s-18 63.5 -18 99.5s6 69.167 18 99.5s28.667 56.333 50 78s46.5 38.5 75.5 50.5s60.5 18 94.5 18zM306 407.995c-21.333 0 -41.001 -3.66992 -59.001 -11.0029s-33.833 -17.5 -47.5 -30.5s-24.334 -29 -32.001 -48s-11.5 -39.833 -11.5 -62.5
c0 -23.333 3.83301 -44.5 11.5 -63.5s18.334 -35.167 32.001 -48.5s29.5 -23.666 47.5 -30.999s37.667 -11 59 -11c18.667 0 36.834 3 54.501 9s33.5 15.333 47.5 28s25.167 28.834 33.5 48.501s12.5 42.834 12.5 69.501s-4.33301 49.5 -13 68.5s-20 34.667 -34 47
s-29.833 21.333 -47.5 27s-35.5 8.5 -53.5 8.5zM311.999 743.992c19.333 0 36.166 -6.83301 50.499 -20.5s21.5 -30.167 21.5 -49.5s-7.16699 -35.666 -21.5 -48.999s-31.166 -20 -50.499 -20c-20 0 -37 6.66699 -51 20s-21 29.666 -21 48.999s7 35.833 21 49.5
s31 20.5 51 20.5z" />
    <glyph glyph-name="Gcommaaccent" unicode="&#x122;" horiz-adv-x="746" 
d="M391 671c58 0 110.168 -12.0029 156.501 -36.0029s85.166 -58 116.499 -102l-77 -63c-23.333 32.667 -51.333 58.167 -84 76.5s-70.334 27.5 -113.001 27.5c-35.333 0 -67.5 -6.16699 -96.5 -18.5s-54 -29.333 -75 -51s-37.333 -47.334 -49 -77.001
s-17.5 -61.834 -17.5 -96.501c0 -35.333 6 -68.166 18 -98.499s28.667 -56.5 50 -78.5s46.833 -39.167 76.5 -51.5s62.5 -18.5 98.5 -18.5c44.667 0 83.834 9.16699 117.501 27.5s60.5 42.5 80.5 72.5v71h-204v94h310v-186c-14.667 -26 -32.5 -49.667 -53.5 -71
s-44.667 -39.666 -71 -54.999s-55 -27.166 -86 -35.499s-63.5 -12.5 -97.5 -12.5c-49.333 0 -95.166 8.66699 -137.499 26s-79 41.333 -110 72s-55.5 66.834 -73.5 108.501s-27 86.5 -27 134.5s9 92.833 27 134.5s42.5 77.834 73.5 108.501s67.667 54.667 110 72
s88.166 26 137.499 26zM416.001 -220.003h-81l6 172h101z" />
    <glyph glyph-name="gcommaaccent" unicode="&#x123;" horiz-adv-x="634" 
d="M286 502c37.333 0 71 -7.17188 101 -21.5049s54.333 -34.166 73 -59.499v70h98v-440c0 -39.333 -6 -74.166 -18 -104.499s-28.833 -55.666 -50.5 -75.999s-47.5 -35.666 -77.5 -45.999s-63.333 -15.5 -100 -15.5c-52.667 0 -98.667 9.33301 -138 28
s-72 40.334 -98 65.001l57 73c24.667 -19.333 50.667 -35.833 78 -49.5s59 -20.5 95 -20.5c44 0 79.5 11.5 106.5 34.5s40.5 58.167 40.5 105.5v35c-19.333 -22.667 -43.5 -40 -72.5 -52s-60.5 -18 -94.5 -18s-65.5 6 -94.5 18s-54.167 28.833 -75.5 50.5s-38 47.667 -50 78
s-18 63.5 -18 99.5s6 69.167 18 99.5s28.667 56.333 50 78s46.5 38.5 75.5 50.5s60.5 18 94.5 18zM306 407.995c-21.333 0 -41.001 -3.66992 -59.001 -11.0029s-33.833 -17.5 -47.5 -30.5s-24.334 -29 -32.001 -48s-11.5 -39.833 -11.5 -62.5
c0 -23.333 3.83301 -44.5 11.5 -63.5s18.334 -35.167 32.001 -48.5s29.5 -23.666 47.5 -30.999s37.667 -11 59 -11c18.667 0 36.834 3 54.501 9s33.5 15.333 47.5 28s25.167 28.834 33.5 48.501s12.5 42.834 12.5 69.501s-4.33301 49.5 -13 68.5s-20 34.667 -34 47
s-29.833 21.333 -47.5 27s-35.5 8.5 -53.5 8.5zM360.999 567.992h-101l33 212h78z" />
    <glyph glyph-name="Hcircumflex" unicode="&#x124;" horiz-adv-x="711" 
d="M627 0h-106v302h-332v-302h-106v660h106v-263h332v263h106v-660zM536 724h-81l-101 93l-100 -93h-81l148 186h67z" />
    <glyph glyph-name="hcircumflex" unicode="&#x125;" horiz-adv-x="575" 
d="M181 441c16.667 19.333 36.8311 34.333 60.498 45s50.834 16 81.501 16c28 0 53.333 -4.83301 76 -14.5s41.834 -23 57.501 -40s27.667 -37.5 36 -61.5s12.5 -50.333 12.5 -79v-307h-106v292c0 34 -9.5 61.5 -28.5 82.5s-44.833 31.5 -77.5 31.5s-59.5 -10.5 -80.5 -31.5
s-31.5 -48.5 -31.5 -82.5v-292h-105v750h105v-309zM362.997 814h-81l-101 93l-100 -93h-81l148 186h67z" />
    <glyph glyph-name="Hbar" unicode="&#x126;" horiz-adv-x="725" 
d="M635 537h96v-89h-96v-448h-106v234h-332v-234h-106v448h-96v89h96v123h106v-123h332v123h106v-123zM196 448v-121h332v121h-332z" />
    <glyph glyph-name="hbar" unicode="&#x127;" horiz-adv-x="581" 
d="M383 565l-196.001 0.000976562v-144c16.667 19.333 36.834 34.166 60.501 44.499s50.5 15.5 80.5 15.5c28 0 53.333 -4.83301 76 -14.5s42 -23 58 -40s28.167 -37.667 36.5 -62s12.5 -50.833 12.5 -79.5v-285h-106v272c0 33.333 -9.5 60.333 -28.5 81
s-44.833 31 -77.5 31c-33.333 0 -60.333 -10.333 -81 -31s-31 -47.667 -31 -81v-272h-105v565h-81v90h81v95h105v-95h196v-90z" />
    <glyph glyph-name="Itilde" unicode="&#x128;" horiz-adv-x="272" 
d="M189 0h-106v660h106v-660zM57 890c24 0 48.001 -7.33594 72.001 -22.0029l33 -20l22 -12.5c6.66699 -3.66699 14 -5.5 22 -5.5c9.33301 0 16.333 3.33301 21 10s7 15 7 25v15h84c0.666992 -4.66699 1 -9.33398 1 -14.001v-15c0 -35.333 -9.33301 -63.666 -28 -84.999
s-42.334 -32 -71.001 -32c-12.667 0 -25.167 2 -37.5 6s-24.833 9.66699 -37.5 17l-31 18c-8 4.66699 -15.5 8.83398 -22.5 12.501s-14.167 5.5 -21.5 5.5c-9.33301 0 -16.333 -3.5 -21 -10.5s-7 -15.5 -7 -25.5v-13h-84c-0.666992 4.66699 -1.16699 9.33398 -1.5 14.001
s-0.5 9.66699 -0.5 15c0 34.667 9.5 62.834 28.5 84.501s43.167 32.5 72.5 32.5z" />
    <glyph glyph-name="itilde" unicode="&#x129;" horiz-adv-x="257" 
d="M181 0h-105v491h105v-491zM63 748c13.333 0 25.332 -2.33203 35.999 -6.99902s21 -11.334 31 -20.001l19 -18c7.33301 -6.66699 13.5 -11.5 18.5 -14.5s10.167 -4.5 15.5 -4.5c9.33301 0 16 3.66699 20 11s6 16.333 6 27v14h82
c0.666992 -3.33301 1.16699 -7.66602 1.5 -12.999s0.5 -10.666 0.5 -15.999c0 -34.667 -8.66699 -63.334 -26 -86.001s-40.333 -34 -69 -34c-13.333 0 -25.166 2.5 -35.499 7.5s-20.833 12.167 -31.5 21.5l-19 16c-7.33301 7.33301 -13.5 12.5 -18.5 15.5
s-10.167 4.5 -15.5 4.5c-10 0 -17 -3.83301 -21 -11.5s-6 -16.5 -6 -26.5v-14h-83c-0.666992 3.33301 -1.16699 7.5 -1.5 12.5s-0.5 10.167 -0.5 15.5c0 35.333 8.66699 64.166 26 86.499s41 33.5 71 33.5z" />
    <glyph glyph-name="Imacron" unicode="&#x12a;" horiz-adv-x="272" 
d="M189 0h-106v660h106v-660zM292 762h-308v85h308v-85z" />
    <glyph glyph-name="imacron" unicode="&#x12b;" horiz-adv-x="257" 
d="M181 0h-105v491h105v-491zM249 632h-238v85h238v-85z" />
    <glyph glyph-name="Ibreve" unicode="&#x12c;" horiz-adv-x="272" 
d="M189 0h-106v660h106v-660zM300 897c0 -23.333 -4 -44.833 -12 -64.5s-19.167 -36.834 -33.5 -51.501s-31.333 -26 -51 -34s-41.5 -12 -65.5 -12s-45.833 4 -65.5 12s-36.667 19.333 -51 34s-25.5 31.834 -33.5 51.501s-12 41.167 -12 64.5h85
c0 -25.333 7.33301 -45.333 22 -60s33 -22 55 -22c22.667 0 41.167 7.33301 55.5 22s21.5 34.667 21.5 60h85z" />
    <glyph glyph-name="ibreve" unicode="&#x12d;" horiz-adv-x="257" 
d="M181 0h-105v491h105v-491zM292 742c0 -23.333 -4.00098 -44.833 -12.001 -64.5s-19.167 -36.834 -33.5 -51.501s-31.333 -26 -51 -34s-41.5 -12 -65.5 -12s-45.833 4 -65.5 12s-36.667 19.333 -51 34s-25.5 31.834 -33.5 51.501s-12 41.167 -12 64.5h85
c0 -25.333 7.33301 -45.333 22 -60s33 -22 55 -22c22.667 0 41.334 7.33301 56.001 22s22 34.667 22 60h84z" />
    <glyph glyph-name="Iogonek" unicode="&#x12e;" horiz-adv-x="272" 
d="M189 0h-106v660h106v-660zM191 0l-45.002 -29c-13.333 -8.66699 -24.166 -16.334 -32.499 -23.001s-12.5 -15.667 -12.5 -27c0 -22 14 -33 42 -33c6.66699 0 14.167 0.666992 22.5 2l25.5 4v-73c-10 -3.33301 -22.167 -6.16602 -36.5 -8.49902s-28.5 -3.5 -42.5 -3.5
c-35.333 0 -63.166 8.5 -83.499 25.5s-30.5 39.5 -30.5 67.5c0 14 2.83301 26.833 8.5 38.5s14.5 23.167 26.5 34.5s27.5 22.5 46.5 33.5s41.833 22.833 68.5 35.5z" />
    <glyph glyph-name="iogonek" unicode="&#x12f;" horiz-adv-x="257" 
d="M181 0h-105v491h105v-491zM129 744c19.333 0 36.166 -6.83301 50.499 -20.5s21.5 -30.167 21.5 -49.5s-7.16699 -35.666 -21.5 -48.999s-31.166 -20 -50.499 -20c-20 0 -37 6.66699 -51 20s-21 29.666 -21 48.999s7 35.833 21 49.5s31 20.5 51 20.5zM183 0l-45.002 -29
c-13.333 -8.66699 -24.166 -16.334 -32.499 -23.001s-12.5 -15.667 -12.5 -27c0 -22 14 -33 42 -33c6.66699 0 14.167 0.666992 22.5 2l25.5 4v-73c-10 -3.33301 -22.167 -6.16602 -36.5 -8.49902s-28.5 -3.5 -42.5 -3.5c-35.333 0 -63.166 8.5 -83.499 25.5
s-30.5 39.5 -30.5 67.5c0 14 2.83301 26.833 8.5 38.5s14.5 23.167 26.5 34.5s27.5 22.5 46.5 33.5s41.833 22.833 68.5 35.5z" />
    <glyph glyph-name="Idotaccent" unicode="&#x130;" horiz-adv-x="272" 
d="M189 0h-106v660h106v-660zM137 882c19.333 0 36.166 -6.66699 50.499 -20s21.5 -30 21.5 -50c0 -19.333 -7.16699 -35.666 -21.5 -48.999s-31.166 -20 -50.499 -20c-20 0 -37 6.66699 -51 20s-21 29.666 -21 48.999c0 20 7 36.667 21 50s31 20 51 20z" />
    <glyph glyph-name="dotlessi" unicode="&#x131;" horiz-adv-x="257" 
d="M181 0h-105v491h105v-491z" />
    <glyph glyph-name="IJ" unicode="&#x132;" horiz-adv-x="653" 
d="M189 0h-106v660h106v-660zM570 164c0 -60.667 -16.833 -105 -50.5 -133s-78.834 -42 -135.501 -42c-17.333 0 -33.5 1 -48.5 3s-29.167 4.66699 -42.5 8v91c13.333 -1.33301 25.833 -2.5 37.5 -3.5s22.167 -1.5 31.5 -1.5c32.667 0 57.834 6.16699 75.501 18.5
s26.5 35.833 26.5 70.5v485h106v-496z" />
    <glyph glyph-name="ij" unicode="&#x133;" horiz-adv-x="514" 
d="M438 -20c0 -59.333 -16.165 -102.668 -48.498 -130.001s-74.5 -41 -126.5 -41c-26.667 0 -49.334 3 -68.001 9v89c8.66699 -1.33301 16.167 -2.16602 22.5 -2.49902s13.166 -0.5 20.499 -0.5c30 0 53.333 6.16699 70 18.5s25 34.5 25 66.5v502h105v-511zM386.002 743.998
c19.333 0 36.166 -6.83301 50.499 -20.5s21.5 -30.167 21.5 -49.5s-7.16699 -35.666 -21.5 -48.999s-31.166 -20 -50.499 -20c-20 0 -37 6.66699 -51 20s-21 29.666 -21 48.999s7 35.833 21 49.5s31 20.5 51 20.5zM181.002 -0.00195312h-105v491h105v-491zM129.002 743.998
c19.333 0 36.166 -6.83301 50.499 -20.5s21.5 -30.167 21.5 -49.5s-7.16699 -35.666 -21.5 -48.999s-31.166 -20 -50.499 -20c-20 0 -37 6.66699 -51 20s-21 29.666 -21 48.999s7 35.833 21 49.5s31 20.5 51 20.5z" />
    <glyph glyph-name="Jcircumflex" unicode="&#x134;" horiz-adv-x="381" 
d="M298 164c0 -60.667 -16.833 -105 -50.5 -133s-78.834 -42 -135.501 -42c-17.333 0 -33.5 1 -48.5 3s-29.167 4.66699 -42.5 8v91c13.333 -1.33301 25.833 -2.5 37.5 -3.5s22.167 -1.5 31.5 -1.5c32.667 0 57.834 6.16699 75.501 18.5s26.5 35.833 26.5 70.5v485h106v-496
zM413 724h-81l-101 93l-100 -93h-81l148 186h67z" />
    <glyph glyph-name="jcircumflex" unicode="&#x135;" horiz-adv-x="257" 
d="M181 -20c0 -59.333 -16.165 -102.668 -48.498 -130.001s-74.5 -41 -126.5 -41c-26.667 0 -49.334 3 -68.001 9v89c8.66699 -1.33301 16.167 -2.16602 22.5 -2.49902s13.166 -0.5 20.499 -0.5c30 0 53.333 6.16699 70 18.5s25 34.5 25 66.5v502h105v-511zM299.002 567.998
h-79l-90 109l-90 -109h-79l135 212h68z" />
    <glyph glyph-name="Kcommaaccent" unicode="&#x136;" horiz-adv-x="651" 
d="M324 351l305 -351h-131l-306 351l277 309h130zM189 0h-106v660h106v-660zM336 -220h-81l6 172h101z" />
    <glyph glyph-name="kcommaaccent" unicode="&#x137;" horiz-adv-x="533" 
d="M181 0h-105v750h105v-750zM308 274l216 -274h-126l-214 276l192 215h131zM293 -220h-81l6 172h101z" />
    <glyph glyph-name="Lacute" unicode="&#x139;" horiz-adv-x="515" 
d="M189 95h302v-95h-408v660h106v-565zM301 891l-128 -167h-78l79 186h127v-19z" />
    <glyph glyph-name="lacute" unicode="&#x13a;" horiz-adv-x="257" 
d="M181 0h-105v750h105v-750zM294 981l-128 -167h-78l79 186h127v-19z" />
    <glyph glyph-name="Lcommaaccent" unicode="&#x13b;" horiz-adv-x="515" 
d="M189 95h302v-95h-408v660h106v-565zM305 -220h-81l6 172h101z" />
    <glyph glyph-name="lcommaaccent" unicode="&#x13c;" horiz-adv-x="257" 
d="M181 0h-105v750h105v-750zM153 -220h-81l6 172h101z" />
    <glyph glyph-name="Lcaron" unicode="&#x13d;" horiz-adv-x="515" 
d="M189 95h302v-95h-408v660h106v-565zM438 513h-76l9 208h111z" />
    <glyph glyph-name="lcaron" unicode="&#x13e;" horiz-adv-x="257" 
d="M181 0h-105v750h105v-750zM348 542h-76l9 208h111z" />
    <glyph glyph-name="Ldot" unicode="&#x13f;" horiz-adv-x="515" 
d="M189 95h302v-95h-408v660h106v-565zM394 451c21.333 0 39.5 -7.33301 54.5 -22s22.5 -33.334 22.5 -56.001s-7.5 -41.167 -22.5 -55.5s-33.167 -21.5 -54.5 -21.5c-22 0 -40.5 7.16699 -55.5 21.5s-22.5 32.833 -22.5 55.5s7.5 41.334 22.5 56.001s33.5 22 55.5 22z" />
    <glyph glyph-name="ldot" unicode="&#x140;" horiz-adv-x="257" 
d="M181 0h-105v750h105v-750zM307 395c21.333 0 39.5 -7.33301 54.5 -22s22.5 -33.334 22.5 -56.001s-7.5 -41.167 -22.5 -55.5s-33.167 -21.5 -54.5 -21.5c-22 0 -40.5 7.16699 -55.5 21.5s-22.5 32.833 -22.5 55.5s7.5 41.334 22.5 56.001s33.5 22 55.5 22z" />
    <glyph glyph-name="Lslash" unicode="&#x141;" horiz-adv-x="515" 
d="M189 368l211 97v-99l-211 -96v-175h302v-95h-408v229l-75 -33v98l75 33v333h106v-292z" />
    <glyph glyph-name="lslash" unicode="&#x142;" horiz-adv-x="350" 
d="M305 359l-87 -40v-319h-105v280l-74 -34v99l74 34v371h105v-333l87 41v-99z" />
    <glyph glyph-name="Nacute" unicode="&#x143;" horiz-adv-x="711" 
d="M521 214v446h106v-671h-36l-402 457v-446h-106v671h36zM520 891l-128 -167h-78l79 186h127v-19z" />
    <glyph glyph-name="nacute" unicode="&#x144;" horiz-adv-x="575" 
d="M321 502c28.667 0 54.333 -4.83301 77 -14.5s42 -23 58 -40s28.167 -37.5 36.5 -61.5s12.5 -50.333 12.5 -79v-307h-106v293c0 34 -9.5 61.5 -28.5 82.5s-44.833 31.5 -77.5 31.5s-59.5 -10.5 -80.5 -31.5s-31.5 -48.5 -31.5 -82.5v-293h-105v491h97v-50
c17.333 19.333 38.5 34.333 63.5 45s53.167 16 84.5 16zM450.999 761l-128 -193h-78l79 212h127v-19z" />
    <glyph glyph-name="Ncommaaccent" unicode="&#x145;" horiz-adv-x="711" 
d="M521 214v446h106v-671h-36l-402 457v-446h-106v671h36zM379 -220h-81l6 172h101z" />
    <glyph glyph-name="ncommaaccent" unicode="&#x146;" horiz-adv-x="575" 
d="M321 502c28.667 0 54.333 -4.83301 77 -14.5s42 -23 58 -40s28.167 -37.5 36.5 -61.5s12.5 -50.333 12.5 -79v-307h-106v293c0 34 -9.5 61.5 -28.5 82.5s-44.833 31.5 -77.5 31.5s-59.5 -10.5 -80.5 -31.5s-31.5 -48.5 -31.5 -82.5v-293h-105v491h97v-50
c17.333 19.333 38.5 34.333 63.5 45s53.167 16 84.5 16zM314.999 -220h-81l6 172h101z" />
    <glyph glyph-name="Ncaron" unicode="&#x147;" horiz-adv-x="711" 
d="M521 214v446h106v-671h-36l-402 457v-446h-106v671h36zM388 724h-67l-148 186h81l100 -94l101 94h81z" />
    <glyph glyph-name="ncaron" unicode="&#x148;" horiz-adv-x="575" 
d="M321 502c28.667 0 54.333 -4.83301 77 -14.5s42 -23 58 -40s28.167 -37.5 36.5 -61.5s12.5 -50.333 12.5 -79v-307h-106v293c0 34 -9.5 61.5 -28.5 82.5s-44.833 31.5 -77.5 31.5s-59.5 -10.5 -80.5 -31.5s-31.5 -48.5 -31.5 -82.5v-293h-105v491h97v-50
c17.333 19.333 38.5 34.333 63.5 45s53.167 16 84.5 16zM316.999 568h-68l-135 212h79l90 -109l90 109h79z" />
    <glyph glyph-name="Eng" unicode="&#x14a;" horiz-adv-x="711" 
d="M521 175l0.000976562 484.998h106v-680c0 -59.333 -16.167 -102.666 -48.5 -129.999s-74.5 -41 -126.5 -41c-26.667 0 -49.334 3 -68.001 9v89c8.66699 -1.33301 16.167 -2.16602 22.5 -2.49902s13.5 -0.5 21.5 -0.5c30 0 53 6.16699 69 18.5s24 34.5 24 66.5v30
l-332 412v-431h-106v671h36z" />
    <glyph glyph-name="eng" unicode="&#x14b;" horiz-adv-x="575" 
d="M321 502c28.667 0 54.334 -4.83398 77.001 -14.501s42 -23 58 -40s28.167 -37.5 36.5 -61.5s12.5 -50.333 12.5 -79v-327c0 -59.333 -16.167 -102.666 -48.5 -129.999s-74.5 -41 -126.5 -41c-26.667 0 -49.334 3 -68.001 9v89c16 -2 30 -3 42 -3c30 0 53.333 6 70 18
s25 34.333 25 67v303c0 34 -9.5 61.5 -28.5 82.5s-44.833 31.5 -77.5 31.5s-59.5 -10.5 -80.5 -31.5s-31.5 -48.5 -31.5 -82.5v-292h-105v491h97v-50c17.333 19.333 38.5 34.333 63.5 45s53.167 16 84.5 16z" />
    <glyph glyph-name="Omacron" unicode="&#x14c;" horiz-adv-x="780" 
d="M389 671c48 0 93 -8.66797 135 -26.001s78.667 -41.333 110 -72s56.166 -66.834 74.499 -108.501s27.5 -86.5 27.5 -134.5c0 -48.667 -9.16699 -93.834 -27.5 -135.501s-43.166 -77.667 -74.499 -108s-68 -54.166 -110 -71.499s-87 -26 -135 -26
s-93.167 8.66699 -135.5 26s-79 41.333 -110 72s-55.5 66.834 -73.5 108.501s-27 86.5 -27 134.5s9 92.833 27 134.5s42.667 77.834 74 108.501s68 54.667 110 72s87 26 135 26zM390 573.999c-34 0 -65.5 -6.16992 -94.5 -18.5029s-54 -29.166 -75 -50.499
s-37.5 -47 -49.5 -77s-18 -62.333 -18 -97c0 -35.333 6 -68 18 -98s28.5 -55.833 49.5 -77.5s46 -38.667 75 -51s60.5 -18.5 94.5 -18.5s65.333 6.16699 94 18.5s53.667 29.333 75 51s38 47.5 50 77.5s18 62.667 18 98c0 34.667 -6 66.834 -18 96.501
s-28.667 55.334 -50 77.001s-46.333 38.667 -75 51s-60 18.5 -94 18.5zM544 761.996h-308v85h308v-85z" />
    <glyph glyph-name="omacron" unicode="&#x14d;" horiz-adv-x="609" 
d="M305 502c36 0 69.667 -6.66699 101 -20s58.833 -31.5 82.5 -54.5s42.334 -50 56.001 -81s20.5 -64.5 20.5 -100.5s-6.83301 -69.667 -20.5 -101s-32.334 -58.5 -56.001 -81.5s-51.334 -41.167 -83.001 -54.5s-65.5 -20 -101.5 -20s-69.667 6.66699 -101 20
s-58.833 31.5 -82.5 54.5s-42.167 50.167 -55.5 81.5s-20 65 -20 101s6.66699 69.5 20 100.5s31.833 58 55.5 81s51.334 41.167 83.001 54.5s65.5 20 101.5 20zM305 406c-22 0 -42.501 -4.16699 -61.501 -12.5s-35.167 -19.666 -48.5 -33.999s-23.666 -31.333 -30.999 -51
s-11 -40.834 -11 -63.501s3.66699 -43.667 11 -63s17.833 -36.166 31.5 -50.499s29.667 -25.5 48 -33.5s38.5 -12 60.5 -12s42.333 4 61 12s34.834 19.167 48.501 33.5s24.334 31.166 32.001 50.499s11.5 40.333 11.5 63s-3.83301 43.834 -11.5 63.501
s-18.334 36.667 -32.001 51s-29.834 25.666 -48.501 33.999s-38.667 12.5 -60 12.5zM448.999 632h-288v84h288v-84z" />
    <glyph glyph-name="Obreve" unicode="&#x14e;" horiz-adv-x="780" 
d="M389 671c48 0 93 -8.66797 135 -26.001s78.667 -41.333 110 -72s56.166 -66.834 74.499 -108.501s27.5 -86.5 27.5 -134.5c0 -48.667 -9.16699 -93.834 -27.5 -135.501s-43.166 -77.667 -74.499 -108s-68 -54.166 -110 -71.499s-87 -26 -135 -26
s-93.167 8.66699 -135.5 26s-79 41.333 -110 72s-55.5 66.834 -73.5 108.501s-27 86.5 -27 134.5s9 92.833 27 134.5s42.667 77.834 74 108.501s68 54.667 110 72s87 26 135 26zM390 573.999c-34 0 -65.5 -6.16992 -94.5 -18.5029s-54 -29.166 -75 -50.499
s-37.5 -47 -49.5 -77s-18 -62.333 -18 -97c0 -35.333 6 -68 18 -98s28.5 -55.833 49.5 -77.5s46 -38.667 75 -51s60.5 -18.5 94.5 -18.5s65.333 6.16699 94 18.5s53.667 29.333 75 51s38 47.5 50 77.5s18 62.667 18 98c0 34.667 -6 66.834 -18 96.501
s-28.667 55.334 -50 77.001s-46.333 38.667 -75 51s-60 18.5 -94 18.5zM552 896.996c0 -23.333 -4 -44.833 -12 -64.5s-19.167 -36.834 -33.5 -51.501s-31.333 -26 -51 -34s-41.5 -12 -65.5 -12s-45.833 4 -65.5 12s-36.667 19.333 -51 34s-25.5 31.834 -33.5 51.501
s-12 41.167 -12 64.5h85c0 -25.333 7.33301 -45.333 22 -60s33 -22 55 -22c22.667 0 41.167 7.33301 55.5 22s21.5 34.667 21.5 60h85z" />
    <glyph glyph-name="obreve" unicode="&#x14f;" horiz-adv-x="609" 
d="M305 502c36 0 69.667 -6.66699 101 -20s58.833 -31.5 82.5 -54.5s42.334 -50 56.001 -81s20.5 -64.5 20.5 -100.5s-6.83301 -69.667 -20.5 -101s-32.334 -58.5 -56.001 -81.5s-51.334 -41.167 -83.001 -54.5s-65.5 -20 -101.5 -20s-69.667 6.66699 -101 20
s-58.833 31.5 -82.5 54.5s-42.167 50.167 -55.5 81.5s-20 65 -20 101s6.66699 69.5 20 100.5s31.833 58 55.5 81s51.334 41.167 83.001 54.5s65.5 20 101.5 20zM305 406c-22 0 -42.501 -4.16699 -61.501 -12.5s-35.167 -19.666 -48.5 -33.999s-23.666 -31.333 -30.999 -51
s-11 -40.834 -11 -63.501s3.66699 -43.667 11 -63s17.833 -36.166 31.5 -50.499s29.667 -25.5 48 -33.5s38.5 -12 60.5 -12s42.333 4 61 12s34.834 19.167 48.501 33.5s24.334 31.166 32.001 50.499s11.5 40.333 11.5 63s-3.83301 43.834 -11.5 63.501
s-18.334 36.667 -32.001 51s-29.834 25.666 -48.501 33.999s-38.667 12.5 -60 12.5zM466.999 742c0 -23.333 -4.00098 -44.833 -12.001 -64.5s-19.167 -36.834 -33.5 -51.501s-31.333 -26 -51 -34s-41.5 -12 -65.5 -12s-45.833 4 -65.5 12s-36.667 19.333 -51 34
s-25.5 31.834 -33.5 51.501s-12 41.167 -12 64.5h85c0 -25.333 7.33301 -45.333 22 -60s33 -22 55 -22c22.667 0 41.334 7.33301 56.001 22s22 34.667 22 60h84z" />
    <glyph glyph-name="Ohungarumlaut" unicode="&#x150;" horiz-adv-x="780" 
d="M389 671c48 0 93 -8.66797 135 -26.001s78.667 -41.333 110 -72s56.166 -66.834 74.499 -108.501s27.5 -86.5 27.5 -134.5c0 -48.667 -9.16699 -93.834 -27.5 -135.501s-43.166 -77.667 -74.499 -108s-68 -54.166 -110 -71.499s-87 -26 -135 -26
s-93.167 8.66699 -135.5 26s-79 41.333 -110 72s-55.5 66.834 -73.5 108.501s-27 86.5 -27 134.5s9 92.833 27 134.5s42.667 77.834 74 108.501s68 54.667 110 72s87 26 135 26zM390 573.999c-34 0 -65.5 -6.16992 -94.5 -18.5029s-54 -29.166 -75 -50.499
s-37.5 -47 -49.5 -77s-18 -62.333 -18 -97c0 -35.333 6 -68 18 -98s28.5 -55.833 49.5 -77.5s46 -38.667 75 -51s60.5 -18.5 94.5 -18.5s65.333 6.16699 94 18.5s53.667 29.333 75 51s38 47.5 50 77.5s18 62.667 18 98c0 34.667 -6 66.834 -18 96.501
s-28.667 55.334 -50 77.001s-46.333 38.667 -75 51s-60 18.5 -94 18.5zM636 890.996l-117 -167h-73l79 186h111v-19zM437 890.996l-118 -167h-72l79 186h111v-19z" />
    <glyph glyph-name="ohungarumlaut" unicode="&#x151;" horiz-adv-x="609" 
d="M305 502c36 0 69.667 -6.66699 101 -20s58.833 -31.5 82.5 -54.5s42.334 -50 56.001 -81s20.5 -64.5 20.5 -100.5s-6.83301 -69.667 -20.5 -101s-32.334 -58.5 -56.001 -81.5s-51.334 -41.167 -83.001 -54.5s-65.5 -20 -101.5 -20s-69.667 6.66699 -101 20
s-58.833 31.5 -82.5 54.5s-42.167 50.167 -55.5 81.5s-20 65 -20 101s6.66699 69.5 20 100.5s31.833 58 55.5 81s51.334 41.167 83.001 54.5s65.5 20 101.5 20zM305 406c-22 0 -42.501 -4.16699 -61.501 -12.5s-35.167 -19.666 -48.5 -33.999s-23.666 -31.333 -30.999 -51
s-11 -40.834 -11 -63.501s3.66699 -43.667 11 -63s17.833 -36.166 31.5 -50.499s29.667 -25.5 48 -33.5s38.5 -12 60.5 -12s42.333 4 61 12s34.834 19.167 48.501 33.5s24.334 31.166 32.001 50.499s11.5 40.333 11.5 63s-3.83301 43.834 -11.5 63.501
s-18.334 36.667 -32.001 51s-29.834 25.666 -48.501 33.999s-38.667 12.5 -60 12.5zM543.999 761l-117 -193h-73l79 212h111v-19zM364.999 761l-118 -193h-72l79 212h111v-19z" />
    <glyph glyph-name="OE" unicode="&#x152;" horiz-adv-x="1113" 
d="M1061 565l-328.002 -0.00195312v-170h246v-90h-246v-210h340v-95h-446v96c-27.333 -34 -61.666 -60.333 -102.999 -79s-86.666 -28 -135.999 -28c-48.667 0 -94 8.66699 -136 26s-78.5 41.333 -109.5 72s-55.333 66.834 -73 108.501s-26.5 86.5 -26.5 134.5
s8.83301 92.833 26.5 134.5s42 77.834 73 108.501s67.667 54.667 110 72s87.833 26 136.5 26c50 0 95.5 -9.5 136.5 -28.5s74.833 -45.167 101.5 -78.5v96h434v-95zM388.998 573.998c-34 0 -65.501 -6.16602 -94.501 -18.499s-54 -29.333 -75 -51
s-37.333 -47.334 -49 -77.001s-17.5 -62.167 -17.5 -97.5s5.83301 -67.833 17.5 -97.5s28 -55.334 49 -77.001s46 -38.667 75 -51s60.5 -18.5 94.5 -18.5c32.667 0 63.334 5.83301 92.001 17.5s53.5 27.834 74.5 48.501s37.833 45.167 50.5 73.5s19.667 59.5 21 93.5v11
c0 34.667 -6 67 -18 97s-28.5 55.833 -49.5 77.5s-46.167 38.667 -75.5 51s-61 18.5 -95 18.5z" />
    <glyph glyph-name="oe" unicode="&#x153;" horiz-adv-x="962" 
d="M694 501c32 0 61.667 -5.66699 89 -17s51 -27 71 -47s35.667 -43.833 47 -71.5s17 -57.5 17 -89.5c0 -13.333 -1 -26 -3 -38s-3.66699 -21.333 -5 -28h-360c6.66699 -40.667 23.667 -72.334 51 -95.001s62 -34 104 -34c27.333 0 52.333 5 75 15s44.334 24.333 65.001 43
l52 -71c-26.667 -25.333 -56.5 -45 -89.5 -59s-68.167 -21 -105.5 -21c-44 0 -83.667 9.33301 -119 28s-64 44.334 -86 77.001c-20.667 -32 -47.667 -57.333 -81 -76s-71.333 -28 -114 -28c-36 0 -69.5 6.5 -100.5 19.5s-58.167 31 -81.5 54s-41.666 50.167 -54.999 81.5
s-20 65 -20 101s6.83301 69.667 20.5 101s32.167 58.5 55.5 81.5s50.666 41.167 81.999 54.5s64.666 20 99.999 20c42.667 0 80.667 -9.5 114 -28.5s60.333 -44.833 81 -77.5c21.333 32 48.833 57.5 82.5 76.5s71.5 28.5 113.5 28.5zM303 405c-22 0 -42.165 -4 -60.498 -12
s-34.333 -19.167 -48 -33.5s-24.167 -31.333 -31.5 -51s-11 -40.834 -11 -63.501s3.66699 -43.667 11 -63s17.666 -36.166 30.999 -50.499s29.166 -25.5 47.499 -33.5s38.5 -12 60.5 -12s41.833 4 59.5 12s33 19.167 46 33.5s23 31.166 30 50.499s10.5 40.333 10.5 63
s-3.5 43.834 -10.5 63.501s-16.833 36.667 -29.5 51s-28 25.5 -46 33.5s-37.667 12 -59 12zM688.002 412c-34 0 -63.335 -10.832 -88.002 -32.499s-40.667 -50.834 -48 -87.501h261c-1.33301 38 -14.166 67.5 -38.499 88.5s-53.166 31.5 -86.499 31.5z" />
    <glyph glyph-name="Racute" unicode="&#x154;" horiz-adv-x="631" 
d="M323 660c34 0 64.8311 -4.83398 92.498 -14.501s51.334 -23.5 71.001 -41.5s34.834 -39.333 45.501 -64s16 -52 16 -82c0 -44 -11.333 -82.167 -34 -114.5s-54 -56.166 -94 -71.499l199 -272h-121l-189 255h-120v-255h-106v660h240zM188.998 565.999v-217h132
c38 0 67.167 10 87.5 30s30.5 46 30.5 78s-10.167 58.167 -30.5 78.5s-49.5 30.5 -87.5 30.5h-132zM427.998 890.999l-128 -167h-78l79 186h127v-19z" />
    <glyph glyph-name="racute" unicode="&#x155;" horiz-adv-x="375" 
d="M317 496c8.66699 0 16.168 -0.5 22.501 -1.5s12.166 -2.16699 17.499 -3.5v-93h-32c-19.333 0 -37.833 -2.83301 -55.5 -8.5s-33 -14.167 -46 -25.5s-23.333 -25.5 -31 -42.5s-11.5 -36.833 -11.5 -59.5v-262h-105v491h97v-66c17.333 23.333 38.5 41 63.5 53
s51.833 18 80.5 18zM350.001 761l-128 -193h-78l79 212h127v-19z" />
    <glyph glyph-name="Rcommaaccent" unicode="&#x156;" horiz-adv-x="631" 
d="M323 660c34 0 64.8311 -4.83398 92.498 -14.501s51.334 -23.5 71.001 -41.5s34.834 -39.333 45.501 -64s16 -52 16 -82c0 -44 -11.333 -82.167 -34 -114.5s-54 -56.166 -94 -71.499l199 -272h-121l-189 255h-120v-255h-106v660h240zM188.998 565.999v-217h132
c38 0 67.167 10 87.5 30s30.5 46 30.5 78s-10.167 58.167 -30.5 78.5s-49.5 30.5 -87.5 30.5h-132zM332.998 -220.001h-81l6 172h101z" />
    <glyph glyph-name="rcommaaccent" unicode="&#x157;" horiz-adv-x="375" 
d="M317 496c8.66699 0 16.168 -0.5 22.501 -1.5s12.166 -2.16699 17.499 -3.5v-93h-32c-19.333 0 -37.833 -2.83301 -55.5 -8.5s-33 -14.167 -46 -25.5s-23.333 -25.5 -31 -42.5s-11.5 -36.833 -11.5 -59.5v-262h-105v491h97v-66c17.333 23.333 38.5 41 63.5 53
s51.833 18 80.5 18zM152.001 -220h-81l6 172h101z" />
    <glyph glyph-name="Rcaron" unicode="&#x158;" horiz-adv-x="631" 
d="M323 660c34 0 64.8311 -4.83398 92.498 -14.501s51.334 -23.5 71.001 -41.5s34.834 -39.333 45.501 -64s16 -52 16 -82c0 -44 -11.333 -82.167 -34 -114.5s-54 -56.166 -94 -71.499l199 -272h-121l-189 255h-120v-255h-106v660h240zM188.998 565.999v-217h132
c38 0 67.167 10 87.5 30s30.5 46 30.5 78s-10.167 58.167 -30.5 78.5s-49.5 30.5 -87.5 30.5h-132zM295.998 723.999h-67l-148 186h81l100 -94l101 94h81z" />
    <glyph glyph-name="rcaron" unicode="&#x159;" horiz-adv-x="375" 
d="M317 496c8.66699 0 16.168 -0.5 22.501 -1.5s12.166 -2.16699 17.499 -3.5v-93h-32c-19.333 0 -37.833 -2.83301 -55.5 -8.5s-33 -14.167 -46 -25.5s-23.333 -25.5 -31 -42.5s-11.5 -36.833 -11.5 -59.5v-262h-105v491h97v-66c17.333 23.333 38.5 41 63.5 53
s51.833 18 80.5 18zM217.001 568h-68l-135 212h79l90 -109l90 109h79z" />
    <glyph glyph-name="Sacute" unicode="&#x15a;" horiz-adv-x="559" 
d="M282 671c48.667 0 91.3359 -11.1641 128.003 -33.4971s65 -50.5 85 -84.5l-74 -57c-17.333 25.333 -37.666 45 -60.999 59s-49.333 21 -78 21c-26.667 0 -50 -6.5 -70 -19.5s-30 -33.167 -30 -60.5c0 -12.667 2.33301 -23.5 7 -32.5s11 -17 19 -24s17.667 -13.333 29 -19
l37 -18.5l74 -34c24.667 -11.333 47 -23.333 67 -36s36.667 -26.5 50 -41.5s23.666 -31.5 30.999 -49.5s11 -38.333 11 -61c0 -29.333 -5.66699 -55.833 -17 -79.5s-27 -43.667 -47 -60s-43.5 -29 -70.5 -38s-56.167 -13.5 -87.5 -13.5c-55.333 0 -104.333 12.833 -147 38.5
s-76.667 60.5 -102 104.5l75 57c9.33301 -14 19.833 -27.333 31.5 -40s24.5 -23.834 38.5 -33.501s29.5 -17.334 46.5 -23.001s35.833 -8.5 56.5 -8.5c34 0 61.5 8.16699 82.5 24.5s31.5 38.833 31.5 67.5c0 12.667 -2.33301 23.834 -7 33.501s-11.334 18.167 -20.001 25.5
s-18.834 14.166 -30.501 20.499s-24.834 12.833 -39.501 19.5l-73 34c-21.333 10 -41.333 20.667 -60 32s-35 24.333 -49 39s-25 31.167 -33 49.5s-12 39.166 -12 62.499c0 27.333 5.5 52 16.5 74s26 40.833 45 56.5s41 27.667 66 36s51.833 12.5 80.5 12.5z
M447.002 891.003l-128 -167h-78l79 186h127v-19z" />
    <glyph glyph-name="sacute" unicode="&#x15b;" horiz-adv-x="455" 
d="M233 502c36 0 68.167 -6.49902 96.5 -19.499s52.833 -31.833 73.5 -56.5l-57 -65c-16 16 -34 28.333 -54 37s-40.667 13 -62 13c-19.333 0 -35.333 -3.83301 -48 -11.5s-19 -19.5 -19 -35.5c0 -13.333 5.33301 -24 16 -32s27.334 -16.667 50.001 -26l46 -19
c44.667 -18.667 78.334 -39 101.001 -61s34 -51 34 -87c0 -24.667 -4.83301 -46.334 -14.5 -65.001s-22.834 -34.334 -39.501 -47.001s-36 -22.167 -58 -28.5s-45.333 -9.5 -70 -9.5c-44 0 -82.667 8.83301 -116 26.5s-60.666 40.5 -81.999 68.5l59 66
c20 -20.667 41.167 -37.5 63.5 -50.5s47.5 -19.5 75.5 -19.5c21.333 0 39.666 4.5 54.999 13.5s23 22.833 23 41.5c0 16 -6.33301 28.167 -19 36.5s-29 16.5 -49 24.5l-50 21c-20 8 -37.833 16.5 -53.5 25.5s-29 19.167 -40 30.5s-19.5 24 -25.5 38s-9 30.333 -9 49
c0 22.667 4.5 42.834 13.5 60.501s21.167 32.5 36.5 44.5s33.666 21.167 54.999 27.5s44 9.5 68 9.5zM399 761.001l-128 -193h-78l79 212h127v-19z" />
    <glyph glyph-name="Scircumflex" unicode="&#x15c;" horiz-adv-x="559" 
d="M282 671c48.667 0 91.3359 -11.1641 128.003 -33.4971s65 -50.5 85 -84.5l-74 -57c-17.333 25.333 -37.666 45 -60.999 59s-49.333 21 -78 21c-26.667 0 -50 -6.5 -70 -19.5s-30 -33.167 -30 -60.5c0 -12.667 2.33301 -23.5 7 -32.5s11 -17 19 -24s17.667 -13.333 29 -19
l37 -18.5l74 -34c24.667 -11.333 47 -23.333 67 -36s36.667 -26.5 50 -41.5s23.666 -31.5 30.999 -49.5s11 -38.333 11 -61c0 -29.333 -5.66699 -55.833 -17 -79.5s-27 -43.667 -47 -60s-43.5 -29 -70.5 -38s-56.167 -13.5 -87.5 -13.5c-55.333 0 -104.333 12.833 -147 38.5
s-76.667 60.5 -102 104.5l75 57c9.33301 -14 19.833 -27.333 31.5 -40s24.5 -23.834 38.5 -33.501s29.5 -17.334 46.5 -23.001s35.833 -8.5 56.5 -8.5c34 0 61.5 8.16699 82.5 24.5s31.5 38.833 31.5 67.5c0 12.667 -2.33301 23.834 -7 33.501s-11.334 18.167 -20.001 25.5
s-18.834 14.166 -30.501 20.499s-24.834 12.833 -39.501 19.5l-73 34c-21.333 10 -41.333 20.667 -60 32s-35 24.333 -49 39s-25 31.167 -33 49.5s-12 39.166 -12 62.499c0 27.333 5.5 52 16.5 74s26 40.833 45 56.5s41 27.667 66 36s51.833 12.5 80.5 12.5z
M463.002 724.003h-81l-101 93l-100 -93h-81l148 186h67z" />
    <glyph glyph-name="scircumflex" unicode="&#x15d;" horiz-adv-x="455" 
d="M233 502c36 0 68.167 -6.49902 96.5 -19.499s52.833 -31.833 73.5 -56.5l-57 -65c-16 16 -34 28.333 -54 37s-40.667 13 -62 13c-19.333 0 -35.333 -3.83301 -48 -11.5s-19 -19.5 -19 -35.5c0 -13.333 5.33301 -24 16 -32s27.334 -16.667 50.001 -26l46 -19
c44.667 -18.667 78.334 -39 101.001 -61s34 -51 34 -87c0 -24.667 -4.83301 -46.334 -14.5 -65.001s-22.834 -34.334 -39.501 -47.001s-36 -22.167 -58 -28.5s-45.333 -9.5 -70 -9.5c-44 0 -82.667 8.83301 -116 26.5s-60.666 40.5 -81.999 68.5l59 66
c20 -20.667 41.167 -37.5 63.5 -50.5s47.5 -19.5 75.5 -19.5c21.333 0 39.666 4.5 54.999 13.5s23 22.833 23 41.5c0 16 -6.33301 28.167 -19 36.5s-29 16.5 -49 24.5l-50 21c-20 8 -37.833 16.5 -53.5 25.5s-29 19.167 -40 30.5s-19.5 24 -25.5 38s-9 30.333 -9 49
c0 22.667 4.5 42.834 13.5 60.501s21.167 32.5 36.5 44.5s33.666 21.167 54.999 27.5s44 9.5 68 9.5zM400 568.001h-79l-90 109l-90 -109h-79l135 212h68z" />
    <glyph glyph-name="Scedilla" unicode="&#x15e;" horiz-adv-x="559" 
d="M282 671c48.667 0 91.3359 -11.1641 128.003 -33.4971s65 -50.5 85 -84.5l-74 -57c-17.333 25.333 -37.666 45 -60.999 59s-49.333 21 -78 21c-26.667 0 -50 -6.5 -70 -19.5s-30 -33.167 -30 -60.5c0 -12.667 2.33301 -23.5 7 -32.5s11 -17 19 -24s17.667 -13.333 29 -19
l37 -18.5l74 -34c24.667 -11.333 47 -23.333 67 -36s36.667 -26.5 50 -41.5s23.666 -31.5 30.999 -49.5s11 -38.333 11 -61c0 -29.333 -5.66699 -55.833 -17 -79.5s-27 -43.667 -47 -60s-43.5 -29 -70.5 -38s-56.167 -13.5 -87.5 -13.5c-55.333 0 -104.333 12.833 -147 38.5
s-76.667 60.5 -102 104.5l75 57c9.33301 -14 19.833 -27.333 31.5 -40s24.5 -23.834 38.5 -33.501s29.5 -17.334 46.5 -23.001s35.833 -8.5 56.5 -8.5c34 0 61.5 8.16699 82.5 24.5s31.5 38.833 31.5 67.5c0 12.667 -2.33301 23.834 -7 33.501s-11.334 18.167 -20.001 25.5
s-18.834 14.166 -30.501 20.499s-24.834 12.833 -39.501 19.5l-73 34c-21.333 10 -41.333 20.667 -60 32s-35 24.333 -49 39s-25 31.167 -33 49.5s-12 39.166 -12 62.499c0 27.333 5.5 52 16.5 74s26 40.833 45 56.5s41 27.667 66 36s51.833 12.5 80.5 12.5z
M301.002 35.0029c20 -10.667 36 -25.001 48 -43.001s18 -39 18 -63c0 -16.667 -3.16699 -32.167 -9.5 -46.5s-15.666 -27 -27.999 -38s-27.333 -19.667 -45 -26s-37.834 -9.5 -60.501 -9.5c-12 0 -24.167 0.833008 -36.5 2.5s-23.833 3.83398 -34.5 6.50098v72
c24.667 -2 44 -3 58 -3c20.667 0 37.5 4.83301 50.5 14.5s19.5 25.167 19.5 46.5c0 13.333 -2.33301 25.5 -7 36.5s-10 20.833 -16 29.5z" />
    <glyph glyph-name="scedilla" unicode="&#x15f;" horiz-adv-x="455" 
d="M233 502c36 0 68.167 -6.49902 96.5 -19.499s52.833 -31.833 73.5 -56.5l-57 -65c-16 16 -34 28.333 -54 37s-40.667 13 -62 13c-19.333 0 -35.333 -3.83301 -48 -11.5s-19 -19.5 -19 -35.5c0 -13.333 5.33301 -24 16 -32s27.334 -16.667 50.001 -26l46 -19
c44.667 -18.667 78.334 -39 101.001 -61s34 -51 34 -87c0 -24.667 -4.83301 -46.334 -14.5 -65.001s-22.834 -34.334 -39.501 -47.001s-36 -22.167 -58 -28.5s-45.333 -9.5 -70 -9.5c-44 0 -82.667 8.83301 -116 26.5s-60.666 40.5 -81.999 68.5l59 66
c20 -20.667 41.167 -37.5 63.5 -50.5s47.5 -19.5 75.5 -19.5c21.333 0 39.666 4.5 54.999 13.5s23 22.833 23 41.5c0 16 -6.33301 28.167 -19 36.5s-29 16.5 -49 24.5l-50 21c-20 8 -37.833 16.5 -53.5 25.5s-29 19.167 -40 30.5s-19.5 24 -25.5 38s-9 30.333 -9 49
c0 22.667 4.5 42.834 13.5 60.501s21.167 32.5 36.5 44.5s33.666 21.167 54.999 27.5s44 9.5 68 9.5zM253 35.001c20 -10.667 36 -25.001 48 -43.001s18 -39 18 -63c0 -16.667 -3.16699 -32.167 -9.5 -46.5s-15.666 -27 -27.999 -38s-27.333 -19.667 -45 -26
s-37.834 -9.5 -60.501 -9.5c-12 0 -24.167 0.833008 -36.5 2.5s-23.833 3.83398 -34.5 6.50098v72c24.667 -2 44 -3 58 -3c20.667 0 37.5 4.83301 50.5 14.5s19.5 25.167 19.5 46.5c0 13.333 -2.33301 25.5 -7 36.5s-10 20.833 -16 29.5z" />
    <glyph glyph-name="Scaron" unicode="&#x160;" horiz-adv-x="559" 
d="M282 671c48.667 0 91.3359 -11.1641 128.003 -33.4971s65 -50.5 85 -84.5l-74 -57c-17.333 25.333 -37.666 45 -60.999 59s-49.333 21 -78 21c-26.667 0 -50 -6.5 -70 -19.5s-30 -33.167 -30 -60.5c0 -12.667 2.33301 -23.5 7 -32.5s11 -17 19 -24s17.667 -13.333 29 -19
l37 -18.5l74 -34c24.667 -11.333 47 -23.333 67 -36s36.667 -26.5 50 -41.5s23.666 -31.5 30.999 -49.5s11 -38.333 11 -61c0 -29.333 -5.66699 -55.833 -17 -79.5s-27 -43.667 -47 -60s-43.5 -29 -70.5 -38s-56.167 -13.5 -87.5 -13.5c-55.333 0 -104.333 12.833 -147 38.5
s-76.667 60.5 -102 104.5l75 57c9.33301 -14 19.833 -27.333 31.5 -40s24.5 -23.834 38.5 -33.501s29.5 -17.334 46.5 -23.001s35.833 -8.5 56.5 -8.5c34 0 61.5 8.16699 82.5 24.5s31.5 38.833 31.5 67.5c0 12.667 -2.33301 23.834 -7 33.501s-11.334 18.167 -20.001 25.5
s-18.834 14.166 -30.501 20.499s-24.834 12.833 -39.501 19.5l-73 34c-21.333 10 -41.333 20.667 -60 32s-35 24.333 -49 39s-25 31.167 -33 49.5s-12 39.166 -12 62.499c0 27.333 5.5 52 16.5 74s26 40.833 45 56.5s41 27.667 66 36s51.833 12.5 80.5 12.5z
M315.002 724.003h-67l-148 186h81l100 -94l101 94h81z" />
    <glyph glyph-name="scaron" unicode="&#x161;" horiz-adv-x="455" 
d="M233 502c36 0 68.167 -6.49902 96.5 -19.499s52.833 -31.833 73.5 -56.5l-57 -65c-16 16 -34 28.333 -54 37s-40.667 13 -62 13c-19.333 0 -35.333 -3.83301 -48 -11.5s-19 -19.5 -19 -35.5c0 -13.333 5.33301 -24 16 -32s27.334 -16.667 50.001 -26l46 -19
c44.667 -18.667 78.334 -39 101.001 -61s34 -51 34 -87c0 -24.667 -4.83301 -46.334 -14.5 -65.001s-22.834 -34.334 -39.501 -47.001s-36 -22.167 -58 -28.5s-45.333 -9.5 -70 -9.5c-44 0 -82.667 8.83301 -116 26.5s-60.666 40.5 -81.999 68.5l59 66
c20 -20.667 41.167 -37.5 63.5 -50.5s47.5 -19.5 75.5 -19.5c21.333 0 39.666 4.5 54.999 13.5s23 22.833 23 41.5c0 16 -6.33301 28.167 -19 36.5s-29 16.5 -49 24.5l-50 21c-20 8 -37.833 16.5 -53.5 25.5s-29 19.167 -40 30.5s-19.5 24 -25.5 38s-9 30.333 -9 49
c0 22.667 4.5 42.834 13.5 60.501s21.167 32.5 36.5 44.5s33.666 21.167 54.999 27.5s44 9.5 68 9.5zM265 568.001h-68l-135 212h79l90 -109l90 109h79z" />
    <glyph glyph-name="uni0162" unicode="&#x162;" horiz-adv-x="583" 
d="M566 565h-222v-565h-106v565h-222v95h550v-95zM304 35c20 -10.667 36 -25.001 48 -43.001s18 -39 18 -63c0 -16.667 -3.16699 -32.167 -9.5 -46.5s-15.666 -27 -27.999 -38s-27.333 -19.667 -45 -26s-37.834 -9.5 -60.501 -9.5c-12 0 -24.167 0.833008 -36.5 2.5
s-23.833 3.83398 -34.5 6.50098v72c24.667 -2 44 -3 58 -3c20.667 0 37.5 4.83301 50.5 14.5s19.5 25.167 19.5 46.5c0 13.333 -2.33301 25.5 -7 36.5s-10 20.833 -16 29.5z" />
    <glyph glyph-name="uni0163" unicode="&#x163;" horiz-adv-x="398" 
d="M352 400l-147.001 0.000976562v-231c0 -32.667 8.5 -55 25.5 -67s41.167 -18 72.5 -18c8.66699 0 18.334 0.5 29.001 1.5s22.334 2.16699 35.001 3.5v-89c-13.333 -3.33301 -26.833 -6 -40.5 -8s-28.834 -3 -45.501 -3c-54.667 0 -98.5 13.667 -131.5 41
s-49.5 70.666 -49.5 129.999v240h-80v91h80v129h105v-129h147v-91zM237.999 35.001c20 -10.667 36 -25.001 48 -43.001s18 -39 18 -63c0 -16.667 -3.16699 -32.167 -9.5 -46.5s-15.666 -27 -27.999 -38s-27.333 -19.667 -45 -26s-37.834 -9.5 -60.501 -9.5
c-12 0 -24.167 0.833008 -36.5 2.5s-23.833 3.83398 -34.5 6.50098v72c24.667 -2 44 -3 58 -3c20.667 0 37.5 4.83301 50.5 14.5s19.5 25.167 19.5 46.5c0 13.333 -2.33301 25.5 -7 36.5s-10 20.833 -16 29.5z" />
    <glyph glyph-name="Tcaron" unicode="&#x164;" horiz-adv-x="583" 
d="M566 565h-222v-565h-106v565h-222v95h550v-95zM325 724h-67l-148 186h81l100 -94l101 94h81z" />
    <glyph glyph-name="tcaron" unicode="&#x165;" horiz-adv-x="398" 
d="M352 400l-147.001 0.000976562v-231c0 -32.667 8.5 -55 25.5 -67s41.167 -18 72.5 -18c8.66699 0 18.334 0.5 29.001 1.5s22.334 2.16699 35.001 3.5v-89c-13.333 -3.33301 -26.833 -6 -40.5 -8s-28.834 -3 -45.501 -3c-54.667 0 -98.5 13.667 -131.5 41
s-49.5 70.666 -49.5 129.999v240h-80v91h80v129h105v-129h147v-91zM371.999 542.001h-76l9 208h111z" />
    <glyph glyph-name="Tbar" unicode="&#x166;" horiz-adv-x="583" 
d="M566 565h-222v-232h186v-89h-186v-244h-106v244h-186v89h186v232h-222v95h550v-95z" />
    <glyph glyph-name="tbar" unicode="&#x167;" horiz-adv-x="412" 
d="M361 208l-146.001 0.000976562v-39c0 -32.667 8.33301 -55 25 -67s40.334 -18 71.001 -18c10 0 20.167 0.5 30.5 1.5l34.5 3.5v-89c-12.667 -3.33301 -26 -6 -40 -8s-29.333 -3 -46 -3c-54 0 -97.5 13.667 -130.5 41s-49.5 70.666 -49.5 129.999v48h-81v87h81v109h-81v87
h81v129h105v-129h146v-87h-146v-109h146v-87z" />
    <glyph glyph-name="Utilde" unicode="&#x168;" horiz-adv-x="694" 
d="M618 267c0 -44 -6.83398 -83.167 -20.501 -117.5s-32.667 -63.5 -57 -87.5s-53 -42.167 -86 -54.5s-68.833 -18.5 -107.5 -18.5c-39.333 0 -75.5 6.16699 -108.5 18.5s-61.5 30.5 -85.5 54.5s-42.833 53.167 -56.5 87.5s-20.5 73.5 -20.5 117.5v393h106v-400
c0 -29.333 4.16699 -54.833 12.5 -76.5s20 -39.667 35 -54s32.5 -25.166 52.5 -32.499s41.667 -11 65 -11c22.667 0 44.167 3.66699 64.5 11s37.833 18.166 52.5 32.499s26.334 32.333 35.001 54s13 47.167 13 76.5v400h106v-393zM265.999 890
c24 0 48.001 -7.33594 72.001 -22.0029l33 -20l22 -12.5c6.66699 -3.66699 14 -5.5 22 -5.5c9.33301 0 16.333 3.33301 21 10s7 15 7 25v15h84c0.666992 -4.66699 1 -9.33398 1 -14.001v-15c0 -35.333 -9.33301 -63.666 -28 -84.999s-42.334 -32 -71.001 -32
c-12.667 0 -25.167 2 -37.5 6s-24.833 9.66699 -37.5 17l-31 18c-8 4.66699 -15.5 8.83398 -22.5 12.501s-14.167 5.5 -21.5 5.5c-9.33301 0 -16.333 -3.5 -21 -10.5s-7 -15.5 -7 -25.5v-13h-84c-0.666992 4.66699 -1.16699 9.33398 -1.5 14.001s-0.5 9.66699 -0.5 15
c0 34.667 9.5 62.834 28.5 84.501s43.167 32.5 72.5 32.5z" />
    <glyph glyph-name="utilde" unicode="&#x169;" horiz-adv-x="570" 
d="M500 206c0 -33.333 -5.5 -63.333 -16.5 -90s-26 -49.5 -45 -68.5s-41.667 -33.5 -68 -43.5s-54.5 -15 -84.5 -15c-30.667 0 -59 5 -85 15s-48.667 24.5 -68 43.5s-34.5 41.833 -45.5 68.5s-16.5 56.667 -16.5 90v285h105v-293c0 -34.667 10.667 -62 32 -82
s47.333 -30 78 -30c30 0 55.5 10 76.5 30s31.5 47.333 31.5 82v293h106v-285zM209 748c25.333 0 48.6689 -8.00098 70.002 -24.001l27 -20c7.33301 -6 14.166 -10.833 20.499 -14.5s13.166 -5.5 20.499 -5.5c10 0 17.167 3.66699 21.5 11s6.5 16.333 6.5 27v14h83
c0.666992 -5.33301 1 -10.166 1 -14.499v-14.5c0 -35.333 -9 -64.166 -27 -86.499s-42 -33.5 -72 -33.5c-23.333 0 -46.666 8 -69.999 24l-26 20c-8 6 -15 11 -21 15s-13 6 -21 6c-10 0 -17.167 -3.5 -21.5 -10.5s-6.5 -16.167 -6.5 -27.5v-14h-82
c-1.33301 5.33301 -2 10.166 -2 14.499v14.5c0 36 9.16699 64.833 27.5 86.5s42.166 32.5 71.499 32.5z" />
    <glyph glyph-name="Umacron" unicode="&#x16a;" horiz-adv-x="694" 
d="M618 267c0 -44 -6.83398 -83.167 -20.501 -117.5s-32.667 -63.5 -57 -87.5s-53 -42.167 -86 -54.5s-68.833 -18.5 -107.5 -18.5c-39.333 0 -75.5 6.16699 -108.5 18.5s-61.5 30.5 -85.5 54.5s-42.833 53.167 -56.5 87.5s-20.5 73.5 -20.5 117.5v393h106v-400
c0 -29.333 4.16699 -54.833 12.5 -76.5s20 -39.667 35 -54s32.5 -25.166 52.5 -32.499s41.667 -11 65 -11c22.667 0 44.167 3.66699 64.5 11s37.833 18.166 52.5 32.499s26.334 32.333 35.001 54s13 47.167 13 76.5v400h106v-393zM500.999 762h-308v85h308v-85z" />
    <glyph glyph-name="umacron" unicode="&#x16b;" horiz-adv-x="570" 
d="M500 206c0 -33.333 -5.5 -63.333 -16.5 -90s-26 -49.5 -45 -68.5s-41.667 -33.5 -68 -43.5s-54.5 -15 -84.5 -15c-30.667 0 -59 5 -85 15s-48.667 24.5 -68 43.5s-34.5 41.833 -45.5 68.5s-16.5 56.667 -16.5 90v285h105v-293c0 -34.667 10.667 -62 32 -82
s47.333 -30 78 -30c30 0 55.5 10 76.5 30s31.5 47.333 31.5 82v293h106v-285zM429 632h-288v84h288v-84z" />
    <glyph glyph-name="Ubreve" unicode="&#x16c;" horiz-adv-x="694" 
d="M618 267c0 -44 -6.83398 -83.167 -20.501 -117.5s-32.667 -63.5 -57 -87.5s-53 -42.167 -86 -54.5s-68.833 -18.5 -107.5 -18.5c-39.333 0 -75.5 6.16699 -108.5 18.5s-61.5 30.5 -85.5 54.5s-42.833 53.167 -56.5 87.5s-20.5 73.5 -20.5 117.5v393h106v-400
c0 -29.333 4.16699 -54.833 12.5 -76.5s20 -39.667 35 -54s32.5 -25.166 52.5 -32.499s41.667 -11 65 -11c22.667 0 44.167 3.66699 64.5 11s37.833 18.166 52.5 32.499s26.334 32.333 35.001 54s13 47.167 13 76.5v400h106v-393zM508.999 897
c0 -23.333 -4 -44.833 -12 -64.5s-19.167 -36.834 -33.5 -51.501s-31.333 -26 -51 -34s-41.5 -12 -65.5 -12s-45.833 4 -65.5 12s-36.667 19.333 -51 34s-25.5 31.834 -33.5 51.501s-12 41.167 -12 64.5h85c0 -25.333 7.33301 -45.333 22 -60s33 -22 55 -22
c22.667 0 41.167 7.33301 55.5 22s21.5 34.667 21.5 60h85z" />
    <glyph glyph-name="ubreve" unicode="&#x16d;" horiz-adv-x="570" 
d="M500 206c0 -33.333 -5.5 -63.333 -16.5 -90s-26 -49.5 -45 -68.5s-41.667 -33.5 -68 -43.5s-54.5 -15 -84.5 -15c-30.667 0 -59 5 -85 15s-48.667 24.5 -68 43.5s-34.5 41.833 -45.5 68.5s-16.5 56.667 -16.5 90v285h105v-293c0 -34.667 10.667 -62 32 -82
s47.333 -30 78 -30c30 0 55.5 10 76.5 30s31.5 47.333 31.5 82v293h106v-285zM447 742c0 -23.333 -4.00098 -44.833 -12.001 -64.5s-19.167 -36.834 -33.5 -51.501s-31.333 -26 -51 -34s-41.5 -12 -65.5 -12s-45.833 4 -65.5 12s-36.667 19.333 -51 34
s-25.5 31.834 -33.5 51.501s-12 41.167 -12 64.5h85c0 -25.333 7.33301 -45.333 22 -60s33 -22 55 -22c22.667 0 41.334 7.33301 56.001 22s22 34.667 22 60h84z" />
    <glyph glyph-name="Uring" unicode="&#x16e;" horiz-adv-x="694" 
d="M618 267c0 -44 -6.83398 -83.167 -20.501 -117.5s-32.667 -63.5 -57 -87.5s-53 -42.167 -86 -54.5s-68.833 -18.5 -107.5 -18.5c-39.333 0 -75.5 6.16699 -108.5 18.5s-61.5 30.5 -85.5 54.5s-42.833 53.167 -56.5 87.5s-20.5 73.5 -20.5 117.5v393h106v-400
c0 -29.333 4.16699 -54.833 12.5 -76.5s20 -39.667 35 -54s32.5 -25.166 52.5 -32.499s41.667 -11 65 -11c22.667 0 44.167 3.66699 64.5 11s37.833 18.166 52.5 32.499s26.334 32.333 35.001 54s13 47.167 13 76.5v400h106v-393zM345.999 917c17.333 0 33.333 -3 48 -9
s27.167 -14.167 37.5 -24.5s18.5 -22.5 24.5 -36.5s9 -29 9 -45c0 -32.667 -11.167 -60 -33.5 -82s-50.833 -33 -85.5 -33c-17.333 0 -33.166 3 -47.499 9s-26.666 14.167 -36.999 24.5s-18.5 22.5 -24.5 36.5s-9 29 -9 45s3 31 9 45s14.167 26.167 24.5 36.5
s22.666 18.5 36.999 24.5s30.166 9 47.499 9zM346.999 848c-13.333 0 -24.335 -4.33301 -33.002 -13s-13 -19.667 -13 -33s4.33301 -24.333 13 -33s19.667 -13 33 -13c12.667 0 23.334 4.33301 32.001 13s13 19.667 13 33s-4.16699 24.333 -12.5 33s-19.166 13 -32.499 13z
" />
    <glyph glyph-name="uring" unicode="&#x16f;" horiz-adv-x="570" 
d="M500 206c0 -33.333 -5.5 -63.333 -16.5 -90s-26 -49.5 -45 -68.5s-41.667 -33.5 -68 -43.5s-54.5 -15 -84.5 -15c-30.667 0 -59 5 -85 15s-48.667 24.5 -68 43.5s-34.5 41.833 -45.5 68.5s-16.5 56.667 -16.5 90v285h105v-293c0 -34.667 10.667 -62 32 -82
s47.333 -30 78 -30c30 0 55.5 10 76.5 30s31.5 47.333 31.5 82v293h106v-285zM284 785c17.333 0 33.333 -3 48 -9s27.167 -14.167 37.5 -24.5s18.5 -22.666 24.5 -36.999s9 -29.5 9 -45.5s-3 -31 -9 -45s-14.167 -26.167 -24.5 -36.5s-22.833 -18.5 -37.5 -24.5
s-30.667 -9 -48 -9s-33.166 3 -47.499 9s-26.666 14.167 -36.999 24.5s-18.5 22.5 -24.5 36.5s-9 29 -9 45s3 31.167 9 45.5s14.167 26.666 24.5 36.999s22.666 18.5 36.999 24.5s30.166 9 47.499 9zM285 716c-13.333 0 -24.333 -4.5 -33 -13.5s-13 -20.167 -13 -33.5
s4.33301 -24.166 13 -32.499s19.667 -12.5 33 -12.5c12.667 0 23.334 4.16699 32.001 12.5s13 19.166 13 32.499s-4.33301 24.5 -13 33.5s-19.334 13.5 -32.001 13.5z" />
    <glyph glyph-name="Uhungarumlaut" unicode="&#x170;" horiz-adv-x="694" 
d="M618 267c0 -44 -6.83398 -83.167 -20.501 -117.5s-32.667 -63.5 -57 -87.5s-53 -42.167 -86 -54.5s-68.833 -18.5 -107.5 -18.5c-39.333 0 -75.5 6.16699 -108.5 18.5s-61.5 30.5 -85.5 54.5s-42.833 53.167 -56.5 87.5s-20.5 73.5 -20.5 117.5v393h106v-400
c0 -29.333 4.16699 -54.833 12.5 -76.5s20 -39.667 35 -54s32.5 -25.166 52.5 -32.499s41.667 -11 65 -11c22.667 0 44.167 3.66699 64.5 11s37.833 18.166 52.5 32.499s26.334 32.333 35.001 54s13 47.167 13 76.5v400h106v-393zM592.999 891l-117 -167h-73l79 186h111v-19
zM393.999 891l-118 -167h-72l79 186h111v-19z" />
    <glyph glyph-name="uhungarumlaut" unicode="&#x171;" horiz-adv-x="570" 
d="M500 206c0 -33.333 -5.5 -63.333 -16.5 -90s-26 -49.5 -45 -68.5s-41.667 -33.5 -68 -43.5s-54.5 -15 -84.5 -15c-30.667 0 -59 5 -85 15s-48.667 24.5 -68 43.5s-34.5 41.833 -45.5 68.5s-16.5 56.667 -16.5 90v285h105v-293c0 -34.667 10.667 -62 32 -82
s47.333 -30 78 -30c30 0 55.5 10 76.5 30s31.5 47.333 31.5 82v293h106v-285zM524 761l-117 -193h-73l79 212h111v-19zM345 761l-118 -193h-72l79 212h111v-19z" />
    <glyph glyph-name="Uogonek" unicode="&#x172;" horiz-adv-x="694" 
d="M618 267c0 -38.667 -4.66699 -71.665 -14 -98.998s-21.333 -51.5 -36 -72.5s-31.167 -39.667 -49.5 -56l-54.5 -49.5c-12 -10.667 -21.667 -20.834 -29 -30.501s-11 -21.167 -11 -34.5c0 -24.667 14.667 -37 44 -37c6.66699 0 14 0.666992 22 2
s16.667 2.66602 26 3.99902v-72c-10.667 -3.33301 -22.834 -6.33301 -36.501 -9s-28.5 -4 -44.5 -4c-34 0 -61.333 7.33301 -82 22s-31 36.667 -31 66c0 18.667 4.33301 35.5 13 50.5s21.334 29.5 38.001 43.5c-5.33301 -0.666992 -10.333 -1.16699 -15 -1.5
s-9.66699 -0.5 -15 -0.5c-37.333 0 -72.333 6.66699 -105 20s-61 32 -85 56s-42.833 53.167 -56.5 87.5s-20.5 72.5 -20.5 114.5v393h106v-400c0 -27.333 4.16699 -51.666 12.5 -72.999s20 -39.5 35 -54.5s32.333 -26.5 52 -34.5s41.167 -12 64.5 -12s45 4 65 12
s37.5 19.5 52.5 34.5s26.833 33.167 35.5 54.5s13 45.666 13 72.999v400h106v-393z" />
    <glyph glyph-name="uogonek" unicode="&#x173;" horiz-adv-x="570" 
d="M500 206c0 -27.333 -2.99805 -50.832 -8.99805 -70.499s-14.5 -37.5 -25.5 -53.5s-24.333 -31.5 -40 -46.5l-52.5 -48.5c-12.667 -11.333 -22.5 -21.833 -29.5 -31.5s-10.5 -20.167 -10.5 -31.5c0 -25.333 14.667 -38 44 -38c14.667 0 30.667 2 48 6v-69
c-10 -3.33301 -21.833 -6.5 -35.5 -9.5s-28.834 -4.5 -45.501 -4.5c-34 0 -60.833 7.33301 -80.5 22s-29.5 36.667 -29.5 66c0 35.333 16.333 66 49 92c-30.667 0.666992 -58.834 6.16699 -84.501 16.5s-48 24.833 -67 43.5s-33.833 41.167 -44.5 67.5
s-16 56.166 -16 89.499v285h105v-293c0 -34.667 10.667 -62 32 -82s47.333 -30 78 -30c30 0 55.5 10 76.5 30s31.5 47.333 31.5 82v293h106v-285z" />
    <glyph glyph-name="Wcircumflex" unicode="&#x174;" horiz-adv-x="1051" 
d="M734 214l165 446h117l-257 -671h-36l-197 468l-197 -468h-36l-257 671h117l164 -447l191 458h36zM707 724h-81l-101 93l-100 -93h-81l148 186h67z" />
    <glyph glyph-name="wcircumflex" unicode="&#x175;" horiz-adv-x="854" 
d="M596 173l127 318h111l-217 -502h-36l-155 328l-153 -328h-36l-218 502h112l129 -321l149 332h36zM594 568h-79l-90 109l-90 -109h-79l135 212h68z" />
    <glyph glyph-name="Ycircumflex" unicode="&#x176;" horiz-adv-x="620" 
d="M363 266v-266h-106v266l-228 394h118l163 -288l164 288h118zM489 724h-81l-101 93l-100 -93h-81l148 186h67z" />
    <glyph glyph-name="ycircumflex" unicode="&#x177;" horiz-adv-x="549" 
d="M291 -56c-20.667 -47.333 -45.501 -81.666 -74.501 -102.999s-64.5 -32 -106.5 -32c-13.333 0 -27 0.833008 -41 2.5s-27.333 4.16699 -40 7.5v89c12 -1.33301 22.667 -2.33301 32 -3s18.333 -1 27 -1c22.667 0 42.834 4.66699 60.501 14s33.167 28.666 46.5 57.999
l20 46l-196 469h113l140 -358l146 358h112zM441.999 568h-79l-90 109l-90 -109h-79l135 212h68z" />
    <glyph glyph-name="Ydieresis" unicode="&#x178;" horiz-adv-x="620" 
d="M363 266v-266h-106v266l-228 394h118l163 -288l164 288h118zM430 877c18.667 0 34.5 -6.33301 47.5 -19s19.5 -28.334 19.5 -47.001c0 -17.333 -6.5 -32.5 -19.5 -45.5s-28.833 -19.5 -47.5 -19.5c-17.333 0 -33 6.5 -47 19.5s-21 28.167 -21 45.5
c0 18.667 7 34.334 21 47.001s29.667 19 47 19zM185 877c18.667 0 34.5 -6.16699 47.5 -18.5s19.5 -27.833 19.5 -46.5c0 -17.333 -6.5 -32.5 -19.5 -45.5s-28.833 -19.5 -47.5 -19.5c-17.333 0 -33 6.5 -47 19.5s-21 28.167 -21 45.5c0 18.667 7 34.167 21 46.5
s29.667 18.5 47 18.5z" />
    <glyph glyph-name="Zacute" unicode="&#x179;" horiz-adv-x="588" 
d="M556 631l-367 -536h368v-95h-531v29l364 536h-321v95h487v-29zM465 891l-128 -167h-78l79 186h127v-19z" />
    <glyph glyph-name="zacute" unicode="&#x17a;" horiz-adv-x="461" 
d="M437 461l-258 -370h260v-91h-417v29l257 371h-234v91h392v-30zM406 761l-128 -193h-78l79 212h127v-19z" />
    <glyph glyph-name="Zdotaccent" unicode="&#x17b;" horiz-adv-x="588" 
d="M556 631l-367 -536h368v-95h-531v29l364 536h-321v95h487v-29zM300 882c19.333 0 36.166 -6.66699 50.499 -20s21.5 -30 21.5 -50c0 -19.333 -7.16699 -35.666 -21.5 -48.999s-31.166 -20 -50.499 -20c-20 0 -37 6.66699 -51 20s-21 29.666 -21 48.999
c0 20 7 36.667 21 50s31 20 51 20z" />
    <glyph glyph-name="zdotaccent" unicode="&#x17c;" horiz-adv-x="461" 
d="M437 461l-258 -370h260v-91h-417v29l257 371h-234v91h392v-30zM238 744c19.333 0 36.166 -6.83301 50.499 -20.5s21.5 -30.167 21.5 -49.5s-7.16699 -35.666 -21.5 -48.999s-31.166 -20 -50.499 -20c-20 0 -37 6.66699 -51 20s-21 29.666 -21 48.999s7 35.833 21 49.5
s31 20.5 51 20.5z" />
    <glyph glyph-name="Zcaron" unicode="&#x17d;" horiz-adv-x="588" 
d="M556 631l-367 -536h368v-95h-531v29l364 536h-321v95h487v-29zM333 724h-67l-148 186h81l100 -94l101 94h81z" />
    <glyph glyph-name="zcaron" unicode="&#x17e;" horiz-adv-x="461" 
d="M437 461l-258 -370h260v-91h-417v29l257 371h-234v91h392v-30zM272 568h-68l-135 212h79l90 -109l90 109h79z" />
    <glyph glyph-name="uni018F" unicode="&#x18f;" horiz-adv-x="732" 
d="M351 671c47.333 0 91.5049 -8.83594 132.505 -26.5029s76.667 -41.667 107 -72s54.166 -66.166 71.499 -107.499s26 -85.666 26 -132.999c0 -48 -9 -93 -27 -135s-42.333 -78.333 -73 -109s-66.834 -54.834 -108.501 -72.501s-85.834 -26.5 -132.501 -26.5
c-42 0 -81.5 7.16699 -118.5 21.5s-69.333 34.5 -97 60.5s-49.334 57.167 -65.001 93.5s-23.5 76.833 -23.5 121.5c0 16 0.833008 31 2.5 45s3.16699 25.333 4.5 34h527c-3.33301 30.667 -11.5 58.834 -24.5 84.501s-29.5 47.834 -49.5 66.501s-43 33 -69 43s-54 15 -84 15
c-41.333 0 -79 -9.33301 -113 -28s-63.333 -44.667 -88 -78l-72 61c30.667 42.667 69.167 77 115.5 103s99.166 39 158.499 39zM349.005 85.9971c28 0 54.333 4.5 79 13.5s46.667 21.667 66 38s35.666 35.833 48.999 58.5s23 48 29 76h-426c0 -30 5.83301 -56.5 17.5 -79.5
s26.834 -42.333 45.501 -58s40.167 -27.667 64.5 -36s49.5 -12.5 75.5 -12.5z" />
    <glyph glyph-name="florin" unicode="&#x192;" horiz-adv-x="447" 
d="M391 311l-111 -0.000976562l-33 -273c-7.33301 -58.667 -26.333 -101.834 -57 -129.501s-71.667 -41.5 -123 -41.5c-13.333 0 -25.333 0.833008 -36 2.5s-20.667 3.5 -30 5.5v89c8 -1.33301 16 -2.16602 24 -2.49902s15 -0.5 21 -0.5c29.333 0 51.833 6.33301 67.5 19
s25.5 35 29.5 67l32 264h-74v91h86l12 98c7.33301 58.667 26.333 101.834 57 129.501s72 41.5 124 41.5c26 0 47.667 -3 65 -9v-88c-8 0.666992 -16 1.16699 -24 1.5s-15 0.5 -21 0.5c-29.333 0 -51.833 -6.16699 -67.5 -18.5s-25.5 -34.5 -29.5 -66.5l-11 -89h99v-91z" />
    <glyph glyph-name="uni01D4" unicode="&#x1d4;" horiz-adv-x="570" 
d="M500 206c0 -33.333 -5.5 -63.333 -16.5 -90s-26 -49.5 -45 -68.5s-41.667 -33.5 -68 -43.5s-54.5 -15 -84.5 -15c-30.667 0 -59 5 -85 15s-48.667 24.5 -68 43.5s-34.5 41.833 -45.5 68.5s-16.5 56.667 -16.5 90v285h105v-293c0 -34.667 10.667 -62 32 -82
s47.333 -30 78 -30c30 0 55.5 10 76.5 30s31.5 47.333 31.5 82v293h106v-285zM319 568h-68l-135 212h79l90 -109l90 109h79z" />
    <glyph glyph-name="AEacute" unicode="&#x1fc;" horiz-adv-x="836" 
d="M704 304h-188l35 -209h245v-95h-335l-19 110h-261l-58 -110h-114l341 660h434v-95h-312l28 -169h204v-92zM228 201h199l-49 303zM584 891l-128 -167h-78l79 186h127v-19z" />
    <glyph glyph-name="aeacute" unicode="&#x1fd;" horiz-adv-x="887" 
d="M265 502c37.333 0 70.168 -7.16797 98.501 -21.501s50.5 -36.166 66.5 -65.499c21.333 26.667 48 47.834 80 63.501s67.333 23.5 106 23.5c32.667 0 62.834 -5.66699 90.501 -17s51.5 -27 71.5 -47s35.667 -43.833 47 -71.5s17 -57.834 17 -90.501
c0 -13.333 -0.833008 -26.833 -2.5 -40.5s-3.5 -24.167 -5.5 -31.5h-364c8 -38.667 26 -68.667 54 -90s62.667 -32 104 -32c28 0 53.5 5 76.5 15s44.833 24 65.5 42l51 -71c-26.667 -25.333 -56.334 -44.833 -89.001 -58.5s-68 -20.5 -106 -20.5
c-46.667 0 -88.167 9.66699 -124.5 29s-65.5 45.666 -87.5 78.999c-18 -36 -44.333 -63 -79 -81s-74 -27 -118 -27c-56.667 0 -100.334 13.5 -131.001 40.5s-46 61.5 -46 103.5c0 44.667 16.333 80.334 49 107.001s76.667 40 132 40h139v23c0 34 -9.16699 60 -27.5 78
s-43.833 27 -76.5 27c-28 0 -52.833 -6.5 -74.5 -19.5s-42.167 -30.833 -61.5 -53.5l-61 62c26 36 56.667 62.5 92 79.5s73.333 25.5 114 25.5zM612.002 412.999c-38 0 -69.999 -12.165 -95.999 -36.498s-42 -56.5 -48 -96.5h269
c1.33301 21.333 -1.16699 40.166 -7.5 56.499s-15.333 30.166 -27 41.499s-25.334 20 -41.001 26s-32.167 9 -49.5 9zM233.003 71.001c17.333 0 33.666 2.83203 48.999 8.49902s28.833 13.5 40.5 23.5s20.834 22 27.501 36s10 29.333 10 46v19h-126
c-28 0 -49.5 -5.16699 -64.5 -15.5s-22.5 -26.166 -22.5 -47.499c0 -23.333 8.33301 -40.833 25 -52.5s37 -17.5 61 -17.5zM597.003 761l-128 -193h-78l79 212h127v-19z" />
    <glyph glyph-name="Oslashacute" unicode="&#x1fe;" horiz-adv-x="780" 
d="M389 671c39.333 0 76.666 -6.00098 111.999 -18.001s67.666 -28.667 96.999 -50l81 81l64 -64l-80 -80c23.333 -28.667 41.333 -60.834 54 -96.501s19 -73.5 19 -113.5c0 -48.667 -9.16699 -93.834 -27.5 -135.501s-43.166 -77.667 -74.499 -108
s-68 -54.166 -110 -71.499s-87 -26 -135 -26c-40 0 -77.5 5.83301 -112.5 17.5s-67.167 28.167 -96.5 49.5l-79 -80l-64 64l78 78c-23.333 29.333 -41.166 61.833 -53.499 97.5s-18.5 73.834 -18.5 114.501c0 48 9 92.833 27 134.5s42.667 77.834 74 108.501
s68 54.667 110 72s87 26 135 26zM390 577.999c-35.333 0 -67.666 -6.16895 -96.999 -18.502s-54.833 -29.5 -76.5 -51.5s-38.5 -48.167 -50.5 -78.5s-18 -63.166 -18 -98.499c0 -27.333 3.33301 -52.666 10 -75.999s16 -45 28 -65l344 344
c-19.333 14 -40.833 24.833 -64.5 32.5s-48.834 11.5 -75.501 11.5zM631 330.997c0 26 -3.33105 50.6699 -9.99805 74.0029s-16.334 44.666 -29.001 63.999l-343 -344c40 -28.667 87 -43 141 -43c34 0 65.833 6.16699 95.5 18.5s55.167 29.666 76.5 51.999
s38.166 48.666 50.499 78.999s18.5 63.5 18.5 99.5zM555.002 891l-128 -167h-78l79 186h127v-19z" />
    <glyph glyph-name="oslashacute" unicode="&#x1ff;" horiz-adv-x="617" 
d="M577 450l-56 -56.999c14.667 -20.667 26.167 -43.5 34.5 -68.5s12.5 -51.5 12.5 -79.5c0 -36 -6.83301 -69.5 -20.5 -100.5s-32.334 -58 -56.001 -81s-51.334 -41.167 -83.001 -54.5s-65.5 -20 -101.5 -20c-28 0 -54.167 3.83301 -78.5 11.5s-47.166 18.5 -68.499 32.5
l-56 -57l-64 64l55 55c-15.333 21.333 -27 44.666 -35 69.999s-12 52 -12 80c0 36 6.66699 69.667 20 101s31.833 58.5 55.5 81.5s51.334 41.167 83.001 54.5s65.5 20 101.5 20c28 0 54.333 -4 79 -12s47.667 -19 69 -33l57 56zM308 411.001
c-23.333 0 -44.833 -4.16699 -64.5 -12.5s-36.5 -19.833 -50.5 -34.5s-25 -32.167 -33 -52.5s-12 -42.5 -12 -66.5c0 -32 6.66699 -60.667 20 -86l227 227c-25.333 16.667 -54.333 25 -87 25zM468 245.001c0 31.333 -6.66895 59.667 -20.002 85l-228 -227
c24.667 -16.667 53.667 -25 87 -25c22.667 0 43.834 4.16699 63.501 12.5s36.834 20 51.501 35s26 32.667 34 53s12 42.5 12 66.5zM476.998 761.002l-128 -193h-78l79 212h127v-19z" />
    <glyph glyph-name="Scommaaccent" unicode="&#x218;" horiz-adv-x="559" 
d="M282 671c48.667 0 91.3359 -11.1641 128.003 -33.4971s65 -50.5 85 -84.5l-74 -57c-17.333 25.333 -37.666 45 -60.999 59s-49.333 21 -78 21c-26.667 0 -50 -6.5 -70 -19.5s-30 -33.167 -30 -60.5c0 -12.667 2.33301 -23.5 7 -32.5s11 -17 19 -24s17.667 -13.333 29 -19
l37 -18.5l74 -34c24.667 -11.333 47 -23.333 67 -36s36.667 -26.5 50 -41.5s23.666 -31.5 30.999 -49.5s11 -38.333 11 -61c0 -29.333 -5.66699 -55.833 -17 -79.5s-27 -43.667 -47 -60s-43.5 -29 -70.5 -38s-56.167 -13.5 -87.5 -13.5c-55.333 0 -104.333 12.833 -147 38.5
s-76.667 60.5 -102 104.5l75 57c9.33301 -14 19.833 -27.333 31.5 -40s24.5 -23.834 38.5 -33.501s29.5 -17.334 46.5 -23.001s35.833 -8.5 56.5 -8.5c34 0 61.5 8.16699 82.5 24.5s31.5 38.833 31.5 67.5c0 12.667 -2.33301 23.834 -7 33.501s-11.334 18.167 -20.001 25.5
s-18.834 14.166 -30.501 20.499s-24.834 12.833 -39.501 19.5l-73 34c-21.333 10 -41.333 20.667 -60 32s-35 24.333 -49 39s-25 31.167 -33 49.5s-12 39.166 -12 62.499c0 27.333 5.5 52 16.5 74s26 40.833 45 56.5s41 27.667 66 36s51.833 12.5 80.5 12.5z
M313.002 -219.997h-81l6 172h101z" />
    <glyph glyph-name="scommaaccent" unicode="&#x219;" horiz-adv-x="455" 
d="M233 502c36 0 68.167 -6.49902 96.5 -19.499s52.833 -31.833 73.5 -56.5l-57 -65c-16 16 -34 28.333 -54 37s-40.667 13 -62 13c-19.333 0 -35.333 -3.83301 -48 -11.5s-19 -19.5 -19 -35.5c0 -13.333 5.33301 -24 16 -32s27.334 -16.667 50.001 -26l46 -19
c44.667 -18.667 78.334 -39 101.001 -61s34 -51 34 -87c0 -24.667 -4.83301 -46.334 -14.5 -65.001s-22.834 -34.334 -39.501 -47.001s-36 -22.167 -58 -28.5s-45.333 -9.5 -70 -9.5c-44 0 -82.667 8.83301 -116 26.5s-60.666 40.5 -81.999 68.5l59 66
c20 -20.667 41.167 -37.5 63.5 -50.5s47.5 -19.5 75.5 -19.5c21.333 0 39.666 4.5 54.999 13.5s23 22.833 23 41.5c0 16 -6.33301 28.167 -19 36.5s-29 16.5 -49 24.5l-50 21c-20 8 -37.833 16.5 -53.5 25.5s-29 19.167 -40 30.5s-19.5 24 -25.5 38s-9 30.333 -9 49
c0 22.667 4.5 42.834 13.5 60.501s21.167 32.5 36.5 44.5s33.666 21.167 54.999 27.5s44 9.5 68 9.5zM265 -219.999h-81l6 172h101z" />
    <glyph glyph-name="uni021A" unicode="&#x21a;" horiz-adv-x="583" 
d="M566 565h-222v-565h-106v565h-222v95h550v-95zM316 -220h-81l6 172h101z" />
    <glyph glyph-name="uni021B" unicode="&#x21b;" horiz-adv-x="398" 
d="M352 400l-147.001 0.000976562v-231c0 -32.667 8.5 -55 25.5 -67s41.167 -18 72.5 -18c8.66699 0 18.334 0.5 29.001 1.5s22.334 2.16699 35.001 3.5v-89c-13.333 -3.33301 -26.833 -6 -40.5 -8s-28.834 -3 -45.501 -3c-54.667 0 -98.5 13.667 -131.5 41
s-49.5 70.666 -49.5 129.999v240h-80v91h80v129h105v-129h147v-91zM249.999 -219.999h-81l6 172h101z" />
    <glyph glyph-name="dotlessj" unicode="&#x237;" horiz-adv-x="257" 
d="M181 -20c0 -59.333 -16.165 -102.668 -48.498 -130.001s-74.5 -41 -126.5 -41c-26.667 0 -49.334 3 -68.001 9v89c8.66699 -1.33301 16.167 -2.16602 22.5 -2.49902s13.166 -0.5 20.499 -0.5c30 0 53.333 6.16699 70 18.5s25 34.5 25 66.5v502h105v-511z" />
    <glyph glyph-name="uni0259" unicode="&#x259;" horiz-adv-x="570" 
d="M270 502c36.667 0 70.666 -6.5 101.999 -19.5s58.333 -31 81 -54s40.5 -50 53.5 -81s19.5 -64.5 19.5 -100.5c0 -36.667 -6.5 -70.667 -19.5 -102s-31 -58.5 -54 -81.5s-49.833 -41.167 -80.5 -54.5s-64 -20 -100 -20c-33.333 0 -63.833 5.66699 -91.5 17
s-51.5 27 -71.5 47s-35.667 43.667 -47 71s-17 57.333 -17 90c0 13.333 0.833008 25.833 2.5 37.5s3.16699 21.167 4.5 28.5h367c-6.66699 40 -23.5 71.5 -50.5 94.5s-60.833 34.5 -101.5 34.5c-27.333 0 -52.666 -5.16699 -75.999 -15.5s-45 -24.5 -65 -42.5l-51 72
c26 24.667 55.5 44 88.5 58s68.5 21 106.5 21zM274.999 78c35.333 0 65.668 10.668 91.001 32.001s42.333 50.666 51 87.999h-268c0 -19.333 3.5 -36.5 10.5 -51.5s16.167 -27.5 27.5 -37.5s24.666 -17.667 39.999 -23s31.333 -8 48 -8z" />
    <glyph glyph-name="circumflex" unicode="&#x2c6;" horiz-adv-x="398" 
d="M368 568h-79l-90 109l-90 -109h-79l135 212h68z" />
    <glyph glyph-name="caron" unicode="&#x2c7;" horiz-adv-x="398" 
d="M233 568h-68l-135 212h79l90 -109l90 109h79z" />
    <glyph glyph-name="breve" unicode="&#x2d8;" horiz-adv-x="384" 
d="M354 742c0 -23.333 -4.00098 -44.833 -12.001 -64.5s-19.167 -36.834 -33.5 -51.501s-31.333 -26 -51 -34s-41.5 -12 -65.5 -12s-45.833 4 -65.5 12s-36.667 19.333 -51 34s-25.5 31.834 -33.5 51.501s-12 41.167 -12 64.5h85c0 -25.333 7.33301 -45.333 22 -60
s33 -22 55 -22c22.667 0 41.334 7.33301 56.001 22s22 34.667 22 60h84z" />
    <glyph glyph-name="dotaccent" unicode="&#x2d9;" horiz-adv-x="204" 
d="M102 744c19.333 0 36.166 -6.83301 50.499 -20.5s21.5 -30.167 21.5 -49.5s-7.16699 -35.666 -21.5 -48.999s-31.166 -20 -50.499 -20c-20 0 -37 6.66699 -51 20s-21 29.666 -21 48.999s7 35.833 21 49.5s31 20.5 51 20.5z" />
    <glyph glyph-name="ring" unicode="&#x2da;" horiz-adv-x="297" 
d="M148 785c17.333 0 33.333 -3 48 -9s27.167 -14.167 37.5 -24.5s18.5 -22.666 24.5 -36.999s9 -29.5 9 -45.5s-3 -31 -9 -45s-14.167 -26.167 -24.5 -36.5s-22.833 -18.5 -37.5 -24.5s-30.667 -9 -48 -9s-33.166 3 -47.499 9s-26.666 14.167 -36.999 24.5
s-18.5 22.5 -24.5 36.5s-9 29 -9 45s3 31.167 9 45.5s14.167 26.666 24.5 36.999s22.666 18.5 36.999 24.5s30.166 9 47.499 9zM149 716c-13.333 0 -24.333 -4.5 -33 -13.5s-13 -20.167 -13 -33.5s4.33301 -24.166 13 -32.499s19.667 -12.5 33 -12.5
c12.667 0 23.334 4.16699 32.001 12.5s13 19.166 13 32.499s-4.33301 24.5 -13 33.5s-19.334 13.5 -32.001 13.5z" />
    <glyph glyph-name="ogonek" unicode="&#x2db;" horiz-adv-x="253" 
d="M218 0l-45.002 -29c-13.333 -8.66699 -24.166 -16.334 -32.499 -23.001s-12.5 -15.667 -12.5 -27c0 -22 14 -33 42 -33c6.66699 0 14.167 0.666992 22.5 2l25.5 4v-73c-10 -3.33301 -22.167 -6.16602 -36.5 -8.49902s-28.5 -3.5 -42.5 -3.5
c-35.333 0 -63.166 8.5 -83.499 25.5s-30.5 39.5 -30.5 67.5c0 14 2.83301 26.833 8.5 38.5s14.5 23.167 26.5 34.5s27.5 22.5 46.5 33.5s41.833 22.833 68.5 35.5z" />
    <glyph glyph-name="tilde" unicode="&#x2dc;" horiz-adv-x="409" 
d="M129 748c25.333 0 48.6689 -8.00098 70.002 -24.001l27 -20c7.33301 -6 14.166 -10.833 20.499 -14.5s13.166 -5.5 20.499 -5.5c10 0 17.167 3.66699 21.5 11s6.5 16.333 6.5 27v14h83c0.666992 -5.33301 1 -10.166 1 -14.499v-14.5c0 -35.333 -9 -64.166 -27 -86.499
s-42 -33.5 -72 -33.5c-23.333 0 -46.666 8 -69.999 24l-26 20c-8 6 -15 11 -21 15s-13 6 -21 6c-10 0 -17.167 -3.5 -21.5 -10.5s-6.5 -16.167 -6.5 -27.5v-14h-82c-1.33301 5.33301 -2 10.166 -2 14.499v14.5c0 36 9.16699 64.833 27.5 86.5s42.166 32.5 71.499 32.5z" />
    <glyph glyph-name="hungarumlaut" unicode="&#x2dd;" horiz-adv-x="429" 
d="M399 761l-117 -193h-73l79 212h111v-19zM220 761l-118 -193h-72l79 212h111v-19z" />
    <glyph glyph-name="uni030C" unicode="&#x30c;" horiz-adv-x="180" 
d="M106 542h-76l9 208h111z" />
    <glyph glyph-name="uni0326" unicode="&#x326;" horiz-adv-x="167" 
d="M111 -220h-81l6 172h101z" />
    <glyph glyph-name="Wgrave" unicode="&#x1e80;" horiz-adv-x="1051" 
d="M734 214l165 446h117l-257 -671h-36l-197 468l-197 -468h-36l-257 671h117l164 -447l191 458h36zM565 724h-78l-128 167v19h127z" />
    <glyph glyph-name="wgrave" unicode="&#x1e81;" horiz-adv-x="854" 
d="M596 173l127 318h111l-217 -502h-36l-155 328l-153 -328h-36l-218 502h112l129 -321l149 332h36zM464 568h-78l-128 193v19h127z" />
    <glyph glyph-name="Wacute" unicode="&#x1e82;" horiz-adv-x="1051" 
d="M734 214l165 446h117l-257 -671h-36l-197 468l-197 -468h-36l-257 671h117l164 -447l191 458h36zM691 891l-128 -167h-78l79 186h127v-19z" />
    <glyph glyph-name="wacute" unicode="&#x1e83;" horiz-adv-x="854" 
d="M596 173l127 318h111l-217 -502h-36l-155 328l-153 -328h-36l-218 502h112l129 -321l149 332h36zM593 761l-128 -193h-78l79 212h127v-19z" />
    <glyph glyph-name="Wdieresis" unicode="&#x1e84;" horiz-adv-x="1051" 
d="M734 214l165 446h117l-257 -671h-36l-197 468l-197 -468h-36l-257 671h117l164 -447l191 458h36zM648 877c18.667 0 34.5 -6.33301 47.5 -19s19.5 -28.334 19.5 -47.001c0 -17.333 -6.5 -32.5 -19.5 -45.5s-28.833 -19.5 -47.5 -19.5c-17.333 0 -33 6.5 -47 19.5
s-21 28.167 -21 45.5c0 18.667 7 34.334 21 47.001s29.667 19 47 19zM403 877c18.667 0 34.5 -6.16699 47.5 -18.5s19.5 -27.833 19.5 -46.5c0 -17.333 -6.5 -32.5 -19.5 -45.5s-28.833 -19.5 -47.5 -19.5c-17.333 0 -33 6.5 -47 19.5s-21 28.167 -21 45.5
c0 18.667 7 34.167 21 46.5s29.667 18.5 47 18.5z" />
    <glyph glyph-name="wdieresis" unicode="&#x1e85;" horiz-adv-x="854" 
d="M596 173l127 318h111l-217 -502h-36l-155 328l-153 -328h-36l-218 502h112l129 -321l149 332h36zM537 740c18.667 0 34.5 -6.16699 47.5 -18.5s19.5 -28.166 19.5 -47.499c0 -17.333 -6.5 -32.5 -19.5 -45.5s-28.833 -19.5 -47.5 -19.5c-17.333 0 -33 6.5 -47 19.5
s-21 28.167 -21 45.5c0 19.333 7 35.166 21 47.499s29.667 18.5 47 18.5zM312 740c18.667 0 34.5 -6.16699 47.5 -18.5s19.5 -28.166 19.5 -47.499c0 -17.333 -6.5 -32.5 -19.5 -45.5s-28.833 -19.5 -47.5 -19.5c-17.333 0 -33 6.5 -47 19.5s-21 28.167 -21 45.5
c0 19.333 7 35.166 21 47.499s29.667 18.5 47 18.5z" />
    <glyph glyph-name="uni1E9E" unicode="&#x1e9e;" horiz-adv-x="720" 
d="M625 631l-126.001 -215.999c24 -4.66699 46.667 -12.834 68 -24.501s40 -26.5 56 -44.5s28.833 -39 38.5 -63s14.5 -50.333 14.5 -79c0 -32.667 -6 -62.167 -18 -88.5s-28 -48.833 -48 -67.5s-43.5 -33.167 -70.5 -43.5s-55.5 -15.5 -85.5 -15.5
c-36.667 0 -71.667 7.5 -105 22.5s-62 35.5 -86 61.5l59 75c17.333 -18 36.5 -32.833 57.5 -44.5s44.167 -17.5 69.5 -17.5c16.667 0 32.334 3 47.001 9s27.167 14.167 37.5 24.5s18.5 22.833 24.5 37.5s9 31 9 49c0 38.667 -13.5 68.667 -40.5 90s-64.5 32 -112.5 32h-60
v28l122 209h-287v-565h-106v660h542v-29z" />
    <glyph glyph-name="Ygrave" unicode="&#x1ef2;" horiz-adv-x="620" 
d="M363 266v-266h-106v266l-228 394h118l163 -288l164 288h118zM347 724h-78l-128 167v19h127z" />
    <glyph glyph-name="ygrave" unicode="&#x1ef3;" horiz-adv-x="549" 
d="M291 -56c-20.667 -47.333 -45.501 -81.666 -74.501 -102.999s-64.5 -32 -106.5 -32c-13.333 0 -27 0.833008 -41 2.5s-27.333 4.16699 -40 7.5v89c12 -1.33301 22.667 -2.33301 32 -3s18.333 -1 27 -1c22.667 0 42.834 4.66699 60.501 14s33.167 28.666 46.5 57.999
l20 46l-196 469h113l140 -358l146 358h112zM311.999 568h-78l-128 193v19h127z" />
    <glyph glyph-name="uni2009" unicode="&#x2009;" horiz-adv-x="147" 
 />
    <glyph glyph-name="endash" unicode="&#x2013;" horiz-adv-x="504" 
d="M465 273h-426v89h426v-89z" />
    <glyph glyph-name="emdash" unicode="&#x2014;" horiz-adv-x="1000" 
d="M950 273h-900v89h900v-89z" />
    <glyph glyph-name="uni2015" unicode="&#x2015;" horiz-adv-x="1000" 
d="M950 273h-900v89h900v-89z" />
    <glyph glyph-name="quoteleft" unicode="&#x2018;" horiz-adv-x="291" 
d="M192 392h-121l49 268h81z" />
    <glyph glyph-name="quoteright" unicode="&#x2019;" horiz-adv-x="291" 
d="M170 392h-81l9 268h121z" />
    <glyph glyph-name="quotesinglbase" unicode="&#x201a;" horiz-adv-x="291" 
d="M170 -161h-81l9 267h121z" />
    <glyph glyph-name="quotedblleft" unicode="&#x201c;" horiz-adv-x="500" 
d="M192 392h-121l49 268h81zM402 392h-121l49 268h81z" />
    <glyph glyph-name="quotedblright" unicode="&#x201d;" horiz-adv-x="500" 
d="M380 392h-81l9 268h121zM170 392h-81l9 268h121z" />
    <glyph glyph-name="quotedblbase" unicode="&#x201e;" horiz-adv-x="500" 
d="M170 -161h-81l9 267h121zM380 -161h-81l9 267h121z" />
    <glyph glyph-name="dagger" unicode="&#x2020;" horiz-adv-x="467" 
d="M286 611h126v-91h-126v-233h-105v233h-126v91h126v139h105v-139z" />
    <glyph glyph-name="daggerdbl" unicode="&#x2021;" horiz-adv-x="467" 
d="M286 641h126v-91h-126v-131h126v-91h-126v-110h-105v110h-126v91h126v131h-126v91h126v109h105v-109z" />
    <glyph glyph-name="bullet" unicode="&#x2022;" horiz-adv-x="402" 
d="M201 413c20 0 38.833 -3.5 56.5 -10.5s33.167 -17 46.5 -30s23.833 -28.333 31.5 -46s11.5 -36.834 11.5 -57.501s-3.83301 -39.834 -11.5 -57.501s-18.167 -32.834 -31.5 -45.501s-28.833 -22.5 -46.5 -29.5s-36.5 -10.5 -56.5 -10.5s-38.833 3.5 -56.5 10.5
s-33.167 16.833 -46.5 29.5s-24 27.834 -32 45.501s-12 36.834 -12 57.501s4 39.834 12 57.501s18.667 33 32 46s28.833 23 46.5 30s36.5 10.5 56.5 10.5z" />
    <glyph glyph-name="ellipsis" unicode="&#x2026;" horiz-adv-x="778" 
d="M389 144c21.333 0 39.5 -7.33301 54.5 -22s22.5 -33.334 22.5 -56.001s-7.5 -41.167 -22.5 -55.5s-33.167 -21.5 -54.5 -21.5c-22 0 -40.5 7.16699 -55.5 21.5s-22.5 32.833 -22.5 55.5s7.5 41.334 22.5 56.001s33.5 22 55.5 22zM135 144
c21.333 0 39.5 -7.33301 54.5 -22s22.5 -33.334 22.5 -56.001s-7.5 -41.167 -22.5 -55.5s-33.167 -21.5 -54.5 -21.5c-22 0 -40.5 7.16699 -55.5 21.5s-22.5 32.833 -22.5 55.5s7.5 41.334 22.5 56.001s33.5 22 55.5 22zM643 144c21.333 0 39.5 -7.33301 54.5 -22
s22.5 -33.334 22.5 -56.001s-7.5 -41.167 -22.5 -55.5s-33.167 -21.5 -54.5 -21.5c-22 0 -40.5 7.16699 -55.5 21.5s-22.5 32.833 -22.5 55.5s7.5 41.334 22.5 56.001s33.5 22 55.5 22z" />
    <glyph glyph-name="perthousand" unicode="&#x2030;" horiz-adv-x="1202" 
d="M989 316c23.333 0 45.166 -4.16699 65.499 -12.5s38.166 -19.666 53.499 -33.999s27.333 -31.5 36 -51.5s13 -41.667 13 -65s-4.33301 -44.833 -13 -64.5s-20.667 -36.667 -36 -51s-33.166 -25.666 -53.499 -33.999s-42.166 -12.5 -65.499 -12.5s-45 4.16699 -65 12.5
s-37.5 19.666 -52.5 33.999s-26.833 31.333 -35.5 51s-13 41.167 -13 64.5s4.33301 45 13 65s20.5 37.167 35.5 51.5s32.5 25.666 52.5 33.999s41.667 12.5 65 12.5zM990 241c-24.667 0 -44.667 -8.33301 -60 -25s-23 -37.667 -23 -63s7.66699 -46.166 23 -62.499
s35.333 -24.5 60 -24.5c24 0 43.833 8.16699 59.5 24.5s23.5 37.166 23.5 62.499s-7.83301 46.333 -23.5 63s-35.5 25 -59.5 25zM607 315c22.667 0 44.334 -4.16699 65.001 -12.5s38.5 -19.666 53.5 -33.999s27 -31.5 36 -51.5s13.5 -41.667 13.5 -65
s-4.5 -44.833 -13.5 -64.5s-21 -36.667 -36 -51s-32.833 -25.666 -53.5 -33.999s-42.334 -12.5 -65.001 -12.5c-23.333 0 -45 4.16699 -65 12.5s-37.5 19.666 -52.5 33.999s-26.833 31.333 -35.5 51s-13 41.167 -13 64.5s4.33301 45 13 65s20.5 37.167 35.5 51.5
s32.5 25.666 52.5 33.999s41.667 12.5 65 12.5zM608 240c-24.667 0 -44.667 -8.33301 -60 -25s-23 -37.667 -23 -63s7.66699 -46.166 23 -62.499s35.333 -24.5 60 -24.5c23.333 0 42.833 8.16699 58.5 24.5s23.5 37.166 23.5 62.499s-7.83301 46.333 -23.5 63
s-35.167 25 -58.5 25zM213 671c22.667 0 44.167 -4.16699 64.5 -12.5s38.166 -19.666 53.499 -33.999s27.333 -31.5 36 -51.5s13 -41.333 13 -64c0 -23.333 -4.33301 -45 -13 -65s-20.667 -37.167 -36 -51.5s-33.166 -25.666 -53.499 -33.999s-41.833 -12.5 -64.5 -12.5
c-23.333 0 -45.166 4.16699 -65.499 12.5s-38 19.666 -53 33.999s-26.833 31.5 -35.5 51.5s-13 41.667 -13 65c0 22.667 4.33301 44 13 64s20.5 37.167 35.5 51.5s32.667 25.666 53 33.999s42.166 12.5 65.499 12.5zM213 597c-24.667 0 -44.667 -8.33301 -60 -25
s-23 -37.667 -23 -63s7.66699 -46.333 23 -63s35.333 -25 60 -25c24 0 43.833 8.33301 59.5 25s23.5 37.667 23.5 63s-7.83301 46.333 -23.5 63s-35.5 25 -59.5 25zM265 0h-88l378 660h89z" />
    <glyph glyph-name="minute" unicode="&#x2032;" horiz-adv-x="268" 
d="M149 382h-82l38 278h123z" />
    <glyph glyph-name="second" unicode="&#x2033;" horiz-adv-x="477" 
d="M149 382h-82l38 278h123zM359 382h-82l38 278h123z" />
    <glyph glyph-name="guilsinglleft" unicode="&#x2039;" horiz-adv-x="323" 
d="M288 425l-138 -153l138 -155l-68 -59l-186 199v29l186 199z" />
    <glyph glyph-name="guilsinglright" unicode="&#x203a;" horiz-adv-x="323" 
d="M289 286v-29l-186 -199l-68 59l138 155l-138 153l68 60z" />
    <glyph glyph-name="fraction" unicode="&#x2044;" horiz-adv-x="244" 
d="M-23 0h-88l378 660h89z" />
    <glyph glyph-name="uni2070" unicode="&#x2070;" horiz-adv-x="415" 
d="M208 787c28 0 52.167 -5.33301 72.5 -16s37.166 -25.5 50.499 -44.5s23.166 -41.333 29.499 -67s9.5 -53.5 9.5 -83.5s-3.16699 -58.333 -9.5 -85s-16.166 -50 -29.499 -70s-30.166 -35.667 -50.499 -47s-44.5 -17 -72.5 -17c-27.333 0 -51.166 5.66699 -71.499 17
s-37.166 27 -50.499 47s-23.333 43.333 -30 70s-10 55 -10 85s3.33301 57.833 10 83.5s16.667 48 30 67s30.166 33.833 50.499 44.5s44.166 16 71.499 16zM207 711c-27.333 0 -47 -11.667 -59 -35s-18 -57 -18 -101s6.16699 -78.833 18.5 -104.5s31.833 -38.5 58.5 -38.5
c28 0 48 12.833 60 38.5s18 60.5 18 104.5s-6 77.667 -18 101s-32 35 -60 35z" />
    </font>
</defs>
</svg>
